<svg xmlns="http://www.w3.org/2000/svg" viewBox="0 0 3000 3000" width="3000" height="3000"><g transform="translate(374.0 1975.0) rotate(0.0 311.0 445.5) scale(0.9603626527007497 0.9608509839825817)"><svg width="647.672" height="927.303" viewBox="0 0 647.672 927.303"><path d="M647.672 927.303h-42.205L474.958 103.245c-.011-.011-.011-.021-.011-.021l-9.418-59.487h89.56l3.022 28.881 89.56 854.684zM182.142 43.737l-2.99 18.889L42.205 927.303H0L92.582 43.737z" fill="#756551"/><path d="M647.672 927.303S538.063 219.218 533.711 208.172c-4.321-10.961-57.912-103.49-58.753-104.927-.011-.011-.011-.021-.011-.021l83.165-30.605zm-605.467 0s87.219-719.791 87.219-729.368-43.067-94.711-43.067-94.711l10.248-59.487 5.151-29.903 47.43 29.903 29.967 18.889z" fill="#35281c" opacity=".4"/><path d="M54.38 0h531.058c18.432 0 32.257 16.863 28.642 34.938l-5.782 28.912H31.521l-5.782-28.912C22.123 16.863 35.948 0 54.38 0z" fill="#e2ab69"/><rect fill="#35281c" height="39.374" rx="9.298" width="608.702" x="15.558" y="63.85"/></svg></g><g transform="translate(395.0 214.0) rotate(0.0 845.5 575.0) scale(1.128579284863823 1.1292156566241756)"><svg width="1498.344" height="1018.406" viewBox="0 0 1498.344 1018.406"><rect fill="#35281c" height="1018.406" rx="10" width="1498.344"/><rect fill="#756551" height="977.967" rx="10.642" width="1451.521" x="23.412" y="21.283"/><g fill="#35281c"><path d="M1474.932 66.042v922.567c0 5.874-4.767 10.642-10.642 10.642H34.053s1237.624-287.324 1247.116-290.9 193.763-642.309 193.763-642.309z" opacity=".15"/><circle cx="73.959" cy="64.914" r="14.366"/><circle cx="73.959" cy="951.363" r="14.366"/><circle cx="1430.77" cy="64.914" r="14.366"/><circle cx="1430.77" cy="951.363" r="14.366"/><path d="M654.334 389.154c-.574-4.725-.936-8.992-.936-12.6 0-9.716 6.874-32.01 0-38.885-1.043-1.043-2.571-1.901-4.405-2.584a1.869 1.869 0 0 0 1.212-1.746v-4.769a1.872 1.872 0 0 0-1.872-1.872h-6.088V192.624l3.725-6.566-3.725-27.498h-12.632l-3.714 27.498 3.714 6.662v133.978h-10.525a1.872 1.872 0 0 0-1.872 1.872v4.769c0 1.034.838 1.872 1.872 1.872h4.186c-1.685.662-3.089 1.479-4.068 2.458-6.8 6.811 0 28.892 0 38.523 0 25.668-18.144 84.527 0 102.681 6.044 6.044 28.147 6.044 34.191 0 15.537-15.537 4.384-60.998.936-89.72z" opacity=".4"/></g><path d="m637.456 179.674-3.725 6.565v174.034H621.1V186.335l-3.714-6.661 3.139-23.242.575-4.256h12.631l.575 4.256z" fill="#b0ab98"/><path d="M644.884 472.489c-6.044 6.044-28.147 6.044-34.191 0-18.144-18.155 0-77.014 0-102.681 0-9.631-6.8-31.712 0-38.523 6.044-6.045 28.147-6.045 34.191 0 6.874 6.874 0 29.169 0 38.885 0 3.607.362 7.875.936 12.6 3.448 28.722 14.601 74.183-.936 89.72z" fill="#3d3124"/><path d="M633.731 187.218v9.865L621.1 218.558v-11.386zm0 24.966v17.048L621.1 252.016v-19.879z" fill="#fff" opacity=".4"/><path d="M644.884 472.489c-6.044 6.044-28.147 6.044-34.191 0 18.112-12.121 28.924-53.059 35.128-89.72 3.448 28.722 14.601 74.183-.936 89.72z" fill="#19130d" opacity=".35"/><rect fill="#33281e" height="8.513" rx="1.872" width="32.989" x="610.831" y="321.378"/><path d="M634.306 156.432h-13.781l.575-4.256h12.631z" fill="#fff" opacity=".4"/><path d="M554.045 407.381c-.574-4.725-.936-8.992-.936-12.6 0-9.716 6.874-51.165 0-58.04a8.621 8.621 0 0 0-1.315-1.063c.313-.335.508-.781.508-1.275v-4.769a1.872 1.872 0 0 0-1.872-1.872h-8.471v-22.198l3.725-6.566.064-46.419.032-17.793.01-11.919v-.011l.021-10.131.096-68.543.011-6.906h-20.219v6.906l-.053 97.446-.011 11.238v13.387l-.011 19.644-.011 13.1 3.714 6.662v22.103h-8.142a1.872 1.872 0 0 0-1.872 1.872v4.769c0 .584.273 1.099.691 1.442-.4.284-.77.58-1.087.897-6.8 6.811 0 48.047 0 57.678 0 25.668-18.144 84.527 0 102.681 6.044 6.044 28.147 6.044 34.192 0 15.537-15.537 4.384-60.998.936-89.72z" fill="#35281c" opacity=".4"/><path d="m536.339 131.956-.011 6.907-.095 68.543-.022 10.13v.011l-.01 11.919-.032 17.793-.064 46.419-3.725 6.566v79.322h-12.631v-79.227l-3.714-6.661.01-13.1.011-19.645v-13.387l.011-11.238.053-97.445v-6.907z" fill="#b0ab98"/><path d="M543.531 491.78c-6.044 6.044-28.147 6.044-34.191 0-18.144-18.155 0-77.014 0-102.681 0-9.631-6.8-50.867 0-57.678 6.044-6.045 28.147-6.045 34.191 0 6.874 6.874 0 48.324 0 58.04 0 3.607.362 7.875.936 12.6 3.448 28.722 14.601 74.183-.936 89.72z" fill="#3d3124"/><path d="M543.531 491.78c-6.044 6.044-28.147 6.044-34.191 0 18.112-12.121 28.924-53.059 35.128-89.72 3.448 28.722 14.601 74.183-.936 89.72z" fill="#19130d" opacity=".35"/><rect fill="#33281e" height="8.513" rx="1.872" width="32.989" x="509.735" y="322.442"/><path d="m536.339 131.956-.011 6.907H516.12v-6.907zm-.106 75.45-.022 10.13v.011l-20.155 29.999.011-11.238zm-.032 22.06-.032 17.793-20.124 33.319.011-19.645z" fill="#fff" opacity=".4"/><path d="M258.156 474.607a5.783 5.783 0 0 0-.139-.313l-.026-.054a15.83 15.83 0 0 0-.195-.388l-.007-.014c-1.67-3.224-7.771-13.038-11.706-19.299-2.003-3.191-3.442-5.46-3.442-5.46l-1.461-138.074-.029-2.885-.01-.871v-.081l-.096-9.178-.011-.926-.149-13.994s2.27-4.173 5.199-9.874l.374-.73.24-.469c2.364-4.627 5.06-10.079 7.327-15.103a159.371 159.371 0 0 0 2.107-4.868l.061-.149a117.766 117.766 0 0 0 .631-1.579c.139-.357.273-.706.401-1.049l.123-.33c.139-.376.269-.742.393-1.098l.058-.166c.14-.41.27-.805.388-1.183l.059-.198c.09-.296.173-.582.248-.856.03-.11.056-.215.083-.321.057-.223.108-.437.154-.643.023-.107.046-.212.066-.314.039-.2.07-.388.097-.57.012-.083.027-.17.036-.249.029-.249.048-.483.048-.691 0-5.161-9.716-18.25-16.101-25.242-2.511-2.746-4.512-4.555-5.183-4.555-1.064 0-5.321 1.064-5.321 2.128 0 .319.692 2.522 1.639 5.449 2.139 6.683 5.587 17.144 5.087 17.708 0 0-.011 0-.032.021-.021.011-.053.021-.096.053-.011 0-.032.011-.043.011-2.096.915-22.752 7.96-23.742 7.225-.585-.436-3.48-9.992-5.736-16.654-1.213-3.607-2.245-6.364-2.618-6.364-1.064 0-4.257 1.064-5.321 2.128-.532.532-1.16 3.522-1.692 7.513-1.149 8.588-1.884 21.847-.436 25.476 1.139 2.841 15.537 25.54 15.537 25.54l.468 44.525.117 10.993.138 13.057.202 19.176.819 78.259s-18.091 33.245-18.091 40.438c0 4.799 8.407 16.452 14.717 23.678 3.15 3.608 5.768 6.119 6.566 6.119 1.064 0 5.321-1.064 5.321-2.128 0-.373-.926-3.278-2.097-6.906-2.15-6.651-5.097-15.728-4.618-16.25 0 0 .043-.021.128-.075 1.841-.819 22.688-7.939 23.763-7.247l.011.011c.575.426 3.342 9.545 5.576 16.175 1.288 3.841 2.384 6.843 2.778 6.843 1.064 0 4.257-1.064 5.321-2.128.542-.532 1.17-3.565 1.703-7.619 1.149-8.588 1.873-21.752.426-25.37l-.011-.011z" fill="#35281c" opacity=".4"/><path d="M249.653 469.297c1.447 3.618.724 16.782-.426 25.37-.532 4.054-1.16 7.087-1.703 7.619-1.064 1.064-4.257 2.128-5.321 2.128-.394 0-1.49-3.001-2.778-6.843-2.235-6.63-5.002-15.75-5.576-16.175l-.011-.011c-1.075-.692-21.922 6.428-23.763 7.247-.085.053-.128.075-.128.075-.479.521 2.469 9.599 4.618 16.25 1.171 3.629 2.097 6.534 2.097 6.906 0 1.064-4.257 2.128-5.321 2.128-.798 0-3.416-2.511-6.566-6.119-6.31-7.226-14.717-18.878-14.717-23.678 0-7.194 18.091-40.438 18.091-40.438l-.819-78.259-.202-19.176-.138-13.057-.117-10.993-.468-44.525s-14.398-22.699-15.537-25.54c-1.447-3.629-.713-16.888.436-25.476.532-3.991 1.16-6.981 1.692-7.513 1.064-1.064 4.257-2.128 5.321-2.128.373 0 1.405 2.756 2.618 6.364 2.256 6.662 5.151 16.218 5.736 16.654.99.734 21.645-6.31 23.742-7.225.011 0 .032-.011.043-.011.043-.032.074-.043.096-.053.021-.021.032-.021.032-.021.5-.564-2.947-11.025-5.087-17.708-.947-2.926-1.639-5.129-1.639-5.449 0-1.064 4.257-2.128 5.321-2.128.671 0 2.671 1.809 5.183 4.555 6.385 6.992 16.101 20.081 16.101 25.242 0 5.885-12.099 29.201-16.516 37.491-.979 1.841-1.575 2.948-1.575 2.948l1.756 166.01s.575.915 1.511 2.394c3.725 5.896 13.089 20.826 14.005 23.135l.011.011z" fill="#b0ab98"/><path d="M230.413 232.882c-1.99 1.043-20.826 10.812-21.837 10.812-1.064 0-1.905-3.586-1.905-3.586.99.734 21.645-6.31 23.742-7.225zm20.049 4.427c0 7.194-18.091 40.438-18.091 40.438s-1.926-4.959-1.447-6.385c1.064-3.192 19.538-34.053 19.538-34.053zM233.84 481.385c-1.075-.692-21.922 6.428-23.763 7.247 1.703-1.022 19.836-11.887 20.847-11.887 1.032 0 2.81 4.363 2.916 4.64zm15.803-12.099c-.436-.489-14.483-15.984-15.803-17.697-1.341-1.745.287-7.832.287-7.832s14.366 22.645 15.516 25.529z" fill="#8e8a7e"/><path d="m230.924 290.176-.022 10.131-23.911 32.957-.117-10.992zm-1.064 23.125-.032 17.792-22.497 34.405-.202-19.176z" fill="#fff" opacity=".4"/><path d="m235.638 446.151-1.798 5.438c-2.405-3.873-4.757-58.912-5.044-81.259-.117-8.301-.287-22.262-.298-37.203v-1.884c0-5.3.021-10.695.075-15.984.043-4.097.096-8.13.181-11.993v-.17c.075-3.459.17-6.8.287-9.929l.011-.33c0-.053 0-.117.011-.17.362-9.833.947-17.655 1.862-21.305l3.022 3.437c-.979 1.841-1.575 2.948-1.575 2.948l.149 13.994.011.926.096 9.248.01.883.117 11.461.191 17.995 1.181 111.503s.575.915 1.511 2.394z" fill="#8e8a7e"/><path d="m200.936 223.453-9.631 3.278c.532-3.991 1.16-6.981 1.692-7.513 1.064-1.064 4.257-2.128 5.321-2.128.373 0 1.405 2.756 2.618 6.364zm33.425-11.386-8.865 3.022c-.947-2.926-1.639-5.129-1.639-5.449 0-1.064 4.257-2.128 5.321-2.128.671 0 2.671 1.809 5.183 4.555zm-19.794 292.89c1.171 3.629 2.097 6.534 2.097 6.906 0 1.064-4.257 2.128-5.321 2.128-.798 0-3.416-2.511-6.566-6.119l9.79-2.916zm34.66-10.291c-.532 4.054-1.16 7.087-1.703 7.619-1.064 1.064-4.257 2.128-5.321 2.128-.394 0-1.49-3.001-2.778-6.843l9.801-2.905z" fill="#fff" opacity=".4"/><path d="m232.627 301.914-3.874 1.352v-.171l.287-9.928.011-.33v-.17h.01l3.459-.926.011.926zm.319 30.339-4.449.873V315.28l.075-.021 4.182-1z" fill="#b0ab98" opacity=".6"/><path d="M100.031 363.944H712.99v40.438H100.031z" fill="#efbf7f"/><circle cx="125.039" cy="384.696" fill="#c68d4e" r="9.045"/><circle cx="687.983" cy="384.696" fill="#c68d4e" r="9.045"/><path d="M1282.319 285.196c-1.671-17.559 7.556-40.364 2.128-50.016-5.236-9.301-13.696-16.282-21.996-20.581-6.906-3.586-13.707-5.31-18.442-4.959-43.631 3.193-68.107 11.706-68.107 11.706s-8.513 2.128-9.439 9.801l-.889 8.394-.026.003-99.212 9.62-46.674 4.523-25.902 2.511-20.145 1.958-162.626 15.771c-2.703.266-3.98 3.48-2.182 5.523l39.651 45.12.5.575c.234.266.479.5.734.734l10.759 11.408a5.351 5.351 0 0 0 5.204 1.043l16.016-6.034 1.352.202 11.312 7.864a5.327 5.327 0 0 0 4.64.713l13.419-4.203.915.138 3.746 2.607 7.811 5.427a5.291 5.291 0 0 0 4.64.713l13.707-4.289.394.064.713.5 11.078 7.705a5.357 5.357 0 0 0 4.64.713l12.408-3.895 1.511-.468 11.972 8.333a5.364 5.364 0 0 0 4.64.713l13.919-4.363 9.716 6.757 2.256 1.575a5.356 5.356 0 0 0 4.64.713l13.919-4.353 11.972 8.322a5.327 5.327 0 0 0 4.64.713l13.919-4.352 11.983 8.332a5.317 5.317 0 0 0 4.64.702l13.919-4.352 11.972 8.332a5.357 5.357 0 0 0 4.64.713l13.919-4.353 11.982 8.322a5.327 5.327 0 0 0 4.64.713l13.93-4.352 8.098 4.863a5.38 5.38 0 0 0 4.778.351v-.011a5.133 5.133 0 0 0 1.298-.756l4.225-3.374c.202-.128.383-.276.553-.436l.309-.255-.021-.075c.221-.282.395-.604.518-.95l2.462 7.814a13.089 13.089 0 0 0 7.215 8.045 12.871 12.871 0 0 0 5.3 1.128h30.818c14.898 0 60.764-9.045 70.235-48.952 2.746-11.557-8.609-35.096-10.642-56.401zm-411.587 4.257-23.326 2.107a3.186 3.186 0 0 1-3.458-2.895c-.011-.096-.011-.191-.011-.298a3.18 3.18 0 0 1 2.894-3.171l23.326-2.107a3.187 3.187 0 0 1 3.459 2.894c.011.096.011.191.011.298a3.18 3.18 0 0 1-2.895 3.171zm384.983 63.85c-5.331 0-11.759-3.937-17.782-11.152-9.599-11.514-18.155-31.393-19.464-56.954-2.128-41.502 36.022-49.335 40.438-41.279 5.651 10.312 2.118 21.369 1.479 35.852-.213 4.619-.128 9.599.649 15.005 3.767 26.338 12.898 58.529-5.321 58.529z" fill="#35281c" opacity=".4"/><path d="m1165.409 362.742-6.161-129.786c-.096-1.905-1.756-3.352-3.65-3.161l-1.756.17-99.212 9.62-46.674 4.523-25.902 2.511-20.145 1.958-162.626 15.771c-2.703.266-3.98 3.48-2.182 5.523l39.651 45.12.5.575c.234.266.479.5.734.734l10.759 11.408a5.351 5.351 0 0 0 5.204 1.043l16.016-6.034 1.352.202 11.312 7.864a5.327 5.327 0 0 0 4.64.713l13.419-4.203.915.138 3.746 2.607 7.811 5.427a5.291 5.291 0 0 0 4.64.713l13.707-4.289.394.064.713.5 11.078 7.705a5.357 5.357 0 0 0 4.64.713l12.408-3.895 1.511-.468 11.972 8.332a5.364 5.364 0 0 0 4.64.713l13.919-4.363 9.716 6.757 2.256 1.575a5.356 5.356 0 0 0 4.64.713l13.919-4.353 11.972 8.322a5.327 5.327 0 0 0 4.64.713l13.919-4.353 11.983 8.332a5.317 5.317 0 0 0 4.64.702l13.919-4.352 11.972 8.332a5.357 5.357 0 0 0 4.64.713l13.919-4.353 11.983 8.322a5.327 5.327 0 0 0 4.64.713l13.93-4.352 8.098 4.863a5.38 5.38 0 0 0 4.778.351v-.011a5.133 5.133 0 0 0 1.298-.756l4.225-3.374c.202-.128.383-.276.553-.436l.309-.255-.021-.075a3.268 3.268 0 0 0 .702-2.192zm-306.384-82.867-23.326 2.107a3.187 3.187 0 0 1-3.459-2.894c-.011-.096-.011-.191-.011-.298a3.18 3.18 0 0 1 2.894-3.171l23.326-2.107a3.187 3.187 0 0 1 3.459 2.894c.011.096.011.191.011.298a3.18 3.18 0 0 1-2.894 3.171z" fill="#b0ab98"/><path d="m1164.707 364.934.021.075-.309.255c-.17.16-.351.309-.553.436l-4.225 3.374a5.211 5.211 0 0 1-1.298.756s-17.559-63.35-18.623-66.542c-1.032-3.097 13.259-69.33 14.121-73.321l1.756-.17c1.894-.191 3.554 1.256 3.65 3.161l6.161 129.786a3.273 3.273 0 0 1-.702 2.192z" fill="#8e8a7e"/><path d="M1270.613 275.619c-1.671-17.559 7.556-40.364 2.128-50.016-5.236-9.301-13.696-16.282-21.996-20.581-6.906-3.586-13.707-5.31-18.442-4.959-43.631 3.192-68.107 11.706-68.107 11.706s-8.513 2.128-9.439 9.801l-8.386 79.195c-.17 1.66-.011 3.342.489 4.938l20.826 66.095a13.089 13.089 0 0 0 7.215 8.045 12.871 12.871 0 0 0 5.3 1.128h30.818c14.898 0 60.764-9.045 70.235-48.952 2.746-11.557-8.609-35.096-10.642-56.401zm-26.604 68.107c-5.331 0-11.759-3.937-17.782-11.152-9.599-11.514-18.155-31.393-19.464-56.954-2.128-41.502 36.022-49.335 40.438-41.279 5.651 10.312 2.118 21.369 1.479 35.852-.213 4.619-.128 9.599.649 15.005 3.767 26.338 12.898 58.529-5.321 58.529z" fill="#3d3124"/><path d="M1281.254 332.019c-9.471 39.906-55.337 48.952-70.235 48.952h-30.818c-1.873 0-3.671-.394-5.3-1.128 23.39-11.833 39.832-28.658 51.325-47.27 6.023 7.215 12.451 11.152 17.782 11.152 18.218 0 9.088-32.191 5.321-58.529-.777-5.406-.862-10.386-.649-15.005 5.172-30.499 3.012-56.741 2.065-65.169 8.3 4.299 16.761 11.28 21.996 20.581 5.427 9.652-3.799 32.457-2.128 50.016 2.033 21.305 13.387 44.844 10.642 56.401z" fill="#19130d" opacity=".35"/><circle cx="1164.728" cy="262.317" fill="#756551" r="4.789"/><circle cx="1170.049" cy="327.231" fill="#756551" r="4.789"/><path d="m982.054 246.62-49.441 85.835-.713-.5-.394-.064-13.707 4.289a5.292 5.292 0 0 1-4.64-.713l-7.811-5.427 56.56-81.462 20.145-1.958zm72.576-7.034-52.133 108.364-9.716-6.757-13.919 4.363a5.364 5.364 0 0 1-4.64-.713l-11.972-8.332-1.511.468 47.217-92.869 46.674-4.523z" fill="#fff" opacity=".4"/></svg></g><g transform="translate(199.0 854.0) rotate(0.0 654.0 582.0) scale(1.1277310620071026 1.1299138877482973)"><svg width="1159.851" height="1030.167" viewBox="0 0 1159.851 1030.167"><linearGradient id="a" gradientTransform="matrix(.07409496 -.01161621 .01148818 .07411504 -12068.156 -4500.296)" gradientUnits="userSpaceOnUse" x1="155875.306" x2="156542.356" y1="88273.719" y2="88273.719"><stop offset=".197" stop-color="#fdb899"/><stop offset=".724" stop-color="#f89578"/></linearGradient><linearGradient xmlns:xlink="http://www.w3.org/1999/xlink" id="b" gradientTransform="matrix(-.97629223 .21645665 -.21645665 -.97629223 -9719.872 1888.522)" x1="-10498.286" x2="-10467.894" xlink:href="#a" y1="-578.401" y2="-578.401"/><path d="m196.354 813.815 93.362 30.439-45.309 87.097-83.94-40.372z" fill="#b0ab98"/><path d="M98.389 947.809c12.63-1.768 65.169-47.066 65.169-47.066s13.708 20.056 16.109 18.477c2.386-1.575 14.879-26.071 16.666-32.678 1.059-3.94-3.13-3.66-6.678-2.796 20.867-9.319 42.309-61.55 40.114-67.502-1.203-3.276 3.648-2.185-14.494-9.456l-.014.004a1276.09 1276.09 0 0 0-12.385-4.897 149.354 149.354 0 0 1-8.829-3.776c-6.252-2.895-12.161-6.073-17.547-9.148-15.754-9.031-27.001-17.265-28.983-15.309-3.401 3.356-27.534 47.343-49.103 87.887l-.005.01c-18.77 35.264-35.599 67.916-35.135 68.892.983 2.097 27.589 18.41 35.116 17.358zm86.871-62.667c-.009-.028-.018-.056-.023-.094.149-.017.295-.049.449-.076-.187.069-.337.133-.426.17z" fill="#1b2b44"/><path d="M98.413 861.55c21.569-40.544 45.702-84.531 49.103-87.887 1.982-1.956 13.229 6.278 28.983 15.309 5.386 3.075 11.295 6.253 17.547 9.148a149.64 149.64 0 0 0 8.829 3.776c5.016 1.961 9.087 3.568 12.385 4.897-1.005-.031-65.616-1.2-116.848 54.756z" fill="#142135"/><path d="M159.226 787.129c.01-1.3-4.733-5.332-7.589-3.871-2.857 1.462-31.752 52.396-41.793 72.084s-37.2 70.079-36.921 72.395c.278 2.315 4.861 3.728 5.502 3.52 1.749-.567 11.836-26.069 36.62-71.803 35.327-65.191 44.159-69.418 44.182-72.325zm19.788 78.102c2.943 1.078 5.886 2.156 3.468 5.721s-15.585 25.634-18.783 31.586c-3.497 6.508.571-30.469-2.013-32.528s-5.825 36.016-7.862 40.393-6.474-23.618-8.965-23.861-3.51 33.661-6.55 35.886c-3.04 2.224-6.985-9.019-9.306-8.757s-5.953 20.797-8.089 22.169 1.319-27.987 4.621-27.89 10.5 13.86 11.578 10.917 1.782-41.443 6.116-41.061 8.657 21.994 9.376 20.032 1.963-34.299 8.032-37.114c4.021-1.865 7.848 2.875 5.828 26.614 0 0 8.625-23.545 12.549-22.107z" fill="#fff"/><path d="M579.583 980.851c-50.016 43.631-322.442-30.861-347.982-39.374-7.513-8.875-4.086-52.666 2.724-83.835l.064-.287c.234-1.054.468-2.096.713-3.118 3.661-15.718 8.173-27.53 12.461-28.754 6.289-1.798 40.023 8.726 77.077 20.932l2.597.862c.681.223 1.373.458 2.054.67 0 0 .011 0 .021.011 0 .011.011.011.021.011 49.409 16.335 102.873 34.862 104.277 30.818 23.316-73.3-13.93-196.594 28.286-267.819 68.33-9.407 131.616-49.909 149.611-11.089 22.539 48.643 29.988 326.965-31.925 380.971z" fill="#582c0d"/><path d="M326.95 856.535c-6.821 5.523-92.157.873-92.157.873l-.468.234.064-.287c.234-1.054.468-2.096.713-3.118 3.661-15.718 8.173-27.53 12.461-28.754 6.289-1.798 40.023 8.726 77.077 20.932l2.597.862c.681.223 1.373.458 2.054.67 0 0 .011 0 .021.011 0 .011.011.011.021.011.447.351 4.023 3.373-2.384 8.566zm125.29 133.017s77.55 7.447 96.483-248.138c2.128-28.732 5.528-52.411 8.513-43.631 0 78.748-17.027 296.902-104.996 291.769z" fill="#44220b"/><path d="m91.831 871.475 98.179 1.966-18.015 96.511-92.054-14.211z" fill="#b0ab98"/><path d="M551.947 654.142c-.011.798-.021 1.607-.043 2.416-.043 1.969-.096 3.969-.149 6.002-2.746 95.37-24.816 261.167-76.46 317.227-37.246 40.438-330.178.17-340.533 0-10.354-.149-4.363-113.227 3.331-122.57 3.459-4.204 185.548 3.48 188.815-3.437 29.839-67.958 8.492-188.176 51.42-256.145.553-.883 1.128-1.756 1.703-2.618a.08.08 0 0 0 .021-.042c.085-.117.16-.224.245-.34a107.26 107.26 0 0 1 2.969-4.193c3.991-.128 7.917-.255 11.78-.372 63.041-2.022 110.62-3.788 150.388 2.841 4.757.787 7.141 24.997 6.513 61.232z" fill="#582c0d"/><path d="M368.869 705.516s40.084-5.449 45.509-11.47 21.868-36.586 18.351-38.829-24.04 29.363-28.246 31.693-42.687 19.568-35.613 18.607zm-41.961 148.263c21.751 5.757 43.035 19.591 31.329 21.72-5.339.971-12.77-13.834-40.277-19.755-14.939-3.216 8.948-1.964 8.948-1.964z" fill="#44220b"/><path d="M38.962 1029.159c11.328-5.859 45.861-66.022 45.861-66.022s19.586 14.371 21.327 12.086c1.729-2.277 5.386-29.531 4.879-36.357-.308-4.068-4.167-2.414-7.228-.422 16.593-15.715 19.491-72.102 15.445-76.988-2.222-2.691 2.716-3.272-16.81-4.111l-.012.009c-3.552-.16-7.926-.326-13.308-.511a149.9 149.9 0 0 1-9.582-.632c-6.859-.657-13.487-1.694-19.589-2.808-17.858-3.293-31.2-7.328-32.421-4.826-2.094 4.294-10.266 53.796-17.161 99.2v.011C4.356 987.283-.685 1023.669.076 1024.436c1.623 1.652 32.135 8.213 38.886 4.724zm61.157-87.941c-.018-.024-.036-.047-.052-.081.135-.066.262-.144.398-.22-.154.127-.274.237-.346.302z" fill="#24385b"/><path d="M10.364 947.778c6.895-45.404 15.066-94.906 17.161-99.2 1.221-2.503 14.563 1.533 32.421 4.826 6.102 1.114 12.73 2.151 19.589 2.808 3.153.307 6.36.527 9.582.632 5.383.185 9.756.35 13.308.511-.958.304-62.298 20.639-92.061 90.424z" fill="#1b2b44"/><path d="M43.04 857.396c-.422-1.23-6.234-3.46-8.444-1.133s-12.568 59.963-15.508 81.867-11.84 78.452-10.809 80.544 5.823 1.904 6.358 1.495c1.461-1.116 2.516-28.52 10.721-79.886 11.696-73.219 18.625-80.137 17.682-82.887zm44.58 67.112c3.134.041 6.268.081 5.169 4.246s-6.197 29.352-7.239 36.029c-1.139 7.299-9.571-28.933-12.691-30.018-3.121-1.085 6.455 35.908 5.985 40.713s-13.943-20.132-16.374-19.534c-2.431.597 7.858 32.919 5.728 36.026s-9.582-6.191-11.684-5.173c-2.103 1.018 1.284 21.594-.275 23.597-1.56 2.003-8.042-26.839-4.894-27.843s14.504 9.591 14.545 6.457-12.07-39.686-7.854-40.764S73.5 966.119 73.527 964.03s-9.528-33.007-4.737-37.676c3.175-3.094 8.358.108 14.328 23.172 0 0 .324-25.073 4.503-25.019z" fill="#fff"/><path d="M986.179 473.154c11.33-14.059 37.096-37.146 58.171-39.187 21.075-2.042 49.717-14.064 50.239-7.995 1.52 17.691-22.64 28.875-22.64 28.875 21.385.552 39.546 1.439 54.483 2.661 10.129.829 40.873 8.742 23.223 18.216 18.953 4.775 8.843 17.056-8.83 18.295 12.494-.876 19.039 15.779-21.287 16.201 14.929 2.307 18.617 11.644-16.24 17.979-14.594 2.652-35.734 9.934-74.16 5.017-25.52-3.265-27.389-3.647-35.687-8.606-6.588-3.937-12.435-45.048-7.271-51.455h-.001z" fill="#ffb493"/><path d="M1078.452 451.095s-29.489 3.672-35.397 6.297c-15.792 7.016-22.934 24.2-22.021 24.97 0 0 9.869-19.345 26.926-21.394 16.732-2.01 23.987-6.121 23.987-6.121a50.318 50.318 0 0 0 6.505-3.752zm-8.075 24.148c33.065-7.198 81.877-1.492 81.877-1.492l-2.6 1.972s-83.59.459-79.278-.48zm.682 16.717c-4.531-2.6 76.006 1.11 76.006 1.11l-6.24.948s-64.438 1-69.766-2.058zm3.073 18.987c-4.05-1.06 45.405-.73 45.405-.73l4.65 1.057s-43.538 1.379-50.056-.328z" fill="#f79173"/><path d="M997.8 537.988c-7.971 5.693-140.576 54.155-191.241 51.229-53.698-3.097-129.126-65.936-142.683-77.599-1.383-1.181-2.128-1.841-2.128-1.841 0 .021-.011.032-.021.053-.319.798-3.959 10.269-8.354 28.318a423.877 423.877 0 0 0-1.83 7.832c-2.98 13.366-6.14 30.424-8.716 51.133-2.905 23.146-176.343 28.828-181.089 27.679-.138-.021-58.306-15.143-81.547-29.818h-.01c-.021-.011-.043-.021-.064-.043a11.502 11.502 0 0 1-.596-.372c-21.411-13.621-7.705-62.062 1.224-114.579v-.011a614.979 614.979 0 0 0 2.352-14.835c10.205-70.267 3.001-167.255 56.922-173.022 2.958-.319 6.917-.575 11.716-.798a588.71 588.71 0 0 1 12.813-.394l1.533-.032c1.394-.032 2.831-.053 4.289-.075h.01c3.533-.053 7.247-.096 11.131-.107h.553c1.352-.011 2.735-.021 4.129-.011 1.224-.011 2.458-.011 3.714-.011h.543c36.299.064 83.207 1.437 119.133 4.278l.458.032c4.554.362 8.928.745 13.089 1.16 4.214.404 8.183.84 11.887 1.309 6.97.862 12.983 1.82 17.697 2.863 1.298.298 2.49.596 3.586.894 45.535 12.514 154.602 155.517 157.092 157.092 0 0 159.359-2.277 168.468 0 14.824 3.693 24.635 73.47 15.941 79.674z" fill="#e3e0d6"/><path d="M419.958 598.816c1.447-.894-20.219-24.476-39.215-118.835v-.011a614.979 614.979 0 0 0 2.352-14.835s17.08 71.416 36.022 100.947c18.41 28.732 12.547 38.055.841 32.734z" fill="#b0ab98"/><path d="M664.269 509.533c-.128.692-.266 1.394-.394 2.086-21.166 113.866-11.11 139.778-41.726 148.174a495.179 495.179 0 0 1-70.246-3.235c-80.961-9.524-144.822-37.405-171.873-61.541.043-.011.096-.021.149-.042h.01c1.831-.415 8.088-.575 16.356-5.736 39.545-24.721 85.314-145.737 83.314-220.857-.713-26.274-5.651-53.24-28.126-77.067-.117-.117-.234-.223-.33-.341 4.735-6.087 23.89-7.151 30.658-.266 25.881 33.159 37.97 69.894 47.504 102.724l107.385 6.821s-4.768-49.718-27.371-105.288c-.202-4.757 22.145-3.693 25.434 2.501 33.819 78.408 36.054 175.768 29.254 212.067z" fill="#582c0d"/><path d="M536.393 453.363c-.391 9.796 2.473 98.438 9.764 103.731 7.292 5.293 90.628 5.219 93.54 2.434s3.381-99.035-.521-101.181c-3.903-2.146-102.524-11.476-102.783-4.983z" fill="#44220b"/><path d="M512.87 615.399c-49.302 0-99.035-11.383-128.631-145.706-38.176-173.262 55.874-180.931 67.161-178.717 33.012 4.553 84.549 191.325 86.513 193.516 0 0 168.473-1.138 178.717 2.277 13.66 1.138 21.628 83.098 7.968 87.651-10.336 3.445-151.398 40.98-211.729 40.98z" fill="#e3e0d6"/><path d="M537.913 484.491s-28.565 6.844-32.821 5.78c-4.257-1.064-.253-13.977 31.266-10.181zm128.994.398s48.632-1.011 52.485 3.25 5.585 10.377 5.585 10.377l5.717-1.859s-2.128-10.642-7.449-13.834-56.062-4.556-56.062-4.556l-.276 6.623z" fill="#b0ab98"/><path d="M737.163 489.646s47.284-29.826 54.492-34.631c3.075-2.05 6.762 7.523-1.025 20.501-3.075 5.125-11.305 14.924-23.381 23.171 0 0-17.948 11.239-30.086-9.042z" fill="#f79173"/><path d="M874.321 542.511c-4.098 5.346-13.791 5.355-19.262 4.875 0 0-.009 0-.038-.01-.067 0-.231-.019-.49-.048a55.654 55.654 0 0 1-2.908-.355c-.019-.01-.029-.01-.048-.01-.009 0-.019 0-.029-.01-.096-.01-.192-.019-.307-.038-.058-.029-.106-.048-.134-.038v.01l.009.01c.47.413 13.15 10.749-1.065 13.215-16.58 2.876-47.291 4.796-70.324 4.796-15.534 0-61.099-4.93-61.512-5.055-.105.01-.211.019-.326.019-9.797-2.302-21.314-47.408-2.793-61.758 50.299-21.123 69.426-17.841 69.426-17.841s82.018 7.649 80.885 13.1c-.701 3.33-2.486 5.672-4.732 7.323-.172.115-.345.24-.528.365-5.73 3.82-13.993 3.522-15.576 3.436-.038 0-.086-.01-.125-.01h-.134c.278.134 3.522 1.785 7.659 4.232.249.144.509.307.768.47.087.038.163.106.25.154h.009c7.851 4.741 18.235 12.063 18.907 17.899.413 3.714-5.691 4.396-5.691 4.396s11.19 6.852 8.11 10.873z" fill="#ffb493"/><path d="M789.879 527.825s-.24 1.152 2.37 3.743c8.781 8.177 46.508 13.705 58.859 15.327h.01c.048 0 .086 0 .125.019.115.009.221.029.307.038.01.009.019.009.029.009.019 0 .029 0 .048.01 1.363.163 2.351.288 2.908.355.259.029.422.048.489.048l-65.145-19.55zm2.994-14.655s.931 4.136 6.392 5.595c5.259 1.392 62.276 11.996 66.681 12.812l-73.073-18.408zm51.7-8.676c7.15.605 11.929-.902 15.576-3.436.173-.125.355-.249.528-.374l-71.768-2.169 64.08 10.826c-.086-.058-.163-.115-.25-.154a23.48 23.48 0 0 0-.768-.47c-3.733-2.304-6.315-3.733-7.639-4.233q-.01-.009-.019-.009l.134.009c.038 0 .086.009.125.009z" fill="#f79173"/><path d="M624.448 669.029c-9.748 2.15-52.315.021-82.111-5.3-115.464-20.618-163.881-65.978-163.881-65.978s-.043-.043-.128-.117c.553-.883 1.128-1.756 1.703-2.618a.08.08 0 0 0 .021-.042c46.323 36.395 118.112 52.25 171.895 59.168 41.534 5.331 72.331 5.331 72.331 5.331z" fill="#44220b"/><path d="M524.459 256.225c7.403 2.847 28.389 2.191 55.249 2.818-.736 10.16-1.131 20.968-3.425 33.372-1.064 20.535-55.73 19.359-56.107-4.119l4.282-32.072z" fill="#f89578"/><path d="M445.279 208.248c9.355 4.485 23.393-2.423 23.165-3.454 6.46 9.033 17.686 34.634 50.443 52.553 10.842 5.934 43.254 17.826 74.034 8.816 16.922-4.953 43.448-17.899 59.05-47.935 3.267-6.287 5.153-12.411 6.029-18.265 2.242-14.975-2.176-28.125-7.093-37.63-4.471-8.621-9.344-14.244-10.079-15.499 1.547-7.924 9.341-42.717-11.567-72.058-32.747-45.94-98.609-30.953-102.314-30.324-6.506 1.106-56.522 9.972-69.344 60.129-8.581 33.525 6.705 66.816 7.185 68.164-.05-.061-.134-.222-.277-.492-5.643-10.607-10.411-23.872-25.837-21.545-25.748 3.896-17.639 45.939 6.606 57.54z" fill="#ffb493"/><path d="M465.324 173.99c8.045-18.681 18.871-62.783 44.154-62.794 33.455-.014 36.916-10.969 64.668-25.676 20.25-10.731 45.719-6.71 58.682-4.918-1.857.137-19.768-65.722-117.444-34.395-35.755 10.61-67.002 41.955-60.71 89.357 3.893 29.314 10.649 38.425 10.649 38.425z" fill="#f89578"/><path d="M554.178 184.962c2.145 13.361-7.2 25.869-20.871 27.938-13.672 2.07-26.493-7.083-28.638-20.444s7.2-25.869 20.871-27.938c13.672-2.069 26.494 7.085 28.638 20.444z" fill="url(#a)"/><path d="M635.681 199.266c3.543 2.651 7.263 3.448 8.35 3.639 6.061 1.059 11.43-1.441 13.968-2.941 2.242-14.975-2.176-28.125-7.093-37.63-5.158-.515-14.044-.058-19.745 7.609-6.841 9.229-4.524 22.557 4.52 29.323z" fill="url(#b)"/><ellipse cx="549.255" cy="148.462" fill="#020202" rx="8.363" ry="8.921" transform="matrix(.01488711 -.99988918 .99988918 .01488711 392.628 695.445)"/><ellipse cx="620.267" cy="142.504" fill="#020202" rx="8.363" ry="8.921" transform="matrix(.01486966 -.99988944 .99988944 .01486966 468.562 760.585)"/><path d="M633.003 80.155c-64.45-34.779-92.068 24.924-119.072 13.196-25.653-11.141-51.745 49.617-46.871 85.807-7.417-21.598-19.115-34.464-39.102-23.019-26.09-24.492-3.689-59.303-4.807-65.994-8.931-22.299 16.037-61.441 50.611-52.535 12.249-41.266 54.895-33.627 65.784-24.561 11.142-23.423 26.759-11.163 33.457 4.447 13.374-18.963 46.831-14.517 46.845 20.053 40.15 11.135 32.361 50.169 13.156 42.606z" fill="#f48544"/><path d="M577.856 180.547c-1.383-5.028 16.295-16.854 23.315-12.41 2.192 1.389 3.654 4.561 3.218 7.282-.592 3.701-4.542 5.614-6.371 6.501-7.792 3.774-19.161 2.264-20.162-1.373z" fill="#f89578"/><path d="M621.098 197.021c1.941.822-14.313 28.834-28.941 30.03-16.46 1.346-34.281-19.313-33.637-26.544.463-5.181 59.303-4.873 62.579-3.485z" fill="#fff"/><path d="M621.098 197.021c-8.397-5.968-61.267-1.611-63.918 2.364-3.267 4.895 26.885 2.089 39.844 1.294 28.744-1.764 24.304-3.495 24.074-3.658z" fill="#f89578"/><g fill="#f48544"><path d="M558.99 112.762c2.237.952 6.141 6.195-.985 7.765-32.262 7.106-47.637 17.617-45.403 12.892 4.833-10.217 32.78-26.45 46.388-20.657zm44.541-3.539c-1.634 1.172-4.235 6.308 1.295 6.553 25.042 1.115 37.478 7.799 35.447 4.068-4.394-8.074-26.799-17.745-36.743-10.621zm-3.746-46.017s26.773 21.177-4.446 34.572c0 0 8.057-9.636 4.361-16.982-6.604-13.126-30.021-9.771-26.676-10.887 3.345-1.117 26.761-6.702 26.761-6.702zm-168.436-1.592s-5.869-16.558 3.663-28.748c9.532-12.189 43.013 4.782 43.013 4.782l-4.551.376s-24.366-10.994-31.835-3.646-7.022 26.965-7.022 26.965l-3.267.27z"/></g></svg></g><g transform="translate(1067.0 1102.0) rotate(0.0 263.0 233.0) scale(1.137855769209969 1.1374092940495921)"><svg width="462.273" height="409.703" viewBox="0 0 462.273 409.703"><path d="M0 131.956h233.052v5.321H0zM112.831 0h212.833L212.862 131.956H.029z" fill="#e2ab69"/><path d="M22.773 125.571h404.383v284.132H22.773z" fill="#efbf7f"/><path d="M246.248 409.703H22.773V125.571L123.869 7.449l122.379 118.122z" fill="#ffdaa3"/><path d="M351.6 0H113.227l111.737 131.956h237.309z" fill="#efbf7f"/><path d="M7.875 392.677h238.373v17.027H7.875z" fill="#ffdaa3"/><path d="M246.248 392.677H440.99v17.027H246.248zm-102.16-193.428c0 18.098-7.642 36.269-18.091 42.316h-9.577c-15.281 0-27.668-18.946-27.668-42.316s12.388-42.316 27.668-42.316c1.91 0 7.449-.501 11.706.563 12.608 3.946 15.962 21.304 15.962 41.753z" fill="#efbf7f"/><g fill="#e2ab69"><path d="M151.537 199.249c0 23.371-12.388 42.316-27.668 42.316s-25.54-19.196-25.54-42.567 10.259-42.066 25.54-42.066 27.668 18.946 27.668 42.316zm94.711-67.293h180.908v260.721l-30.838-141.665z"/><path d="M246.248 392.677h180.908l-2.129-10.642z"/></g><path d="M246.248 392.677 22.46 382.035v10.642z" fill="#efbf7f"/><path d="M87.687 257.528h73.427v9.577H87.687z" fill="#e2ab69"/><path d="M82.366 257.528h39.374v9.577H82.366z" fill="#efbf7f"/><ellipse cx="233.284" cy="105.886" fill="#e2ab69" rx="5.495" ry="6.716" transform="matrix(.82507405 -.56502461 .56502461 .82507405 -19.021 150.334)"/><ellipse cx="148.752" cy="15.895" fill="#e2ab69" rx="5.495" ry="6.716" transform="matrix(.82507405 -.56502461 .56502461 .82507405 17.04 86.829)"/><path d="M269.924 374.722c0 3.709-2.46 6.716-5.495 6.716s-5.495-3.007-5.495-6.716 2.46-6.716 5.495-6.716 5.495 3.007 5.495 6.716z" fill="#e2ab69"/><path d="m22.773 137.277 3.193-9.577L134.51 25.135l-12.82-15.14-98.917 115.576z" fill="#efbf7f" opacity=".52"/><path d="M224.964 131.956h237.309v7.449H224.964zm0 7.45L113.227 0l111.737 131.956z" fill="#e2ab69"/></svg></g><g transform="translate(1617.0 1521.0) rotate(0.0 173.5 23.5) scale(1.152215274987631 1.1324755433473086)"><svg width="301.159" height="41.502" viewBox="0 0 301.159 41.502"><path d="M301.159 20.751c0 5.725-2.32 10.918-6.076 14.675a20.694 20.694 0 0 1-14.675 6.076H0V0h280.407c7.566 0 14.196 4.055 17.814 10.11h.011a20.751 20.751 0 0 1 2.926 10.642z" fill="#efbf7f"/><path d="M301.159 20.751c0 5.725-2.32 10.918-6.076 14.675a20.694 20.694 0 0 1-14.675 6.076H0s253.271-12.77 255.4-13.834 42.822-17.559 42.822-17.559h.011a20.751 20.751 0 0 1 2.926 10.642z" fill="#e2ab69"/></svg></g><g transform="translate(2055.0 1825.0) rotate(0.0 362.5 520.0) scale(1.119393767215504 1.1215320127293884)"><svg width="647.672" height="927.303" viewBox="0 0 647.672 927.303"><path d="M647.672 927.303h-42.205L474.958 103.245c-.011-.011-.011-.021-.011-.021l-9.418-59.487h89.56l3.022 28.881 89.56 854.684zM182.142 43.737l-2.99 18.889L42.205 927.303H0L92.582 43.737z" fill="#756551"/><path d="M647.672 927.303S538.063 219.218 533.711 208.172c-4.321-10.961-57.912-103.49-58.753-104.927-.011-.011-.011-.021-.011-.021l83.165-30.605zm-605.467 0s87.219-719.791 87.219-729.368-43.067-94.711-43.067-94.711l10.248-59.487 5.151-29.903 47.43 29.903 29.967 18.889z" fill="#35281c" opacity=".4"/><path d="M54.38 0h531.058c18.432 0 32.257 16.863 28.642 34.938l-5.782 28.912H31.521l-5.782-28.912C22.123 16.863 35.948 0 54.38 0z" fill="#e2ab69"/><rect fill="#35281c" height="39.374" rx="9.298" width="608.702" x="15.558" y="63.85"/></svg></g><g transform="translate(1470.0 448.0) rotate(0.0 586.0 1237.0) scale(1.136204997750857 1.135804894979366)"><svg width="1031.504" height="2178.191" viewBox="0 0 1031.504 2178.191"><linearGradient id="c" gradientTransform="matrix(-1.096 -0 0 -1.096 -27231.057 4059.677)" gradientUnits="userSpaceOnUse" x1="-25396.347" x2="-25343.872" y1="3493.434" y2="3493.434"><stop offset=".382" stop-color="#f89578"/><stop offset=".994" stop-color="#fdb899"/></linearGradient><linearGradient id="d" gradientTransform="matrix(1.00551118 -.05473816 .05118642 1.07380522 -16445.35 -4158.731)" gradientUnits="userSpaceOnUse" x1="16538.794" x2="16573.227" y1="4944.774" y2="4944.774"><stop offset=".197" stop-color="#fdb899"/><stop offset=".724" stop-color="#f89578"/></linearGradient><path d="M438.242 1827.577s-7.822 71.812-6.222 125.217c1.067 35.61 16.567 71.028-8.104 104.391-27.91 37.743-170.642 8.848-170.642 8.848s-55.826-58.587 35.824-93.054c43.943-16.526 32.566-137.743 32.566-137.743l116.578-7.658z" fill="#b0ab98"/><path d="M834.534 926.198s-498.655 113.417-575.518 236.755c-45.759 73.427 6.42 654.06 19.155 686.386 13.834 35.117 182.061 44.958 186.229 7.449 7.449-67.042 22.459-389.446 21.283-531.018 135.469-19.31 303.81-250.889 348.849-399.573h.001z" fill="#44220b"/><path d="M453.224 1937.082c2.586 7.935-10.47 29.556-10.47 29.556l6.493 83.28c12.238-1.779 13.836 50.729 4.805 64.5-9.03 13.77-48.387 6.582-104.173 7.435-36.006.55-63.761-6.111-101.404 9.035-96.847 38.97-187.262 2.132-209.059-9.282-12.265-12.432-17.993-42.449 2.938-58.836 48.524-9.932 211.441-73.538 248.229-137.808 9.734-17.004 1.615-34.385 10.217-42.759 19.21-18.7 77.192 32.27 74.618 39.575.126-2.014 71.48-4.11 77.806 15.305z" fill="#020202"/><path d="M440.881 2072.381c-1.533 7.71-5.303 17.152-8.366 22.464 2.009 4.169-66.572 14.862-122.993 7.475-20.376-2.668-47.069 5.163-89.921 20.184-43.149 17.042-181.247-7.037-175.822-11.432-3.448-4.803-2.182-11.678-1.893-16.525 0 0 115.944 28.352 173.142 12.034 57.197-16.319 75.938-22.451 99.609-19.205 34.833 4.778 120.299-6.733 126.246-14.993zm-18.961-33.187 1.528 11.24s-30.979 5.956-53.651 2.22c-22.977-3.787-20.003-4.441-43.238-.07-18.557 3.492-59.759 21.241-59.759 21.241l-4.445-3.345s64.721-34.214 94.227-30.093c29.412 4.105 65.339-1.193 65.339-1.193zm-372.107 22.152c10.467 19.525 64.489 23.753 137.591 21.277 0 0-92.638 12.819-127.522-6.564-16.452-9.105-17.528-13.288-17.528-13.288zm227.796-120.002c-1.958-9.102 79.412-7.881 74.91 18.05-.605 3.483-1.694 4.07-5.667 4.777-5.071.905-65.28-9.366-74.946-4.904 0 0 52.159 10.765 59.473 22.389 2.2 3.496 2.018 9.582-.604 15.614-2.767 6.364-83.991-24.641-92.47-15.886 0 0 62.14 9.676 61.795 41.658-.047 4.366-4.003 11.929-8.619 9.26-57.022-32.964-78.827-25.391-78.827-25.391s42.104 23.153 44.186 41.844c.927 8.322-5.655 14.788-8.303 13.767-14.32-5.523-61.999-41.573-66.098-38.655 0 0 41.769 27.264 40.504 51.532-.261 4.994-1.717 7.078-3.559 5.9-24.118-15.436-50.388-40.637-90.29-47.913.321-4.768 9.901-7.333 13.799-7.454 3.898-.12 33.49 11.051 71.773 41.943 6.166-15.236-36.536-39.378-58.744-46.281-2.717-.845 9.901-7.333 15.287-7.78 13.207-1.097 82.846 35.644 77.855 38.597 5.403-19.675-42.316-40.368-59.594-47.031-1.324-.51 6.926-6.678 11.389-7.66 21.426-4.711 89.218 16.248 87.716 24.281-5.378-21.568-23.979-32.937-63.658-37.673-3.207-.383 3.951-6.025 10.465-8.194 16.437-5.473 85.392 9.698 84.162 12.989 6.233-15.184-42.814-22.076-66.618-24.213-.69-.062 4.784-7.451 10.671-10.448 28.941-14.732 77.244.272 77.244.272 2.366-6.622-26.216-13.203-63.233-13.392z" fill="#fff"/><path d="M854.948 1737.902s3.31 9.932 30.61 46.068c34.664 45.883 49.454 44.484 63.552 78.639 17.663 42.79-52.043 113.055-52.043 113.055s-122.982 21.353-87.104-62.935c15.562-36.564-52.664-107.829-52.664-107.829l91.265-60.613z" fill="#b0ab98"/><path d="M938.879 1132.965c-30.244 83.441-145.376 107.204-212.897 124.22-5.832 1.468-11.291 2.884-16.324 4.289h-.011s180.227 429.71 171.905 454.845c-14.068 42.513-137.958 118.505-159.625 97.903-13.855-13.174-342.661-567.2-320.644-687.45 20.017-109.3 358.975-274.182 474.788-192.805 55.283 38.853 84.229 140.661 62.807 198.999z" fill="#582c0d"/><path d="M725.983 1257.185c-5.832 1.468-11.291 2.884-16.324 4.289-33.681-80.451-90.039-145.684-102.851-154.208 44.461 29.584 83.345 70.618 119.176 149.92zm45.961-275.14s18.091 36.182 25.54 39.374 60.809 9.17 61.797 5.117-54.673-13.557-58.235-16.786-32.295-34.09-29.102-27.705z" fill="#44220b"/><path d="M892.479 1767.986c7.807 3.007 16.377 26.739 16.377 26.739l68.892 47.521c6.349-10.582 48.208 21.31 53.215 36.977 5.006 15.668-25.455 41.553-60.044 85.211-22.325 28.179-45.046 45.429-57.049 84.081-30.881 99.444-150.317 119.915-172.97 129.562-17.422 1.638-34.736-14.499-43.916-39.389-21.91-59.407 100.586-40.715 83.291-252.635-1.592-19.504-25.73-22.942-26.808-34.873-2.41-26.646 73.884-39.308 77.94-32.709-1.489-1.366 41.97-57.842 61.072-50.484z" fill="#020202"/><path d="M989.938 1862.885c5.029 6.049 9.993 14.919 12.189 20.638 4.513 1.077-30.505 60.833-71.905 99.785-14.951 14.067-25.726 39.639-41.12 82.239-14.008 44.104-153.649 109.48-153.641 102.513-5.916-.364-10.464-5.681-14.053-8.962 0 0 128.967-45.556 152.415-100.062 23.448-54.507 30.52-72.861 48.003-89.108 25.727-23.912 70.779-97.235 68.111-107.043z" fill="#fff"/><path d="m952.138 1856.603 9.709 5.91s-14.941 27.702-32.175 42.87c-17.466 15.371-16.095 12.659-27.377 33.377-9.01 16.546-21.238 59.591-21.238 59.591l-5.412 1.325s14.28-71.612 36.132-91.819c21.781-20.142 40.361-51.255 40.361-51.255zm-251.12 291.433c21.804 4.228 92.446-24.697 136.714-82.764 0 0-48.704 41.584-113.505 68.743-17.481 6.972-29.191-2.085-29.191-2.085l5.982 16.105zm83.805-241.619c-8.319-4.229 44.05-66.354 61.38-46.515 2.329 2.665 2.094 3.877.136 7.395-2.501 4.49-48.537 44.549-51.175 54.837 0 0 41.335-33.526 55-31.844 4.11.505 8.729 4.486 11.766 10.318 3.203 6.153-79.432 49.994-77.977 62.074 0 0 50.598-34.54 74.696-12.893 3.253 2.922 6.879 13.447 1.753 14.933-71.909 20.845-72.98 28.321-72.98 28.321s45.129-11.591 59.981 0c12.317 9.611 9.267 20.291 6.426 20.291-34.626 0-68.764-2.612-69.085 2.396 0 0 22.493-7.736 56.768 17.361 4.041 2.96 2.08 13.205 0 13.884-27.248 8.903-47.663-6.943-90.966 4.857-3.506-3.257 4.023-10.743 7.501-12.503 18.664-9.442 48.237-3.568 74.631-1.987-7.957-14.379-50.731-19.841-70.135-7.032-2.373 1.567.787-10.135 3.841-14.58 7.492-10.901 81.875-15.593 81.018-9.873-11.892-16.588-59.613-9.146-75.714.005-1.234.701 1.964-11.709 4.021-15.777 2.208-4.368 74.907-33.355 74.842-29.618 8.634-11.748-44.011-13.263-72.769 14.418-2.325 2.238-2.191-6.854.239-13.258 6.13-16.156 68.691-60.507 70.475-57.479-7.875-14.397-44.229 19.167-60.933 36.218-.484.495-2.774-8.398-1.385-14.84 6.827-31.665 49.024-59.535 49.024-59.535-3.659-6.004-26.841 11.934-50.378 40.428z" fill="#fff"/><path d="M889.736 929.198c-.553 3.501-1.692 6.576-3.501 9.216-.458 1.809-46.813 17.378-170.692 40.14-49.186 9.035-110.609 19.208-186.229 30.095-37.842 2.267-62.764-78.344-82.036-151.516-7.832-29.712-14.728-58.199-21.188-79.408a341.09 341.09 0 0 1-8.95 14.611c-17.559 27.104-35.799 46.217-54.4 58.284-37.522 24.338-76.535 20.038-114.408-5.087-65.925-43.705-128.423-150.43-173.789-278.886-4.948-17.718 106.789-50.707 114.536-41.779l95.477 124.092s47.887-178.78 78.748-211.769c15.622-16.697 47.185-30.414 85.591-41.3a369.935 369.935 0 0 1 5.693-1.575c63.786-17.325 144.609-27.115 202.723-30.02 8.577-.426 16.654-.713 24.114-.841 24.731-.436 40.502-.756 45.823.309 22.528 36.246 54.804 145.227 72.342 265.456a1564.067 1564.067 0 0 1 4.278 31.446c2.49 19.762 6.513 38.949 11.504 57.422 7.96 29.541 18.378 57.252 28.903 82.505a.1.1 0 0 0 .032.075c.021.053.053.128.085.223 24.359 58.476 49.228 103.777 45.344 128.306z" fill="#e3e0d6"/><path d="M815.372 718.089c-20.038 88.73-98.765 114.972-98.765 114.972l-8.513-21.283 91.497-182.547v-.011a1564.067 1564.067 0 0 1 4.278 31.446c2.49 19.762 6.513 38.949 11.504 57.422zm74.364 211.109c-.553 3.501-1.692 6.576-3.501 9.216-.458 1.809-46.813 17.378-170.692 40.14-1.256-7.822-1.352-44.684 34.053-40.14 58.848 7.556 107.172.5 140.14-9.216zM492.633 837.85l-45.355 19.283c-7.832-29.712-14.728-58.199-21.188-79.408a341.09 341.09 0 0 1-8.95 14.611c-17.559 27.104-35.799 46.217-54.4 58.284 22.156-28.679 35.139-74.896 37.491-131.382 1.227-29.488 3.512-56.727 3.512-80.919 0-9.577-38.31-43.631-38.31-55.337 0-19.622 55.369-107.917 55.369-107.917l21.251 21.72s8.011-6.636 12.77-4.257c19.155 9.577 87.262 57.465 113.866 79.812 77.427 65.039-76.056 265.509-76.056 265.509z" fill="#b0ab98"/><path d="M887.938 944.799c-29.797 61.722-64.914 88.326-194.742 85.133-82.416-2.027-113.866-27.668-181.972-19.155-34.053-8.513-64.914-105.352-85.133-233.052-13.981-88.302-20.996-162.37-22.347-194.742-3.097-74.449 42.65-181.064 45.152-187.091 4.863-11.908 32.532-14.036 31.467-7.651 0 0-28.732 59.593-39.374 125.571-5.321 32.989 2.128 67.042 2.128 67.042l156.815-10.748c12.387-83.962 27.285-146.748 54.953-205.277 1.83-5.853 24.476-8.513 26.593-1.511 0 0-.021.043-.053.138-1.66 4.076-39.278 97.169-43.077 158.497-3.512 56.582 35.139 213.535 75.066 295.146 18.118 29.236 27.668 75.556 52.144 148.983 45.759 1.064 98.967-12.77 122.379-21.283z" fill="#582c0d"/><path d="M508.11 1009.75s139.336-32.338 243.615-34.09c126.636-2.128 136.213-30.861 136.213-30.861l-1.671-6.61s-51.537 20.444-134.542 30.021c-37.136 4.285-160.531 6.459-243.615 41.539zm-41.581-306.516c1.606 12.846 24.476 127.7 35.117 133.021 10.642 5.321 119.186-12.77 122.379-17.027 3.192-4.257-17.638-134.434-23.185-136.388s-135.375 11.881-134.311 20.394z" fill="#44220b"/><path d="m85.973 555.027-12.621-9.684c-32.489-27.796-71.863-56.007-66.543-75.162 1.801-6.485 7.449-8.513 7.449-8.513S1.957 451.542.424 444.641c-2.128-9.577 4.257-13.834 7.896-15.303-3.81-5.725-7.343-12.568-6.832-17.687 1.554-9.141 10.642-12.77 10.642-12.77s-5.619-6.874-5.321-11.706c.511-8.237 12.068-9.077 18.772-8.865 2.458.075 4.267.298 4.64.351 11.865 1.586 31.393 1.213 62.52 22.081a202.846 202.846 0 0 1 4.98 3.459c5.097 3.639 10.482 7.853 16.186 12.706.117.107.224.192.33.287a313.548 313.548 0 0 1 11.951 10.759c.362.341.671.628.894.84.309.298.479.458.479.458.564.532 1.128 1.075 1.703 1.628 23.252 22.486 51.101 98.744 51.101 98.744 3.267 8.003-77.29 32.979-94.391 25.402z" fill="#f6b192"/><path d="M44.47 392.444c1.085 1.958 1.426 3.82.649 5.374a4.55 4.55 0 0 1-.458.745c-.266-2.256-.33-4.331-.192-6.119z" fill="#f18f74"/><path d="M108.82 511.705c6.403 13.406-44.607-40.151-46.674-34.075-8.67 25.487-42.22 16.112-40.438 9.577 19.155 7.449 25.54 1.064 25-3.482-2.652-10.353-25-18.866-32.449-22.058 42.567 12.77 43.631 4.567 43.631 2.128 0-12.77-45.759-29.797-49.569-34.458 8.215 4.15 44.418 16.707 45.312 7.853 1.093-10.82-20.932-26.689-42.077-37.937 17.803 4.725 29.616 4.246 33.106-.692.905 7.577 4.118 17.123 9.886 24.582 7.045 9.141 20.347 14.675 29.605 23.901 14.09 14.058 9.918 33.777 24.667 64.659zM44.47 392.444c-3.107-5.566-12.27-11.897-18.889-14.132 2.458.075 4.267.298 4.64.351 11.865 1.586 31.393 1.213 62.52 22.081a61.385 61.385 0 0 0 4.246 2.98c.245.149.479.309.734.479 4.853 3.203 10.844 8.098 16.186 12.706.117.107.224.192.33.287a428.58 428.58 0 0 1 12.845 11.599c.309.298.479.458.479.458s-3.778-.564-7.736-1.628c-16.505-4.448-24.55-8.907-33.564-14.313-26.721-16.037-37.703-27.764-38.757-27.413-1.745.585-2.767 3.022-3.033 6.545z" fill="#f18f74"/><path d="m33.24 526.765-7.249 8.618-4.321-10.4 25.625-166.397 11.569 1.782z" fill="#423123"/><path d="m41.004 353.967 25.242 3.887-1.098 7.131-25.243-3.887z" fill="#e2ab69"/><path d="M12.13 398.882s25.689 8.939 32.532-.319-19.081-20.251-19.081-20.251" fill="#f6b192"/><path d="M86.26 413.313c-26.721-16.037-37.703-27.764-38.757-27.413-1.745.585-4.512 3.405-4.512 6.598 0 0-3.192 13.834 11.557 30.648m-32.84 64.062c19.155 7.449 25.54 1.064 25-3.482-2.652-10.353-25-18.866-32.449-22.058 42.567 12.77 43.631 4.567 43.631 2.128 0-12.77-45.759-29.797-49.569-34.458 8.215 4.15 44.418 16.707 45.312 7.853 1.093-10.82-20.932-26.689-42.077-37.937" fill="#f6b192"/><path d="M62.146 477.631c-2.862 8.414-8.437 13.029-14.556 15.201-12.416 4.406-.342-4.559-.882-9.105-2.652-10.353-25-18.866-32.449-22.058 42.567 12.77 43.631 4.567 43.631 2.128 0-12.77-45.759-29.797-49.569-34.458 8.215 4.15 44.418 16.707 45.312 7.853 1.093-10.82-4.257-11.706-1.064-5.321 5.161 10.322 11.644 39.683 9.577 45.759z" fill="#f18f74"/><path d="M284.556 648.961s24.476 36.896 29.797 37.071-26.282-49.841-26.282-49.841z" fill="#b0ab98"/><path d="M528.182 376.858c2.897-7.084-1.983-52.001-1.983-52.001l86.25-20.869c-2.968 6.325-1.656 44.023-.306 64.837.176 27.928-86.021 30.057-83.961 8.032z" fill="#f6b192"/><path d="M528.487 375.841s45.778-6.388 82.389-34.618c-.286-18.405-.199-30.593 1.574-37.233l-87.27 20.564c5.004 21.027 3.307 51.287 3.307 51.287z" fill="#f18f74"/><path d="M689.51 195.249c8.049 13.535-2.078 41.695-17.159 50.057-10.708 5.938-22.733 2.578-22.133 1.399-3.464 12.416-9.29 37.363-32.085 59.753-10.159 9.978-33.177 32.037-69.968 34.634-7.027.496-47.622-2.38-75.99-30.038-39.786-38.79-23.539-91.186-25.16-95.167-8.741-21.468-15.852-37.806-5.771-67.528 23.059-80.36 86.403-79.644 90.658-80.353 7.484-1.248 78.054-11.867 111.561 38.856 24.487 37.07 2.66 91.828 6.949 86.148 11.025-14.599 29.838-12.125 39.097 2.24z" fill="#ffb493"/><path d="M523.527 237.491c1.989-5.732-17.374-21.315-25.788-16.829-2.629 1.402-4.559 4.959-4.276 8.179.385 4.381 4.769 7.011 6.8 8.23 8.647 5.188 21.826 4.567 23.264.421z" fill="#f89578"/><path d="M648.045 201.362c-36.45-40.164-94.65-66.069-201.933-67.745 2.136.034 14.825-69.263 104.506-69.904 54.795 1.098 95.043 26.282 103.101 69.619 6.351 34.157-5.675 68.03-5.675 68.03z" fill="#f79173"/><ellipse cx="572.069" cy="227.732" fill="url(#c)" rx="28.753" ry="28.78" transform="matrix(.98314978 -.18280181 .18280181 .98314978 -31.991 108.414)"/><path d="M479.727 244.105c.046-12.628-8.733-22.901-19.609-22.944-11.249.746-14.102 6.821-14.102 6.821-1.263 10.75-1.074 21.171.084 31.374 0 0 5.006 8.994 13.852 7.537 10.268.005 19.735-11.296 19.777-22.787h-.001z" fill="url(#d)"/><ellipse cx="463.164" cy="203.14" fill="#020202" rx="10.62" ry="10.63" transform="matrix(.98314978 -.18280181 .18280181 .98314978 -29.33 88.092)"/><ellipse cx="546.013" cy="187.801" fill="#020202" rx="10.62" ry="10.63" transform="matrix(.98314978 -.18280181 .18280181 .98314978 -25.13 102.978)"/><path d="M550.333 249.654c1.334-.025-15.954 28.152-32.185 31.329-16.821 3.292-39.859-16.942-43.393-20.16a.3.3 0 0 1 .154-.519c6.934-1.03 71.367-10.576 75.425-10.651z" fill="#fff"/><path d="M550.352 249.602c-3.018-6.383-74.108 7.199-75.828 11.036" fill="#fa8e79"/><g fill="#582c0d"><path d="M446.191 171.161c-2.349 2.038-3.386 5.444 1.765 4.064 13.097-3.51 29.063-7.216 30.552-8.657 2.623-2.539-1.73-6.263-5.02-6.685-7.995-1.025-22.317 6.958-27.298 11.278z"/><path d="M454.194 153.545c28.052 9.809 43.156-5.483 49.286-38.173 21.219 13.609 38.163 14.471 51.361 4.164 12.711 15.685 29.138 16.823 48.27 7.376 5.721 23.092 14.34 39.172 28.774 44.229-13.582 17.41 11.316 58.023 11.316 58.023s.636-9.625 5.218-28.396c1.223-5.012 14.45-23.359 32.735-14.307 19.463-107.378-2.595-123.675-26.85-118.644-1.446-16.136-12.792-27.416-39.518-31.155-26.648-43.537-57.555-49.981-76.958-10.236-35.191-5.121-62.888 3.476-73.121 24.956-36.27 3.602-48.632 15.239-37.509 35.998-54.742 23.667-19.347 113.582 26.997 66.169v-.004zm96.404-127.12s1.169-12.597 13.834-17.027c9.682-2.46 18.666 1.264 23.831 12.15-15.595-10.568-31.649-1.76-37.665 4.877zM429.601 72.406c.771-12.594 27.775-12.281 27.775-12.281-18.554 4.77-26.876 11.619-25.17 20.503 0 0-2.759-5.268-2.605-8.222zm236.013 175.268c-2.057 12.212-9.287 20.679-22.623 20.03 2.676-7.299 5.638-15.268 7.095-21.361 4.767 2.795 10.052 2.617 15.53 1.332h-.001z"/><path d="M575.934 153.71c2.601 1.705 4.086 4.943-1.206 4.262-13.449-1.73-29.768-3.271-31.437-4.501-2.94-2.166.875-6.437 4.08-7.294 7.786-2.082 23.048 3.917 28.562 7.533zM458.902 277.114c7.296-.024 4.396-21.824 9.494-26.235 5.114-4.414 86.541-21.18 95.318-14.633 5.739 4.281 17.276 37.385 37.998 35.158 17.294-1.866 34.241-36.721 33.682-60.453-.562-23.747 12.179-21.71 15.335-16.947-14.711 45.466 1.381 53.888 1.381 53.888s-13.012 40.949-20.396 53.703c-3.58 6.193-26.797 26.655-60.05 35.553-29.832 7.97-69.379 5.227-82.799-2.067-14.599-7.95-36.407-44.879-40.911-66.869 0 0 3.664 8.907 10.947 8.902zm22.206 10.211c22.657 16.923 68.926 3.443 77.297-12.747 1.546-2.989-6.227-25.441-7.266-25.963 0 0-36.959-2.379-76.146 11.069 0 0 2.493 24.935 6.115 27.641z"/></g><path d="M455.752 171.364c17.433-3.242 34.189 8.26 37.431 25.694s-8.26 34.189-25.694 37.431-34.189-8.26-37.431-25.694 8.26-34.189 25.694-37.431zm10.874 58.483c14.871-2.765 24.68-17.055 21.915-31.926s-17.055-24.68-31.926-21.915-24.68 17.055-21.915 31.926 17.055 24.68 31.926 21.915zm78.136-74.057c17.433-3.242 34.189 8.26 37.431 25.694s-8.26 34.189-25.694 37.431-34.189-8.26-37.431-25.694 8.26-34.189 25.694-37.431zm10.874 58.483c14.871-2.765 24.68-17.055 21.915-31.926s-17.055-24.68-31.926-21.915-24.68 17.055-21.915 31.926 17.055 24.68 31.926 21.915z" fill="#242929"/><path d="M522.158 196.309s-15.533-5.413-29.271 4.405l-.257 4.198s11.919-8.442 31.277-4.778zm132.894-5.198s-27.402-13.379-73.163-2.795l-.257 4.198s38.741-9.279 69.993 2.55c0 0 2.585-2.961 3.427-3.952z" fill="#242929"/><path d="m418.088 345.525-24.039 36.863-7.46 11.44L283.823 551.42c-3.852 5.651-11.568 7.098-17.218 3.235l-13.44-9.216c-5.629-3.863-7.077-11.557-3.224-17.197l117.016-164.179.128-.17 25.359-35.586a4.965 4.965 0 0 1 6.789-1.256l17.452 11.642a4.95 4.95 0 0 1 1.405 6.832z" fill="#e2ab69"/><path d="m266.607 554.65-13.445-9.215c-5.632-3.86-7.075-11.553-3.224-17.191l46.357-65.042 29.376 24.049-41.846 64.171c-3.86 5.652-11.574 7.098-17.219 3.229z" fill="#020202"/><path d="M385.652 565.956c-26.625 0-109.609-54.272-119.186-77.684-4.853-11.78-.67-17.25 2.831-19.623 1.873-1.277 3.554-1.66 3.554-1.66-5.959-9.365-3.065-20.081 4.321-24.008 1.852-.979 3.98-1.532 6.321-1.532-3.693-12.557 2.352-19.474 8.896-21.815h.011c2.873-1.043 5.842-1.181 8.12-.532-2.128-14.898 13.834-20.219 29.797-10.642 2.064 1.245 16.676 9.982 34.053 20.219 0 0-.383-.628-1-1.681-2.214-3.756-7.534-12.844-9.833-17.569-.053-.117-.117-.234-.17-.351-4.97-10.365-5.555-17.835-1.767-22.965 3.693-4.991 36.182 19.155 52.144 36.182 6.726 7.172 38.31 65.978 40.438 75.556 5.331 23.976-36.182 68.107-58.529 68.107z" fill="#ffb493"/><path d="M296.262 487.208c-1.064 1.064-26.966-18.559-26.966-18.559 1.873-1.277 3.554-1.66 3.554-1.66s24.476 19.155 23.412 20.219zm16.186-19.847c-.958.521-23.805-16.005-35.277-24.38 1.852-.979 3.98-1.532 6.321-1.532 0 0 30.254 25.221 28.956 25.913zm21.06-20.591c0 1.628-27.902-17.835-41.109-27.136 2.873-1.043 5.842-1.181 8.12-.532 0 0 32.989 25.54 32.989 27.668zm48.951-5.321c-1.064 0-18.091-12.77-18.091-12.77s-.383-.628-1-1.681c-2.214-3.756-7.534-12.844-9.833-17.569-.053-.117-.117-.234-.17-.351 22.667 19.751 30.148 32.372 29.094 32.372z" fill="#f18f74"/><path d="m435.253 392.37-6.63 8.992a4.025 4.025 0 0 1-5.512.936l-56.454-38.693-1.011-.692-10.918-7.492-1.82-1.245-3.778-2.586-.841-.575-5.555-3.81-.905-.617-3.49-2.383a4.032 4.032 0 0 1-1.043-5.598l16.133-23.539a4.022 4.022 0 0 1 5.598-1.043l21.486 14.728 2.745 1.884.756.521 2.373 1.618 2.799 1.926.66.447 5.715 3.916.213.138 21.932 15.037c.553.383 1 .894 1.309 1.49l16.58 32.425a3.998 3.998 0 0 1-.34 4.214z" fill="#020202"/><path d="m384.013 331.159-34.883 20.432-.841-.575-5.555-3.81 37.778-18.452 2.746 1.884zm11.546 7.907-28.902 24.539-1.011-.691-10.919-7.492 34.458-20.719.66.446z" fill="#fff" opacity=".2"/><path d="m333.83 410.538 30.112-42.249 26.103 20.245-25.95 39.794z" fill="#e2ab69"/><path d="m394.048 382.388-7.46 11.44-19.633-29.765-.298-.458.425.288z" fill="#ce9455"/><path d="M792.163 705.362C755.691 889.71 578.266 857.538 373.946 585.111c-10.628-15.019 68.447-94.128 78.748-88.326l172.395 123.443s15.962-252.207 97.903-256.464c60.657-4.257 127.7 45.759 69.171 341.597z" fill="#e3e0d6"/><path d="M625.089 620.229s30.929 33.985 35.683 31.359c4.755-2.626-34.555-44.861-34.555-44.861l-1.129 13.502z" fill="#b0ab98"/></svg></g><g transform="translate(977.0 1567.0) rotate(0.0 504.5 649.0) scale(1.1328092546811181 1.1330574306482433)"><svg width="890.706" height="1145.573" viewBox="0 0 890.706 1145.573"><path d="m222.964 29.265-1.16 10.918-117.888 1105.241c-.01.096-.01.149-.01.149H68.107L147.014 29.265zm610.32 1116.308h-35.799L679.597 40.236c-.011-.032-.011-.053-.011-.053l74.896-9.482 78.791 1114.734c.011.096.011.138.011.138z" fill="#756551"/><g fill="#35281c"><rect height="40.185" rx="9.277" width="890.706"/><path d="M833.273 1145.435c-1.181-11.865-76.662-770.934-77.418-781.214-.766-10.28-75.098-319.154-76.258-323.985-.011-.032-.011-.053-.011-.053l74.896-9.482zm-729.357-.011c.99-12.185 64.222-792.207 64.222-803.338 0-11.227-19.41-301.903-19.41-301.903h73.076z" opacity=".4"/></g></svg></g><g transform="translate(996.0 1366.0) rotate(0.0 96.5 63.0) scale(1.1379716981132075 1.1433756805807622)"><svg width="169.6" height="110.2" viewBox="0 0 169.6 110.2"><g><path d="M31.9 34.9S79.2 5.1 86.4.3c3.1-2.1 6.8 7.5-1 20.5-3.1 5.1-11.3 14.9-23.4 23.1 0 0-17.9 11.3-30.1-9z" style="fill:#f79173"/><path d="M169.1 87.8c-4.1 5.3-13.8 5.4-19.3 4.9h-.5c-1.3-.1-2.3-.3-2.9-.4h-.4c.5.4 13.2 10.7-1.1 13.2-16.6 2.9-47.3 4.8-70.3 4.8-15.5 0-61.1-4.9-61.5-5.1h-.3C3 102.9-8.5 57.8 10 43.4c50.3-21.1 69.4-17.8 69.4-17.8s82 7.6 80.9 13.1c-.7 3.3-2.5 5.7-4.7 7.3-.2.1-.3.2-.5.4-5.7 3.8-14 3.5-15.6 3.4h-.2c.3.1 3.5 1.8 7.7 4.2.2.1.5.3.8.5.1 0 .2.1.2.2 7.9 4.7 18.2 12.1 18.9 17.9.4 3.7-5.7 4.4-5.7 4.4s11 6.8 7.9 10.8z" style="fill:#ffb493"/><path d="M84.6 73.1s-.2 1.2 2.4 3.7c8.8 8.2 46.5 13.7 58.9 15.3h.4c1.4.2 2.4.3 2.9.4h.5L84.6 73.1zm3-14.7s.9 4.1 6.4 5.6c5.3 1.4 62.3 12 66.7 12.8L87.6 58.4zm51.7-8.6c7.1.6 11.9-.9 15.6-3.4.2-.1.4-.2.5-.4l-71.8-2.2 64.1 10.8c-.1-.1-.2-.1-.2-.2-.3-.2-.5-.3-.8-.5-3.7-2.3-6.3-3.7-7.6-4.2h.1l.1.1z" style="fill:#f79173"/></g></svg></g></svg>