<svg xmlns="http://www.w3.org/2000/svg" viewBox="0 0 1080 1080" width="1080" height="1080"><g transform="translate(968.0 382.0) rotate(0.0 -468.5 321.5) translate(-0.0 105.23961661341853) scale(-0.6226741095162148 0.6226396823859784)"><svg width="1504.8" height="862.457" viewBox="0 169.022 1504.8 862.457"><path d="M220.2 531.5c51 12 238.2 285.6 153.8 341.8-30.5 20.5-182.5-75-153.8-341.8zm1038.6-2.7c-86.2 79.7-138.8 323-88 346.5 48.1 22.2 101.8-172.4 88-346.5z" fill="#5b2448"/><path d="M1415.3 216.6c-.4-.8-.8-1.6-1.2-2.5-.4-1.2-.8-2.5-1.3-3.7 13.8-30.3 7-65.9-16-60.6 0 0-10.2-26.9-30.9-18.8-2.5-9.9-13.6-32.1-34-18.2-10.2-16.7-29.9-14.5-34.3 7.4-1.9 9.3 3.3 30.5 8.3 44.1-24-35.8-49-47.1-37.9-8 41.7 147.3 22.2 282.6 33.9 415.5l-43.1-43.1s-119.7 77.6-107.5 246.8c79.7 44.1 331.7 100.8 351.6-132.4 14.3-168.1-55.8-360.1-87.6-426.5z" fill="#f4ada2"/><path d="M1502.8 643.2c-16.7 194.6-189.1 198.9-296.9 159.7-2.1-.8-4.3-1.6-6.4-2.4-18.7-7.3-35.2-15.9-48.3-24.9-12-167.9 105.8-245.6 107.5-246.8l43.2 43.1c-11.7-132.9 7.8-268.2-33.9-415.5-11.1-39.2 13.9-27.8 37.9 8-5-13.7-10.1-34.9-8.3-44.1 4.4-21.9 24.1-24.1 34.3-7.4 20.4-13.9 31.5 8.3 34 18.2 20.7-8 30.9 18.8 30.9 18.8 23-5.3 29.8 30.2 16 60.6.5 1.2.9 2.4 1.3 3.7.4.8.8 1.6 1.2 2.5 31.8 66.3 101.9 258.3 87.5 426.5z" fill="#f4ada2"/><path d="M1310.7 171.7c0 .1.1.2.1.3 11.6 18.9 19.6 35.5 23.8 49.4.3 1.1 1.3 1.8 2.4 1.8.3 0 .5 0 .7-.1 1.3-.4 2.1-1.8 1.7-3.1-3-10-8-21.4-14.7-33.9 1.7.9 3.2 1.3 4.7 1.3.2 0 .5 0 .7-.1 2.6-.3 4.7-1.8 6.2-4.6 5.2 15.9 10.7 23.7 16.7 23.7.5 0 1 0 1.6-.2 5.2-1.2 9.5-8.6 12.4-19 1.5 14.3 4.6 22.9 9.2 25.6-6.8 15.1-12 39.9-8.4 62.1.2 1.2 1.3 2.1 2.5 2.1.1 0 .3-.1.4 0 1.4-.3 2.3-1.5 2.1-2.9-3.6-21.8 1.8-46.3 8.6-60.5 1.4-.3 2.7-.9 3.8-1.8 2.2-1.6 4.3-4.3 6.3-7.8.6 13.2 5 17.6 9.1 18.7.7.2 1.5.3 2.3.3 4.4 0 8.8-3.1 12-7.2-.3-.8-1.6-4.1-2.1-5.3 0 0 .1-.3 0 0-2.8 6-7.6 8.3-11 7.4-3.5-1-6.7-8.2-5-25.6v-.6c.7-2.1 1.3-4.3 1.9-6.6 3.1-12.4 3.9-25.2 2.3-35.8-1.4 0-2.7.2-4.2.5 2.6 23.1-6.1 51.4-14.6 58-2 1.5-2.9 1-3.3.8-7.2-3.5-7.9-34.5-8-43.9 1.1-11.7 1-24.1-.6-34.9-1.4.2-2.8.6-4.4 1.2 1.6 10 1.2 19.6.2 31.3-.1.3-.2.6-.2 1v1.1c-.4 3.9-.9 7.7-1.5 11.4-2.9 16.6-7.6 24.8-10.9 25.5-1.2.3-7.3.1-14.9-28.3 2.4-21.7.7-36.2-1.6-56.2-.3-2.1-.6-4.3-.8-6.5-1.4.7-2.8 1.5-4.3 2.5-.1-.2.1.2 0 0 .2 1.8.4 3.5.6 5.2 2.3 19.9 3.4 33.6 1 55.2-.6 5.7-2.1 9-4 9.2-6.5.7-20.7-19.3-30.2-41 1.7 8.1 4 16 6.5 22.7-.2-.3.2.3 0 0 .8 1.3 1 1.9 1.8 3.2 1.1 1.6 2.1 3.1 3.1 4.4zm-.5 454.5h.8c1.3-.5 2-1.9 1.6-3.2-.1-.3-7.7-23.6-10.7-51.2l-5.7-5.7c2.4 30.6 11.4 58 11.5 58.3.5 1.1 1.4 1.8 2.5 1.8zm-110.7 174.2c-18.7-7.3-35.2-15.9-48.3-24.9-12-167.9 105.8-245.6 107.5-246.8-60 98.3-65.4 219.5-59.2 271.7z" fill="#9b3c82"/><path d="M359 737.3c.1 10.2-.5 20.3-1.7 30.4-.2.1-.4.2-.6.4-11.9 7.6-27.1 14.5-44.5 20.2-2.1.7-4.3 1.4-6.4 2l-.9.3C196 823.2 12.4 807.7.9 608.3c-12.2-212 108.6-427.2 109.2-428.3-12.5-30.9-4.1-66.1 18.7-59.8 0 0 11.4-26.4 31.7-17.5 2.9-9.8 15-31.5 34.7-16.7 10.9-16.2 30.5-13.1 33.9 8.9 1.4 9.3-4.7 30.3-10.2 43.7 25.6-34.7 51.1-44.9 38.3-6.3-48.2 145.3-34.7 281.3-52.3 413.6l15.5-14.4s28.1 12.2 59.1 39c37.3 32.6 79 86.7 79.5 166.8z" fill="#f4ada2"/><path d="M119 192.5c.7 0 1.3-.1 2-.1 3.5-.8 8.8-4.4 10.3-18.3 1.8 3.6 3.9 6.5 6 8.4 1.2 1 2.6 1.7 4.1 2.1 6.1 14.5 10.4 39.1 5.8 60.6-.3 1.4.5 2.7 1.9 3 .1.1.3.1.5.1 1.1 0 2.1-.8 2.5-2.1 4.7-21.8.5-46.9-5.5-62.3 4.7-2.8 8-11.4 10.1-25.7 2 9 5.6 18.5 11.7 20.1.6.1 1.3.2 1.9.2 6 0 11.8-7.5 17.4-22.9 1.3 2.8 3.3 4.5 5.9 4.9.4.1.7.1 1.1.1 1.3 0 2.7-.4 4.2-1-7.3 12.2-12.7 23.3-16.1 33.1-.1.2-.1.5-.1.8 0 1.4 1.1 2.5 2.5 2.5 1.1 0 2.1-.7 2.4-1.7 4.8-13.7 13.5-29.9 26-48.3.1-.2.2-.3.2-.5.9-1.3 1.9-2.6 2.9-4 .7-1 1.5-2 2.2-3 2.7-6.6 5.5-15 7.6-23-10.5 21.3-25.8 41-32.3 40-1.8-.3-3.1-3.4-3.5-8.7.1-.4 0-.8-.1-1.2-1.3-21.4.8-35.6 4-55.2.3-1.7.4-2.6.6-4.4-1.5-1.1-3-2.1-4.4-2.8-.4 2.3-.7 4.4-1.1 6.5-3.2 20-5.5 34.4-4 56.4-8.8 27.8-15 27.7-16.1 27.4-3.3-.9-7.6-9.3-9.8-26-2-15.8-2.2-30.9.7-44.8-1.5-.7-3.1-1.2-4.6-1.5-1.9 10-2.6 21.5-2.2 33 0 .2-.1.3-.1.5-.3 6.9-2.2 41.5-10 44.9h-.1c-.5.2-.7.2-1.2.1s-1.1-.4-1.9-1.1c-3.3-2.8-6.6-9.3-9-17.6-.1-.5-.3-1.4-.5-2-3.2-12.2-5.3-25.6-2.1-38.8-1.5-.4-3.1-.7-4.5-.7-2.6 13.4-1.3 29.1 2.2 41.9.9 17.9-2.9 25.1-6.6 26-3.1.7-7.2-2.3-9.8-7.4 0 .1-1 1.8-2.7 5 3.2 4.8 7.5 7.5 11.6 7.5zm72.7 404.9c0 1.4 1.1 2.5 2.5 2.5 1.1 0 2-.7 2.4-1.6 6.3-18.9 10.9-38.1 14-57.7l-5.7 5.3v-.1c-3 18.7-7.1 32.7-13.1 50.8-.1.2-.1.5-.1.8zm224.9 63.8c.1 9.8-58.1 96-59.3 106.5-.2.1-.4.2-.6.4-11.9 7.6-27.1 14.5-44.5 20.2-2.1.7-4.3 1.4-6.4 2-2.2-70.3-50.8-199-85.6-258.8l59.1 39z" fill="#9b3c82"/><path d="M1170.7 875.2c-1.1-.6-67.6-27.8-109.3-69.5 0 0 12.1 43.4 29 106.2 7.4 27.5 15.8 58.8 24.4 91.7-82.9 17.6-214.9 29-363.6 29-87.6 0-169.4-4-238.8-10.8-.9-.1-1.8-.2-2.6-.3-33.5-3.4-64-7.4-90.8-12 0 0 6-47.2 12.1-100.9 3.3-29 6.5-60 8.8-86.3 0 0-38 36.1-65.8 51C400 853 321.2 638.1 220.2 531.5c0 0 243.6-267.7 432.6-117.7l189 8.3c39.8-30.6 148.2-141.7 416.9 106.5-80.5 77.1-135.2 310.5-88 346.6z" fill="#f94f46"/><path d="M521.1 704.9c-1.2-.6-2.7-.2-3.4 1-.4.7-36.2 65.1-78.5 117.1l.6-.6c-.2 2.8-.5 5.7-.8 8.6 44.4-53.1 82.7-122 83.1-122.7.6-1.2.2-2.8-1-3.4zm324.4-285.7c-1.3 1-2.5 2-3.7 2.9-.3.1-.5.2-.8.3 4.7 29.3 3.1 57.9-4.8 81.4-7.2 21.3-19.2 36.8-31.4 40.3-6 1.9-12.5.8-17.7-2.8-26.6-17.5-37.4-90-38.7-99.1 0-.2.1-.3.1-.3v-.3c-1.7 0-3.4-.1-5.1-.1h-.3c-4.1 7.6-8.6 17.2-13.3 27.5-15.5 34-34.7 75.7-56.5 75.7-1.4 0-2.8-.2-4.1-.5-7.7-1.8-14-8.1-18.8-18.5-12.8-27.9-11.2-80.9 2.8-111.5-.3-.2-.4-.3-.4-.3-1.2-1-2.5-1.9-3.7-2.9-6.9 14.5-11.4 35.1-12.3 56.9-1 23.3 2.3 45.1 9 59.7 5.5 11.9 13 19.1 22.2 21.3 1.8.4 3.5.6 5.3.6 25 0 44.9-43.3 61.1-78.6 1.9-4.1 3.7-8.1 5.5-11.8-.1.6-.2 1.2-.4 1.8 0 .1 0 .2-.1.3-.1.6-.2 1.1-.3 1.7 0 .2-.1.4-.1.6-.3 1.8-.7 3.6-1.1 5.5-.1.3-.1.6-.2.9-.1.5-.2 1-.3 1.6-.1.4-.1.7-.2 1.1-.1.5-.2 1-.3 1.6-.1.4-.2.9-.2 1.3l-.3 1.5c-.1.7-.3 1.3-.4 2-.1.6-.2 1.3-.4 1.9l-.3 1.8c-.1.4-.2.9-.3 1.3-.1.6-.2 1.1-.3 1.7-.1.5-.2.9-.3 1.4-.1.6-.2 1.3-.4 1.9-.1.4-.1.8-.2 1.2-.2 1-.4 2.1-.6 3.1-.1.3-.1.6-.2.9-.1.8-.3 1.6-.4 2.4-.1.4-.1.8-.2 1.2-.1.7-.3 1.5-.4 2.2-.1.4-.1.8-.2 1.2-.1.8-.3 1.6-.4 2.5-.1.3-.1.6-.2.9-.2 1.2-.4 2.3-.6 3.5 0 .1 0 .3-.1.4-.2 1-.4 2-.5 3.1-.1.4-.1.7-.2 1.1-.1.8-.3 1.7-.4 2.6-.1.4-.1.7-.2 1.1-.2.9-.3 1.9-.5 2.8 0 .2-.1.5-.1.7-.2 1.2-.4 2.5-.6 3.7v.1c-.2 1.2-.4 2.3-.6 3.5-.1.3-.1.7-.2 1-.1.9-.3 1.8-.4 2.7-.1.4-.1.7-.2 1.1-.2 1-.3 1.9-.5 2.9 0 .3-.1.5-.1.8-.2 1.3-.4 2.5-.6 3.8l-.6 3.6c0 .3-.1.6-.1.9-.1.9-.3 1.9-.4 2.8-.1.3-.1.7-.2 1-.1 1-.3 2-.4 2.9 0 .3-.1.5-.1.8-.4 2.5-.7 4.9-1.1 7.3 0 .3-.1.6-.1.9-.1.9-.3 1.9-.4 2.8 0 .3-.1.7-.1 1-.1.9-.3 1.9-.4 2.8 0 .3-.1.5-.1.8-.3 2.4-.6 4.7-.9 7.1 0 .3-.1.6-.1.9-.1.9-.2 1.7-.3 2.6 0 .3-.1.7-.1 1-.1.9-.2 1.7-.3 2.6 0 .3-.1.6-.1.8-.3 2.2-.5 4.4-.7 6.6 0 .3-.1.6-.1.9-.1.8-.2 1.6-.2 2.3 0 .3-.1.7-.1 1-.1.8-.1 1.5-.2 2.3 0 .3-.1.5-.1.8-.2 2-.3 4-.5 6 0 .3 0 .6-.1.8 0 .7-.1 1.4-.1 2 0 .3 0 .6-.1.9 0 .7-.1 1.3-.1 2v.8c0 .9-.1 1.8-.1 2.7 0 .9-.1 1.7-.1 2.5v7.8c0 .7 0 1.4.1 2v.6c0 .5.1.9.1 1.4 0 .2 0 .4.1.7 0 .4.1.9.1 1.3 0 .2 0 .4.1.6.1.6.1 1.1.2 1.7 1.8 12.3 9.4 22.2 21.9 28.6 5.7 3 11.8 5 18.2 6h.3c1.3 0 2.3-.9 2.6-2.1.1-1.4-.8-2.6-2.2-2.8-.3 0-31.9-4.5-35.8-30.3-.1-.5-.1-1.1-.2-1.6 0-.2 0-.4-.1-.6 0-.4-.1-.8-.1-1.2v-.7c0-.4-.1-.8-.1-1.3v-.7c0-.5 0-1-.1-1.6v-8.4c0-.6 0-1.2.1-1.8v-.8c.1-1.8.2-3.6.3-5.5 0-.3 0-.5.1-.8 0-.7.1-1.4.2-2.1 0-.3 0-.6.1-.9.1-.7.1-1.4.2-2.1 0-.3.1-.6.1-.9.1-.8.1-1.6.2-2.5 0-.2 0-.4.1-.6.1-1.1.2-2.1.3-3.2v-.3c.1-1 .2-1.9.3-2.9 0-.3.1-.6.1-.9l.3-2.4c0-.3.1-.7.1-1 .1-.8.2-1.7.3-2.5 0-.3.1-.6.1-.8.3-2.3.6-4.6.9-7 0-.2.1-.5.1-.7.1-.9.2-1.9.4-2.8 0-.3.1-.6.1-1 .1-.9.2-1.8.4-2.7 0-.3.1-.6.1-.9.1-1 .3-2.1.4-3.1 0-.2 0-.3.1-.5.3-2.5.7-5 1.1-7.5 0-.3.1-.6.1-.8.1-1 .3-1.9.4-2.9 0-.3.1-.7.1-1 .1-1 .3-2 .5-3 0-.3.1-.5.1-.8.4-2.5.8-5.1 1.2-7.6 0-.2.1-.3.1-.5.2-1.1.3-2.1.5-3.2.1-.3.1-.6.2-.9.2-1 .3-1.9.5-2.9.1-.3.1-.6.2-.9.2-1.1.3-2.1.5-3.1 0-.2.1-.4.1-.6.4-2.5.8-5 1.3-7.5 0-.3.1-.5.1-.8.2-1 .3-1.9.5-2.8.1-.3.1-.7.2-1 .2-.9.3-1.8.5-2.7.1-.3.1-.6.2-1 .4-2.4.8-4.8 1.3-7.1 0-.2.1-.5.1-.7.2-.9.3-1.9.5-2.8.1-.3.1-.7.2-1 .1-.8.3-1.6.4-2.4.1-.4.1-.8.2-1.1.2-.9.3-1.7.5-2.6 0-.2.1-.5.1-.7l.6-3.3v-.3c.2-1 .4-1.9.5-2.9.1-.4.1-.7.2-1.1.1-.7.3-1.3.4-2 .1-.4.2-.8.2-1.2l.3-1.8c.1-.4.2-.9.2-1.3.1-.6.2-1.1.3-1.7.1-.4.2-.8.2-1.2.2-.9.3-1.8.5-2.6.1-.4.2-.8.2-1.3.1-.5.2-1 .3-1.4.1-.5.2-.9.3-1.3s.2-.8.2-1.2l.3-1.5c.1-.3.1-.6.2-.9.1-.5.2-1 .3-1.6v-.1c.3-1.4.5-2.7.8-4 .1-.6.2-1.3.4-1.9v-.1c.1-.6.2-1.2.4-1.8 1.8 10 4 20 6.7 29.9 8.5 31.2 19.3 51.3 32.1 59.7 4.2 2.9 9.3 4.5 14.4 4.5 2.5 0 5-.3 7.3-.8 14-4 26.9-20.3 34.7-43.5 7.9-25.2 9.5-55.6 4.2-86.6zm145.7 292.5c-1.2.7-1.6 2.3-.8 3.4.4.6 33.8 55.2 74.5 103.3-1.6-5.7-2.7-9.6-3.2-11.5-37.3-45.6-66.8-93.8-67.1-94.4-.7-1.2-2.3-1.6-3.4-.8z" fill="#fcb6b1"/><path d="M692.1 81.1c29.5 27.4 75.4 158.2 75.4 158.2s51.6-25.9 79.5-29.9c2.4-.4 4.9-.6 7.4-.5 1.9-9.6 6.3-18.9 11.7-27.3 9.7-15 22.8-27.4 31.2-34.3 35.6-29.6 7.3-101-49.7-89.6 8.7-38.5-47.5-75.7-83.6-37.3C753.1 5.6 736.2-.4 723.2 0c-34.4 1.1-67.9 46.9-31.1 81.1z" fill="#5b2448"/><path d="M772 50.7c-.2 1.3.7 2.6 2.1 2.8h.4c1.2 0 2.3-.9 2.4-2.1 2.1-14.5-3.4-26.2-9.6-34.4-1.1 1-2.2 2.1-3.3 3.3-3.3-4.5-7.2-8.1-11.3-11.1 5.8 4.7 22.4 19.9 19.3 41.5z" fill="#9b3c82"/><path d="M589.9 201c-7.4 11.9-7.5 28.2 1.7 42.2 24 36.6 84 49.9 84 49.9s-11.5 66.5-22.8 120.8c0 0 76 56.5 189 8.3 0 0-16.7-75-32.2-130.4 25.6 9.2 65.5.4 76.8-33.1 6.8-20-5.6-45.5-27.6-49.9-21.4-4.3-34.2 3.2-57.7 11.7-21.8 7.9-21.4-2.7-21.2-25.8.2-20.5-5-41.3-10.3-54-11.9-28.7-50.5-49.2-77.5-59.8-10.1 19.5-21.4 38.3-34 56.3-21.8 31.8-50.9 36.1-68.2 63.8z" fill="#f4ada2"/><g fill="#5b2448"><path d="m763.9 160.6 1-2c.3-.6.5-1.3.8-1.9.4-1.3.8-2.5 1.1-3.9.5-2.6.8-5.3.7-8-.2-5.6-1.7-11.1-4.4-16-1.4-2.6-3.2-5-5.2-7.1-2.1-2.2-4.5-4-7.1-5.4s-5.4-2.4-8.3-2.8c-2.8-.5-5.7-.4-8.5.3-3.6.9-5.7 4.6-4.8 8.2.2.7.5 1.3.8 1.9l.7 1c1.3 2.1 2.6 3.6 3.6 5.1 1.1 1.4 2 2.8 2.8 4 1.7 2.5 3.1 4.6 4.7 7.1 1.6 2.4 3.1 5.2 4.8 8.3l2.7 5c.5.9.9 1.8 1.5 2.7 1.1 2.1 2.7 4 4.7 5.3 1.1.7 2.2 1.1 3.5 1.2 1.7.1 3.3-.6 4.4-2 .2-.4.4-.7.5-1zm-18.7 11.7c-5-4.1-17.2-13.5-26.4-26.3-1.3-1.8-3.8-2.2-5.6-.9-4.6 3.4-11.1 10.1-3.7 18 9.1 9.7 28.9 15.5 35.3 12.6 1-.5 1.5-1.7 1-2.7-.1-.3-.3-.5-.6-.7zm-70.6-50.6c5.3 3.6 9.7 5.4 20.7 9.5 2.1.7 3.2 3 2.4 5.1-1.9 5.4-7 9.2-15.6 5.9-9.5-3.7-11.7-13.2-10.8-19.1.2-1.1 1.2-1.9 2.4-1.7.3 0 .6.2.9.3z"/></g><path d="M789.9 280.7c-.9 1-.8 2.6.2 3.5 9 8.1 16.5 11.7 21.1 13.3-.5-1.9-1.1-3.8-1.6-5.7 1 .3 2 .7 3 1-4.1-1.5-10.9-4.9-19.2-12.3-1-.9-2.6-.8-3.5.2z" fill="#9b3c82"/><path d="M695.5 104.4c1.3.4 2.7.7 4.3 1.2 1.6.4 3.2 1 5.4 1.5l1.1.3c.6.1 1.3.2 1.9.1 3.3-.3 5.7-3.3 5.4-6.6-.3-2.5-1.1-5-2.4-7.3s-3-4.3-5-6.1c-.5-.4-1-.9-1.5-1.3-4.2-1.9-8.4-3.7-12.2-5.2-.1 0-.3 0-.4-.1-3.6 6.9-7.3 13.7-11.2 20.4 2.6.4 5 .8 7.1 1.3 2.6.6 4.9 1.2 7.5 1.8zm37.4 186.5c-22.3 7.9-57.2 2.2-57.2 2.2l-.1.1c-.2 1-2.7 15.7-6.5 36.4 51.1 5.3 68.1-32.6 63.8-38.7z" fill="#5b2448"/><circle cx="735.1" cy="220.5" fill="#e57281" opacity=".52" r="26.7"/><path d="M804.8 256c-1.4 0-2.5-1.1-2.5-2.5 0-.7.3-1.3.7-1.8 15.1-15.3 30.2-17.7 40.3-16.9 6.5.4 12.8 2.3 18.5 5.5 1.2.7 1.5 2.3.8 3.5-.7 1.1-2.2 1.5-3.4.8-1.1-.7-26.4-15.8-52.6 10.7-.5.4-1.1.7-1.8.7z" fill="#9b3c82"/><path d="M670.4 170.9c-.7 0-1.4-.4-1.8-1.1-3.6-6.8-4.6-11.4-3.3-14.9 1.7-4.5 6.9-6.3 13-8.4 13.3-4.6 14.8-11.6 14.8-11.7.2-1.1 1.2-1.8 2.3-1.6s1.8 1.2 1.6 2.3c-.1.4-1.6 9.4-17.4 14.9-5.9 2.1-9.5 3.5-10.5 6-.9 2.3.1 6 3.1 11.5.5 1 .2 2.2-.8 2.7-.4.2-.7.3-1 .3z" fill="#5b2448"/><path d="M674.8 221.3c.4-.6.7-1.2 1-1.9.3-.6.5-1.2.7-1.8.4-1.2.7-2.5.8-3.7.3-2.5.2-5.1-.3-7.6-.6-2.7-1.6-5.2-3.1-7.4-1.6-2.5-4-4.5-6.8-5.7-2.5-1-5.4.3-6.4 2.8-.2.4-.3.9-.3 1.4l-.1 1.6c-.2 1.9-.2 3.8 0 5.7.1 1.8.4 3.5.8 5.2.4 1.9 1 3.7 1.7 5.5.4.9.8 1.9 1.3 2.9.3.5.5 1 .8 1.5s.6 1 1 1.4l1.2 1.3c1.9 1.9 4.9 2 6.9.1.3-.5.6-.9.8-1.3z" fill="#9b3c82"/><circle cx="747.4" cy="540.8" fill="#fcb6b1" r="5.6"/><circle cx="741.8" cy="611.2" fill="#fcb6b1" r="5.6"/></svg></g><g transform="translate(1049.0 50.0) rotate(0.0 -253.0 238.5) scale(-0.2428919308516434 0.2432825704104131)"><svg width="2083.231" height="1960.683" viewBox="0 0 2083.231 1960.683"><path d="m2044.137 1203.5-1348.25 743.97a65.928 65.928 0 0 1-89.58-25.88L51.567 916.257l-38.35-69.49a65.936 65.936 0 0 1 25.87-89.58l1348.26-743.97a65.93 65.93 0 0 1 89.58 25.88l38.55 69.87 554.54 1004.95a65.937 65.937 0 0 1-25.88 89.583z" fill="#fff"/><path d="M664.135 1960.7a71.244 71.244 0 0 1-19.785-2.819A70.467 70.467 0 0 1 601.928 1924L47.189 918.671 8.838 849.182a71.025 71.025 0 0 1 27.831-96.373L1384.93 8.838a71.02 71.02 0 0 1 96.37 27.842l38.551 69.87L2074.4 1111.5a70.936 70.936 0 0 1-27.844 96.374L698.3 1951.844a70.56 70.56 0 0 1-34.165 8.856zM1419.089 10.024a60.542 60.542 0 0 0-29.328 7.57L41.5 761.564a61.011 61.011 0 0 0-23.908 82.787l38.353 69.489 554.739 1005.33a60.927 60.927 0 0 0 82.787 23.918l1348.25-743.969a60.937 60.937 0 0 0 23.918-82.787L1511.1 111.382l-38.551-69.871a61 61 0 0 0-53.46-31.487z" fill="#66b0f0"/><path d="M1518.477 108.967 54.567 916.257l-38.35-69.49a65.936 65.936 0 0 1 25.87-89.58l1348.26-743.97a65.93 65.93 0 0 1 89.58 25.88z" fill="#66b0f0"/><g fill="#fff"><circle cx="1415.48" cy="79.377" r="20.42"/><circle cx="1354.674" cy="112.957" r="20.42"/><circle cx="1293.867" cy="146.536" r="20.42"/></g></svg></g><g transform="translate(659.0 156.0) rotate(0.0 74.5 73.0) scale(2.2517416995360504 2.2164533709826784)"><svg width="66.171" height="65.871" viewBox="672.914 1091.439 66.171 65.871"><path d="M737.797 1132.632c-3.489-1.35-5.964-4.731-5.964-8.696a9.334 9.334 0 0 1 5.702-8.6 2.008 2.008 0 0 0 1.125-2.519 34.392 34.392 0 0 0-1.787-4.143c-.464-.907-1.546-1.345-2.49-.962a9.33 9.33 0 0 1-10.118-2.043 9.321 9.321 0 0 1-2.109-9.937c.365-.953-.088-2.029-1.006-2.476a34.275 34.275 0 0 0-4.198-1.712c-.959-.319-2.03.115-2.443 1.038-1.457 3.253-4.715 5.521-8.511 5.521s-7.054-2.268-8.511-5.521c-.413-.923-1.484-1.357-2.443-1.038a34.53 34.53 0 0 0-4.198 1.712c-.918.447-1.371 1.523-1.006 2.476a9.321 9.321 0 0 1-2.109 9.937 9.33 9.33 0 0 1-10.118 2.043c-.944-.384-2.026.054-2.49.962a34.552 34.552 0 0 0-1.787 4.143 2.008 2.008 0 0 0 1.125 2.519 9.334 9.334 0 0 1 5.702 8.6c0 3.966-2.476 7.346-5.964 8.696a2.006 2.006 0 0 0-1.19 2.487 34.483 34.483 0 0 0 1.684 4.218c.462.967 1.617 1.412 2.594.969 3.436-1.557 7.618-.929 10.443 1.896 2.861 2.861 3.469 7.113 1.837 10.573a2.004 2.004 0 0 0 .901 2.652 34.463 34.463 0 0 0 4.207 1.774c1.042.36 2.17-.2 2.541-1.239 1.288-3.609 4.73-6.193 8.781-6.193s7.493 2.584 8.781 6.193c.371 1.039 1.499 1.599 2.541 1.239a34.372 34.372 0 0 0 4.207-1.774 2.003 2.003 0 0 0 .901-2.652c-1.632-3.46-1.024-7.712 1.837-10.573 2.825-2.825 7.007-3.453 10.443-1.896.976.442 2.132-.002 2.594-.969a34.197 34.197 0 0 0 1.684-4.218 2.001 2.001 0 0 0-1.188-2.487zM706 1133.769a9.333 9.333 0 1 1 0-18.666 9.333 9.333 0 0 1 0 18.666z" fill="#3FB1B5"/></svg></g><g transform="translate(721.0 318.0) rotate(-11.288773628733724 52.5 51.5) scale(1.586797841954935 1.5636623096658622)"><svg width="66.171" height="65.871" viewBox="672.914 1091.439 66.171 65.871"><path d="M737.797 1132.632c-3.489-1.35-5.964-4.731-5.964-8.696a9.334 9.334 0 0 1 5.702-8.6 2.008 2.008 0 0 0 1.125-2.519 34.392 34.392 0 0 0-1.787-4.143c-.464-.907-1.546-1.345-2.49-.962a9.33 9.33 0 0 1-10.118-2.043 9.321 9.321 0 0 1-2.109-9.937c.365-.953-.088-2.029-1.006-2.476a34.275 34.275 0 0 0-4.198-1.712c-.959-.319-2.03.115-2.443 1.038-1.457 3.253-4.715 5.521-8.511 5.521s-7.054-2.268-8.511-5.521c-.413-.923-1.484-1.357-2.443-1.038a34.53 34.53 0 0 0-4.198 1.712c-.918.447-1.371 1.523-1.006 2.476a9.321 9.321 0 0 1-2.109 9.937 9.33 9.33 0 0 1-10.118 2.043c-.944-.384-2.026.054-2.49.962a34.552 34.552 0 0 0-1.787 4.143 2.008 2.008 0 0 0 1.125 2.519 9.334 9.334 0 0 1 5.702 8.6c0 3.966-2.476 7.346-5.964 8.696a2.006 2.006 0 0 0-1.19 2.487 34.483 34.483 0 0 0 1.684 4.218c.462.967 1.617 1.412 2.594.969 3.436-1.557 7.618-.929 10.443 1.896 2.861 2.861 3.469 7.113 1.837 10.573a2.004 2.004 0 0 0 .901 2.652 34.463 34.463 0 0 0 4.207 1.774c1.042.36 2.17-.2 2.541-1.239 1.288-3.609 4.73-6.193 8.781-6.193s7.493 2.584 8.781 6.193c.371 1.039 1.499 1.599 2.541 1.239a34.372 34.372 0 0 0 4.207-1.774 2.003 2.003 0 0 0 .901-2.652c-1.632-3.46-1.024-7.712 1.837-10.573 2.825-2.825 7.007-3.453 10.443-1.896.976.442 2.132-.002 2.594-.969a34.197 34.197 0 0 0 1.684-4.218 2.001 2.001 0 0 0-1.188-2.487zM706 1133.769a9.333 9.333 0 1 1 0-18.666 9.333 9.333 0 0 1 0 18.666z" fill="#3FB1B5"/></svg></g><g transform="translate(844.0 462.0) rotate(-6.363106887092658 -15.0 34.5) translate(-0.0 0.0) scale(-0.5000833472245374 0.515267603109528)"><svg width="47.992" height="133.911" viewBox="0 0 47.992 133.911"><path d="M16.73 133.911S3.147 81.388.43 42.449 8.037-17.116 26.691 18c15.395 28.977 32.194 45.19 32.194 45.19s5.166 25.57-6.838 47.177c-9.055 16.3-35.317 23.544-35.317 23.544z" fill="#f4ada2"/></svg></g><g transform="translate(969.0 381.0) rotate(0.0 -468.5 321.5) translate(-238.0 0.0) scale(-0.6226741095162148 0.6226396823859784)"><svg width="607.059" height="351.728" viewBox="382.222 0 607.059 351.728"><path d="M220.2 531.5c51 12 238.2 285.6 153.8 341.8-30.5 20.5-182.5-75-153.8-341.8zm1038.6-2.7c-86.2 79.7-138.8 323-88 346.5 48.1 22.2 101.8-172.4 88-346.5z" fill="#5b2448"/><path d="M1415.3 216.6c-.4-.8-.8-1.6-1.2-2.5-.4-1.2-.8-2.5-1.3-3.7 13.8-30.3 7-65.9-16-60.6 0 0-10.2-26.9-30.9-18.8-2.5-9.9-13.6-32.1-34-18.2-10.2-16.7-29.9-14.5-34.3 7.4-1.9 9.3 3.3 30.5 8.3 44.1-24-35.8-49-47.1-37.9-8 41.7 147.3 22.2 282.6 33.9 415.5l-43.1-43.1s-119.7 77.6-107.5 246.8c79.7 44.1 331.7 100.8 351.6-132.4 14.3-168.1-55.8-360.1-87.6-426.5z" fill="#f4ada2"/><path d="M1502.8 643.2c-16.7 194.6-189.1 198.9-296.9 159.7-2.1-.8-4.3-1.6-6.4-2.4-18.7-7.3-35.2-15.9-48.3-24.9-12-167.9 105.8-245.6 107.5-246.8l43.2 43.1c-11.7-132.9 7.8-268.2-33.9-415.5-11.1-39.2 13.9-27.8 37.9 8-5-13.7-10.1-34.9-8.3-44.1 4.4-21.9 24.1-24.1 34.3-7.4 20.4-13.9 31.5 8.3 34 18.2 20.7-8 30.9 18.8 30.9 18.8 23-5.3 29.8 30.2 16 60.6.5 1.2.9 2.4 1.3 3.7.4.8.8 1.6 1.2 2.5 31.8 66.3 101.9 258.3 87.5 426.5z" fill="#f4ada2"/><path d="M1310.7 171.7c0 .1.1.2.1.3 11.6 18.9 19.6 35.5 23.8 49.4.3 1.1 1.3 1.8 2.4 1.8.3 0 .5 0 .7-.1 1.3-.4 2.1-1.8 1.7-3.1-3-10-8-21.4-14.7-33.9 1.7.9 3.2 1.3 4.7 1.3.2 0 .5 0 .7-.1 2.6-.3 4.7-1.8 6.2-4.6 5.2 15.9 10.7 23.7 16.7 23.7.5 0 1 0 1.6-.2 5.2-1.2 9.5-8.6 12.4-19 1.5 14.3 4.6 22.9 9.2 25.6-6.8 15.1-12 39.9-8.4 62.1.2 1.2 1.3 2.1 2.5 2.1.1 0 .3-.1.4 0 1.4-.3 2.3-1.5 2.1-2.9-3.6-21.8 1.8-46.3 8.6-60.5 1.4-.3 2.7-.9 3.8-1.8 2.2-1.6 4.3-4.3 6.3-7.8.6 13.2 5 17.6 9.1 18.7.7.2 1.5.3 2.3.3 4.4 0 8.8-3.1 12-7.2-.3-.8-1.6-4.1-2.1-5.3 0 0 .1-.3 0 0-2.8 6-7.6 8.3-11 7.4-3.5-1-6.7-8.2-5-25.6v-.6c.7-2.1 1.3-4.3 1.9-6.6 3.1-12.4 3.9-25.2 2.3-35.8-1.4 0-2.7.2-4.2.5 2.6 23.1-6.1 51.4-14.6 58-2 1.5-2.9 1-3.3.8-7.2-3.5-7.9-34.5-8-43.9 1.1-11.7 1-24.1-.6-34.9-1.4.2-2.8.6-4.4 1.2 1.6 10 1.2 19.6.2 31.3-.1.3-.2.6-.2 1v1.1c-.4 3.9-.9 7.7-1.5 11.4-2.9 16.6-7.6 24.8-10.9 25.5-1.2.3-7.3.1-14.9-28.3 2.4-21.7.7-36.2-1.6-56.2-.3-2.1-.6-4.3-.8-6.5-1.4.7-2.8 1.5-4.3 2.5-.1-.2.1.2 0 0 .2 1.8.4 3.5.6 5.2 2.3 19.9 3.4 33.6 1 55.2-.6 5.7-2.1 9-4 9.2-6.5.7-20.7-19.3-30.2-41 1.7 8.1 4 16 6.5 22.7-.2-.3.2.3 0 0 .8 1.3 1 1.9 1.8 3.2 1.1 1.6 2.1 3.1 3.1 4.4zm-.5 454.5h.8c1.3-.5 2-1.9 1.6-3.2-.1-.3-7.7-23.6-10.7-51.2l-5.7-5.7c2.4 30.6 11.4 58 11.5 58.3.5 1.1 1.4 1.8 2.5 1.8zm-110.7 174.2c-18.7-7.3-35.2-15.9-48.3-24.9-12-167.9 105.8-245.6 107.5-246.8-60 98.3-65.4 219.5-59.2 271.7z" fill="#9b3c82"/><path d="M359 737.3c.1 10.2-.5 20.3-1.7 30.4-.2.1-.4.2-.6.4-11.9 7.6-27.1 14.5-44.5 20.2-2.1.7-4.3 1.4-6.4 2l-.9.3C196 823.2 12.4 807.7.9 608.3c-12.2-212 108.6-427.2 109.2-428.3-12.5-30.9-4.1-66.1 18.7-59.8 0 0 11.4-26.4 31.7-17.5 2.9-9.8 15-31.5 34.7-16.7 10.9-16.2 30.5-13.1 33.9 8.9 1.4 9.3-4.7 30.3-10.2 43.7 25.6-34.7 51.1-44.9 38.3-6.3-48.2 145.3-34.7 281.3-52.3 413.6l15.5-14.4s28.1 12.2 59.1 39c37.3 32.6 79 86.7 79.5 166.8z" fill="#f4ada2"/><path d="M119 192.5c.7 0 1.3-.1 2-.1 3.5-.8 8.8-4.4 10.3-18.3 1.8 3.6 3.9 6.5 6 8.4 1.2 1 2.6 1.7 4.1 2.1 6.1 14.5 10.4 39.1 5.8 60.6-.3 1.4.5 2.7 1.9 3 .1.1.3.1.5.1 1.1 0 2.1-.8 2.5-2.1 4.7-21.8.5-46.9-5.5-62.3 4.7-2.8 8-11.4 10.1-25.7 2 9 5.6 18.5 11.7 20.1.6.1 1.3.2 1.9.2 6 0 11.8-7.5 17.4-22.9 1.3 2.8 3.3 4.5 5.9 4.9.4.1.7.1 1.1.1 1.3 0 2.7-.4 4.2-1-7.3 12.2-12.7 23.3-16.1 33.1-.1.2-.1.5-.1.8 0 1.4 1.1 2.5 2.5 2.5 1.1 0 2.1-.7 2.4-1.7 4.8-13.7 13.5-29.9 26-48.3.1-.2.2-.3.2-.5.9-1.3 1.9-2.6 2.9-4 .7-1 1.5-2 2.2-3 2.7-6.6 5.5-15 7.6-23-10.5 21.3-25.8 41-32.3 40-1.8-.3-3.1-3.4-3.5-8.7.1-.4 0-.8-.1-1.2-1.3-21.4.8-35.6 4-55.2.3-1.7.4-2.6.6-4.4-1.5-1.1-3-2.1-4.4-2.8-.4 2.3-.7 4.4-1.1 6.5-3.2 20-5.5 34.4-4 56.4-8.8 27.8-15 27.7-16.1 27.4-3.3-.9-7.6-9.3-9.8-26-2-15.8-2.2-30.9.7-44.8-1.5-.7-3.1-1.2-4.6-1.5-1.9 10-2.6 21.5-2.2 33 0 .2-.1.3-.1.5-.3 6.9-2.2 41.5-10 44.9h-.1c-.5.2-.7.2-1.2.1s-1.1-.4-1.9-1.1c-3.3-2.8-6.6-9.3-9-17.6-.1-.5-.3-1.4-.5-2-3.2-12.2-5.3-25.6-2.1-38.8-1.5-.4-3.1-.7-4.5-.7-2.6 13.4-1.3 29.1 2.2 41.9.9 17.9-2.9 25.1-6.6 26-3.1.7-7.2-2.3-9.8-7.4 0 .1-1 1.8-2.7 5 3.2 4.8 7.5 7.5 11.6 7.5zm72.7 404.9c0 1.4 1.1 2.5 2.5 2.5 1.1 0 2-.7 2.4-1.6 6.3-18.9 10.9-38.1 14-57.7l-5.7 5.3v-.1c-3 18.7-7.1 32.7-13.1 50.8-.1.2-.1.5-.1.8zm224.9 63.8c.1 9.8-58.1 96-59.3 106.5-.2.1-.4.2-.6.4-11.9 7.6-27.1 14.5-44.5 20.2-2.1.7-4.3 1.4-6.4 2-2.2-70.3-50.8-199-85.6-258.8l59.1 39z" fill="#9b3c82"/><path d="M1170.7 875.2c-1.1-.6-67.6-27.8-109.3-69.5 0 0 12.1 43.4 29 106.2 7.4 27.5 15.8 58.8 24.4 91.7-82.9 17.6-214.9 29-363.6 29-87.6 0-169.4-4-238.8-10.8-.9-.1-1.8-.2-2.6-.3-33.5-3.4-64-7.4-90.8-12 0 0 6-47.2 12.1-100.9 3.3-29 6.5-60 8.8-86.3 0 0-38 36.1-65.8 51C400 853 321.2 638.1 220.2 531.5c0 0 243.6-267.7 432.6-117.7l189 8.3c39.8-30.6 148.2-141.7 416.9 106.5-80.5 77.1-135.2 310.5-88 346.6z" fill="#f94f46"/><path d="M521.1 704.9c-1.2-.6-2.7-.2-3.4 1-.4.7-36.2 65.1-78.5 117.1l.6-.6c-.2 2.8-.5 5.7-.8 8.6 44.4-53.1 82.7-122 83.1-122.7.6-1.2.2-2.8-1-3.4zm324.4-285.7c-1.3 1-2.5 2-3.7 2.9-.3.1-.5.2-.8.3 4.7 29.3 3.1 57.9-4.8 81.4-7.2 21.3-19.2 36.8-31.4 40.3-6 1.9-12.5.8-17.7-2.8-26.6-17.5-37.4-90-38.7-99.1 0-.2.1-.3.1-.3v-.3c-1.7 0-3.4-.1-5.1-.1h-.3c-4.1 7.6-8.6 17.2-13.3 27.5-15.5 34-34.7 75.7-56.5 75.7-1.4 0-2.8-.2-4.1-.5-7.7-1.8-14-8.1-18.8-18.5-12.8-27.9-11.2-80.9 2.8-111.5-.3-.2-.4-.3-.4-.3-1.2-1-2.5-1.9-3.7-2.9-6.9 14.5-11.4 35.1-12.3 56.9-1 23.3 2.3 45.1 9 59.7 5.5 11.9 13 19.1 22.2 21.3 1.8.4 3.5.6 5.3.6 25 0 44.9-43.3 61.1-78.6 1.9-4.1 3.7-8.1 5.5-11.8-.1.6-.2 1.2-.4 1.8 0 .1 0 .2-.1.3-.1.6-.2 1.1-.3 1.7 0 .2-.1.4-.1.6-.3 1.8-.7 3.6-1.1 5.5-.1.3-.1.6-.2.9-.1.5-.2 1-.3 1.6-.1.4-.1.7-.2 1.1-.1.5-.2 1-.3 1.6-.1.4-.2.9-.2 1.3l-.3 1.5c-.1.7-.3 1.3-.4 2-.1.6-.2 1.3-.4 1.9l-.3 1.8c-.1.4-.2.9-.3 1.3-.1.6-.2 1.1-.3 1.7-.1.5-.2.9-.3 1.4-.1.6-.2 1.3-.4 1.9-.1.4-.1.8-.2 1.2-.2 1-.4 2.1-.6 3.1-.1.3-.1.6-.2.9-.1.8-.3 1.6-.4 2.4-.1.4-.1.8-.2 1.2-.1.7-.3 1.5-.4 2.2-.1.4-.1.8-.2 1.2-.1.8-.3 1.6-.4 2.5-.1.3-.1.6-.2.9-.2 1.2-.4 2.3-.6 3.5 0 .1 0 .3-.1.4-.2 1-.4 2-.5 3.1-.1.4-.1.7-.2 1.1-.1.8-.3 1.7-.4 2.6-.1.4-.1.7-.2 1.1-.2.9-.3 1.9-.5 2.8 0 .2-.1.5-.1.7-.2 1.2-.4 2.5-.6 3.7v.1c-.2 1.2-.4 2.3-.6 3.5-.1.3-.1.7-.2 1-.1.9-.3 1.8-.4 2.7-.1.4-.1.7-.2 1.1-.2 1-.3 1.9-.5 2.9 0 .3-.1.5-.1.8-.2 1.3-.4 2.5-.6 3.8l-.6 3.6c0 .3-.1.6-.1.9-.1.9-.3 1.9-.4 2.8-.1.3-.1.7-.2 1-.1 1-.3 2-.4 2.9 0 .3-.1.5-.1.8-.4 2.5-.7 4.9-1.1 7.3 0 .3-.1.6-.1.9-.1.9-.3 1.9-.4 2.8 0 .3-.1.7-.1 1-.1.9-.3 1.9-.4 2.8 0 .3-.1.5-.1.8-.3 2.4-.6 4.7-.9 7.1 0 .3-.1.6-.1.9-.1.9-.2 1.7-.3 2.6 0 .3-.1.7-.1 1-.1.9-.2 1.7-.3 2.6 0 .3-.1.6-.1.8-.3 2.2-.5 4.4-.7 6.6 0 .3-.1.6-.1.9-.1.8-.2 1.6-.2 2.3 0 .3-.1.7-.1 1-.1.8-.1 1.5-.2 2.3 0 .3-.1.5-.1.8-.2 2-.3 4-.5 6 0 .3 0 .6-.1.8 0 .7-.1 1.4-.1 2 0 .3 0 .6-.1.9 0 .7-.1 1.3-.1 2v.8c0 .9-.1 1.8-.1 2.7 0 .9-.1 1.7-.1 2.5v7.8c0 .7 0 1.4.1 2v.6c0 .5.1.9.1 1.4 0 .2 0 .4.1.7 0 .4.1.9.1 1.3 0 .2 0 .4.1.6.1.6.1 1.1.2 1.7 1.8 12.3 9.4 22.2 21.9 28.6 5.7 3 11.8 5 18.2 6h.3c1.3 0 2.3-.9 2.6-2.1.1-1.4-.8-2.6-2.2-2.8-.3 0-31.9-4.5-35.8-30.3-.1-.5-.1-1.1-.2-1.6 0-.2 0-.4-.1-.6 0-.4-.1-.8-.1-1.2v-.7c0-.4-.1-.8-.1-1.3v-.7c0-.5 0-1-.1-1.6v-8.4c0-.6 0-1.2.1-1.8v-.8c.1-1.8.2-3.6.3-5.5 0-.3 0-.5.1-.8 0-.7.1-1.4.2-2.1 0-.3 0-.6.1-.9.1-.7.1-1.4.2-2.1 0-.3.1-.6.1-.9.1-.8.1-1.6.2-2.5 0-.2 0-.4.1-.6.1-1.1.2-2.1.3-3.2v-.3c.1-1 .2-1.9.3-2.9 0-.3.1-.6.1-.9l.3-2.4c0-.3.1-.7.1-1 .1-.8.2-1.7.3-2.5 0-.3.1-.6.1-.8.3-2.3.6-4.6.9-7 0-.2.1-.5.1-.7.1-.9.2-1.9.4-2.8 0-.3.1-.6.1-1 .1-.9.2-1.8.4-2.7 0-.3.1-.6.1-.9.1-1 .3-2.1.4-3.1 0-.2 0-.3.1-.5.3-2.5.7-5 1.1-7.5 0-.3.1-.6.1-.8.1-1 .3-1.9.4-2.9 0-.3.1-.7.1-1 .1-1 .3-2 .5-3 0-.3.1-.5.1-.8.4-2.5.8-5.1 1.2-7.6 0-.2.1-.3.1-.5.2-1.1.3-2.1.5-3.2.1-.3.1-.6.2-.9.2-1 .3-1.9.5-2.9.1-.3.1-.6.2-.9.2-1.1.3-2.1.5-3.1 0-.2.1-.4.1-.6.4-2.5.8-5 1.3-7.5 0-.3.1-.5.1-.8.2-1 .3-1.9.5-2.8.1-.3.1-.7.2-1 .2-.9.3-1.8.5-2.7.1-.3.1-.6.2-1 .4-2.4.8-4.8 1.3-7.1 0-.2.1-.5.1-.7.2-.9.3-1.9.5-2.8.1-.3.1-.7.2-1 .1-.8.3-1.6.4-2.4.1-.4.1-.8.2-1.1.2-.9.3-1.7.5-2.6 0-.2.1-.5.1-.7l.6-3.3v-.3c.2-1 .4-1.9.5-2.9.1-.4.1-.7.2-1.1.1-.7.3-1.3.4-2 .1-.4.2-.8.2-1.2l.3-1.8c.1-.4.2-.9.2-1.3.1-.6.2-1.1.3-1.7.1-.4.2-.8.2-1.2.2-.9.3-1.8.5-2.6.1-.4.2-.8.2-1.3.1-.5.2-1 .3-1.4.1-.5.2-.9.3-1.3s.2-.8.2-1.2l.3-1.5c.1-.3.1-.6.2-.9.1-.5.2-1 .3-1.6v-.1c.3-1.4.5-2.7.8-4 .1-.6.2-1.3.4-1.9v-.1c.1-.6.2-1.2.4-1.8 1.8 10 4 20 6.7 29.9 8.5 31.2 19.3 51.3 32.1 59.7 4.2 2.9 9.3 4.5 14.4 4.5 2.5 0 5-.3 7.3-.8 14-4 26.9-20.3 34.7-43.5 7.9-25.2 9.5-55.6 4.2-86.6zm145.7 292.5c-1.2.7-1.6 2.3-.8 3.4.4.6 33.8 55.2 74.5 103.3-1.6-5.7-2.7-9.6-3.2-11.5-37.3-45.6-66.8-93.8-67.1-94.4-.7-1.2-2.3-1.6-3.4-.8z" fill="#fcb6b1"/><path d="M692.1 81.1c29.5 27.4 75.4 158.2 75.4 158.2s51.6-25.9 79.5-29.9c2.4-.4 4.9-.6 7.4-.5 1.9-9.6 6.3-18.9 11.7-27.3 9.7-15 22.8-27.4 31.2-34.3 35.6-29.6 7.3-101-49.7-89.6 8.7-38.5-47.5-75.7-83.6-37.3C753.1 5.6 736.2-.4 723.2 0c-34.4 1.1-67.9 46.9-31.1 81.1z" fill="#5b2448"/><path d="M772 50.7c-.2 1.3.7 2.6 2.1 2.8h.4c1.2 0 2.3-.9 2.4-2.1 2.1-14.5-3.4-26.2-9.6-34.4-1.1 1-2.2 2.1-3.3 3.3-3.3-4.5-7.2-8.1-11.3-11.1 5.8 4.7 22.4 19.9 19.3 41.5z" fill="#9b3c82"/><path d="M589.9 201c-7.4 11.9-7.5 28.2 1.7 42.2 24 36.6 84 49.9 84 49.9s-11.5 66.5-22.8 120.8c0 0 76 56.5 189 8.3 0 0-16.7-75-32.2-130.4 25.6 9.2 65.5.4 76.8-33.1 6.8-20-5.6-45.5-27.6-49.9-21.4-4.3-34.2 3.2-57.7 11.7-21.8 7.9-21.4-2.7-21.2-25.8.2-20.5-5-41.3-10.3-54-11.9-28.7-50.5-49.2-77.5-59.8-10.1 19.5-21.4 38.3-34 56.3-21.8 31.8-50.9 36.1-68.2 63.8z" fill="#f4ada2"/><g fill="#5b2448"><path d="m763.9 160.6 1-2c.3-.6.5-1.3.8-1.9.4-1.3.8-2.5 1.1-3.9.5-2.6.8-5.3.7-8-.2-5.6-1.7-11.1-4.4-16-1.4-2.6-3.2-5-5.2-7.1-2.1-2.2-4.5-4-7.1-5.4s-5.4-2.4-8.3-2.8c-2.8-.5-5.7-.4-8.5.3-3.6.9-5.7 4.6-4.8 8.2.2.7.5 1.3.8 1.9l.7 1c1.3 2.1 2.6 3.6 3.6 5.1 1.1 1.4 2 2.8 2.8 4 1.7 2.5 3.1 4.6 4.7 7.1 1.6 2.4 3.1 5.2 4.8 8.3l2.7 5c.5.9.9 1.8 1.5 2.7 1.1 2.1 2.7 4 4.7 5.3 1.1.7 2.2 1.1 3.5 1.2 1.7.1 3.3-.6 4.4-2 .2-.4.4-.7.5-1zm-18.7 11.7c-5-4.1-17.2-13.5-26.4-26.3-1.3-1.8-3.8-2.2-5.6-.9-4.6 3.4-11.1 10.1-3.7 18 9.1 9.7 28.9 15.5 35.3 12.6 1-.5 1.5-1.7 1-2.7-.1-.3-.3-.5-.6-.7zm-70.6-50.6c5.3 3.6 9.7 5.4 20.7 9.5 2.1.7 3.2 3 2.4 5.1-1.9 5.4-7 9.2-15.6 5.9-9.5-3.7-11.7-13.2-10.8-19.1.2-1.1 1.2-1.9 2.4-1.7.3 0 .6.2.9.3z"/></g><path d="M789.9 280.7c-.9 1-.8 2.6.2 3.5 9 8.1 16.5 11.7 21.1 13.3-.5-1.9-1.1-3.8-1.6-5.7 1 .3 2 .7 3 1-4.1-1.5-10.9-4.9-19.2-12.3-1-.9-2.6-.8-3.5.2z" fill="#9b3c82"/><path d="M695.5 104.4c1.3.4 2.7.7 4.3 1.2 1.6.4 3.2 1 5.4 1.5l1.1.3c.6.1 1.3.2 1.9.1 3.3-.3 5.7-3.3 5.4-6.6-.3-2.5-1.1-5-2.4-7.3s-3-4.3-5-6.1c-.5-.4-1-.9-1.5-1.3-4.2-1.9-8.4-3.7-12.2-5.2-.1 0-.3 0-.4-.1-3.6 6.9-7.3 13.7-11.2 20.4 2.6.4 5 .8 7.1 1.3 2.6.6 4.9 1.2 7.5 1.8zm37.4 186.5c-22.3 7.9-57.2 2.2-57.2 2.2l-.1.1c-.2 1-2.7 15.7-6.5 36.4 51.1 5.3 68.1-32.6 63.8-38.7z" fill="#5b2448"/><circle cx="735.1" cy="220.5" fill="#e57281" opacity=".52" r="26.7"/><path d="M804.8 256c-1.4 0-2.5-1.1-2.5-2.5 0-.7.3-1.3.7-1.8 15.1-15.3 30.2-17.7 40.3-16.9 6.5.4 12.8 2.3 18.5 5.5 1.2.7 1.5 2.3.8 3.5-.7 1.1-2.2 1.5-3.4.8-1.1-.7-26.4-15.8-52.6 10.7-.5.4-1.1.7-1.8.7z" fill="#9b3c82"/><path d="M670.4 170.9c-.7 0-1.4-.4-1.8-1.1-3.6-6.8-4.6-11.4-3.3-14.9 1.7-4.5 6.9-6.3 13-8.4 13.3-4.6 14.8-11.6 14.8-11.7.2-1.1 1.2-1.8 2.3-1.6s1.8 1.2 1.6 2.3c-.1.4-1.6 9.4-17.4 14.9-5.9 2.1-9.5 3.5-10.5 6-.9 2.3.1 6 3.1 11.5.5 1 .2 2.2-.8 2.7-.4.2-.7.3-1 .3z" fill="#5b2448"/><path d="M674.8 221.3c.4-.6.7-1.2 1-1.9.3-.6.5-1.2.7-1.8.4-1.2.7-2.5.8-3.7.3-2.5.2-5.1-.3-7.6-.6-2.7-1.6-5.2-3.1-7.4-1.6-2.5-4-4.5-6.8-5.7-2.5-1-5.4.3-6.4 2.8-.2.4-.3.9-.3 1.4l-.1 1.6c-.2 1.9-.2 3.8 0 5.7.1 1.8.4 3.5.8 5.2.4 1.9 1 3.7 1.7 5.5.4.9.8 1.9 1.3 2.9.3.5.5 1 .8 1.5s.6 1 1 1.4l1.2 1.3c1.9 1.9 4.9 2 6.9.1.3-.5.6-.9.8-1.3z" fill="#9b3c82"/><circle cx="747.4" cy="540.8" fill="#fcb6b1" r="5.6"/><circle cx="741.8" cy="611.2" fill="#fcb6b1" r="5.6"/></svg></g><g transform="translate(188.0 280.0) rotate(52.5559491057036 26.5 159.5) scale(1.7277350371626028 1.770039173907736)"><svg width="30.676" height="180.222" viewBox="0 0 30.676 180.222"><rect fill="#5B2448" height="123.057" rx="5.977" width="11.954" x="9.022" y="18.895"/><rect fill="#66B0F0" height="20.071" rx="10.036" transform="matrix(0 1 -1 0 160.511 129.933)" width="70" x="-19.711" y="135.186"/><path d="M10.667 37.162h9.244c3.179 0 5.673-3.6 5.392-7.788L23.77 6.523C23.522 2.831 21.182 0 18.378 0H12.2C9.4 0 7.056 2.831 6.808 6.523L5.274 29.374c-.28 4.185 2.214 7.788 5.393 7.788z" fill="#5B2448"/><rect fill="#66B0F0" height="16.575" rx="8.287" width="30.676" y="105.889"/></svg></g><g transform="translate(189.0 454.0) rotate(-30.894094278455714 -46.0 47.0) translate(-18.0 0.0) scale(-0.6690909090909091 0.6719085060757684)"><svg width="110.598" height="84.833" viewBox="26.902 0 110.598 84.833"><path d="M77.5 106c-13.3 19.6-42.3 33.9-42.3 33.9-10.8-16.5-22-32.8-29.4-54.2C-8.5 44 6.5 56 19.5 68c7 6.3 14.4 12.2 22 17.7 0 0 17.7 12.9 36 20.3z" fill="#f4ada2"/><path d="M111.6 67.5c-.5 0-1.1-.1-1.6-.3-1.2-.4-4.2-1.5-5.1-12.2-7 17.6-11.4 20.4-14.3 20.8-.3 0-.5.1-.8.1-1.8-.1-3.5-1-4.5-2.6-2.3-3.1-3.7-9.3-4.4-16.8-3.1 13.5-7 20.9-11.7 22.5-.6.2-1.3.3-2 .3-1.8-.1-3.6-.8-4.8-2.2-4.2-4-7.4-13.1-8.8-23.1-7.1 41-16.8 19.9-18.1 16.3-5-14.3-6-31.3-1-45.3 8.1-22.8 30-13 30-13 1-2 11-14 24.9-4.1l.1.1c13-13 22-4 24-2 10-7 24-3 24 12 0 23.3-21.4 49.5-25.9 49.5z" fill="#f4ada2"/><g fill="#9b3c82"><path d="M64.5 12c-.2-.1-1.7-.7-3.9-1.2C52 25.2 48 47.1 51.2 65.4c.9-3.1 1.6-6.8 2.4-11.4.1 1.1-.6-19.8 10.9-42zm25-4c-1.2-.9-2.3-1.5-3.3-2-7.2 14.8-10.6 44.7-8.7 62.1 1.2-3.1 2.3-6.9 3.4-11.4.1-16.6 3.5-37.8 8.8-49-.1.2-.1.2-.2.3zm24-2c-.6-.6-1.6-1.6-3.1-2.6-8.7 15.6-11.4 45-8.5 58.5.9-2 2-4.2 3-6.8.1.9-1.5-27.7 8.6-49.1z"/></g></svg></g><g transform="translate(223.0 236.0) rotate(0.0 53.5 50.0) scale(0.9188887457598008 0.917044183188746)"><svg width="116.445" height="109.046" viewBox="0 0 116.445 109.046"><g fill="#F94F46"><path d="M113.943 85.243a2.5 2.5 0 0 1-2.5-2.434l-2.091-80.243a2.5 2.5 0 1 1 5-.131l2.094 80.243a2.5 2.5 0 0 1-2.434 2.564zm-50.116 23.803a2.483 2.483 0 0 1-1.611-.59L.887 56.667a2.5 2.5 0 0 1 3.226-3.82l61.328 51.789a2.5 2.5 0 0 1-1.614 4.41z"/></g></svg></g><g transform="translate(877.0 287.0) rotate(-9.132944273427743 40.0 39.5) scale(1.2089888319656645 1.1993138103262437)"><svg width="66.171" height="65.871" viewBox="672.914 1091.439 66.171 65.871"><path d="M737.797 1132.632c-3.489-1.35-5.964-4.731-5.964-8.696a9.334 9.334 0 0 1 5.702-8.6 2.008 2.008 0 0 0 1.125-2.519 34.392 34.392 0 0 0-1.787-4.143c-.464-.907-1.546-1.345-2.49-.962a9.33 9.33 0 0 1-10.118-2.043 9.321 9.321 0 0 1-2.109-9.937c.365-.953-.088-2.029-1.006-2.476a34.275 34.275 0 0 0-4.198-1.712c-.959-.319-2.03.115-2.443 1.038-1.457 3.253-4.715 5.521-8.511 5.521s-7.054-2.268-8.511-5.521c-.413-.923-1.484-1.357-2.443-1.038a34.53 34.53 0 0 0-4.198 1.712c-.918.447-1.371 1.523-1.006 2.476a9.321 9.321 0 0 1-2.109 9.937 9.33 9.33 0 0 1-10.118 2.043c-.944-.384-2.026.054-2.49.962a34.552 34.552 0 0 0-1.787 4.143 2.008 2.008 0 0 0 1.125 2.519 9.334 9.334 0 0 1 5.702 8.6c0 3.966-2.476 7.346-5.964 8.696a2.006 2.006 0 0 0-1.19 2.487 34.483 34.483 0 0 0 1.684 4.218c.462.967 1.617 1.412 2.594.969 3.436-1.557 7.618-.929 10.443 1.896 2.861 2.861 3.469 7.113 1.837 10.573a2.004 2.004 0 0 0 .901 2.652 34.463 34.463 0 0 0 4.207 1.774c1.042.36 2.17-.2 2.541-1.239 1.288-3.609 4.73-6.193 8.781-6.193s7.493 2.584 8.781 6.193c.371 1.039 1.499 1.599 2.541 1.239a34.372 34.372 0 0 0 4.207-1.774 2.003 2.003 0 0 0 .901-2.652c-1.632-3.46-1.024-7.712 1.837-10.573 2.825-2.825 7.007-3.453 10.443-1.896.976.442 2.132-.002 2.594-.969a34.197 34.197 0 0 0 1.684-4.218 2.001 2.001 0 0 0-1.188-2.487zM706 1133.769a9.333 9.333 0 1 1 0-18.666 9.333 9.333 0 0 1 0 18.666z" fill="#5B2448"/></svg></g></svg>