<svg xmlns="http://www.w3.org/2000/svg" viewBox="0 0 3000 2100" width="3000" height="2100"><g transform="translate(163.5 223.5) rotate(0.0 445.5 504.75) scale(1.5014306561471031 1.5007247184747465)"><svg width="593.434" height="672.675" viewBox="0 0 593.434 672.675"><path d="M355.576 110.976c-5.073 34.762 2.224 68.179 26.131 79.124s58.656 27.347 139.552-12.962c40.336-20.099 32.531-88.029 14.456-115.645C515.7 30.914 486.249 2.412 462.881 7.562c-68.108 15.012-99.799 51.985-107.305 103.413z" fill="#fff"/><path d="M591.035 65.663c-2.98-4.057-10.114-5.658-16.958-2.502-11.891 5.484-25.019 10.842-25.019 10.842-5.977-15.985-14.866-28.131-19.737-35.861 0 0 23.993-14.914 29.05-22.378 2.919-4.309-3.187-10.775-5.004-12.788-1.872-2.073-5.838-4.448-11.815-1.807-5.388 2.381-30.453 17.176-30.453 17.176s-1.124-.851-8.744-6.195c-19.209-13.472-41.377-15.879-63.364-5.96-14.896 6.72-35.572 15.725-48.389 25.836-59.501 46.943-51.624 122.582-51.624 122.582S161.536 265.817 86.916 382.256C34.942 463.358 6.973 564.659.128 649.203c-.814 10.049 2.135 18.769 12.301 22.3 10.372 3.602 18.877-1.425 22.877-10.56 4.203-9.598 6.978-20.162 8.412-30.575 8.375-60.81 32.787-190.473 110.575-272.666 51.293-54.197 130.116-116.626 203.895-164.1 0 0 15.747 16.803 58.824 19.119 42.029 2.26 79.391-7.389 115.923-29.467 28.816-17.415 26.606-62.592 24.185-82.842 0 0 9.19-2.94 29.884-15.29 8.618-5.143 7.05-15.349 4.031-19.459zM398.997 186.019c-24.465-7.213-35.975-24.817-35.859-50.694.182-40.913 21.082-70.768 50.87-96.279 0 0-2.833 43.297 11.345 74.71 18.722 41.482 46.308 60.099 63.553 64.796-31.565 9.609-60.292 16.198-89.908 7.467zm138.942-38.348c-5.208 14.036-20.132 15.95-33.888 9.47-9.479-4.466-60.314-22.898-67.857-103.987-2.224-23.907 17.941-37.053 35.583-34.471 8.251 1.208 21.721 12.772 21.721 12.772-9.536 6.933-16.243 11.84-22.982 16.7-6.415 4.626-9.129 10.36-4.171 17.414 4.972 7.075 11.753 6.036 18.125 2.3 4.808-2.819 9.01-6.655 13.594-9.878 4.514-3.174 9.168-6.148 14.529-9.722 2.937 3.42 5.792 6.163 7.997 9.378 8.72 12.71 11.931 21.981 11.931 21.981s-30.859 14.252-35.37 22.953c-1.737 3.352-.823 11.002 1.906 14.116 2.641 3.013 9.478 4.388 13.811 3.445 8.475-1.845 16.489-5.806 24.693-8.891 0 0 4.643 24.925.379 36.42z"/></svg></g><g transform="translate(1924.5 247.5) rotate(0.0 463.5 498.0) scale(1.5008378463705467 1.501374752785683)"><svg width="617.655" height="663.392" viewBox="0 0 617.655 663.392"><path d="M17.981 156.769C6.908 144.163 2.299 102.653 29.171 61.14c26.872-41.514 43.974-54.248 74.872-48.186s83.398 59.12 91.552 79.32c8.154 20.201 8.154 41.143 1.112 59.305s-33.712 36.324-90.709 34.471-82.158-22.61-88.018-29.282z" fill="#fff"/><path d="M613.586 542.065c-12.529-76.554-38.93-149.198-85.174-211.679-77.064-104.119-318.22-204.01-318.22-204.01s3.884-30.809-12.373-51.523c-22.981-29.282-45.767-42.366-71.003-62.031-21.701-16.91-44.384-17.071-66.417-.621C20.944 41.66-1.084 94.081.041 130.667c.566 18.389 5.506 35.27 24.251 43.346 13.597 5.857 27.592 11.069 41.822 15.122 41.653 11.863 105.203 7.666 126.507-16.035 6.576 1.697 179.122 47.12 301.537 185.492 49.412 55.853 89.597 161.297 87.196 267.084-.189 8.322-1.501 16.984.296 24.901 2.81 12.382 14.271 16.725 23.973 8.871 5.627-4.555 11.882-12.629 11.881-19.118-.007-32.791 1.341-66.125-3.919-98.264zM63.174 149.387c-4.037 4.905-10.5 9.456-16.564 10.727-15.58 3.266-28.79-5.708-28.628-37.412.162-31.749 16.799-61.33 38.743-86.984 3.787-4.427 9.305-7.642 14.511-10.541 20.297-11.303 39.551-3.607 36.513 19.562-4.929 37.59-19.825 74.575-44.575 104.649zm96.028 23.071c-23.025 8.231-55.105 7.248-80.072-2.933 20.269-16.188 31.029-40.193 38.489-63.49 8.696-27.156 12.325-69.859 12.325-69.859 23.145 19.614 50.205 37.343 61.126 69.759 8.876 26.347-5.783 57.198-31.868 66.523zM55.209 100.197c17.514 6.878 3.058 32.803-7.886 32.272-7.977-.387-11.141-5.38-11.341-12.649-.371-13.507 12.638-22.211 19.227-19.623zm26.101-56.68c3.754 1.468 7.131 8.118 7.077 12.568-.17 13.938-11.947 21.382-20.498 17.897-3.219-1.312-6.286-5.754-4.614-15.852 1.72-10.384 9.33-18.016 18.035-14.613z"/></svg></g><g transform="translate(355.5 157.5) rotate(0.0 1098.0 887.25) scale(1.499866815105216 1.4976591953911427)"><svg width="1464.13" height="1184.849" viewBox="0 0 1464.13 1184.849"><path d="M514.556 777.092c4.081 0 7.87 1.021 11.153 3.059 6.755 4.192 10.846 12.213 11.521 22.586.192 2.961.052 5.878-.084 8.7-.041.847-.082 1.693-.113 2.538-.727 19.563-1.197 39.48-1.651 58.742-.769 32.62-1.565 66.35-3.636 99.498-.904 14.478-2.55 28.153-4.293 42.632-1.481 12.304-3.012 25.026-4.045 38.293-2.171 27.874 6.234 50.184 25.694 68.203 26.849 24.861 118.517 59.372 220.796 59.505 47.204.096 89.161-5.015 128.274-15.52 29.779-7.999 55.068-21.357 77.313-40.836 27.945-24.472 38.976-52.94 34.716-89.591-8.619-74.162-16.261-153.933-13.842-234.784.264-8.823 1.689-17.882 4.235-26.926 1.965-6.978 6.136-11.992 11.745-14.118 5.52-2.092 11.831-1.14 17.769 2.682 7.061 4.545 13.309 10.293 19.35 15.853 1.081.995 2.16 1.988 3.242 2.973 4.524 4.116 8.951 8.459 13.232 12.66 7.785 7.639 15.835 15.537 24.517 22.075 23.84 17.953 51.199 20.953 77.037 8.445a4.004 4.004 0 0 1 2.429-.34c.395.069 39.96 6.848 80.46 4.956 31.13-1.453 73.764-19.892 96.999-36.879 37.365-27.319 55.1-46.955 75.908-84.042 9.318-16.608 17.395-34.811 24.008-54.102 16.597-48.418 13.86-99.045 9.62-137.742-3.955-36.101-10.696-72.584-17.215-107.866-2.652-14.353-5.394-29.195-7.915-43.822-.145-.843-.349-1.958-.596-3.315-1.794-9.847-5.996-32.906-7.191-57.21a3.993 3.993 0 0 1 .115-1.167c4.562-18.248 2.132-45.203 1.217-55.35-.179-1.99-.288-3.191-.309-3.896-.415-13.971-3.625-23.398-9.816-28.82-5.749-5.036-14.414-6.882-26.492-5.641a3.998 3.998 0 0 1-3.858-1.954c-12.233-20.833-28.939-15.09-29.106-15.03a4 4 0 0 1-4.182-.929c-5.347-5.328-10.884-7.894-16.455-7.646-9.227.421-16.196 8.226-17.5 9.786-1.24 1.485-3.379 1.884-5.06.927-8.509-4.841-16.018-4.567-19.038-1.793-30.051 27.594-13.115 106.208-5.883 139.777.849 3.942 1.583 7.347 2.155 10.218 2.988 15.005 6.386 30.228 9.673 44.949 6.084 27.254 12.375 55.436 16.366 83.548 6.584 46.381-1.822 91.096-24.309 129.308-8.462 14.378-17.438 24.439-27.442 30.758-15.854 10.015-29.329 5.925-37.379 3.482a180.08 180.08 0 0 0-1.743-.523 3.998 3.998 0 0 1-2.775-2.951c-4.811-21.149-14.85-33.634-22.18-42.75a496.688 496.688 0 0 1-1.559-1.945c-32.282-40.523-70.248-74.849-112.841-102.025-51.763-33.026-115.086-64.822-192.271-50.258-11.338 2.14-21.035.268-28.822-5.564-9.486-7.104-15.384-19.791-17.056-36.688-1.213-12.258 3.156-20.577 12.985-24.726 32.523-13.728 43.699-37.271 34.167-71.975-3.192-11.622.123-21.688 10.133-30.772 7.003-6.355 10.183-11.129 10.312-15.48.128-4.356-2.785-9.332-9.447-16.135-16.18-16.523-33.678-37.194-40.774-65.225-1.736-6.857-15.302-38.606-18.738-41.874a4.002 4.002 0 0 1 .016-5.813c.06-.059 8.398-8.359 12.145-29.476 4.255-23.985-1.969-43.596-19.03-59.953-16.641-15.954-42.455-26.077-65.754-25.789-42.076.522-75.753 22.574-100.096 65.544-5.113 9.026-13.439 16.008-21.491 22.761-1.681 1.41-3.352 2.811-4.978 4.219-3.544 3.07-8.134 6.505-12.994 10.142-6.847 5.125-13.928 10.423-18.296 14.881-25.241 25.758-38.558 60.646-37.497 98.237 1.118 39.622 18.309 77.431 47.165 103.732 17.036 15.527 32.917 28.451 54.782 29.333 2.35.095 5.909.286 5.909.286a4 4 0 0 1 3.783 3.854c.054 1.529 1.293 37.604-.489 51.582-2.908 22.805-12.532 31.174-36.779 31.979-2.251.075-4.593.148-7.004.225-19.296.61-43.311 1.369-60.878 3.835-93.924 13.183-178.258 63.48-257.821 153.765-18.077 20.513-17.701 38.361-17.695 38.54a4.023 4.023 0 0 1-2.844 3.983c-2.503.754-61.696 18.241-96.072-.838-11.143-6.184-18.48-15.537-21.807-27.798l-.199-.728c-6.33-23.025-16.218-70.7-11.325-131.298 9.089-112.575 4.376-177.811-2.421-199.469-7.553-24.067-33.766-45.53-37.231-47.736-5.943-3.785-11.223-5.108-15.69-3.929-4.895 1.291-9.361 5.683-13.274 13.053-.806 1.518-1.544 3.164-2.326 4.907a221.47 221.47 0 0 1-1.273 2.802 4.003 4.003 0 0 1-4.959 2.086 358.598 358.598 0 0 1-3.705-1.34c-2.334-.855-4.538-1.663-6.704-2.316-14.555-4.387-23.41-.321-30.564 14.036-2.621 5.262-10.674 7.464-14.567 7.894-10.607 1.169-15.874 5.358-18.179 14.458-.954 3.764-4.025 7.857-7.642 10.187C3.34 304.504.584 313.61 7.767 329.671c.495 1.107.98 2.223 1.466 3.34 1.917 4.412 3.728 8.58 6.167 12.276 3.423 5.188 24.406 55.349 27.913 108.888 2.275 34.733.548 70.067-1.122 104.238l-.339 6.968c-2.251 46.561-1.38 85.627 10.187 124.945 11.566 39.316 33.436 73.233 65.004 100.807 63.138 55.153 143.935 67.1 233.656 34.549a3.996 3.996 0 0 1 3.887.657c.145.116 16.283 12.666 45.404 7.849 25.824-4.272 46.09-17.704 64.145-31.583 12.883-9.903 25.947-17.647 38.83-23.018 3.993-1.665 7.909-2.495 11.588-2.495z" fill="#fff"/><path d="M1435.721 363.245c-1.209-7.02-6.388-32.677-7.733-60.042 5.56-22.239 1.142-56.438 1.026-60.334-.88-29.643-14.139-41.051-40.714-38.321-14.057-23.939-33.914-16.767-33.914-16.767-20.73-20.655-38.873 1.243-39.86 2.424-9.781-5.565-19.154-5.457-23.721-1.263-35.126 32.254-10.811 124.274-4.946 153.722 8.523 42.8 19.88 85.159 26.001 128.278 6.266 44.14-.812 87.661-23.796 126.717-6.551 11.131-15.071 22.419-26.13 29.405-15.398 9.727-27.799 4.865-35.861 2.502-5.375-23.629-17.061-36.949-24.511-46.3-32.266-40.502-70.112-75.019-113.818-102.905-59.519-37.974-121.656-64.688-195.164-50.816-24.123 4.552-38.437-11.245-41.155-38.715-.931-9.404 1.423-16.789 10.56-20.646 34.988-14.769 46.404-40.547 36.468-76.72-2.929-10.665.554-19.119 8.964-26.751 15.254-13.843 15.397-22.709 1.035-37.376-17.917-18.296-33.293-37.884-39.754-63.408-1.64-6.477-15.252-39.41-19.86-43.791 0 0 9.267-8.71 13.344-31.691 4.367-24.611-1.825-45.921-20.2-63.539C824.685 10.326 797.8-.296 773.408.006c-44.85.556-79.347 24.888-103.527 67.571-5.791 10.223-16.412 17.964-25.607 25.928-8.435 7.307-23.795 17.356-31.528 25.247-56.409 57.562-49.456 153.688 9.83 207.725 16.107 14.681 33.195 29.401 57.316 30.373 2.329.094 5.856.283 5.856.283s1.302 37.119-.459 50.936c-2.738 21.478-11.15 27.763-32.943 28.487-20.438.679-48.325 1.292-68.305 4.096-104.1 14.612-188.316 73.437-260.266 155.081-19.525 22.156-18.691 41.338-18.691 41.338s-97.853 29.467-112.865-25.853c-1.849-6.813-17.137-59.569-11.398-130.656 8.521-105.541 5.381-175.585-2.591-200.988s-35.203-47.559-38.899-49.913c-15.017-9.563-26.357-4.989-34.646 10.624-1.29 2.43-2.34 4.987-3.693 7.898-3.904-1.379-7.201-2.693-10.586-3.714-16.755-5.051-27.454.337-35.299 16.082-1.545 3.103-7.35 5.252-11.425 5.701-11.258 1.241-18.708 5.965-21.618 17.451-.748 2.95-3.311 6.12-5.93 7.806-16.467 10.604-20.053 21.822-12.016 39.794 2.456 5.491 4.661 11.208 7.945 16.186 2.385 3.616 23.739 53.196 27.261 106.947 2.412 36.825.318 73.888-1.465 110.752-2.062 42.65-1.977 84.385 10.345 126.267 12.19 41.44 34.879 75.324 66.209 102.691 69.193 60.442 152.772 66.091 237.652 35.296 0 0 17.097 13.9 48.581 8.691 25.552-4.227 45.96-17.007 65.93-32.357 11.601-8.917 24.472-16.886 37.932-22.497 15.977-6.66 27.599 2.295 28.732 19.718.234 3.59-.069 7.221-.203 10.829-1.96 52.705-1.994 105.504-5.282 158.139-1.688 27.009-6.114 52.35-8.334 80.864-2.207 28.348 6.211 52.232 26.964 71.448 29.284 27.115 122.87 60.439 223.509 60.571 43.183.056 86.312-4.106 129.316-15.657 30.039-8.069 56.033-21.656 78.91-41.689 28.015-24.534 40.553-54.357 36.054-93.062-9.033-77.726-16.165-155.743-13.817-234.202.261-8.703 1.727-17.577 4.087-25.962 3.286-11.671 13.337-15.696 23.499-9.156 7.998 5.147 14.975 11.969 22.065 18.42 12.747 11.597 24.344 24.662 38.034 34.972 23.763 17.895 52.345 22.812 81.186 8.851 0 0 39.887 6.945 81.333 5.011 30.833-1.439 74.247-19.422 99.173-37.646 36.163-26.44 54.812-45.702 77.036-85.314 9.737-17.356 17.846-35.924 24.303-54.762 15.573-45.43 14.916-92.896 9.812-139.474-5.582-50.952-16.445-101.33-25.164-151.931zM78.98 259.778c16.078 2.561 43.509 37.458 42.06 53.702-.195 2.183-3.06 5.815-9.122 3.329s-29.501-24.693-40.468-44.954c-4.318-7.977-.242-13.315 7.53-12.077zm-26.855 18.638c2.643.982 6.164 3.89 8.927 7.071 9.72 11.191 19.58 22.34 28.214 34.349 3.023 4.206 4.103 11.023 3.468 16.336-.784 6.564-8.614 7.662-15.324 3.718-16.944-9.961-28.164-21.086-36.625-39.061-4.997-10.616 1.42-26.1 11.341-22.414zm-33.874 47.92c-2.033-6.28-5.059-15.72 1.983-18.871s56.34 56.154 42.862 65.734c-12.297 8.741-37.651-24.644-44.846-46.864zm323.397 486.147s-107.174 49.206-199.279-20.253c-3.482-2.626-71.355-32.842-91.549-157.863-2.086-12.917.213-26.454 1.861-39.513 7.02-55.621 7.985-111.335 4.917-167.127-.348-6.333-2.517-27.635-3.616-33.631 19.998 1.4 27.04-10.646 25.067-32.424 20.135 6.396 32.923-10.099 28.893-29.403 18.115 6.518 37.389-10.348 25.269-42.967-4.325-11.639-9.932-22.81-13.897-34.552-1.253-3.712-2.826-9.782 1.495-12.912s9.799 1.071 12.552 3.784c17.997 17.737 28.535 39.438 31.637 64.588 5.101 41.356 2.034 71.805-2.372 112.955-5.791 54.084-7.177 118.634 6.808 171.888 7.213 27.466 18.626 54.237 45.19 65.649 30.412 13.064 74.434-1.443 87.746-5.848 7.161 103.421 39.277 157.628 39.277 157.628zm327.564-520.576c-17.815-.578-30.678-16.214-29.665-33.056.901-14.98 13.861-22.697 27.219-16.206 37.636 18.289 77.353-5.858 79.521-48.346 1.507-29.55 5.653-33.197 33.427-41.364 18.539-5.452 36.048-14.403 58.318-23.555 0 0 10.602 20.631 16.366 45.577 5.962 25.803 21.98 45.876 40.916 64.389 9.348 9.139 9.124 15.516-.901 24.327-8.659 7.61-10.219 16.686-9.241 27.112.862 9.181 1.483 18.388 2.51 27.55 2.011 17.952-6.201 31.422-21.498 38.117-27.117 11.868-32.68 32.15-28.968 58.803 5.339 38.34-5.468 53.24-43.342 62.521-20.843 5.108-41.415 3.823-61.562-3.226-16.381-5.732-24.655-19.23-25.852-36.589-2.587-37.536-6.099-75.01-9.468-112.489-.425-4.727-1.473-10.819-2.531-15.506-2.943-13.022-11.111-17.602-25.247-18.061zm101.231 287.065c-.443-5.542 5.923-10.567 10.241-10.853 4.583-.304 9.825 2.07 11.721 9.393 1.529 5.908-2.772 13.078-10.373 13.335s-11.032-4.925-11.588-11.875zm14.1 39.854c4.869-.406 13.316 3.566 13.392 11.346.076 7.816-10.232 10.965-12.549 10.584-5.491-.904-9.799-6.603-9.897-10.36-.098-3.775 4.014-11.15 9.054-11.57zm16.673 55.914c1.39 6.672-5.205 11.536-9.05 11.559-4.278.025-8.102-1.969-10.047-8.362-1.477-4.853 1.492-12.442 8.207-12.844 7.27-.436 10.132 6.006 10.891 9.648zm78.991-128.683c-14.674 33.949-44.436 37.362-64.123 9.44 4.512 28.125 8.366 61.702 12.355 89.386 1.997 13.856 3.892 27.966 3.289 41.851-.273 6.297-1.239 29.565-40.144 27.063-11.856-.762-13.524-6.994-14.191-9.174 0 0 13.006-.19 22.795-2.78 17.581-4.65 22.9-17.42 20.178-35.094-5.979-38.805-12.116-82.157-16.052-121.187l-23.764-33.484s-30.291 37.196-39.851 51.511c-13.875 20.777-43.338 28.748-55.714 9.654-16.288-25.13-33.127-78.833-30.889-115.13.202-3.282 3.342-11.884 9.736-14.386-4.795 15.012 2.347 47.612 5.561 58.549 6.824 23.228 12.155 38.811 24.218 58.494 4.777 7.794 13.251 12.089 21.467 5.877 8.688-6.568 16.521-14.733 23.204-23.378 8.037-10.396 32.372-38.441 40.593-47.882a3.431 3.431 0 0 1 5.306.157c6.683 8.643 35.412 47.284 37.699 50.043 16.095 19.418 34.14 16.393 44.07-6.635 11.151-25.858 12.595-47.107 9.85-74.515-.267-2.665-2.344-15.272-3.415-23.374 7.029 3.081 10.822 10.098 12.033 13.922 9.331 29.461 8.11 62.559-4.213 91.07zm524.235-328.716c14.557 2.743 13.974 79.576 1.492 80.303-2.042.119-9.591-5.329-10.511-8.544-6.293-21.999-5.538-74.502 9.019-71.759zm-36.594-18.107c18.705 2.539 11.164 108.378-2.732 94.825-13.895-13.553-15.973-97.364 2.732-94.825zm-43.144-2.773c1.165-3.177 6.349-7.045 11.134-6.259 4.212.692 5.3 5.817 5.203 8.894-.554 17.574-1.331 35.198-3.383 52.645-.981 8.342-7.126 36.411-15.26 24.06s-7.438-52.767 2.307-79.34zm74.732 530.058c-49.795 64.358-114.707 94.862-194.894 84.419-3.559-.463-17.667-4.002-17.667-4.002s45.591-71.454 42.069-157.169c0 0 31.691 11.305 60.327-20.427 29.351-32.523 43.303-70.88 43.422-114.081.143-51.747-9.404-102.11-25.333-151.268-14.592-45.031-24.242-90.725-18.069-138.387 1.313-10.139 9.058-23.73 17.603-22.221.073 15.727-3.624 52.317 5.355 78.692 1.81 5.315 10.467 15.484 15.529 14.11 11.019-2.991 14.719-16.278 16.141-19.048 12.763 33.026 23.735 38.524 41.736 21.062 7.644 10.107 17.327 15.144 30.89 9.442.831 11.42 1.284 22.042 2.431 32.588 3.724 34.241 7.359 68.498 11.669 102.667 5.264 41.731 12.791 83.239 16.419 125.097 5.083 58.638-11.155 111.382-47.629 158.523z"/></svg></g></svg>