<svg xmlns="http://www.w3.org/2000/svg" viewBox="0 0 1400 1500" width="1400" height="1500"><g transform="translate(184.0 764.0) rotate(0.0 316.5 325.5) scale(1.000401424900355 1.000696337082486)"><svg width="632.746" height="650.547" viewBox="0 0 632.746 650.547"><path d="M33.958 38.237h564.829v499.474H33.958z" fill="#fff"/><path d="M598.788 543.711H33.958a6 6 0 0 1-6-6V38.238a6 6 0 0 1 6-6h564.829a6 6 0 0 1 6 6v499.474a5.999 5.999 0 0 1-5.999 5.999zm-558.83-12h552.829V44.238H39.958z"/><path d="M556.915 131.001H75.831a6 6 0 0 1 0-12h481.084a6 6 0 0 1 0 12z"/><path d="M562.119 511.731H70.627a6 6 0 0 1-6-6V38.238a6 6 0 0 1 6-6h491.492a6 6 0 0 1 6 6v467.493a6 6 0 0 1-6 6zm-485.492-12h479.492V44.238H76.627z"/><path d="M21.088 45.033h590.569c8.333 0 15.088-7.381 15.088-16.485v-6.063C626.746 13.381 619.99 6 611.657 6H21.088C12.755 6 6 13.381 6 22.485v6.063c0 9.105 6.755 16.485 15.088 16.485z" fill="#fff"/><path d="M611.657 51.033H21.088C9.46 51.033 0 40.947 0 28.548v-6.062C0 10.087 9.46 0 21.088 0h590.569c11.628 0 21.088 10.087 21.088 22.485v6.062c.001 12.4-9.46 22.486-21.088 22.486zM21.088 12C16.077 12 12 16.704 12 22.486v6.062c0 5.781 4.077 10.485 9.088 10.485h590.569c5.011 0 9.088-4.704 9.088-10.485v-6.062c0-5.781-4.077-10.485-9.088-10.485H21.088z"/><path d="M576.281 644.547h22.506V537.711h-40.063z" fill="#fff"/><path d="M598.788 650.547h-22.506a6.001 6.001 0 0 1-5.921-5.027l-17.557-106.836a5.998 5.998 0 0 1 5.921-6.972h40.063a6 6 0 0 1 6 6v106.836a6 6 0 0 1-6 5.999zm-17.412-12h11.412v-94.836h-26.997z"/><path d="M56.465 644.547H33.958V537.711h40.063z" fill="#fff"/><path d="M56.465 650.547H33.958a6 6 0 0 1-6-6V537.711a6 6 0 0 1 6-6h40.063a6 6 0 0 1 5.921 6.972L62.385 645.52a6 6 0 0 1-5.92 5.027zm-16.507-12H51.37l15.585-94.836H39.958z"/><circle cx="143.012" cy="86.232" r="8.337"/><path d="M143.012 100.57c-7.906 0-14.337-6.432-14.337-14.337s6.431-14.337 14.337-14.337 14.337 6.432 14.337 14.337-6.432 14.337-14.337 14.337zm0-16.674c-1.289 0-2.337 1.048-2.337 2.337s1.048 2.337 2.337 2.337 2.337-1.048 2.337-2.337-1.049-2.337-2.337-2.337z"/><circle cx="239.626" cy="86.232" r="8.337"/><path d="M239.626 100.57c-7.906 0-14.337-6.432-14.337-14.337s6.431-14.337 14.337-14.337 14.337 6.432 14.337 14.337-6.431 14.337-14.337 14.337zm0-16.674c-1.289 0-2.337 1.048-2.337 2.337s1.048 2.337 2.337 2.337 2.337-1.048 2.337-2.337-1.048-2.337-2.337-2.337z"/><circle cx="336.241" cy="86.232" r="8.337"/><path d="M336.241 100.57c-7.906 0-14.337-6.432-14.337-14.337s6.431-14.337 14.337-14.337 14.337 6.432 14.337 14.337-6.432 14.337-14.337 14.337zm0-16.674c-1.289 0-2.337 1.048-2.337 2.337s1.048 2.337 2.337 2.337 2.337-1.048 2.337-2.337-1.049-2.337-2.337-2.337z"/></svg></g><g transform="translate(770.0 443.0) rotate(19.482734582203488 -159.5 123.0) scale(-1.0058554027678366 1.0039955758894137)"><svg width="317.143" height="245.021" viewBox="0 0 317.143 245.021"><path d="m154.175 182.273 137.98 34.369 18.988 22.379-203.715-17.085" fill="#fff"/><path d="M311.145 245.021a6.06 6.06 0 0 1-.503-.021l-203.715-17.087a6 6 0 1 1 1.002-11.957l189.242 15.872-8.342-9.832-136.105-33.901a6 6 0 0 1 2.9-11.644l137.98 34.368a6.003 6.003 0 0 1 3.125 1.94l18.987 22.38a6.002 6.002 0 0 1 .76 6.628 5.997 5.997 0 0 1-5.331 3.254z"/><path d="m79.238 219.625-56.85-67.004c-7.146-8.423-6.111-21.044 2.311-28.19l107.264-91.009c8.423-7.146 21.044-6.111 28.19 2.311l56.85 67.004c7.146 8.423 6.111 21.044-2.311 28.19l-107.264 91.009c-8.423 7.146-21.044 6.111-28.19-2.311z" fill="#fff"/><path d="M94.508 232.674c-7.378 0-14.709-3.114-19.845-9.167l-56.85-67.004c-9.275-10.932-7.927-27.372 3.004-36.647l107.264-91.009c10.932-9.274 27.371-7.927 36.647 3.004l56.85 67.004c9.274 10.932 7.928 27.372-3.004 36.647L111.31 226.511a25.891 25.891 0 0 1-16.802 6.163zm-10.695-16.931c4.995 5.886 13.847 6.611 19.733 1.617l107.264-91.009c5.886-4.994 6.611-13.846 1.617-19.733l-56.85-67.004c-4.995-5.887-13.848-6.611-19.734-1.618l-107.262 91.01c-5.886 4.994-6.612 13.847-1.618 19.733z"/><path d="M24.362 130.721a5.99 5.99 0 0 1-4.578-2.118C-8.908 94.786-5.986 44.99 26.297 17.599 41.979 4.293 62.144-1.8 83.087.45c20.826 2.235 39.93 12.463 53.792 28.801a6 6 0 0 1-9.15 7.764c-11.862-13.98-28.171-22.729-45.922-24.634-17.638-1.892-34.595 3.21-47.746 14.368-27.238 23.11-29.538 65.319-5.127 94.09a6 6 0 0 1-4.572 9.882z"/></svg></g><g transform="translate(722.0 195.0) rotate(0.0 293.0 621.5) scale(1.0014355048191947 1.0002728016731834)"><svg width="585.16" height="1242.661" viewBox="0 0 585.16 1242.661"><path d="M493.882 511.409c13.378 32.989 26.738 86.858 27.02 136.125.44 76.737-10.611 173.686-19.705 219.222 19.718 53.558-.365 219.02-10.089 239.709-4.132 8.792-55.505 23.286-57.779 7.364-3.717-26.027-27.831-208.747-29.9-233.053-1.677-19.695-15.205-127.705-19.35-147.411-15.294 34.817-41.949 110.533-53.205 137.817 10.702 87.163-60.271 234.451-60.271 234.451s-68.774 14.364-65.742-3.5c3.032-17.863 24.295-231.814 27.489-258.953 3.421-29.067 12.938-109.816 30.364-194.195 9.324-45.15 17.096-85.84 20.983-104.241 17.528-7.853 206.241-43.061 210.185-33.335z" fill="#ff002a"/><path d="M447.648 1126.943c-2.168 0-4.176-.133-5.982-.403-11.187-1.677-13.746-8.151-14.276-11.861-3.751-26.271-27.841-208.758-29.939-233.393-1.318-15.479-10.286-88.134-15.89-126.242-7.878 19.694-17.107 44.443-25.516 66.992-7.717 20.695-14.426 38.686-19.031 49.989 4.113 36.934-4.829 87.731-26.588 151.021-16.332 47.503-34.239 84.822-34.418 85.193a6.001 6.001 0 0 1-4.179 3.269c-.562.118-13.952 2.896-28.843 4.497-28.97 3.116-37.117-1.145-40.726-4.619-2.802-2.698-3.98-6.341-3.315-10.255 1.881-11.084 11.016-100.078 18.357-171.586 4.242-41.326 7.906-77.017 9.088-87.063 3.538-30.062 12.936-109.913 30.447-194.708 5.172-25.043 9.893-48.849 13.686-67.978 3.11-15.682 5.566-28.068 7.303-36.29a5.998 5.998 0 0 1 3.417-4.235c9.673-4.335 61.658-14.987 106.328-22.782 62.968-10.987 99.122-14.86 107.457-11.511 2.687 1.079 3.883 2.867 4.415 4.177 12.478 30.769 27.157 85.463 27.46 138.346.413 71.975-9.739 168.941-19.499 218.805 19.709 57.702-1.05 221.831-10.864 242.713-2.944 6.265-14.289 10.86-23.287 13.612-9.163 2.802-18.287 4.312-25.605 4.312zm-63.572-399.577a6.002 6.002 0 0 1 5.874 4.764c4.305 20.468 17.762 128.231 19.457 148.138 2.085 24.492 26.117 206.493 29.862 232.713.083.581 1.625 1.13 2.524 1.362 5.281 1.365 15.01.429 25.393-2.444 11.495-3.181 17.467-6.868 18.577-8.168 4.329-9.589 11.698-54.883 15.448-105.24 4.5-60.437 2.443-107.696-5.643-129.662a6.002 6.002 0 0 1-.253-3.248c9.743-48.779 20.002-146.001 19.589-218.013-.287-49.947-13.826-101.571-25.705-131.712-7.037-.823-34.261 1.032-100.372 12.595-48.215 8.433-88.007 17.019-99.938 20.784-1.665 8.038-3.88 19.208-6.594 32.896-3.798 19.148-8.524 42.98-13.705 68.07-17.406 84.286-26.76 163.763-30.281 193.683-1.172 9.959-4.832 45.608-9.069 86.887-7.313 71.241-16.403 159.795-18.427 172.146 1.176.791 7.177 3.646 30.304 1.219 10.512-1.103 20.562-2.891 25.348-3.802 9.449-20.33 68.035-150.387 58.454-228.419a5.999 5.999 0 0 1 .409-3.02c4.534-10.989 11.791-30.449 19.474-51.052 11.547-30.965 24.635-66.062 33.785-86.891a5.998 5.998 0 0 1 5.489-3.586zm106.517-211.239h.01z" fill="#ff002a"/><path d="M375.609 760.399a6.002 6.002 0 0 1-5.917-5.047l-9.117-56.625a6 6 0 0 1 11.847-1.908l9.117 56.625a6.001 6.001 0 0 1-5.93 6.955z"/><path d="m490.075 1173.249-2.511 20.57s-47.486 28.239-62.626 35.996c-9.143 4.684-21.123 8.855-40.679 5.804-27.915-4.355-25.725-18.924-25.725-18.924l1.553-17.918" fill="#fff"/><path d="M396.905 1242.651c-4.128 0-8.635-.334-13.571-1.104-31.32-4.888-31.039-22.485-30.776-25.37h-.001l1.553-17.917c.286-3.302 3.198-5.753 6.496-5.46a5.999 5.999 0 0 1 5.459 6.495l-1.553 17.917c-.021.247.01.14-.021.278-.072 3.17 4.122 9.614 20.694 12.199 18.131 2.83 28.887-1.05 37.019-5.215 12.807-6.562 49.742-28.374 59.763-34.312l2.154-17.642a5.996 5.996 0 0 1 6.683-5.229 6 6 0 0 1 5.229 6.683l-2.511 20.57a6.003 6.003 0 0 1-2.889 4.431c-1.946 1.157-47.823 28.425-62.957 36.179-7.16 3.669-16.791 7.497-30.771 7.497z"/><path d="M427.65 1098.397s-.081 32.476-20.402 52.03c-6.407 6.165-45.259 28.691-47.161 48.35-1.817 18.773 33.006 22.839 49.801 16.996 12.205-4.246 80.187-42.525 80.187-42.525s3.957-17.945 1.034-32.47l2.524-34.643c0 .001-41.988 6.416-65.983-7.738z" fill="#fff"/><path d="M393.031 1224.241c-11.448 0-23.568-2.671-31.058-8.56-5.807-4.564-8.524-10.609-7.859-17.481 1.734-17.918 26.375-35.601 41.098-46.166 3.464-2.485 6.735-4.833 7.875-5.93 18.277-17.587 18.562-47.423 18.563-47.722a6 6 0 0 1 9.049-5.153c21.844 12.885 61.63 7.036 62.031 6.976a6.002 6.002 0 0 1 6.888 6.367l-2.467 33.853c2.836 15.408-1.046 33.347-1.216 34.116a6.003 6.003 0 0 1-2.916 3.937c-7.006 3.944-68.805 38.666-81.16 42.963-5.253 1.827-11.918 2.8-18.828 2.8zm39.912-116.682c-1.527 11.825-6.345 32.576-21.535 47.192-1.762 1.695-4.881 3.935-9.199 7.032-11.341 8.139-34.941 25.074-36.15 37.573-.179 1.849.038 4.303 3.331 6.892 8.432 6.628 27.972 7.53 38.527 3.858 9.209-3.203 56.39-29.272 76.783-40.719.896-5.218 2.544-17.404.527-27.425a6.022 6.022 0 0 1-.103-1.619l1.999-27.429c-11.823 1.047-35.421 1.882-54.18-5.355z"/><path d="M461.058 1195.366a6 6 0 0 1-5.852-7.349c6.106-26.467 14.68-33.779 23.668-39.483 4.048-2.569 5.563-3.53 6.295-8.61.472-3.279 3.514-5.566 6.794-5.082a6 6 0 0 1 5.083 6.795c-1.52 10.542-6.951 13.988-11.743 17.029-5.747 3.647-12.9 8.187-18.405 32.049a6 6 0 0 1-5.84 4.651zm-10.196-60.342a6.016 6.016 0 0 1-1.646-.231l-26.935-7.669a5.999 5.999 0 1 1 3.287-11.541l26.935 7.669a5.999 5.999 0 0 1 4.127 7.413 6.003 6.003 0 0 1-5.768 4.359zm-11.034 22.476a6.001 6.001 0 0 1-2.039-.359l-25.63-9.263a6 6 0 0 1 4.079-11.286l25.63 9.263a6.002 6.002 0 0 1-2.04 11.645zm-15.008 18.751a5.97 5.97 0 0 1-2.594-.593l-26.779-12.863a6 6 0 0 1 5.196-10.817l26.779 12.863a6 6 0 0 1-2.602 11.41zm-6.139 41.579a6.002 6.002 0 0 1-5.939-5.2c-4.346-32.274-36.55-30.501-37.92-30.415-3.293.215-6.163-2.269-6.394-5.568a5.992 5.992 0 0 1 5.538-6.401c.456-.031 11.269-.762 22.831 3.777 11.008 4.321 24.773 14.25 27.838 37.006a6 6 0 0 1-5.954 6.801zm69.886-335.149a6 6 0 0 1-3.917-10.548l7.397-6.366-4.696-2.664a6 6 0 0 1 5.92-10.438l12.112 6.869a6 6 0 0 1 .954 9.767l-13.859 11.928a5.983 5.983 0 0 1-3.911 1.452zm-170.775 3.718a6 6 0 0 1-3.459-10.907l5.692-4.008-5.416-3.381a6 6 0 1 1 6.354-10.18l13.087 8.17a5.999 5.999 0 0 1 .277 9.996l-13.087 9.215a5.97 5.97 0 0 1-3.448 1.095z"/><path d="M271.297 1111.243s5.908 46.65 2.973 76.255v22.098H111.726s-1.083-15.067-.311-23.202c1.026-10.817 6.248-19.087 33.667-24.784 51.099-10.617 49.919-44.27 56.327-56.628 7.908.862 69.888 6.261 69.888 6.261z" fill="#fff"/><path d="M274.271 1215.596H111.726a6.001 6.001 0 0 1-5.985-5.57c-.046-.636-1.109-15.664-.3-24.198 1.539-16.231 12.311-24.668 38.42-30.093 37.83-7.859 44.02-28.382 48.539-43.367 1.18-3.911 2.198-7.289 3.681-10.148a6.012 6.012 0 0 1 5.979-3.203c7.754.848 69.138 6.196 69.758 6.25a6.001 6.001 0 0 1 5.432 5.224c.244 1.926 5.921 47.363 3.021 77.302v21.805a6 6 0 0 1-6 5.998zm-156.878-12H268.27v-16.098c0-.197.01-.396.029-.592 2.293-23.135-1.019-57.557-2.4-70.111-12.876-1.125-47.296-4.142-60.626-5.403-.448 1.333-.9 2.834-1.385 4.441-4.776 15.835-12.77 42.339-57.587 51.651-25.534 5.304-28.202 11.958-28.915 19.476-.431 4.565-.225 11.692.007 16.636z"/><path d="M274.271 1193.498H111.324a6 6 0 0 1 0-12h162.947a6 6 0 0 1 0 12z"/><path d="M227.149 1193.499a6 6 0 0 1-5.886-7.198c3.255-15.983 13.423-28.826 29.405-37.14 11.736-6.106 22.517-7.624 22.97-7.686a6.001 6.001 0 0 1 1.63 11.889c-.1.015-9.457 1.373-19.372 6.604-12.656 6.678-20.352 16.343-22.874 28.727a6.002 6.002 0 0 1-5.873 4.804zm-81.785-.001a6 6 0 0 1-6-6v-25.889a6 6 0 0 1 12 0v25.889a6 6 0 0 1-6 6zm71.1-56.738a5.991 5.991 0 0 1-2.271-.449l-18.73-7.67a6 6 0 1 1 4.547-11.105l18.73 7.67a6 6 0 0 1-2.276 11.554zm-15.133 20.232a5.978 5.978 0 0 1-4.297-1.812l-12.66-12.987a6 6 0 0 1 8.592-8.377l12.66 12.987a6 6 0 0 1-4.295 10.189zm-21.172 13.013a5.998 5.998 0 0 1-5.326-3.229l-6.841-13.128a6 6 0 0 1 10.642-5.545l6.841 13.128a6 6 0 0 1-5.316 8.774z"/><path d="M297.576 225.465c-52.23 22.836-98.959 182.954-98.959 182.954-18.515-25.61-90.682-87.2-104.755-98.132-13.838-10.749-24.12-15.937-32.699-17.586-14.598-2.807-58.837 70.105-34.372 75.735 33.582 7.727 40.25-8.834 51.683-1.511 18.66 21.921 58.581 99.936 101.022 126.442 26.907 16.804 56.528 9.978 71.748-9.239 46.817-59.116 109.679-172.409 109.679-172.409z" fill="#fff"/><path d="M211.246 508.978c-11.176 0-23.133-3.156-34.927-10.522-31.019-19.372-60.036-64.167-81.224-96.875-8.207-12.668-15.338-23.677-20.555-30.009-2.002-1.026-3.736-.635-9.013 1.09-7.755 2.533-19.474 6.363-40.081 1.621-4.66-1.071-15.055-5.669-10.942-25.156 2.431-11.519 9.822-27.028 19.286-40.478 11.237-15.969 20.826-23.307 28.506-21.84 10.084 1.939 21.283 7.895 35.247 18.741 13.34 10.362 73.03 61.314 98.65 90.393 4.746-14.907 14.28-43.308 26.796-72.781 24.787-58.369 49.074-93.088 72.185-103.192a6 6 0 0 1 7.24 1.945l63.347 86.253a6.002 6.002 0 0 1 .411 6.463c-.631 1.137-63.639 114.402-110.222 173.222-9.9 12.498-26.233 21.124-44.704 21.125zM72.33 359.01c2.975 0 6.078.747 9.38 2.862.499.32.948.712 1.333 1.164 5.774 6.782 13.35 18.478 22.123 32.021 20.575 31.762 48.754 75.263 77.509 93.221 25.313 15.81 51.289 8.005 63.866-7.875 41.491-52.391 96.475-149.066 107.26-168.245l-58.029-79.012c-18.885 11.296-40.113 43.803-61.697 94.605-17.876 42.076-29.583 81.952-29.699 82.351a5.998 5.998 0 0 1-4.739 4.23 5.997 5.997 0 0 1-5.883-2.396c-17.258-23.871-87.208-84.197-103.574-96.909-12.132-9.424-21.925-14.787-29.929-16.39-2.177.409-9.856 6.176-19.65 21.377-8.623 13.385-14.515 27.596-15.011 36.205-.328 5.708 1.541 6.139 2.546 6.369 17.359 3.996 26.399 1.04 33.663-1.333 3.403-1.112 6.87-2.245 10.531-2.245z"/><path d="M300.2 410.105a5.978 5.978 0 0 1-3.721-1.296l-78.54-62.197a6 6 0 0 1 7.449-9.408l78.54 62.197a6 6 0 0 1-3.728 10.704z"/><path d="M6 318.715c.131 22.571 11.091 47.45 20.791 49.721 10.533 2.466 18.346-3.942 19.882-7.201s1.83-8.333-1.328-11.537c-2.676-2.715 5.219-9.23.968-14.129-2.346-2.703 2.7-14.081-.992-16.738-3.692-2.658 2.22-17.802-1.82-19.135-9.149-3.018-37.623-2.003-37.501 19.019z" fill="#fff"/><path d="M31.44 374.978c-1.941 0-3.954-.218-6.017-.701C11.269 370.964.134 341.707 0 318.75c-.047-8.134 3.316-14.898 9.728-19.563 10.459-7.609 27.426-7.9 35.652-5.189 6.704 2.212 5.778 9.967 5.101 15.63-.189 1.582-.485 4.062-.438 5.385 3.601 3.742 2.72 9.663 2.06 14.095-.164 1.104-.396 2.662-.438 3.584 3.723 5.372 1.112 11.242-.184 14.156-.079.178-.17.382-.26.59 3.472 5.113 3.02 11.816.88 16.356-2.497 5.296-10.584 11.184-20.661 11.184zm2.398-70.529c-5.626 0-12.514 1.141-17.05 4.44-3.292 2.395-4.813 5.506-4.788 9.79.142 24.399 12.064 42.955 16.158 43.914 7.784 1.82 12.65-3.158 13.115-3.973.586-1.247.867-3.628-.202-4.712-4.042-4.1-1.774-9.2-.555-11.939.353-.793.912-2.051 1.049-2.728-2.616-3.278-1.964-7.661-1.332-11.902.198-1.334.509-3.418.495-4.57-3.48-3.543-2.783-9.371-2.163-14.565.115-.959.272-2.281.359-3.41-1.463-.217-3.204-.345-5.086-.345z"/><path d="M74.327 297.464c-11.147-7.014-23.014-8.811-27.568-7.606-13.661 3.616-21.008 14.895-29.656 18.695-6.387 2.806-.602 13.784 5.016 15.479 6.745 2.03 16.069-4.139 21.445-5.189 4.852 3.926 14.469 9.071 14.469 9.071zm315.769-106.612c37.944-2.765 66.815 28.556 78.791 41.6 29.958 32.63 41.305 228.83 22.999 278.957-6.795 18.606-204.701 46.526-208.189 33.337-17.369-65.665-34.323-230.002-16.133-285.822 6.955-21.344 38.397-46.322 54.921-51.203 16.523-4.881 47.897-15.432 67.611-16.869z" fill="#fff"/><path d="M302.167 554.163c-2.255 0-4.335-.043-6.225-.129-7.834-.359-16.334-1.284-18.046-7.754-9.025-34.121-17.498-92.096-21.584-147.697-2.788-37.938-5.776-106.771 5.547-141.518 7.755-23.797 41.093-49.83 58.926-55.098 2.754-.813 5.922-1.786 9.382-2.847 17.898-5.489 42.411-13.008 59.494-14.253 40.945-2.977 71.967 30.805 83.646 43.526 7.831 8.529 14.646 26.404 20.258 53.128 4.863 23.16 8.634 52.004 10.904 83.414 3.89 53.811 3.25 120.606-6.948 148.531-1.448 3.966-5.296 14.503-88.064 28.896-41.257 7.177-83.74 11.8-107.29 11.801zm-13.18-12.91c7.917 2.089 42.853 1.122 99.991-7.691 64.388-9.931 93.723-20.229 97.38-24.51 8.216-22.936 10.686-80.396 6.143-143.25-4.707-65.12-15.711-115.87-28.034-129.292-11.604-12.638-38.769-42.222-73.935-39.673-15.732 1.146-40.475 8.735-56.847 13.757-3.503 1.074-6.713 2.059-9.501 2.882-14.798 4.371-44.719 28.291-50.916 47.309-7.805 23.952-9.624 73.858-4.989 136.919 3.96 53.87 12.047 109.843 20.708 143.549zm101.109-350.4h.01z"/><path d="M299.921 192.392c5.739 7.922 9.276 24.848 7.982 30.659 7.982 28.208 79.864-14.187 82.193-33.853.449-3.789-32.396-19.458-27.342-45.476-37.771 9.35-62.833 48.67-62.833 48.67z" fill="#fff"/><path d="M321.402 124.67s10.993-12.515 5.632-29.225c-3.545-11.051-15.316-14.726-24.178-9.361-8.477 5.132-9.493 21.543-9.493 21.543-24.062-47.723-69.543-31.37-69.543-31.37s-4.771-.163-9.735-1.952c-4.964-1.79-11.664-5.764-11.664-5.764s-25.273-10.943-17.687-46.466c0 0 12.632 22.634 47.119 21.877l.038-.154s23.746-40.699 71.65-37.631c33.936 2.174 74.907 19.506 79.943 68.646 3.614 35.261-10.007 57.323-20.732 68.91-26.628 7.474-41.35-19.053-41.35-19.053z" fill="#17adff"/><path d="M353.567 151.028c-18.993 0-32.423-14.459-37.412-23.446a6 6 0 0 1 .716-6.847c.4-.469 8.647-10.372 4.449-23.457-1.087-3.39-3.336-5.874-6.333-6.995-2.941-1.101-6.229-.76-9.023.934-4.333 2.623-6.326 12.446-6.612 16.793a6.008 6.008 0 0 1-4.792 5.491 5.997 5.997 0 0 1-6.553-3.173c-9.03-17.909-22.223-28.115-39.214-30.333-12.791-1.672-22.842 1.872-22.942 1.908a5.778 5.778 0 0 1-2.234.35c-.585-.02-5.879-.253-11.567-2.304-4.851-1.75-10.914-5.213-12.373-6.062-10.346-4.692-27.544-21.533-20.81-53.066a6.001 6.001 0 0 1 11.107-1.671c.423.732 10.793 18.136 38.554 18.801 6.67-9.728 31.428-40.61 75.398-37.772 20.452 1.31 39.595 7.634 53.903 17.809C376.34 31.149 386.98 50.062 389.454 74.2c3.775 36.836-10.041 60.354-22.296 73.597a5.997 5.997 0 0 1-2.782 1.701c-3.772 1.059-7.383 1.53-10.809 1.53zm-24.91-26.239c4.217 5.728 14.863 17.137 30.862 13.562 10.26-11.647 21.194-31.737 17.997-62.929-5.601-54.646-58.33-62.243-74.357-63.271-41.219-2.638-63.269 30.194-65.833 34.26a6.002 6.002 0 0 1-5.341 3.538c-.616.013-1.232.02-1.836.02-19.779.002-32.871-7.108-40.786-13.745.738 20.173 15.268 26.733 15.442 26.81.232.101.458.216.676.345.062.037 6.281 3.71 10.64 5.281 2.791 1.007 5.572 1.39 6.979 1.527 3.631-1.093 14.332-3.779 27.246-2.092 11.952 1.561 27.717 7.189 40.51 24.102 1.841-4.384 4.642-8.672 8.893-11.246 5.957-3.606 13.042-4.302 19.443-1.907 6.415 2.399 11.355 7.71 13.556 14.568 4.497 14.021-.584 25.494-4.091 31.177zm-7.255-.119h.01z" fill="#17adff"/><path d="M321.402 124.67s14.722 26.527 41.351 19.052h.001c-10.724 19.847-38.921 45.352-62.837 48.682l.005-.012c-11.25 4.672-26.533 7.7-43.597 1.901-25.823-8.775-32.761-30.724-32.761-30.724-5.906.477-13.716-2.167-13.228-8.147.57-6.977 9.113-13.303 9.581-31.324-3.254-9.296-12.428-32.118 3.906-47.841 0 0 45.481-16.353 69.543 31.37 0 0 1.016-16.411 9.493-21.543 8.862-5.365 20.632-1.691 24.178 9.361 5.357 16.71-5.635 29.225-5.635 29.225z" fill="#fff"/><path d="M275.513 203.515c-6.619 0-13.704-1.021-21.12-3.541-21.647-7.356-31.354-23.037-34.881-30.507-4.023-.443-8.501-1.902-11.617-5.021-2.574-2.576-3.832-5.954-3.542-9.513.31-3.789 1.981-6.991 3.75-10.38 2.508-4.805 5.338-10.226 5.774-19.531l-.1-.283c-3.737-10.509-12.489-35.12 5.882-52.805a5.987 5.987 0 0 1 2.131-1.324c.52-.187 12.917-4.556 28.555-2.515 11.953 1.561 27.717 7.189 40.511 24.102 1.841-4.384 4.642-8.672 8.893-11.246 5.957-3.606 13.042-4.302 19.443-1.907 6.415 2.399 11.355 7.71 13.556 14.568 4.498 14.021-.584 25.496-4.091 31.178 4.349 5.906 15.576 17.896 32.476 13.155a5.981 5.981 0 0 1 5.246.995 5.997 5.997 0 0 1 2.376 4.781c0 16.711 12.582 33.25 24.421 40.326a6 6 0 0 1-6.158 10.301c-13.354-7.983-26.856-24.867-29.712-43.506a37.808 37.808 0 0 1-3.738.186c-18.993.002-32.423-14.459-37.412-23.446a6.001 6.001 0 0 1 .738-6.872c.33-.387 8.637-10.309 4.427-23.432-1.087-3.39-3.336-5.874-6.333-6.995-2.941-1.101-6.229-.76-9.023.934-4.332 2.622-6.354 12.622-6.612 16.781a6 6 0 0 1-11.345 2.33C268.531 71.7 234.072 79.466 227.05 81.524c-11.536 12.279-5.335 29.716-1.964 39.194l.494 1.396c.24.687.354 1.411.335 2.138-.331 12.751-4.284 20.324-7.171 25.854-1.239 2.373-2.309 4.424-2.426 5.791.559.759 3.485 1.957 6.763 1.691a6 6 0 0 1 6.205 4.172c.247.753 6.53 19.225 28.971 26.852 31.549 10.719 56.773-12.249 57.025-12.482a5.998 5.998 0 0 1 8.479.312 5.998 5.998 0 0 1-.312 8.479c-1.002.929-20.408 18.594-47.936 18.594z"/><ellipse cx="245.288" cy="121.638" rx="9.091" ry="12.5" transform="matrix(.9266 -.3761 .3761 .9266 -27.7384 101.1761)"/><path d="M322.747 238.45c-10.681 0-18.111-4.906-20.618-13.766a6.002 6.002 0 0 1-.083-2.938c.868-3.893-2.132-19.136-6.984-25.835a6 6 0 1 1 9.718-7.039c6.17 8.517 10.097 25.13 9.263 33.646.799 1.915 2.991 4.526 10.98 3.828 10.074-.891 24.599-7.002 37.906-15.949 14.96-10.058 20.872-18.544 21.196-21.794.329-3.297 3.276-5.695 6.565-5.375a6 6 0 0 1 5.375 6.566c-1.879 18.843-45.01 46.297-69.986 48.505-1.141.1-2.254.151-3.332.151z"/><path d="M495.203 514.737c-3.478-8.114-2-30.465-2.832-44.521-9.67-3.979-37.368 12.106-52.02-4.153-14.653-16.26-24.263-86.213-28.942-124.453-13.642-111.485 15.447-143.184 27.331-149.185-6.286-1.928-15.491-2.52-22.258-2.52-9.254 7.128-37.558 41.483-26.386 150.872l.584-.128a1.47 1.47 0 0 1-.584.128c-6.15 7.202-103.527 19.303-113.87 16.283-6.397-43.567-.493-106.1 5.35-123.146-3.835 4.156-10.109 10.426-14.83 16.563-11.275 14.658-10.424 96.432-7.004 153.887 3.419 57.455 26.791 154.343 26.791 154.343s214.307-30.818 208.67-43.97z" fill="#ff002a"/><path d="M286.528 564.708a6 6 0 0 1-5.827-4.594c-.959-3.978-23.536-98.065-26.948-155.394-1.969-33.09-2.704-67.171-2.017-93.506 1.237-47.379 6.445-59.443 10.255-64.395 3.805-4.947 8.455-9.855 12.191-13.8a348.8 348.8 0 0 0 2.985-3.175 6 6 0 0 1 10.086 6.015c-5.26 15.344-10.933 73.316-5.715 115.69 7.479.084 25.099-1.134 50.737-4.523 29.201-3.86 45.489-7.502 51.462-9.604-4.361-45.844-2.299-83.554 6.139-112.129 7.75-26.248 18.628-36.816 22.946-40.142a5.993 5.993 0 0 1 3.661-1.247c4.492 0 15.826.271 24.017 2.783a6 6 0 0 1 .945 11.092c-2.061 1.041-12.723 7.45-20.214 31.467-8.353 26.778-9.653 64.338-3.866 111.634 10.616 86.754 20.783 113.774 27.443 121.165 7.147 7.93 19.598 5.472 30.583 3.306 7.588-1.497 14.142-2.791 19.263-.685a6.003 6.003 0 0 1 3.707 5.194c.274 4.641.305 9.945.336 15.561.058 10.042.129 22.539 2.02 26.951.911 2.126.765 4.537-.402 6.616-2.329 4.148-6.228 11.094-111.374 29.467-50.674 8.855-101.051 16.117-101.554 16.189a5.702 5.702 0 0 1-.859.064zm-15.232-310.291c-7.737 11.091-10.082 73.688-5.565 149.591 2.894 48.623 20.499 126.949 25.381 147.966 13.977-2.06 52.85-7.892 92.527-14.775 78.188-13.563 99.255-20.693 104.91-23.579-1.73-6.953-1.79-17.287-1.852-28.128-.02-3.449-.039-6.777-.115-9.852-2.623.252-6.069.933-8.868 1.484-12.71 2.509-30.117 5.942-41.821-7.045-11.691-12.974-21.364-53.563-30.44-127.741-11.288-92.244 6.381-130.681 19.606-146.115a109.967 109.967 0 0 0-6.379-.297c-7.187 6.799-32.891 38.775-22.879 141.596a6.002 6.002 0 0 1-2.75 8.64l-.096.04c-3.671 2.474-15.013 6.799-57.423 12.497-5.265.709-51.702 6.836-60.988 4.122a6 6 0 0 1-4.255-4.888c-3.928-26.749-2.919-57.064-1.968-72.754.673-11.092 1.715-21.701 2.975-30.762zm218.392 262.685h.01z" fill="#ff002a"/><path d="M302.786 554.212c-14.443 0-23.143-1.327-24.89-7.932a6.001 6.001 0 0 1 10.564-5.184c7.047 2.4 44.528 1.271 100.554-7.223 64.336-9.752 93.572-20.086 97.207-24.445a6 6 0 0 1 11.47 3.495c-1.146 4.392-3.829 14.674-81.5 28.623-41.289 7.415-87.758 12.623-113.005 12.664-.133.002-.267.002-.4.002zm-13.292-11.011.002.011-.002-.011zm196.587-33.313-.001.007.001-.007z"/><path d="M396.972 191.265s77.111 3.922 106.001 46.383c35.343 51.946 76.186 152.804 76.187 185.534 0 42.947-53.878 132.751-92.409 191.815-10.796-5.556-31.456-24.79-38.89-40.734.918-3.597 28.842-88.163 53.741-137.692-16.532-23.738-44.006-69.818-60.176-105.657z" fill="#fff"/><path d="M498.278 627.234a5.981 5.981 0 0 1-2.505-.551c-46.259-21.295-61.356-65.357-61.976-67.223a6 6 0 0 1 11.384-3.795c.137.408 14.21 41.06 55.609 60.117a6 6 0 0 1 2.941 7.959 5.998 5.998 0 0 1-5.453 3.493zm-35.636-248.441a6.001 6.001 0 0 1-2.702-11.361l87.906-44.233a6 6 0 1 1 5.394 10.719l-87.906 44.233a5.967 5.967 0 0 1-2.692.642z"/><path d="M486.747 620.999a5.99 5.99 0 0 1-2.742-.666c-11.418-5.877-33.293-25.757-41.583-43.534a5.998 5.998 0 0 1-.375-4.02c.848-3.319 27.686-84.96 52.609-135.711-17.397-25.477-43.146-69.211-58.7-103.686a6 6 0 0 1 10.938-4.936c15.296 33.903 42.331 79.856 59.631 104.696a6 6 0 0 1 .437 6.124C484 484.942 458.67 559.979 454.295 573.725c6.495 12.247 20.748 26.278 30.603 33.113 72.843-112.393 88.261-161.901 88.261-183.657 0-29.622-38.865-128.832-75.147-182.159-26.854-39.468-100.606-43.729-101.348-43.767a6.001 6.001 0 0 1-5.683-6.3c.17-3.308 2.988-5.824 6.295-5.685 3.271.166 80.437 4.585 110.657 49.001 35.365 51.978 77.226 154.378 77.226 188.909 0 34.466-31.418 100.105-93.383 195.094a5.996 5.996 0 0 1-5.029 2.725zM58.028 333.917a5.971 5.971 0 0 1-2.825-.711c-.351-.188-7.464-4.006-12.803-7.748-.911.342-1.923.756-2.917 1.163-5.583 2.286-12.53 5.134-19.092 3.157-6.128-1.85-11.649-9.151-12.061-15.947-.294-4.865 2.083-8.891 6.36-10.771 2.669-1.173 5.497-3.531 8.771-6.262 5.462-4.556 12.26-10.225 21.763-12.74 6.505-1.721 20.036.611 32.299 8.328a6 6 0 1 1-6.391 10.156c-10.301-6.482-20.373-7.541-22.837-6.884-6.931 1.834-12.125 6.166-17.147 10.354-3.55 2.961-6.916 5.769-10.776 7.639.386 1.625 2.266 4.246 3.483 4.637 2.483.747 7.452-1.287 11.079-2.772 2.64-1.081 5.134-2.103 7.482-2.561a5.98 5.98 0 0 1 4.923 1.225c3.617 2.927 10.99 7.089 13.525 8.445a6 6 0 0 1-2.836 11.292z"/><path d="M411.48 341.61c-13.642-111.485 15.447-143.184 27.331-149.185-6.286-1.928-15.491-2.52-22.258-2.52-9.254 7.128-37.558 41.483-26.386 150.872z" fill="#ff002a"/><path d="M411.48 347.609c-.078 0-.156-.002-.234-.005l-21.313-.832a5.999 5.999 0 0 1-5.735-5.386c-4.866-47.638-2.932-86.697 5.748-116.093 7.75-26.248 18.628-36.816 22.946-40.142a5.993 5.993 0 0 1 3.661-1.247c4.492 0 15.826.271 24.017 2.783a6 6 0 0 1 .945 11.092c-2.061 1.041-12.723 7.45-20.214 31.467-8.353 26.778-9.653 64.338-3.866 111.634a6 6 0 0 1-5.955 6.729zm-15.849-12.623 9.081.354c-9.568-87.197 7.533-124.08 20.418-139.118a109.967 109.967 0 0 0-6.379-.297c-7.128 6.743-32.469 38.247-23.12 139.061z" fill="#ff002a"/><path d="M332.541 474.213c-12.15 0-24.057-4.49-33.392-12.738l-.714-.631a6.004 6.004 0 0 1-1.978-3.748l-7.194-57.402a6.004 6.004 0 0 1 5.284-6.709l66.433-7.458c3.257-.373 6.214 1.958 6.623 5.217l7.194 57.402a5.999 5.999 0 0 1-1.012 4.149c-8.235 11.958-21.086 19.813-35.259 21.552a49.079 49.079 0 0 1-5.985.366zm-24.462-20.888c8.25 6.844 18.496 9.897 28.986 8.611 10.202-1.252 19.189-6.429 25.53-14.654l-6.162-49.17-54.507 6.119z"/></svg></g><g transform="translate(467.0 1087.0) rotate(0.0 129.0 95.0) scale(1.0125628436532326 1.0153803400989727)"><svg width="254.799" height="187.122" viewBox="0 0 254.799 187.122"><path d="M6 117.161h242.799l-8.894 63.961-225.012-.001z" fill="#fff"/><path d="M239.905 187.121H14.893a6 6 0 0 1-5.943-5.174L.057 117.986a6.002 6.002 0 0 1 5.942-6.827h242.799a5.998 5.998 0 0 1 5.942 6.827l-8.893 63.961a5.998 5.998 0 0 1-5.942 5.174zm-219.788-12h214.565l7.225-51.961H12.892z"/><path d="M55.521 80.689c5.473 17.207 3.94 33.054-3.424 35.397s-17.77-9.708-23.243-26.915 3.424-35.397 3.424-35.397 17.77 9.709 23.243 26.915z" fill="#fff"/><path d="M50.098 122.402c-11.159 0-21.727-14.958-26.96-31.413-6.132-19.278 3.345-39.021 3.751-39.851a5.998 5.998 0 0 1 8.266-2.63c.812.443 19.952 11.084 26.084 30.362 2.887 9.078 4.079 18.193 3.356 25.669-1.204 12.449-7.208 16.16-10.679 17.264a12.529 12.529 0 0 1-3.818.599zM35.241 63.044c-1.792 6.091-3.475 15.481-.668 24.309 5.221 16.416 13.814 23.625 15.706 23.016.448-.143 1.903-2.139 2.372-6.983.562-5.811-.476-13.42-2.847-20.877-2.825-8.883-9.594-15.549-14.563-19.465z"/><path d="M71.499 96.166c-5.783 13.48-15.628 22.196-21.989 19.467-6.362-2.729-6.831-15.869-1.048-29.35s21.989-19.467 21.989-19.467 6.831 15.87 1.048 29.35z" fill="#fff"/><path d="M52.04 122.149c-1.679 0-3.321-.325-4.895-1-9.87-4.235-11.635-19.892-4.197-37.229 6.722-15.67 24.663-22.45 25.424-22.73a5.998 5.998 0 0 1 7.59 3.256c.32.744 7.773 18.417 1.051 34.087-6.251 14.572-16.123 23.616-24.973 23.616zm14.761-46.826c-4.386 2.618-10.127 7.037-12.825 13.326-5.498 12.817-3.289 20.961-2.1 21.471 1.188.506 8.612-3.502 14.109-16.319 2.698-6.289 1.944-13.492.816-18.478z"/><path d="M132.589 85.313c7.873 12.086 9.006 25.303 2.531 29.52s-18.106-2.161-25.978-14.248-2.531-29.52-2.531-29.52 18.105 2.161 25.978 14.248z" fill="#fff"/><path d="M130.478 122.153c-3.351 0-6.982-1.025-10.708-3.069-5.758-3.158-11.318-8.564-15.656-15.225-9.297-14.271-3.492-33.73-3.24-34.552a6.002 6.002 0 0 1 6.448-4.2c.853.103 20.998 2.658 30.294 16.931 9.994 15.342 10.328 31.602.779 37.822-2.349 1.531-5.029 2.293-7.917 2.293zm-19.221-43.954c-.729 5.214-.949 13.183 2.913 19.11 3.23 4.96 7.375 9.062 11.371 11.253 2.708 1.486 5.184 1.976 6.305 1.243 2.361-1.538 2.527-10.762-4.284-21.219-3.862-5.926-11.238-8.945-16.305-10.387z"/><path d="M156.237 96.672c-5.783 13.48-15.628 22.196-21.989 19.467-6.362-2.729-6.831-15.869-1.048-29.35s21.989-19.467 21.989-19.467 6.83 15.87 1.048 29.35z" fill="#fff"/><path d="M136.777 122.654c-1.679 0-3.321-.325-4.895-1-9.869-4.235-11.634-19.893-4.197-37.229 6.722-15.67 24.663-22.45 25.424-22.73a6.002 6.002 0 0 1 7.59 3.256c.32.744 7.773 18.417 1.051 34.087-6.251 14.572-16.123 23.616-24.973 23.616zm14.762-46.825c-4.386 2.618-10.127 7.037-12.825 13.326-5.499 12.817-3.289 20.961-2.101 21.471 1.192.496 8.61-3.5 14.109-16.319 2.698-6.288 1.944-13.492.817-18.478z"/><path d="M244.181 35.35c-5.783 13.48-15.628 22.196-21.989 19.467s-6.831-15.869-1.048-29.35S243.133 6 243.133 6s6.831 15.869 1.048 29.35z" fill="#fff"/><path d="M224.736 61.32c-2.061 0-3.727-.482-4.909-.99-3.086-1.323-8.323-5.155-8.708-15.942-.229-6.41 1.374-13.97 4.512-21.286C222.353 7.433 240.294.653 241.055.373a6 6 0 0 1 7.59 3.256c.32.744 7.773 18.417 1.051 34.087-3.139 7.316-7.512 13.688-12.314 17.939-4.987 4.413-9.328 5.665-12.646 5.665zm14.748-46.813c-4.386 2.618-10.127 7.036-12.825 13.325-2.419 5.64-3.713 11.519-3.548 16.128.14 3.911 1.249 5.257 1.447 5.342.2.088 1.938-.037 4.87-2.633 3.453-3.057 6.821-8.045 9.24-13.685 2.697-6.289 1.943-13.492.816-18.477z"/><path d="M195.841 30.931c5.851 13.451 5.449 26.593-.899 29.355-6.348 2.761-16.237-5.905-22.088-19.355-5.851-13.451.899-29.355.899-29.355s16.237 5.904 22.088 19.355z" fill="#fff"/><path d="M192.364 66.802c-3.31 0-7.632-1.242-12.607-5.602-4.824-4.228-9.229-10.576-12.405-17.877-6.801-15.635.561-33.346.878-34.092a5.998 5.998 0 0 1 7.574-3.295c.762.277 18.738 6.966 25.539 22.601 3.176 7.301 4.816 14.853 4.62 21.264-.33 10.788-5.547 14.646-8.628 15.986a12.437 12.437 0 0 1-4.971 1.015zm-14.921-46.726c-1.099 4.987-1.814 12.189.914 18.46 2.448 5.628 5.841 10.599 9.31 13.639 2.941 2.577 4.682 2.691 4.882 2.608.198-.086 1.301-1.438 1.42-5.35.141-4.61-1.182-10.481-3.63-16.109-2.717-6.245-8.49-10.643-12.896-13.248z"/><path d="M214.655 116.639c-2.274-12.127.706-46.735 5.658-59.368" fill="#fff"/><path d="M214.648 122.641a6.002 6.002 0 0 1-5.891-4.896c-2.375-12.67.413-48.488 5.97-62.663a5.998 5.998 0 0 1 7.776-3.396 6 6 0 0 1 3.396 7.775c-4.631 11.813-7.344 45.424-5.347 56.073a6 6 0 0 1-5.904 7.107z"/><path d="m196.465 62.07 17.414 24.132" fill="#fff"/><path d="M213.884 92.201a5.99 5.99 0 0 1-4.87-2.489L191.6 65.581a6 6 0 0 1 1.354-8.376 5.997 5.997 0 0 1 8.376 1.354l17.415 24.131a6 6 0 0 1-4.861 9.511z"/></svg></g><g transform="translate(95.0 1108.0) rotate(0.0 189.0 153.5) scale(0.9980672348784893 0.9983155457566713)"><svg width="378.732" height="307.518" viewBox="0 0 378.732 307.518"><path d="m12.141 301.518 353.307-.91c21.766-26.68-10.543-36.048-27.792-40.566C322.87 225.5 316.2 91.31 320.874 52.76c1.815-14.972 25.747-24.228 7.08-43.156-12.73-12.904-71.132 13.327-133.886 9.207-59.309-3.895-131.486-22.011-155.447.614-18.982 17.92 24.059 36.6 23.844 51.087-.717 48.352 4.963 135.9-7.818 173.363C37.489 255.962-11 278.171 12.141 301.518z" fill="#fff"/><path d="M12.141 307.518a6 6 0 0 1-4.261-1.777c-5.967-6.02-8.568-12.617-7.73-19.608 2.011-16.774 23.364-29.9 40.521-40.45 3.264-2.007 6.38-3.923 8.9-5.606 8.644-27.881 7.822-83.179 7.158-127.8-.228-15.332-.444-29.814-.266-41.85.046-3.041-6.813-9.7-11.351-14.107-8.555-8.307-17.4-16.9-17.328-27.25.035-5.119 2.295-9.831 6.716-14C54.131-3.471 98.672 1.982 145.83 7.756c16.226 1.987 33 4.041 48.631 5.067 30.851 2.025 60.723-3.481 84.724-7.9 26.791-4.938 44.488-8.2 53.041.473 15.784 16.005 6.675 28.5.647 36.772-2.881 3.953-5.6 7.687-6.043 11.319-2.263 18.664-1.8 61.435 1.124 104.009 3.125 45.5 8.368 81.42 14.176 97.527 12.144 3.261 31.074 9.227 35.632 23.209 2.594 7.955.015 16.761-7.664 26.174a6 6 0 0 1-4.634 2.207l-353.307.91zm69.7-293.239c-17.416 0-31.572 2.4-39.1 9.509-2.937 2.772-2.95 4.721-2.955 5.362-.036 5.23 7.574 12.62 13.689 18.557 7.771 7.546 15.112 14.674 14.99 22.894-.175 11.857.039 26.253.266 41.493.729 49 1.555 104.529-8.405 133.718a6 6 0 0 1-2.226 2.968c-3.04 2.141-6.978 4.562-11.146 7.125-13.368 8.219-33.571 20.64-34.891 31.657-.316 2.637.582 5.254 2.739 7.949l347.688-.9c3.654-5.067 4.953-9.321 3.862-12.669-2.918-8.949-22.752-14.145-30.219-16.1a6 6 0 0 1-4-3.443c-15.522-36.267-21.886-171.9-17.223-210.365.817-6.733 4.77-12.158 8.259-16.944 6.081-8.342 9.133-12.529.506-21.277-4.088-4.146-24.4-.4-42.321 2.9-24.657 4.546-55.346 10.2-87.686 8.079-15.963-1.048-32.912-3.124-49.3-5.13-21.81-2.662-44.011-5.383-62.529-5.383z"/><path d="M191.411 215.311c-20.388 0-39.524-.8-54.191-2.266-25.448-2.547-31.908-6.443-34.693-9.554-3.228-3.6-6.728-11.414-5.138-40.06.832-14.988 2.679-28.57 2.757-29.14a6 6 0 0 1 5.122-5.129c32.674-4.521 141.436-7.135 178.629.052a6 6 0 0 1 4.514 3.88c5.207 14.638 5.777 33.935 5.781 41.553.01 25.771-4.579 29.144-6.087 30.252-2.978 2.189-9.9 5.384-35.543 7.843-16.327 1.566-36.9 2.476-57.924 2.562q-1.617.008-3.227.007zm-79.969-74.827c-3.206 26.056-3.261 51.123.028 55.006 3.446 3.145 29.406 8.1 84.215 7.809 44.423-.244 77.578-4.065 84.58-7.629 2.221-6.176 3.648-35.537-2.1-55.274-35.279-5.513-129.484-4.111-166.723.088zm226.219 125.56a6.038 6.038 0 0 1-1.408-.168c-17.508-4.211-29.019-9.42-38.487-17.418a6 6 0 0 1 7.744-9.167c8.051 6.8 17.771 11.123 33.549 14.918a6 6 0 0 1-1.4 11.835z"/></svg></g><g transform="translate(290.0 368.0) rotate(0.0 87.5 203.0) scale(0.9989610804763047 1.0000295575238678)"><svg width="175.182" height="405.988" viewBox="0 0 175.182 405.988"><path d="M131.924 399.988H49.69l-10-102.234h102.234z" fill="#fff"/><path d="M131.924 405.988H49.691a6 6 0 0 1-5.972-5.416l-10-102.235a6 6 0 0 1 5.972-6.584h102.233a6 6 0 0 1 5.972 6.584l-10 102.235a6 6 0 0 1-5.972 5.416zm-76.792-12h71.351l8.826-90.235h-89z"/><path d="M90.807 303.753a6 6 0 0 1-5.228-8.946c1.986-6.014 16.054-65.79 8.79-111.521-2.4-15.111-9.024-29.418-16.036-44.565C66.718 113.631 54.707 87.687 59.7 54.36a6 6 0 0 1 11.867 1.777c-4.458 29.772 6.785 54.057 17.657 77.542 7.048 15.225 14.335 30.967 17 47.724 4.2 26.459 1.63 56.613-1.268 77.249-1.753 12.477-3.736 22.414-5.09 28.552-2.74 12.415-3.647 13.477-4.447 14.415a6.121 6.121 0 0 1-4.612 2.134zm-.039-12z"/><path d="M54.078 176.5c8.473 28.413 39.495 50.47 47.653 55.5" fill="#fff"/><path d="M101.725 238a5.975 5.975 0 0 1-3.143-.894c-1.634-1.008-40.17-25.076-50.255-58.891a6 6 0 0 1 11.5-3.429c7.035 23.587 32.545 44.4 45.052 52.1A6 6 0 0 1 101.725 238z"/><path d="M119.552 98.383c0 34.8-22.683 69.6-22.683 69.6" fill="#fff"/><path d="M96.864 173.987a6 6 0 0 1-5.021-9.277c.215-.332 21.709-33.778 21.709-66.328a6 6 0 0 1 12 0c0 36.169-22.69 71.4-23.656 72.88a6 6 0 0 1-5.032 2.725z"/><path d="M19.627 175.07c-9.846-10.833-15.59-27.685-13.011-41.47 12.875-1.929 28.39 2.941 41.4 12.275 14.357 10.3 11.929 24.765 4.223 32.6s-20.728 9.672-32.612-3.405z" fill="#fff"/><path d="M38.145 190.626h-.49c-5.576-.11-14-2.2-22.469-11.516C3.684 166.448-2.131 147.718.719 132.5a6 6 0 0 1 5.009-4.83c14.091-2.111 31.206 2.874 45.784 13.333 9.718 6.973 12.33 15.1 12.81 20.69a27.124 27.124 0 0 1-7.808 20.991 25.677 25.677 0 0 1-18.369 7.942zm-14.078-19.591c4.428 4.873 9.21 7.5 13.825 7.589a13.774 13.774 0 0 0 10.067-4.356 14.984 14.984 0 0 0 4.407-11.55c-.379-4.416-3.094-8.553-7.85-11.966-10.355-7.43-21.982-11.573-32.062-11.573h-.431c-.411 10.716 4.206 23.228 12.044 31.853z"/><path d="M124.744 179.022c13.617-3.667 30.28-1.965 40.471 5.06-4.483 10.667-15.841 20.9-29.711 27.559-15.308 7.352-26.133.2-28.979-8.625s1.781-19.568 18.219-23.994z" fill="#fff"/><path d="M123.4 220.705a24.9 24.9 0 0 1-9.875-1.984 22.718 22.718 0 0 1-12.707-13.863 21.622 21.622 0 0 1 1.581-17.125c2.587-4.761 8.294-11.141 20.789-14.5 15.852-4.268 34.111-1.892 45.435 5.913a6 6 0 0 1 2.126 7.265c-4.933 11.74-17.137 23.2-32.644 30.643a33.83 33.83 0 0 1-14.705 3.651zm16.068-37.585a50.958 50.958 0 0 0-13.16 1.7c-6.641 1.788-11.262 4.778-13.365 8.647a9.631 9.631 0 0 0-.7 7.711 10.722 10.722 0 0 0 6.02 6.52c4.008 1.721 9.075 1.217 14.652-1.461 10.522-5.055 19.352-12.33 24.234-19.766a45.331 45.331 0 0 0-17.684-3.351z"/><path d="M57.73 236.083c-12.192 4.729-27.951 4.366-38.4-1.8 2.732-10.957 11.93-22.027 23.951-29.751 13.269-8.526 24.327-2.279 28.175 6.259s.993 19.583-13.726 25.292z" fill="#fff"/><path d="M39.963 245.319c-8.673 0-17.1-1.984-23.683-5.871a6 6 0 0 1-2.772-6.619c3.031-12.156 12.949-24.621 26.53-33.347 9.391-6.034 17.281-5.546 22.245-4.074a23.426 23.426 0 0 1 14.644 12.917 22.4 22.4 0 0 1 .438 17.852c-1.938 4.733-6.541 11.263-17.464 15.5a55.6 55.6 0 0 1-19.938 3.642zm-13.216-14.161c8.412 3.076 19.568 2.918 28.814-.669 5.5-2.133 9.2-5.2 10.7-8.86a10.521 10.521 0 0 0-.273-8.375 11.589 11.589 0 0 0-7.115-6.34c-3.67-1.089-7.941-.166-12.347 2.664-9.109 5.851-16.321 13.803-19.779 21.58z"/><path d="M109 77.839c2.675-11.5 11.224-23.039 21.554-27.647 7.183 7.66 11.065 20.189 10.835 33.1-.255 14.251-10.965 19.271-19.7 17.749S105.769 91.722 109 77.839z" fill="#fff"/><path d="M124.79 107.312a24.108 24.108 0 0 1-4.13-.359 21.83 21.83 0 0 1-14.683-9.378c-2.609-3.942-5.218-10.8-2.822-21.095 3.2-13.772 13.23-26.538 24.953-31.767a6 6 0 0 1 6.821 1.375c8.063 8.6 12.72 22.546 12.457 37.311-.181 10.089-4.6 15.827-8.281 18.863a22.42 22.42 0 0 1-14.315 5.05zM129 57.947A37.189 37.189 0 0 0 114.842 79.2c-1.129 4.855-.735 8.919 1.141 11.751a9.95 9.95 0 0 0 6.737 4.18 10.907 10.907 0 0 0 8.745-2.122c2.524-2.083 3.844-5.388 3.923-9.823.17-9.553-2.22-18.786-6.388-25.239z"/><path d="M139.348 98.415c10.963-.441 23.312 3.7 29.834 10.762-5.239 7.3-15.619 13.1-27.289 15.758-12.88 2.94-19.861-4.328-20.5-11.489s4.721-14.499 17.955-15.031z" fill="#fff"/><path d="M136.24 131.615a21.737 21.737 0 0 1-13.046-4.017 18.953 18.953 0 0 1-7.779-13.618 18.1 18.1 0 0 1 4.46-13.676c2.953-3.362 8.688-7.46 19.232-7.885 13.142-.541 26.985 4.571 34.482 12.686a6 6 0 0 1 .468 7.569c-5.95 8.293-17.476 15.064-30.828 18.111a31.409 31.409 0 0 1-6.989.83zm3.349-27.205c-4.912.2-8.712 1.552-10.7 3.813a6.127 6.127 0 0 0-1.522 4.689 6.95 6.95 0 0 0 2.881 4.98c2.428 1.766 5.994 2.178 10.309 1.193 7.921-1.807 15.078-5.208 19.913-9.324a38.419 38.419 0 0 0-20.883-5.351z"/><path d="M43.432 108.339c-10.225-2.025-20.608-9.824-24.9-19.74 6.618-7.467 17.612-11.944 29.031-12.4 12.6-.5 17.272 9.768 16.112 18.435s-7.901 16.149-20.243 13.705z" fill="#fff"/><path d="M47.987 114.809a29.427 29.427 0 0 1-5.721-.585c-12.546-2.484-24.3-11.824-29.242-23.24a6 6 0 0 1 1.015-6.364c7.531-8.5 19.974-13.885 33.285-14.414 8.714-.352 14.02 3.356 16.906 6.523a23.356 23.356 0 0 1 5.39 18.7 22.293 22.293 0 0 1-8.882 15.477 21.515 21.515 0 0 1-12.751 3.903zm-22.02-25.038A30.348 30.348 0 0 0 44.6 102.453c3.813.755 6.894.316 9.156-1.3a10.456 10.456 0 0 0 3.972-7.309 11.431 11.431 0 0 0-2.367-9.032c-1.7-1.866-4.247-2.75-7.559-2.613-8.46.334-16.325 3.101-21.835 7.572z"/><path d="M47.861 37.983C47.722 26.176 53.278 12.934 62.214 6c8.8 5.73 15.553 16.975 18.4 29.57 3.148 13.902-6.06 21.33-14.903 21.93s-17.682-5.265-17.85-19.517z" fill="#fff"/><path d="M64.468 63.54a21.652 21.652 0 0 1-14.844-5.669c-3.472-3.207-7.637-9.247-7.763-19.817C41.7 23.914 48.4 9.127 58.536 1.259a6 6 0 0 1 6.953-.288c9.879 6.434 17.721 18.873 20.98 33.275 2.227 9.84-.7 16.465-3.552 20.29a22.743 22.743 0 0 1-16.8 8.948c-.552.037-1.103.056-1.649.056zM53.861 37.912c.058 4.985 1.409 8.838 3.9 11.142a9.953 9.953 0 0 0 7.54 2.457 10.909 10.909 0 0 0 7.988-4.143c1.955-2.624 2.451-6.149 1.471-10.474-2.103-9.318-6.621-17.714-12.206-22.994a37.187 37.187 0 0 0-8.693 24.013z"/></svg></g><g transform="translate(290.0 842.0) rotate(0.0 38.0 74.5) scale(1.0044539603240685 0.9988000992096743)"><svg width="75.663" height="149.179" viewBox="0 0 75.663 149.179"><path d="M37.832 129.095a6 6 0 0 1-6-6V6a6 6 0 0 1 12 0v117.095a6 6 0 0 1-6 6z"/><path d="M69.663 149.179a6 6 0 0 1-6-6v-14.084H12v14.084a6 6 0 0 1-12 0v-20.084a6 6 0 0 1 6-6h63.663a6 6 0 0 1 6 6v20.084a6 6 0 0 1-6 6z"/><path d="M48.442 149.179a6 6 0 0 1-6-6v-20.084a6 6 0 0 1 12 0v20.084a6 6 0 0 1-6 6zm-21.221 0a6 6 0 0 1-6-6v-20.084a6 6 0 0 1 12 0v20.084a6 6 0 0 1-6 6z"/></svg></g><g transform="translate(392.0 847.0) rotate(0.0 32.5 77.5) scale(0.9693968859989261 0.9620935154897056)"><svg width="67.052" height="161.107" viewBox="0 0 67.052 161.107"><path d="M22.337 146.42 6.235 83.463c-1.199-4.69 2.343-9.252 7.184-9.252h40.214c4.84 0 8.383 4.563 7.184 9.252L44.715 146.42c-2.963 11.583-19.416 11.583-22.378 0z" fill="#fff"/><path d="M33.526 161.107c-.001 0 0 0 0 0-8.15 0-14.982-5.306-17.002-13.201L.422 84.949a13.326 13.326 0 0 1 2.4-11.55 13.325 13.325 0 0 1 10.596-5.188h40.214c4.174 0 8.036 1.891 10.596 5.188s3.435 7.507 2.401 11.551l-16.102 62.957c-2.018 7.894-8.852 13.2-17.001 13.2zM13.419 80.211c-.573 0-.924.298-1.118.547a1.37 1.37 0 0 0-.253 1.218l16.102 62.958c.99 3.872 4.365 4.174 5.376 4.174s4.386-.301 5.376-4.175l16.102-62.956a1.375 1.375 0 0 0-.253-1.219 1.371 1.371 0 0 0-1.117-.547z"/><path d="M33.526 105.221a6 6 0 0 1-6-6V6a6 6 0 0 1 12 0v93.222a6 6 0 0 1-6 5.999z"/></svg></g><g transform="translate(929.0 169.0) rotate(0.0 91.0 77.5) scale(0.9911558401951814 0.9964513474593706)"><svg width="183.624" height="155.552" viewBox="0 0 183.624 155.552"><path d="M30.503 41.069c10.899 6.644 14.966 19.852 14.966 19.852s-13.604 2.436-24.503-4.207S6 36.861 6 36.861s13.604-2.436 24.503 4.208z"/><path d="M39.449 67.35c-5.769.001-14.144-.965-21.605-5.514C5.148 54.098.459 39.255.266 38.627a6 6 0 0 1 4.676-7.672c.647-.115 15.989-2.748 28.683 4.99 12.695 7.738 17.385 22.582 17.578 23.21a6 6 0 0 1-4.677 7.672c-.266.048-3.031.523-7.077.523zm-24.09-24.784c1.987 3.164 4.85 6.658 8.73 9.023 3.88 2.364 8.297 3.309 12.021 3.625-1.987-3.164-4.85-6.658-8.73-9.023-3.879-2.364-8.296-3.308-12.021-3.625z"/><path d="M62 33.051c-.374 14.792-11.293 26.515-11.293 26.515s-10.313-12.259-9.94-27.051C41.141 17.723 52.06 6 52.06 6S62.374 18.259 62 33.051z"/><path d="m50.707 65.566-.152-.002a5.997 5.997 0 0 1-4.44-2.136c-.481-.571-11.772-14.194-11.346-31.065C35.196 15.491 47.161 2.457 47.67 1.91a5.999 5.999 0 0 1 8.982.228c.481.571 11.773 14.194 11.346 31.065-.426 16.872-12.391 29.906-12.901 30.453a5.998 5.998 0 0 1-4.39 1.91zm1.084-48.915c-2.404 4.115-4.868 9.808-5.025 16.015s2.017 12.016 4.211 16.249c2.404-4.115 4.868-9.808 5.025-16.015s-2.017-12.015-4.211-16.249z"/><path d="M177.624 117.249C150.025 71.505 94.467 48.225 56.691 44.562c-8.861 4.744-15.83 10.675-20.916 15.935 49.143 3.072 112.57 38.2 135.608 89.055 3.567-8.838 6.075-19.545 6.241-32.303z"/><path d="M171.383 155.552a6.001 6.001 0 0 1-5.465-3.524c-10.207-22.53-29.997-43.778-55.726-59.831C86.381 77.34 59.12 67.968 35.401 66.485a6 6 0 0 1-3.939-10.159c6.737-6.968 14.273-12.705 22.397-17.055a6.04 6.04 0 0 1 3.411-.682c40.875 3.963 97.581 29.299 125.491 75.56.578.958.877 2.059.862 3.178-.16 12.293-2.406 23.89-6.675 34.47a6 6 0 0 1-5.438 3.754l-.127.001zM49.772 56.091c43.364 7.237 94.377 35.793 120.078 77.807.995-4.827 1.576-9.842 1.736-15.015-25.657-41.112-76.26-63.965-113.647-68.158a75.701 75.701 0 0 0-8.167 5.366z"/></svg></g><g transform="translate(1015.0 93.0) rotate(63.858289266667576 64.5 63.5) scale(1.0351551529060576 1.0479066620459758)"><svg width="124.619" height="121.194" viewBox="0 0 124.619 121.194"><path d="M105.275 90.225c41.288-38.888-21.486-111.867-76.151-73.309-52.138 36.774-7.824 114.492 50.951 95.268l.028-.024a68.976 68.976 0 0 1 25.172-21.935z" fill="#17adff"/><path d="M61.621 121.24c-25.591 0-45.686-16.391-55.019-34.983a59.318 59.318 0 0 1-5.431-38.575c2.967-14.125 11.436-26.459 24.5-35.669C40.455 1.582 56.976-2.163 73.441 1.179a65.572 65.572 0 0 1 37.436 23.012c8.494 10.4 13.367 22.731 13.721 34.723.4 13.592-4.858 25.93-15.207 35.678a6.032 6.032 0 0 1-1.355.96 62.7 62.7 0 0 0-22.97 19.98 6.009 6.009 0 0 1-1.045 1.172 6.2 6.2 0 0 1-2.081 1.183 65.169 65.169 0 0 1-20.319 3.353zm.137-109.219c-9.417 0-19.385 2.892-29.176 9.8C8.107 39.082 9.067 64.42 17.326 80.873c9.246 18.421 31.527 34.179 59.034 26.18a75 75 0 0 1 25.374-21.745c16.733-16.349 12.046-38.592-.151-53.526-9.234-11.305-23.724-19.761-39.825-19.761z" fill="#17adff"/><path d="M78.428 120.74a6 6 0 0 1-5.123-9.115c13.641-22.469 36.638-30.081 37.611-30.394a6 6 0 0 1 3.692 11.418c-.272.09-19.812 6.7-31.046 25.2a6 6 0 0 1-5.134 2.891zm-13.009-17.372a5.965 5.965 0 0 1-1.153-.112c-19.9-3.874-33.222-12.364-39.607-25.233-9.676-19.5.8-41.242 1.253-42.158a6 6 0 0 1 10.774 5.286c-.144.3-8.285 17.516-1.247 31.6 4.653 9.311 15.122 15.61 31.12 18.726a6 6 0 0 1-1.14 11.89zm28.163-31.113a6 6 0 0 1-5.843-7.384c2.581-10.893.22-19.352-7.219-25.863a36.453 36.453 0 0 0-13-7.1 6 6 0 0 1 3-11.62 48.316 48.316 0 0 1 17.52 9.35c7.736 6.6 15.988 18.552 11.381 37.994a6 6 0 0 1-5.839 4.623z"/></svg></g></svg>