<svg xmlns="http://www.w3.org/2000/svg" viewBox="0 0 1600 1600" width="1600" height="1600"><g transform="translate(181.0 118.0) rotate(0.0 332.0 670.0) scale(2.706712974286227 2.7069011839662567)"><svg width="245.316" height="495.031" viewBox="0 0 245.316 495.031"><linearGradient id="c" gradientTransform="matrix(-1 0 0 1 12914.239 -78)" gradientUnits="userSpaceOnUse" x1="12743.236" x2="12838.157" y1="554.274" y2="554.274"><stop offset="0" stop-color="#e94a47"/><stop offset=".992" stop-color="#d62929"/></linearGradient><linearGradient id="b" gradientTransform="matrix(-1 0 0 1 12914.239 -78)" gradientUnits="userSpaceOnUse" x1="12697.08" x2="12860.737" y1="469.948" y2="378.07"><stop offset="0" stop-color="#23286b"/><stop offset="1" stop-color="#151a4f"/></linearGradient><linearGradient id="a" gradientTransform="matrix(-1 0 0 1 12914.239 -78)" gradientUnits="userSpaceOnUse" x1="12714.389" x2="12746.173" y1="378.333" y2="303.926"><stop offset="0" stop-color="#a1c3fc"/><stop offset=".759" stop-color="#89b3f4"/><stop offset="1" stop-color="#81aef2"/><stop offset="1" stop-color="#78a9ef"/></linearGradient><linearGradient id="d" gradientTransform="matrix(-1 0 0 1 12914.239 -78)" gradientUnits="userSpaceOnUse" x1="12783.133" x2="12877.347" y1="158.142" y2="276.871"><stop offset="0" stop-color="#a1c3fc"/><stop offset="1" stop-color="#81aef2"/></linearGradient><linearGradient id="e" gradientUnits="userSpaceOnUse" x1="112.454" x2="130.189" y1="86.203" y2="61.934"><stop offset="0" stop-color="#ffbeb6"/><stop offset=".383" stop-color="#fdbab3"/><stop offset=".728" stop-color="#f8afa9"/><stop offset="1" stop-color="#f2a19c"/></linearGradient><linearGradient id="f" gradientTransform="matrix(-1 0 0 1 12914.239 -78)" gradientUnits="userSpaceOnUse" x1="12755.5" x2="12764.251" y1="167.443" y2="116.191"><stop offset="0" stop-color="#ffbeb6"/><stop offset="1" stop-color="#f2a19c"/></linearGradient><linearGradient xmlns:xlink="http://www.w3.org/1999/xlink" id="g" x1="12755.224" x2="12855.336" xlink:href="#a" y1="207.186" y2="195.809"/><linearGradient xmlns:xlink="http://www.w3.org/1999/xlink" id="h" gradientTransform="translate(72.667 -3724.336)" x1="136.931" x2="175.032" xlink:href="#b" y1="3871.741" y2="3925.962"/><path d="M186.883 154.536c1.646.555 8.185 2.6 10.4 1.223a120.371 120.371 0 0 1 13.176-7.008c4.776-2.263 6.681-2.58 9.733-4.711 1.26-.881 3.258-2.722 4.8-1.022 1.58 1.74.189 3.023-3.6 7.414 2.892-1.582 7.455-7.819 11.507-6.844 3.56.857 3.117 6.716-.839 14.43-5.59 10.9-12.4 12.709-14.873 12.318-10.888-1.715-17.381-3.644-21.587-2.8-2.876.574-10.481 2.639-12.508 3.194z" fill="#f8afa9"/><path d="m89.526 457.52-13.445 37.507h94.922s-4.867-9.388-21.092-16.342-29.4-21.172-29.4-21.172H89.53" fill="url(#c)"/><path d="M19.216 457.52 5.771 495.027h94.922s-4.867-9.388-21.092-16.342-29.4-21.172-29.4-21.172H19.22" fill="#e94a47"/><path d="M43.238 211.066c13.042 57.227 14.056 49.19 12.049 89.352s4.515 26.607 6.521 68.763c2.007 42.179.611 61.72 27.72 88.338h30.979s3.588-127.3 3-163.644c-.414-25.43-8.407-51.186-13.009-72.232l-8.069-31.328c-24.852 7.3-45.538 8.756-61.491 7.829a136.641 136.641 0 0 0 2.3 12.922z" fill="url(#b)"/><path d="M18.615 458.751h33.074s52.134-125.642 54.741-152.925c2.05-21.689 1.166-46.682-1.113-69.473 0 0-4.351-29.3-5.725-45.221-29.671 8.277-53.214 8.222-69.636 5.943a135.009 135.009 0 0 0 7.012 40.347c20.806 62.439 6.5 59.484-.24 78.371-6.772 18.887-10.4 30.434-8.855 48.285s-6.226 13.118-10.4 36.192c-4.157 23.096 1.142 58.481 1.142 58.481z" fill="#23286b"/><path d="M115.906 185.048s.294.218.818.578c.01.011.01 0 .01 0 1.156.817 3.4 2.344 6.042 3.947 3.849 2.323 8.527 4.776 11.864 5.3 6.662 1.057 8.069 5.605 15.43 10.163s19.628 7.72 28.4.359l10.4-50.193s-24.775-8-41.961-18.527c-10.948-6.706-18.168-23.312-20.087-39.745-1.036-8.832 1.146-19.641 1.3-24.264-3.686-9.149-10.512-11.875-12.911-12.573-.284 0-.567 0-.862.011a.806.806 0 0 1-.109.021c-.011.011-.022.022-.032.011a96.547 96.547 0 0 0-14.035 4.569c-54.154 84.271 15.733 120.343 15.733 120.343z" fill="url(#a)"/><path d="M67.5 213.212a.222.222 0 0 0 .117.293.224.224 0 1 0-.117-.293zm2.1-5.047a.224.224 0 0 0 .118.294.246.246 0 0 0 .308-.12.228.228 0 0 0-.133-.292l-.024-.009a.209.209 0 0 0-.269.127zm2.105-5.045a.229.229 0 0 0 .133.291.222.222 0 0 0 .293-.118.244.244 0 0 0-.12-.308.248.248 0 0 0-.306.135zm2.118-5.064a.24.24 0 0 0 .12.308.223.223 0 0 0 .294-.118.241.241 0 0 0-.12-.308.223.223 0 0 0-.294.118zm16.829 15.1a.229.229 0 1 0 .172.424c.009 0 .018-.008.027-.012a.208.208 0 0 0 .087-.282.218.218 0 0 0-.281-.131zm-30.92-8.794a.207.207 0 0 0 .012.295.22.22 0 1 0 0-.311.077.077 0 0 0-.006.011zm3.887-3.874a.223.223 0 0 0 .007.317.2.2 0 0 0 .251.028h.016a.056.056 0 0 0 .043-.021.222.222 0 0 0 .066-.2.248.248 0 0 0-.065-.13.22.22 0 0 0-.31 0zm15.3 12.247a.232.232 0 1 0 .231-.233.232.232 0 0 0-.224.228zm.019-5.47a.224.224 0 0 0 .231.216h.018a.217.217 0 0 0 .214-.219.239.239 0 0 0-.233-.231.248.248 0 0 0-.223.229zm-41.1 7a.42.42 0 0 0-.04.592l.01.012a.424.424 0 0 0 .6.029.42.42 0 0 0 .039-.593l-.009-.011a.424.424 0 0 0-.6-.029zm7.838-6.815a.444.444 0 0 0-.054.612.432.432 0 1 0 .648-.571.419.419 0 0 0-.592-.039zm7.825-6.8-.011.01a.425.425 0 0 0-.028.6.432.432 0 1 0 .039-.61zm15.886 39.8a.423.423 0 0 0-.457.388.435.435 0 0 0 .4.455h.023a.413.413 0 0 0 .434-.391.433.433 0 0 0-.4-.454zm.735-10.355a.458.458 0 0 0-.47.407.43.43 0 0 0 .858.051.422.422 0 0 0-.388-.457zm.721-10.353a.433.433 0 0 0-.455.4v.016a.422.422 0 0 0 .4.44h.023a.412.412 0 0 0 .434-.39.458.458 0 0 0-.405-.47zm.725-10.34a.43.43 0 1 0 .4.458.424.424 0 0 0-.388-.457zm.731-10.351a.431.431 0 0 0-.454.4v.023a.412.412 0 0 0 .39.434.431.431 0 0 0 .066-.86zm-23.272 31.075a.438.438 0 0 0 .2.577h.008a.437.437 0 1 0-.212-.58zm4.631-9.283a.439.439 0 0 0 .2.576h.008a.436.436 0 1 0-.212-.579zm4.631-9.283a.459.459 0 0 0 .207.59.436.436 0 0 0 .387-.781.458.458 0 0 0-.594.191zm4.65-9.271c0 .009-.009.016-.012.025a.406.406 0 0 0 .2.539h.012a.423.423 0 0 0 .566-.194l.009-.02a.426.426 0 1 0-.774-.355zm25.64 31.284a.434.434 0 0 0 .547.265.418.418 0 0 0 .262-.531l-.009-.032a.412.412 0 0 0-.525-.251.459.459 0 0 0-.275.549zM85.564 223.2h-.006a.419.419 0 0 0-.261.531.456.456 0 0 0 .549.28.431.431 0 0 0 .265-.547v-.008a.426.426 0 0 0-.545-.257zm-3.284-9.85a.436.436 0 0 0-.266.548l.007.019a.412.412 0 0 0 .527.248l.02-.007a.425.425 0 0 0 .26-.543.435.435 0 0 0-.548-.265zm-3.563-9.295a.432.432 0 0 0 .547.265l.02-.006a.412.412 0 0 0 .247-.527.432.432 0 0 0-.534-.282.445.445 0 0 0-.28.55zm-38.585 21.338a.381.381 0 1 0 .526-.119.382.382 0 0 0-.526.119zm4.9-7.835a.373.373 0 0 0 .127.512.381.381 0 1 0-.119-.526zm4.88-7.566a.321.321 0 0 0 .155.227.386.386 0 0 0 .526-.119.389.389 0 0 0-.123-.537.381.381 0 0 0-.36-.027h-.015a.275.275 0 0 0-.151.145.327.327 0 0 0-.033.311zm4.941-8.163a.385.385 0 1 0 .652.41.386.386 0 0 0-.651-.414zM78.8 231.643a.385.385 0 1 0 .18.749h.016a.369.369 0 0 0 .262-.452v-.007a.381.381 0 0 0-.457-.285zm-2.359-8.543a.381.381 0 0 0 .457.277l.016-.005a.369.369 0 0 0 .262-.452v-.007a.382.382 0 0 0-.457-.286.4.4 0 0 0-.278.473zm-2.085-9.035v.007a.382.382 0 0 0 .457.286l.035-.009a.361.361 0 0 0 .242-.448v-.007a.381.381 0 0 0-.457-.286.387.387 0 0 0-.277.452zm-1.791-9.479a.405.405 0 0 0-.291.474.386.386 0 0 0 .75-.182.4.4 0 0 0-.459-.292zm-36.1-1.353a.393.393 0 0 0-.081.538l.011.015a.377.377 0 0 0 .528.066l.018-.014a.362.362 0 0 0 .063-.509l-.007-.011a.38.38 0 0 0-.532-.085zm22.648 24.326a.4.4 0 0 0-.45.326.389.389 0 0 0 .324.435.379.379 0 0 0 .437-.309.4.4 0 0 0-.311-.452zm1.524-9.133a.387.387 0 0 0-.434.324v.023a.367.367 0 0 0 .312.414.379.379 0 0 0 .438-.308.4.4 0 0 0-.311-.453zm1.526-9.116a.088.088 0 0 0-.024 0 .366.366 0 0 0-.414.311.379.379 0 1 0 .746.129v-.023a.366.366 0 0 0-.312-.414zm1.525-9.133a.379.379 0 0 0-.129.746.371.371 0 0 0 .328-.091h.016a.439.439 0 0 0 .109-.217.389.389 0 0 0-.324-.435zM93.4 219.942l-.015.01a.377.377 0 0 0-.066.528l.014.019a.362.362 0 0 0 .508.064l.011-.008a.381.381 0 0 0 .085-.532.392.392 0 0 0-.537-.081zm-5.384-7.532a.376.376 0 0 0-.077.527.393.393 0 0 0 .539.1.387.387 0 0 0-.443-.635zm-47.16-9.433a.229.229 0 1 0-.014-.324.237.237 0 0 0 .013.324zm3.71-4.308a.235.235 0 0 0 .014.323.229.229 0 1 0-.014-.323zm17.966 11.978a.224.224 0 1 0 .231.216.224.224 0 0 0-.231-.216zm-.182-5.458a.231.231 0 0 0-.226.234.237.237 0 0 0 .246.214.224.224 0 0 0 .216-.232v-.017a.215.215 0 0 0-.23-.2zm-.2-5.455a.224.224 0 1 0 .231.216v-.018a.214.214 0 0 0-.23-.2zm-10.571 6.327a.229.229 0 0 0 .133.291.243.243 0 0 0 .291-.133v-.012a.219.219 0 0 0-.138-.279l-.019-.008a.216.216 0 0 0-.272.141zm1.923-5.13v.013a.231.231 0 0 0 .141.293.244.244 0 0 0 .291-.134.234.234 0 0 0-.133-.291l-.014-.005a.217.217 0 0 0-.28.124zm18.979 4.746a.223.223 0 0 0 .409-.18l-.012-.027a.209.209 0 0 0-.283-.088.225.225 0 0 0-.112.295zm-2.153-5.263h-.006a.218.218 0 0 0-.107.291.235.235 0 0 0 .309.112.218.218 0 0 0 .1-.291l-.012-.027a.209.209 0 0 0-.283-.088zm-33.453 7.619a.265.265 0 0 0 .081.36h.006a.249.249 0 0 0 .34-.083l.01-.017a.25.25 0 0 0-.091-.343l-.007-.005a.248.248 0 0 0-.339.083zm3.363-5.251-.012.017a.251.251 0 0 0 .078.346.262.262 0 0 0 .28-.442h-.007a.246.246 0 0 0-.339.083zm22.627 9.74a.262.262 0 0 0-.186.319.159.159 0 0 0 .006.03.24.24 0 0 0 .3.16.258.258 0 0 0 .19-.305.281.281 0 0 0-.308-.205zm-1.337-6.088a.282.282 0 0 0-.2.321.262.262 0 0 0 .32.187.257.257 0 0 0 .19-.3.28.28 0 0 0-.308-.205zm-1.339-6.088a.257.257 0 0 0-.19.3.27.27 0 0 0 .008.039.243.243 0 0 0 .3.167.257.257 0 0 0 .19-.305.281.281 0 0 0-.308-.2zm-10.392 9.4a.232.232 0 0 0 .112.248.308.308 0 0 0 .1.048h.008a.252.252 0 0 0 .287-.213.262.262 0 0 0-.2-.3h-.024a.253.253 0 0 0-.287.212zm1.4-6.357a.256.256 0 0 0-.294.212.251.251 0 0 0 .2.294.275.275 0 0 0 .313-.2.283.283 0 0 0-.214-.311zm22.058 1.253a.266.266 0 0 0-.073.366l.005.008a.257.257 0 0 0 .359.051.253.253 0 0 0 .06-.349l-.01-.015a.244.244 0 0 0-.341-.061zm-3.573-5.112a.259.259 0 0 0-.057.364l.013.019a.24.24 0 0 0 .336.041l.015-.01a.246.246 0 0 0 .06-.341.267.267 0 0 0-.367-.073zm-29.11 35.856a.442.442 0 0 0-.507.364.457.457 0 0 0 .379.5.443.443 0 0 0 .507-.364.452.452 0 0 0-.379-.5zm1.666-10.561a.441.441 0 1 0 .364.507.443.443 0 0 0-.364-.507zm1.652-10.559a.441.441 0 0 0-.507.366.451.451 0 0 0 .379.5h.017a.44.44 0 0 0 .111-.873zm1.666-10.566h-.007a.44.44 0 0 0-.137.869.442.442 0 0 0 .51-.362v-.007a.438.438 0 0 0-.367-.5zm38.431 21.2a.453.453 0 0 0-.1.619.466.466 0 0 0 .633.1.447.447 0 0 0-.533-.717zm-6.387-8.021a.443.443 0 1 0 .1-.618.442.442 0 0 0-.1.618zm-6.191-9.257-.013.01a.436.436 0 0 0-.088.61.449.449 0 0 0 .618.1.467.467 0 0 0 .1-.634l-.006-.009a.434.434 0 0 0-.609-.077zm-6.29-8.638a.178.178 0 0 0-.033.023.424.424 0 0 0-.069.595.449.449 0 0 0 .618.1.472.472 0 0 0 .1-.633l-.007-.009a.431.431 0 0 0-.608-.076zm-33.193 6.033a.456.456 0 0 0 .147.615.447.447 0 1 0-.147-.615zm29.484 24.727a.448.448 0 0 0-.328.541.47.47 0 0 0 .541.328.446.446 0 0 0 .313-.538v-.009a.436.436 0 0 0-.524-.322zm-2.51-10.386-.028.006a.424.424 0 0 0-.3.519.448.448 0 0 0 .541.328.432.432 0 0 0 .314-.524l-.006-.028a.425.425 0 0 0-.52-.3zm-2.508-10.4a.445.445 0 0 0-.327.541v.008a.434.434 0 0 0 .524.322.447.447 0 0 0-.2-.871zm-2.505-10.387a.448.448 0 0 0-.329.541.44.44 0 1 0 .329-.541zm1.058 34.624a.446.446 0 1 0 .527.346.447.447 0 0 0-.527-.346zm-2.409-9.92a.446.446 0 0 0 .527.345.452.452 0 0 0 .347-.512.471.471 0 0 0-.53-.36.455.455 0 0 0-.34.525zm-2.066-10.446a.447.447 0 0 0 .528.345.438.438 0 0 0-.168-.86.455.455 0 0 0-.356.513zm-1.713-10.959a.432.432 0 0 0-.337.51l.006.028a.424.424 0 0 0 .507.319.441.441 0 0 0 .346-.512v-.011a.431.431 0 0 0-.51-.337zm25.521-5.184a.44.44 0 0 0 .122.611.457.457 0 0 0 .617-.132.438.438 0 0 0-.129-.6l-.02-.013a.422.422 0 0 0-.583.128zm-39.216 20.3a.458.458 0 0 0-.524.351.433.433 0 0 0 .35.505.443.443 0 0 0 .526-.335.452.452 0 0 0-.351-.525zm2.082-10.45a.435.435 0 0 0-.506.35v.008a.439.439 0 1 0 .861.168.458.458 0 0 0-.351-.525zm35.542 13.39-.013.009a.442.442 0 0 0-.119.614.449.449 0 0 0 .62.115.436.436 0 0 0 .118-.6l-.01-.016a.428.428 0 0 0-.6-.117zm-5.9-8.863-.013.009a.44.44 0 0 0-.119.613.45.45 0 0 0 .621.116.436.436 0 0 0 .117-.6l-.009-.017a.429.429 0 0 0-.6-.116zm-5.9-8.863-.011.008a.441.441 0 0 0-.119.614.449.449 0 0 0 .62.116.436.436 0 0 0 .118-.6.444.444 0 0 0-.608-.133zm-6.044 13.145a.333.333 0 0 0 .611-.266c0-.011-.009-.022-.014-.032a.32.32 0 0 0-.429-.139.331.331 0 0 0-.172.439zm-2.992-7.821a.335.335 0 1 0 .442.171v-.01a.33.33 0 0 0-.437-.161zm-3.159-7.384a.34.34 0 0 0-.171.441.335.335 0 1 0 .171-.441zm-10.558 14.054h-.023a.321.321 0 0 0-.3.34.336.336 0 0 0 .339.324.349.349 0 0 0 .325-.339.332.332 0 0 0-.34-.322zm-.089-8.025a.33.33 0 0 0-.337.326.354.354 0 0 0 .341.34.331.331 0 0 0 .322-.339v-.012a.318.318 0 0 0-.324-.315zm-.106-8.04a.33.33 0 0 0-.322.339.192.192 0 0 0 0 .024.322.322 0 0 0 .34.3h.017a.317.317 0 0 0 .31-.324.354.354 0 0 0-.342-.34zm28.3 4.307a.328.328 0 1 0 .466.462.153.153 0 0 0 .018-.018.327.327 0 0 0-.023-.461l-.008-.009a.321.321 0 0 0-.453.026zM41.02 203.5l-.019.011a.291.291 0 0 0-.079.405.3.3 0 0 0 .414.082l.025-.016a.275.275 0 0 0 .059-.383.088.088 0 0 0-.012-.021.281.281 0 0 0-.388-.078z" fill="#fff" opacity=".86"/><path d="M2.837 189.6s41.731 22.223 113.887-3.969c.01.011.01 0 .01 0a126.18 126.18 0 0 0 2.334-.851l.087-.785 9.149-81.937.894-7.982.84-7.578c0-.022.011-.044.011-.066 0-.043.011-.076.011-.12a.114.114 0 0 1 .011-.054 1.456 1.456 0 0 1 .022-.229l.229-2.072a.328.328 0 0 0 .011-.1l.1-.895c-.077-1.046-.2-2.05-.349-3a31.823 31.823 0 0 0-1.963-7.3c-3.686-9.149-10.512-11.875-12.911-12.573-.284 0-.567 0-.861.011a.806.806 0 0 1-.109.021c-.011.011-.022.022-.033.011a96.534 96.534 0 0 0-14.034 4.569A124.7 124.7 0 0 0 70.14 81.956a111.653 111.653 0 0 0-11.014 9.716c-11.341 11.483-12.933 19.214-22.758 27.48C24 129.555-9.965 149.2 2.837 189.6z" fill="url(#d)"/><path d="M145.723 53.208S131.144 71.2 130.02 86.416c0 0-13.443-5.689-16.482-25.948 0 0 14.7-6.672 15.178-13.807z" fill="url(#e)"/><path d="M167.781 41.028c-.041.128-.073.221-.089.279a.117.117 0 0 1-.015.058c-.16.51-.342 1.023-.545 1.548-2.178 5.662-.528 11.833-1.318 13.289s-4.168.9-5.6.3-6.736 5.3-14.4 6.24c-7.19.884-14.75-3.778-18.373-9.406 4.075-12.436 8.712-20.262 22.429-19.453 14.973.876 18.581-3.89 18.581-3.89a24.975 24.975 0 0 1-.67 11.035z" fill="#ffbeb6"/><path d="M133.9.515c5.139-1.141 11.381-.547 18.352 3.4 13.056 7.4 26.972 20.741 15.416 37.449a25.17 25.17 0 0 0 .775-11.381s-3.687 5.469-18.575 7.311c-13.126 1.623-7.762 10.54-18.375 21.995 0 0-29.335-10.392-40.715-31.4 0 0 5.293-10.7 15.833-10.924 5.606-.12 10-3.634 13.132-6.787a23.853 23.853 0 0 1-5.981 3.471C105.589 16.675 92.58 14 89.144 24.4a.418.418 0 0 1-.8-.259c2.814-8.506 12.171-8.785 19.644-9.964 5.64-.89 9.6-3.312 13.984-6.79q.737-.585 1.475-1.135A21.277 21.277 0 0 1 132.6.845z" fill="#e94a47"/><path d="M140.208 79.44c.246 8.524 3.17 25.828 3.17 25.828l19.251-4.148s-6.826-10.717-9.5-14.855-3.407-7.309 4.87-11.211 10.964-9.265 11.458-14.865c.208-2.354.617-5.173 1.044-7.661a9.314 9.314 0 0 1-2.459.19c-.807-.066-2.069 1.86-4.081 4.2a20.474 20.474 0 0 1-.845 2.06 14.289 14.289 0 0 1-9.987 8.04c-1.386.418-2.145-.512-2.364-2.506a26.256 26.256 0 0 1 .418-6.264c.968-6.095-4.879-10.233-4.879-6.826s-2.193 11.211-2.193 11.211q-.142.627-.284 1.2c-2.29 9.114-3.847 7.414-3.619 15.607z" fill="url(#f)"/><path d="M70.137 81.955a120.2 120.2 0 0 1 44.1-21.833h.019c-.01.01-.028.01-.038.019-.436.208-.684.322-.684.322.113.751.238 1.463.38 2.145 3.2 16.413 13.374 22.431 15.653 23.589a117.707 117.707 0 0 0-.892 12.444 88.301 88.301 0 0 0 .01 4.177v.123L177.763 90.4s9.113 14.03 3.5 31.2a72.072 72.072 0 0 0-3 31.42c.285 2.658.636 5.05.892 7.148 1.054 8.411-1.747 27.339-31.894 30.841-9.255 1.082-18.872-2.239-28.022-7.831a91.074 91.074 0 0 1-8.334-5.772c-17.1-13.194-31.457-32.492-36.916-42.137" fill="url(#g)"/><path d="M73.084 135.585c3.863 10.389 19.8 28.94 36.911 42.135a91.439 91.439 0 0 0 8.331 5.779c.273.164.557.338.829.491 8.909 5.289 18.222 8.386 27.2 7.339 30.151-3.5 32.954-22.431 31.9-30.838-.262-2.105-.611-4.493-.894-7.154-9.313-.6-26.258-3.446-38.755-15.615-8.146-7.928-10.381-20.457-10.381-31.885 0-1.276.033-2.541.087-3.784a114.667 114.667 0 0 1 1.734-15.56c0-.022.011-.044.011-.066 0-.043.011-.076.011-.12a.114.114 0 0 1 .011-.054 1.456 1.456 0 0 1 .022-.229 22.58 22.58 0 0 1 .229-2.072.3.3 0 0 0 .01-.1c.044-.229.077-.447.12-.676-.011-.077-.011-.153-.021-.218a36.701 36.701 0 0 0-.349-3c-2.312-15.1-11.93-19.007-14.874-19.868a1.237 1.237 0 0 1-.109-.033c-.2-.054-.36-.087-.48-.12s-.185-.033-.24-.044l-.218.055c-.545.131-1.287.327-2.181.6a131.832 131.832 0 0 0-42.765 21.725c-3.558 2.92-3.413 33.754 3.861 53.312z" fill="#a1c3fc"/><path d="M161.643 42.465a4.976 4.976 0 0 0 8.59 1.88c.5-.575-.311-1.454-.811-.871a3.789 3.789 0 0 1-6.618-1.269c-.226-.728-1.389-.474-1.161.26z" fill="#1c2868"/><path d="M208.635 132.333h17.018v51.624h-17.018z" fill="url(#h)" transform="matrix(.8660254 .5 -.5 .8660254 108.164 -87.385)"/><g fill="#d6d7d8"><path d="m218.052 133.829 7.347-12.726 19.698 11.373-7.347 12.725z"/><path d="m236.165 139.08 7.347-12.726 1.804 1.042-7.347 12.725zm-4.575-2.442 7.346-12.725 1.804 1.041-7.347 12.726zm-4.372-2.724 7.347-12.725 1.804 1.041-7.347 12.726zm-4.576-2.588 7.347-12.725 1.804 1.041-7.347 12.726z"/></g><path d="M234.169 154.106c-3.3-2.769-11.216 1.657-17.348 9.9-4.174 5.611-8.587 14.019-4.143 15.921 4.813 2.061 15.19-1.472 20.9-14.017 3.911-8.605 2.522-10.184.591-11.804z" fill="#ffbeb6"/><circle cx="224.542" cy="146.045" fill="#e94a47" r="1.408"/></svg></g><g transform="translate(724.0 640.0) rotate(0.0 266.5 409.0) scale(2.7118609573428847 2.7130201751854837)"><svg width="196.544" height="301.509" viewBox="0 0 196.544 301.509"><linearGradient id="i" gradientUnits="userSpaceOnUse" x1="18.529" x2="101.338" y1="41.236" y2="159.08"><stop offset="0" stop-color="#eee"/><stop offset="1" stop-color="#d6d7d8"/></linearGradient><linearGradient xmlns:xlink="http://www.w3.org/1999/xlink" id="k" x1="135.41" x2="147.261" xlink:href="#i" y1="266.101" y2="266.101"/><linearGradient xmlns:xlink="http://www.w3.org/1999/xlink" id="l" gradientTransform="matrix(1 0 0 -1 -12420.641 8921.154)" x1="12469.562" x2="12481.412" xlink:href="#i" y1="8655.053" y2="8655.053"/><linearGradient xmlns:xlink="http://www.w3.org/1999/xlink" id="m" x1="90.36" x2="105.821" xlink:href="#i" y1="206.086" y2="206.086"/><linearGradient xmlns:xlink="http://www.w3.org/1999/xlink" id="n" x1="90.36" x2="105.821" xlink:href="#i" y1="265.025" y2="265.025"/><linearGradient xmlns:xlink="http://www.w3.org/1999/xlink" id="o" x1="84.54" x2="173.205" xlink:href="#i" y1="97.763" y2="223.94"/><linearGradient id="j" gradientUnits="userSpaceOnUse" x1="85.887" x2="110.294" y1="289.306" y2="289.306"><stop offset="0" stop-color="#a1c3fc"/><stop offset="1" stop-color="#81aef2"/></linearGradient><linearGradient xmlns:xlink="http://www.w3.org/1999/xlink" id="p" x1="172.136" x2="196.544" xlink:href="#j" y1="289.306" y2="289.306"/><linearGradient xmlns:xlink="http://www.w3.org/1999/xlink" id="q" x1="0" x2="24.408" xlink:href="#j" y1="289.306" y2="289.306"/><linearGradient xmlns:xlink="http://www.w3.org/1999/xlink" id="r" x1="100.087" x2="113.321" xlink:href="#i" y1="111.747" y2="65.594"/><path d="M28.501 0h12.858v129.154H28.501z" fill="url(#i)"/><path d="M135.41 216.624h11.85v98.955h-11.85z" fill="url(#k)" transform="matrix(.36568914 -.93073705 .93073705 .36568914 -158.02 300.337)"/><path d="M48.92 216.624h11.85v98.955H48.92z" fill="url(#l)" transform="matrix(-.36568914 -.93073705 .93073705 -.36568914 -172.768 414.458)"/><path d="M90.36 122.867h15.462v166.438H90.36z" fill="url(#m)"/><path d="M90.36 245.746h15.462v38.559H90.36z" fill="url(#n)" transform="matrix(-1 0 -0 -1 196.181 530.051)"/><path d="M95.631 53.321h12.941v138.868H95.631z" fill="url(#o)" transform="matrix(0 1 -1 0 224.856 20.653)"/><circle cx="98.09" cy="289.306" fill="url(#j)" r="12.204"/><circle cx="184.34" cy="289.306" fill="url(#p)" r="12.204"/><circle cx="12.204" cy="289.306" fill="url(#q)" r="12.204"/><g fill="#1d72d8"><circle cx="98.09" cy="289.306" r="5.255"/><circle cx="184.34" cy="289.292" r="5.255"/><circle cx="12.204" cy="289.292" r="5.255"/></g><path d="M173.145 128.968h-13a48.383 48.383 0 0 0-48.327-48.327h-77.08v-13h77.08a61.4 61.4 0 0 1 61.327 61.327z" fill="url(#r)"/></svg></g><g transform="translate(769.0 391.0) rotate(0.0 67.0 107.5) scale(2.701449509102272 2.6993094789704957)"><svg width="49.603" height="79.65" viewBox="0 0 49.603 79.65"><linearGradient id="s" gradientUnits="userSpaceOnUse" x1="23.155" x2="27.665" y1="77.394" y2="77.394"><stop offset="0" stop-color="#23286b"/><stop offset="1" stop-color="#151a4f"/></linearGradient><linearGradient xmlns:xlink="http://www.w3.org/1999/xlink" id="t" gradientTransform="matrix(.11355003 .99353228 -.99353228 .11355003 5.116 -.291)" x1="0" x2="5.442" xlink:href="#s" y1="2.722" y2="2.722"/><path d="m23.155 79.185.463-4.048 4.047.465-.463 4.048z" fill="url(#s)"/><rect fill="url(#t)" height="5.441" rx="2.721" transform="matrix(.11355003 -.99353228 .99353228 .11355003 -.292 5.116)" width="5.443" x="-.001" y=".001"/><path d="m47.667 42.788-7.444 7.07-1.075 1.021c-1.052 1 .541 2.589 1.591 1.591l7.444-7.07 1.075-1.021c1.053-1-.54-2.589-1.591-1.591z" fill="#23286b"/></svg></g><g transform="translate(672.0 745.0) rotate(0.0 28.5 27.5) scale(2.926378478283191 2.9649595687331534)"><svg width="19.478" height="18.55" viewBox="0 0 19.478 18.55"><path d="M19.478 16.891C14.732 20 6.071 18.805 2.139 12.8A12.3 12.3 0 0 1 .05 4.778 46.164 46.164 0 0 1 6.141 0z" fill="#23286b"/></svg></g><g transform="translate(838.0 354.0) rotate(0.0 294.0 546.0) scale(2.6812585499316004 2.6777832270720943)"><svg width="219.3" height="407.8" viewBox="0 0 219.3 407.8"><linearGradient id="w" gradientUnits="userSpaceOnUse" x1="8.136" x2="181.899" y1="261.006" y2="261.006"><stop offset=".129" stop-color="#428dfc"/><stop offset=".999" stop-color="#1d72d8"/></linearGradient><linearGradient id="u"><stop offset="0" stop-color="#a1c3fc"/><stop offset="1" stop-color="#81aef2"/></linearGradient><linearGradient xmlns:xlink="http://www.w3.org/1999/xlink" id="x" gradientUnits="userSpaceOnUse" x1="84.607" x2="27.92" xlink:href="#u" y1="83.037" y2="192.419"/><linearGradient id="v"><stop offset="0" stop-color="#ffbeb6"/><stop offset=".383" stop-color="#fdbab3"/><stop offset=".728" stop-color="#f8afa9"/><stop offset="1" stop-color="#f2a19c"/></linearGradient><linearGradient xmlns:xlink="http://www.w3.org/1999/xlink" id="y" gradientUnits="userSpaceOnUse" x1="122.46" x2="204.386" xlink:href="#v" y1="179.349" y2="179.349"/><linearGradient xmlns:xlink="http://www.w3.org/1999/xlink" id="z" gradientUnits="userSpaceOnUse" x1="30.129" x2="151.954" xlink:href="#u" y1="136.594" y2="136.594"/><linearGradient xmlns:xlink="http://www.w3.org/1999/xlink" id="A" gradientUnits="userSpaceOnUse" x1="38.028" x2="64.062" xlink:href="#v" y1="62.108" y2="62.108"/><path d="M10.7 175.4c-8.2 12.8 4.3 46.9 19.5 51 13.8 3.8 63.3.1 63.3.1s28.9-7.8 32.6-1.8c2.2 3.6-4.6 13.6-3.7 30.6.9 17.9 2.4 24-3.2 35-6.1 12.1-9.9 26.9-2.1 46.1l10.3 19.3 17.5-9.8s21.9-42.7 29.8-80.7c7-33.9 15-69.2-8.1-90.4-22.4-20.3-119.6 2-119.6 2z" fill="url(#w)"/><path d="m117.2 336.4-26.8 30 88.7 32.1s-1-10.5-13.8-22.6c-12.9-12.1-20.4-30-20.4-30z" fill="#151a4f"/><path d="M14.8 165c-6.3 13.8-9.5 49.9 14 59.8 14.2 6 97.4 0 97.4 0s17.2-2.2 14 21.5c-2.4 17.2 8.1 26-1.4 45.3-8.5 17.2-11.2 41.1-4 50.9l17.9 22.7 17.4-9.8s24.1-57.3 35.7-94.3c11.4-36.5 8.7-55.6-14.6-76.8C168.8 163.9 71 156.1 71 156.1z" fill="#428dfc"/><path d="m134.7 342.4-21.6 32.2 91.6 33.2s-1.4-10.5-14.3-22.5c-12.9-12.1-20.4-29.9-20.4-29.9z" fill="#23286b"/><path d="M38 69.7s-14 7.2-19.6 33.9c-4 19-4.9 25.5-11.1 37.9-6 11.9-10.6 30-4.2 40.8 0 0 49.5 11.5 97.3-16.5L64.1 74.2z" fill="url(#x)"/><path d="M128.2 157.9s38 6.9 49.1 11.1 31.5 17.9 26.3 28.7-29.8-10.3-36.5-16.6-44.6-1.8-44.6-1.8z" fill="url(#y)"/><path d="M68 87c-1-4.5-5.8-13.4-15.2-14.8-10-1.4-15.5 7.6-17.9 12.8-4.5 9.5-6.4 23.1-3.2 41.1s14.9 14.1 21.2 37c8.8 32.2 76.7 41.5 99.1 36.8l-2.6-49.5s-46.2-6-60.8-23.2C76.2 113 70.1 96.6 68 87z" fill="url(#z)"/><path d="M64.1 74.2s16.8 39 46.8 56c29.4 16.6 46.5 18.8 78.7 39.8 35.9 23.3 28.7 95.2 28.7 95.2s-13.4 4.1-39.2 3.8c-29.7-.3-48.6-3.6-48.6-3.6s18.4-60.2-30.1-69.3c-38.4-7.2-65.7-5.5-70.3-40.4-4.7-36.1-5-68 12.9-86.1z" fill="#d62929"/><path d="M44.8 52.4S41.7 65.5 38 69.7c0 0 2.6 2.9 12 4.8 9.8 2 14-.3 14-.3s-1.9-6.2-3.3-15.6c-2.6-17.4-15.9-6.2-15.9-6.2z" fill="url(#A)"/><path d="M77.2 49.2S69.6 71.7 39.8 56s3.4-7-1.9-9.9c-5.2-2.9-9.4-7.8-5-12.5s6.7 2 12.2 0c5.6-2 10.8-10.2 10.8-10.2s12-1.7 25.5.4c.1 2-1 12.2 2.7 17.4 2.5 4.7 0 7.5-6.9 8z" fill="#ffbeb6"/><path d="M103.4 0c-3.8 18.7-13.3 23.4-22.1 26.1-.4.1-.8.2-1.2.4-8.8 2.6-19.8-1.1-24.3-3.2-.3.4-5.4 8.3-10.8 10.2-4.8 1.7-7.1-3-10.5-1.3-.5.3-1.1.7-1.7 1.3-.3.4-.6.7-.8 1.1-.4.5-.6 1.1-.8 1.6-.4 1.1-.3 2.3.1 3.4.1.4.3.8.5 1.2.4.8 1 1.5 1.7 2.2 1.2 1.2 2.7 2.3 4.3 3.2.6.3 1 .7 1.4 1.1s.7.8.9 1.3c.2.3.3.7.4 1.1 0 .1.1.2.1.4s.1.5.1.7c.2 2.7-1 5.4-1 5.4-4.2-1.8-16.4-8.2-22.9-19.5-4.2-7.3-5.6-15.6-6-21.4C13 17 15.7 18 18.7 18c6.8 0 12.4-5.3 12.9-12z" fill="#23286b"/><path d="M89.5 27.4c-.5-.3-1.1-.4-1.7-.4-2.1 0-4.4 1.9-5.5 4.8-.2.4-.3.9-.4 1.4-.1 0-.2-.1-.3-.1-1.6-.3-3.1.5-4.5 1.4 0-.2 0-.5-.1-.7-.2-1.8-1.3-3.5-2.8-4.5-2.9-1.6-6.6.7-8.4 5.1-.8 2-1 4.3-.6 6.5.2 1.5.9 2.8 2 3.9.3.2.5.5.9.6 1.5.8 3.3.7 4.7-.3 1.7-1.2 3-2.8 3.7-4.8.6-1.5.8-3 .8-4.6 1.3-1 3-2 4.6-1.5-.4 2.6.3 5.1 1.8 6.5.2.2.4.4.7.5h.1c2.5 1.4 5.8-.6 7.2-4.4s.3-8-2.2-9.4zm-14 12.4c-.6 1.7-1.8 3.2-3.3 4.3-1.1.8-2.6.9-3.9.3-1.3-.8-2.1-2.2-2.3-3.7-.3-1.9-.1-3.9.6-5.7 1.5-3.9 4.7-5.9 7.1-4.5.2.1.5.3.7.5.9.9 1.4 2 1.6 3.2.4 1.8.2 3.8-.5 5.6zm15.1-3.4c-1.2 3.3-3.9 5-6 3.8-2.1-1.1-2.7-4.7-1.5-8 1.2-3.2 3.9-5 6-3.8s2.7 4.7 1.5 8zM31 161.2c8.3 34.2 34.8 43 60 39.9s76.6-14 83.5 3.8c9.1 23.3-44.1 60.6-44.1 60.6s26.3 3.6 52.9 3.6c32.6 0 34.9-3.8 34.9-3.8s8.4-63.4-22.5-90.4c-22.4-19.5-57.4-29.7-83.3-44.4C81.3 112.8 64 74.2 64 74.2l-10.2 1.1L41 71.7s-26.5 21-10 89.5z" fill="#e94a47"/><path d="M63.7 72.8c-2.2.8-4.6 1-6.9 1-6.4 0-12.5-2.2-17.9-5.4-1.7-1-3.2 1.6-1.5 2.6 5.8 3.4 12.4 5.7 19.2 5.8 2.6 0 5.5-.2 8-1.1 1.6-.7.9-3.6-.9-2.9z" fill="#428dfc"/><path d="M162.1 147.9c1.6 5.8 6.4 10.9 12.5 11.4 3.2.3 6.4-.7 9.3-2.1 1.3-.6.2-2.5-1.1-1.9-4.1 1.9-8.8 2.7-12.8.1-2.4-1.5-4.1-4-5.2-6.6 0-.1-.1-.2-.2-.5-.1-.2-.1-.4-.2-.6s-.1-.3-.2-.5c-.3-1.3-2.4-.7-2.1.7z" fill="#23286b"/><path d="M131.2 195.8s26.1 1.7 30.1 11.5c4.9 12.1 12.1 23.7 23.2 20.3 6.4-2 6.9-12.9-3.1-21.1-6.9-5.6-13.6-9.8-21.8-10.7-20.2-2.1-28.4 0-28.4 0z" fill="#fdbab3"/><path d="M83.1 152c2.4 2.4 4.8 4.9 7.2 7.3l1 1c1 1 2.6-.6 1.6-1.6-2.4-2.4-4.8-4.9-7.2-7.3l-1-1c-1-1-2.6.6-1.6 1.6z" fill="#23286b"/></svg></g><g transform="translate(725.0 637.0) rotate(0.0 268.0 410.5) scale(2.7271247150765223 2.7229701269282174)"><svg width="196.544" height="301.509" viewBox="0 0 196.544 301.509"><linearGradient id="B" gradientUnits="userSpaceOnUse" x1="18.529" x2="101.338" y1="41.236" y2="159.08"><stop offset="0" stop-color="#eee"/><stop offset="1" stop-color="#d6d7d8"/></linearGradient><linearGradient xmlns:xlink="http://www.w3.org/1999/xlink" id="D" x1="135.41" x2="147.261" xlink:href="#B" y1="266.101" y2="266.101"/><linearGradient xmlns:xlink="http://www.w3.org/1999/xlink" id="E" gradientTransform="matrix(1 0 0 -1 -12420.641 8921.154)" x1="12469.562" x2="12481.412" xlink:href="#B" y1="8655.053" y2="8655.053"/><linearGradient xmlns:xlink="http://www.w3.org/1999/xlink" id="F" x1="90.36" x2="105.821" xlink:href="#B" y1="206.086" y2="206.086"/><linearGradient xmlns:xlink="http://www.w3.org/1999/xlink" id="G" x1="90.36" x2="105.821" xlink:href="#B" y1="265.025" y2="265.025"/><linearGradient xmlns:xlink="http://www.w3.org/1999/xlink" id="H" x1="84.54" x2="173.205" xlink:href="#B" y1="97.763" y2="223.94"/><linearGradient id="C" gradientUnits="userSpaceOnUse" x1="85.887" x2="110.294" y1="289.306" y2="289.306"><stop offset="0" stop-color="#a1c3fc"/><stop offset="1" stop-color="#81aef2"/></linearGradient><linearGradient xmlns:xlink="http://www.w3.org/1999/xlink" id="I" x1="172.136" x2="196.544" xlink:href="#C" y1="289.306" y2="289.306"/><linearGradient xmlns:xlink="http://www.w3.org/1999/xlink" id="J" x1="0" x2="24.408" xlink:href="#C" y1="289.306" y2="289.306"/><linearGradient xmlns:xlink="http://www.w3.org/1999/xlink" id="K" x1="100.087" x2="113.321" xlink:href="#B" y1="111.747" y2="65.594"/><path d="M28.501 0h12.858v129.154H28.501z" fill="url(#B)"/><path d="M135.41 216.624h11.85v98.955h-11.85z" fill="url(#D)" transform="matrix(.36568914 -.93073705 .93073705 .36568914 -158.02 300.337)"/><path d="M48.92 216.624h11.85v98.955H48.92z" fill="url(#E)" transform="matrix(-.36568914 -.93073705 .93073705 -.36568914 -172.768 414.458)"/><path d="M90.36 122.867h15.462v166.438H90.36z" fill="url(#F)"/><path d="M90.36 245.746h15.462v38.559H90.36z" fill="url(#G)" transform="matrix(-1 0 -0 -1 196.181 530.051)"/><path d="M95.631 53.321h12.941v138.868H95.631z" fill="url(#H)" transform="matrix(0 1 -1 0 224.856 20.653)"/><circle cx="98.09" cy="289.306" fill="url(#C)" r="12.204"/><circle cx="184.34" cy="289.306" fill="url(#I)" r="12.204"/><circle cx="12.204" cy="289.306" fill="url(#J)" r="12.204"/><g fill="#1d72d8"><circle cx="98.09" cy="289.306" r="5.255"/><circle cx="184.34" cy="289.292" r="5.255"/><circle cx="12.204" cy="289.292" r="5.255"/></g><path d="M173.145 128.968h-13a48.383 48.383 0 0 0-48.327-48.327h-77.08v-13h77.08a61.4 61.4 0 0 1 61.327 61.327z" fill="url(#K)"/></svg></g></svg>