<svg xmlns="http://www.w3.org/2000/svg" viewBox="0 0 3000 3000" width="3000" height="3000"><g transform="translate(223.0 408.0) rotate(0.0 1334.0 990.5) scale(1.3002145743917184 1.2998798546181825)"><svg width="2051.969" height="1523.987" viewBox="0 0 2051.969 1523.987"><path d="M1547.153 1462.009c117.879-117.879 471.514-475.921 494.649-515.581 44.067-105.76-62.795-211.52-172.962-155.335-38.558 30.847-483.632 396.601-506.767 431.854 78.218-101.353 316.179 56.185 185.08 239.062z" fill="#dbd6c1"/><path d="M657.005 459.491s371.262 224.74 1102.77 429.651l-139.912 477.022-72.71 99.15c-161.945 154.234-720.491-20.932-1106.075-232.452C133.035 1063.878-88.646 787.826 34.741 667.744l23-15L657.006 459.49z" fill="#efecdf"/><path d="M1362.073 1222.947c-24.237 31.948-12.118 99.15 40.762 126.692 126.692-159.742 162.588-183.394 241.265-253.384 145.242-129.205 264.4-206.012 264.4-206.012l-432.956 251.18-91.438 58.388-15.423 15.423-6.61 7.712zM241.676 801.008c-16.525 11.017-50.677 13.22-76.015-23.135 0 0 293.044-185.08 410.922-288.637z" fill="#ccc6b0"/><path d="M34.563 667.706c27.542-31.948 525.67-333.484 573.969-367.957 110.167-58.388 203.809 47.372 174.064 129.997-13.22 28.643-478.724 327.271-540.919 371.262 47.372-59.49-84.828-217.029-207.114-133.302zm1513.178 796.038c117.879-117.879 470.927-477.656 494.062-517.316 44.067-105.76-62.795-211.52-172.962-155.335-38.558 30.847-483.632 396.601-506.767 431.854 78.218-101.353 316.766 57.921 185.668 240.798z" fill="#dbd6c1"/><g fill="#60524a"><path d="M1152.261 1365.374a6.228 6.228 0 0 1-1.781-.309c-1.142-.375-96.071-31.671-230.854-86.669-16.617-11.529-58.129-28.6-89.55-42.22-34.695-15.038-71.651-31.906-102.308-41.35-68.314-31.756-133.262-64.248-193.999-97.071-112.903-61.015-211.515-123.362-293.096-185.309a6.247 6.247 0 0 1 .059-9.997L442.845 752.77a6.248 6.248 0 1 1 7.436 10.042L254.882 907.52c147.771 110.976 328.369 206.25 478.847 276.26 23.546 16.711 66.271 37.589 97.628 51.182 31.373 13.599 71.717 29.408 92.963 31.857 119.952 48.947 208.203 79.051 226.538 85.203l411.434-387.73c-72.318-23.61-143.897-49.668-210.85-75.602-29.208-15.663-58.889-26.833-87.351-38.46-34.865-14.242-69.252-28.093-99.519-38.022-97.54-41.976-166.392-74.762-182.892-82.698L843.939 852.966a6.25 6.25 0 0 1-6.719 1.053c-132.288-59.107-274.866-142.022-299.101-156.258l-32.242 23.877a6.247 6.247 0 0 1-8.739-1.303 6.246 6.246 0 0 1 1.302-8.738l35.568-26.34a6.25 6.25 0 0 1 6.911-.35c1.547.919 154.983 91.896 297.702 156.046l137.837-123.542a6.246 6.246 0 0 1 6.909-.964c1.456.711 75.553 36.713 186.976 84.643 14.801 9.539 61.251 29.063 95.162 42.927 28.901 11.816 64.256 27.96 90.629 33.092 69.791 27.03 144.612 54.19 220.036 78.553a6.246 6.246 0 0 1 2.364 10.491l-421.826 397.523a6.245 6.245 0 0 1-4.451 1.699z"/><path d="M574.578 905.82a4.976 4.976 0 0 1-2.366-.599c-63.957-34.444-124.304-69.821-179.366-105.147a4.999 4.999 0 0 1-1.508-6.908 4.998 4.998 0 0 1 6.908-1.508c54.848 35.189 114.974 70.436 178.708 104.76a5 5 0 0 1-2.375 9.403zm-13.732 204.33a4.999 4.999 0 0 1-3.42-8.647L698.41 969.311c-10.523-4.964-32.827-15.649-62.802-30.895a5 5 0 0 1 4.533-8.914c42.067 21.396 68.896 33.74 69.162 33.863a4.999 4.999 0 0 1 1.333 8.191l-146.37 137.241a4.981 4.981 0 0 1-3.419 1.353zm778.093 78.215c-.5 0-1.007-.075-1.508-.234-196.324-62.051-456.813-182.377-459.422-183.585a4.997 4.997 0 0 1-2.735-3.271l-10.211-39.021a5 5 0 1 1 9.674-2.532l9.613 36.735c25.384 11.665 269.824 123.266 456.095 182.14a5 5 0 0 1-1.505 9.769zM852.961 902.927a5.003 5.003 0 0 1-4.829-3.716l-13.193-49.614a5 5 0 0 1 9.664-2.57l13.193 49.614a5 5 0 0 1-4.835 6.286zm-341.63-133.479c-.143 0-.288-.01-.433-.031l-63.505-9.19a2.999 2.999 0 0 1-2.539-3.399 2.996 2.996 0 0 1 3.399-2.539l63.505 9.19a3.001 3.001 0 0 1-.426 5.97z"/><path d="M567.678 953.446a3 3 0 0 1-.71-5.915l69.2-16.908a3.002 3.002 0 0 1 3.626 2.202 2.998 2.998 0 0 1-2.202 3.626l-69.199 16.908a3.031 3.031 0 0 1-.715.086zm302.219 10.542a3 3 0 0 1-2.316-4.904l45.214-55.046a3 3 0 1 1 4.637 3.808l-45.214 55.046a2.994 2.994 0 0 1-2.32 1.096z"/></g><path d="M1353.117 889a6.232 6.232 0 0 1-2.09-.421c-60.776-23.53-123.562-49.223-186.616-76.363a6.247 6.247 0 0 1-3.268-8.209 6.243 6.243 0 0 1 8.209-3.268c62.911 27.08 125.552 52.713 186.186 76.188a6.246 6.246 0 0 1 3.57 8.082 6.25 6.25 0 0 1-5.992 3.991zm-431.63 389.734a6.265 6.265 0 0 1-2.195-.462c-65.504-26.748-129.886-54.796-191.361-83.368a6.249 6.249 0 0 1 5.268-11.332c61.295 28.489 125.495 56.458 190.818 83.131a6.247 6.247 0 0 1-2.53 12.031z" fill="#ffce55"/><path d="m924.322 1266.818-4.696 11.578 10.03 4.079 4.523-11.648zm-190.592-83.039-5.962 11.048-15.383-7.19 6.482-10.81zm622.408-306.672-4.694 11.581 14.818 5.712 4.061-11.824zm-185.791-76.018-5.773 11.117-13.461-5.813 5.092-11.41zM317.848 963.988a3 3 0 0 1-1.789-5.411l156.998-116.373a3 3 0 0 1 3.573 4.821L319.632 963.398a2.986 2.986 0 0 1-1.784.59zm720.637 357.74a3 3 0 0 1-2.064-5.178l419-397a3 3 0 0 1 4.127 4.356l-419 397c-.58.55-1.322.822-2.063.822z" fill="#60524a"/><path d="M1336.369 1183.799a3 3 0 0 1-2.71-4.284l121.113-256.07a3 3 0 1 1 5.424 2.566l-121.113 256.07a3 3 0 0 1-2.714 1.718z" fill="#60524a"/><path d="M1224.689 1145.303a3 3 0 0 1-1.404-5.653l343.203-181.315a3 3 0 1 1 2.803 5.305l-343.203 181.315a2.988 2.988 0 0 1-1.399.348z" fill="#60524a"/><path d="M708.685 543.236s-147.623 53.98-125.492 182.858c36.234 211.012 596.186 374.601 1051.036 126.164 15.344-8.381-925.544-309.022-925.544-309.022z" fill="#3f2d11" opacity=".1"/><path d="M727.512 700.756s22.033 5.508 30.847 4.407c8.813-1.102 31.948-27.542 36.355-33.05s-46.27-46.27-46.27-46.27z" fill="#4c3f38"/><path d="M696.665 631.351s20.932 57.287 30.847 69.405c6.61 5.508 53.599-50.161 53.599-50.161l-84.445-19.244z" fill="#60524a"/><path d="M1574.919 626.869s134.341 112.318 114.454 175.99c-17.535 56.142-248.435 152.175-405.204 144.61-192.303-9.28-301.601-113.362-427.239-204.338-33.867-24.524-101.52-64.183-142.999-89.445-58.55-35.659-67.457-48.481-71.457-60.764-5.025-15.433 1.958-43.913 11.32-70.011" fill="#f4ba37"/><path d="M664.121 496.728S645.308 64.649 1055.94 46.146c382.874-17.252 479.574 367.878 491.051 531.03 0 0 154.56 164.213 140.51 204.464-19.384 55.53-259.826 156.232-405.204 144.61-121.384-9.704-220.67-55.377-412.176-198.863-39.337-29.473-99.834-59.373-158.941-93.871-36.892-21.532-63.968-41.985-69.272-58.041-2.881-8.722 8.369-48.366 22.213-78.748z" fill="#ffce55"/><path d="M1361.224 388.576c-76.14 18.38-122.69-24.89-142.66-52.54-127.34-176.36-217.1-192.47-306.39-189.73-97.11 2.98-155.45 51.69-173.21 69.03 55.26-86.73 151.07-161.72 316.98-169.19 98.31-4.43 177.75 17.67 241.72 55.729 47.57 42.29 98.96 95.86 123.19 147.3 23.76 50.44 17.76 120.72-59.63 139.4zm185.77 188.6c-67.79 113-267.48 150.85-478.92 113.31-62.97-11.18-297.46-88.46-403.95-193.76 0 0-.38-8.66.14-23.59 59.13 59.4 229.4 154.11 406.42 191.85 147.55 31.45 376.87 28.98 474.83-105.2.6 6.04 1.09 11.84 1.48 17.39z" fill="#f4ba37"/><path d="M776.921 165.486s30.718-36.2 93.609-50.496c100.582-22.864 258.172 28.741 363.781 201.188 27.147 43.289 94.718 82.04 154.148 50.554 35.586-18.854 42.694-66.946 30.866-101.867-10.783-31.834-78.177-124.082-149.538-178.051-143.01-108.154-430.459-39.056-492.865 78.672z" fill="#ffce55"/><path d="M1295.384 259.276c-133.93-144.91-239.5-216.23-390.07-192.44 76.75-30.74 172.86-43.28 256.17-26.42 111.12 84.08 161.85 175.59 171.58 194.15 11.68 22.3-24.37 39.11-37.68 24.71z" fill="#f4ba37"/><path d="M964.768 47.68s10.129-32.794 41.842-42.866c114.407-36.337 273.999 142.041 319.953 233.243 6.192 12.289-16.028 27.658-26.949 14.041C1164.552 83.702 1061.842 35.905 964.769 47.68z" fill="#ffce55"/><ellipse cx="882.494" cy="543.082" fill="#e5a32c" rx="17.22" ry="15.968" transform="matrix(.99613208 -.08786858 .08786858 .99613208 -44.31 79.651)"/><path d="M883.894 558.986c-2.47.22-4.86-.06-7.06-.75-3.48-2.6-5.83-6.48-6.23-10.96-.77-8.79 6.28-16.59 15.75-17.42a18.2 18.2 0 0 1 7.07.75c3.47 2.61 5.83 6.48 6.22 10.96.78 8.79-6.27 16.59-15.75 17.42z" fill="#f4ba37"/><ellipse cx="828.213" cy="526.346" fill="#e5a32c" rx="17.22" ry="15.968" transform="matrix(.99613208 -.08786858 .08786858 .99613208 -43.049 74.817)"/><path d="M829.614 542.256c-2.47.22-4.86-.06-7.06-.75-3.48-2.61-5.83-6.48-6.23-10.97-.77-8.78 6.28-16.58 15.75-17.42 2.47-.22 4.86.06 7.06.75 3.48 2.61 5.83 6.48 6.23 10.97.78 8.78-6.27 16.58-15.75 17.42z" fill="#f4ba37"/><ellipse cx="781.111" cy="500.493" fill="#e5a32c" rx="17.22" ry="15.968" transform="matrix(.99613208 -.08786858 .08786858 .99613208 -40.96 70.577)"/><path d="M782.514 516.396c-2.47.22-4.87-.06-7.07-.75-3.47-2.61-5.83-6.48-6.22-10.96-.78-8.79 6.28-16.58 15.75-17.42 2.47-.22 4.85.06 7.05.75 3.48 2.6 5.84 6.47 6.24 10.96.78 8.79-6.28 16.59-15.75 17.42z" fill="#f4ba37"/></svg></g><g transform="translate(2134.0 2258.0) rotate(7.161933727500236 304.5 188.5) scale(0.8517208537347749 0.8507335037809124)"><svg width="715.023" height="443.147" viewBox="0 0 715.023 443.147"><path d="m700.881 20.178-3.232-3.64-8.01-9.007s23.889-9.836 25.294-7.026-14.052 19.673-14.052 19.673z" fill="#667ac4"/><path d="m700.881 20.178-3.232-3.64 1.04-3.892L714.933.505c1.405 2.81-14.052 19.673-14.052 19.673z" fill="#4a63a8"/><path d="m12.327 395.37 33.725-18.268 40.751 12.647-36.536 30.915z" fill="#e5a32c"/><path d="M702.286 20.178c0 2.81-80.097 67.45-87.123 71.666-4.258 2.558-191.446 117.448-338.459 207.69-95.751 58.766-174.443 107.077-174.443 107.077l-39.599-9.387-37.407-8.881-2.529 1.405c-.562-2.81 1.11-4.932 2.248-5.621C68.985 357.837 574.145 55.744 589.391 49.35c15.935-6.689 101.653-44.63 103.058-44.63.787 0 3.766 3.949 6.239 7.926 1.953 3.134 3.597 6.295 3.597 7.532z" fill="#ffce55"/><path d="m67.13 393.965-4.469 3.26-37.406-8.881-2.53 1.405c-.562-2.81 1.11-4.932 2.248-5.621l42.156 9.836zM702.286 20.178c0 2.81-80.097 67.45-87.123 71.666-4.258 2.558-191.446 117.448-338.459 207.69l-1.18-.998 8.473-24.408S599.706 80.602 613.758 72.171s84.931-59.525 84.931-59.525c1.953 3.134 3.597 6.295 3.597 7.532z" fill="#f4ba37"/><path d="M286.343 285.763c-4.219-6.629-8.953-10.152-12.986-12.019l.339-2.033s-7.026-1.405-9.836 0L48.862 400.991 8.111 392.56c-2.81 1.405-7.026 4.216-7.026 4.216l6.824 5.46c4.889 9.368 15.873 22.716 24.09 25.455l43.562 9.836 213.592-127.874s3.272-14.331-2.81-23.889z" fill="#4a63a8"/><path d="M298.99 309.652 75.561 443.147l-43.562-9.836c-12.647-4.216-37.477-35.257-30.915-36.536l48.705 9.836 223.906-134.9s12.647-1.405 22.483 14.052c6.085 9.556 2.81 23.889 2.81 23.889z" fill="#667ac4"/><path d="m75.561 443.147-43.562-9.836c-12.647-4.216-37.477-35.257-30.915-36.536l48.705 9.836 25.771 36.536z" fill="#324875"/></svg></g><g transform="translate(1138.0 2191.0) rotate(0.0 365.5 260.0) scale(1.3018375321007134 1.3018127742881964)"><svg width="561.514" height="399.443" viewBox="0 0 561.514 399.443"><path d="M365.477 238.533c-.826 2.71-1.586 4.649-2.247 5.575-4.164 5.828-37.281 28.687-56.527 35.529-3.867 1.377-7.172 2.115-9.573 1.928-4.109-.32-7.084-1.708-10.268-2.897-4.484-1.675-9.364-2.986-18.376-.408-11.446 3.272-87.032 58.388-187.284 13.22-2.71-1.785-5.079-2.346-7.712-4.407-.297-.231-.606-.474-.925-.727-6.555-5.101-15.115-11.556-23.708-18.629-9.54-7.822-19.114-16.404-26.043-24.71a71.154 71.154 0 0 1-8.968-13.749C8.8 219.233 6.289 208.502 6.289 198.94c0-20.932-6.61-79.32 18.728-131.099 18.277-37.346 350.562 65.065 353.636 80.422 1.939 9.695-7.205 70.518-13.176 90.271z" fill="#58a65f"/><path d="M312.553 186.821c-9.908 1.166-16.525-5.508-30.847-2.203s-91.438 58.388-180.674 18.728c-71.597-31.821-85.999-95.878-67.201-136.607 1.578-3.42 3.52-6.747 5.782-9.973 5.536-7.896 21.76-2.145 21.722-21.72C93.863 10.7 144.146-3.223 179.251.639c110.167 12.118 196.097 135.505 199.402 147.624 2.208 8.094-47.372 36.355-66.1 38.558z" fill="#60524a"/><path d="M48.858 267.716c-9.54-7.822-19.114-16.404-26.043-24.71a71.154 71.154 0 0 1-8.968-13.749l2.358-4.98s2.203 14.322 26.44 33.05c6.941 5.365 8.097 8.56 6.213 10.389z" fill="#4c874e"/><path d="M177.147 10.884 172.355.143C110.948-1.565 70.836 15.599 60.271 25.977 49.1 36.95 62.474 46.909 44.297 50.754 26.108 54.61 14.001 71.146 8.493 87.671c-4.429 13.286-3.867 37.986-3.481 47.14-1.344 1.972-2.435 3.867-3.129 5.575-4.407 10.851 0 72.875 2.303 83.991 2.258 10.929 18.122 18.398 18.618 18.618-3.294-4.407-6.599-8.802-6.599-14.311 0-3.305 3.636-49.95 7.712-57.287 5.508-9.915 19.83 0 23.135 5.508 3.625 6.048 0 11.017-2.203 22.033-2.049 10.246-6.885 58.422-5.508 69.405 1.102 8.813 18.728 19.83 25.405 23.135 6.687 3.305 16.459 0 16.459 0s-8.813-5.508-9.915-8.813-2.203-45.168 4.407-59.49c9.287-20.128 32.389-16.889 32.389-16.889s75.53-157.593 69.064-195.403zM10.002 128.234l-.077.088c1.465-17.109 5.354-32.94 7.381-32.94 1.994 0 7.591 6.313 8.791 10.686l.033.143c.11.407.165.804.187 1.168.143 2.897-8.99 11.942-16.316 20.855z" fill="#60524a"/><path d="m354.008 198.554 8.47-4.705a.414.414 0 0 1 .61.431l-7.454 44.722c-.074.447-.33.842-.707 1.094l-8.532 5.688a.414.414 0 0 1-.639-.412l7.431-45.649a1.64 1.64 0 0 1 .821-1.169z" fill="#4c3f38"/><ellipse cx="161.314" cy="108.809" fill="#60524a" rx="79.547" ry="100.701" transform="matrix(.05407881 -.99853667 .99853667 .05407881 43.941 264.003)"/><ellipse cx="163.518" cy="104.402" fill="#4c3f38" rx="80.82" ry="102.313" transform="matrix(.05407881 -.99853667 .99853667 .05407881 50.425 262.035)"/><ellipse cx="161.314" cy="108.809" fill="#58a65f" rx="79.547" ry="100.701" transform="matrix(.05407881 -.99853667 .99853667 .05407881 43.941 264.003)"/><path d="M286.862 278.667c-4.484-1.675-9.364-2.986-18.376-.408-11.446 3.272-87.032 58.388-187.284 13.22-2.71-1.785-5.079-2.346-7.712-4.407-.297-.231-.606-.474-.925-.727l-1.509-1.707v-3.261s47.603 29.932 111.5 16.712 72.479-33.832 94.622-36.201c10.697-1.135 11.611 7.524 9.684 16.778z" fill="#4c874e"/><path d="M312.557 186.824c-9.91 1.16-16.53-5.51-30.85-2.21-13.94 3.22-87.4 55.5-173.62 21.67l-.01.01s-23.09-3.25-32.38 16.88c-6.61 14.32-5.51 56.19-4.41 59.49 1.1 3.31 9.92 8.81 9.92 8.81s-.14.05-.39.13h-.01c-.46-.05-11.22-1.15-12.82-6.74-2.21-7.71-3.31-56.18 7.71-70.5 11.96-15.55 29.74-14.32 34.15-13.22 3.38.84 37.46 14.32 78.22 8.81 47.4-6.4 76.44-23.38 83.72-27.54 15.43-8.81 29.75-1.1 38.56 0 12.26 1.53 66.1-24.24 68.31-34.15 2.2 8.09-47.38 36.35-66.1 38.56zm-264.861-8.66c-.18-.42-.39-.83-.65-1.26-3.3-5.51-17.62-15.42-23.13-5.51-4.07 7.34-7.71 53.98-7.71 57.29 0 5.51 3.3 9.9 6.6 14.31h-.02c-.47-.33-6.97-4.83-8.79-12.11-1.12-4.49.47-19.57 2.21-34.15 1.67-14.04 3.39-27.6 7.71-30.85 7.88-5.91 20.37 2.61 23.78 12.28zm-21.599-72.096c-1.201-4.374-6.797-10.686-8.791-10.686-2.027 0-5.916 15.831-7.381 32.94l-.121.154-2.468 3.107c0-.804 2.258-38.404 8.637-38.448 4.638-.032 9.441 9.397 10.124 12.934z" fill="#4c3f38"/><path d="m309.287 186.934-10.01 94.59c-.78.08-1.49.09-2.15.04-8.14-.63-11.84-5.46-21.53-4.67l9.83-92.95c10.35-1.3 16.46 2.69 23.86 2.99zm56.19 51.599c-.826 2.71-1.586 4.649-2.247 5.575-4.164 5.828-37.281 28.687-56.527 35.529 3.415-2.446 33.017-21.438 55.425-41.037 1.303-1.139 2.688-.848 3.349-.066z" fill="#4c874e"/><path d="m349.497 198.122-8.914 53.611c-.241 1.451 1.376 2.482 2.59 1.65l15.06-10.319a4.737 4.737 0 0 0 2.004-3.187l7.96-51.742c.215-1.398-1.297-2.413-2.509-1.684l-13.958 8.388a4.74 4.74 0 0 0-2.233 3.283zm6.142 40.874c-.077.452-.33.848-.716 1.102l-8.527 5.685a.416.416 0 0 1-.639-.408l7.425-45.653c.088-.496.386-.925.826-1.168l8.472-4.704a.414.414 0 0 1 .606.43l-7.447 44.717z" fill="#60524a"/><path d="m516.362 345.461 1.102 7.712-3.305 39.66L346.397 241.42l6.357-39.087.43-2.611c.088-.496.386-.925.826-1.168l.408-.22 161.945 147.128z" fill="#f4ba37"/><path d="m516.362 350.969-2.203 47.372-166.264-150.069c-1.333-1.675-2.049-2.567-2.049-2.567a.422.422 0 0 1-.088-.331l.639-3.955 6.357-39.087L516.12 350.749z" fill="#ffce55"/><g fill="#60524a"><path d="m369.747 238.694-4.85 24.92-2.6-2.34 4.5-23.15a1.5 1.5 0 0 1 1.76-1.18 1.5 1.5 0 0 1 1.19 1.75zm13.009 26.91-2.34 12.03-2.6-2.35 1.99-10.25c.16-.81.95-1.34 1.76-1.19.81.16 1.34.95 1.19 1.76zm19.83 2.21-4.93 25.37-2.61-2.35 4.59-23.6c.16-.81.95-1.34 1.76-1.18s1.34.94 1.19 1.76zm13.931 28.19-2.35 12.09-2.59-2.35 2-10.31c.16-.81.94-1.34 1.76-1.18.81.15 1.34.94 1.18 1.75zm19.83 2.21-4.94 25.44-2.6-2.35 4.6-23.67c.16-.81.94-1.34 1.76-1.18.81.16 1.34.94 1.18 1.76zm13.879 25.7-2.77 14.23-2.59-2.34 2.42-12.46c.16-.82.94-1.35 1.76-1.19a1.5 1.5 0 0 1 1.18 1.76zm19.831 2.2-5.36 27.59-2.6-2.35 5.02-25.81c.16-.81.94-1.34 1.76-1.19a1.5 1.5 0 0 1 1.18 1.76zm13.94 28.2-2.78 14.3-2.6-2.35 2.43-12.52a1.5 1.5 0 0 1 1.76-1.19 1.5 1.5 0 0 1 1.19 1.76z"/></g><path d="M560.429 322.326c-1.102-1.102-4.407-2.203-6.61-1.102-11.017 5.508-37.457 24.237-37.457 24.237s-22.703 5.793-20.165 27.684 25.673 11.976 25.673 11.976l-4.34-31.247 37.39-12.82z" fill="#c4bca1"/><path d="M516.362 350.969s40.762-29.745 44.067-28.643c1.933.644.869 10.211 0 15.423-1.102 6.61-4.407 7.712-4.407 11.017s3.305 3.305 3.305 6.61c0 4.323-1.358 11.889-3.305 14.322-4.407 5.508-37.457 29.745-40.762 29.745-1.102 0-22.033-9.915-18.728-31.948 2.635-17.567 19.83-16.525 19.83-16.525z" fill="#dbd6c1"/><path d="m516.362 350.969-1.102 48.474 4.382-50.849 3.33-5.337-6.321 4.289z" fill="#c4bca1"/><path d="M163.318 168.697c-1.739 0-3.485-.047-5.239-.142-41.486-2.247-73.785-30.876-72.001-63.821 1.784-32.944 36.988-57.917 78.472-55.671 41.485 2.247 73.785 30.876 72 63.821-.868 16.027-9.555 30.645-24.461 41.162-13.501 9.527-30.655 14.651-48.771 14.651zm-3.956-116.774c-37.614 0-68.666 23.005-70.289 52.974-1.695 31.292 29.333 58.506 69.167 60.663 19.362 1.048 37.871-3.911 52.119-13.964 14.14-9.977 22.378-23.783 23.195-38.873 1.695-31.292-29.333-58.506-69.167-60.663a93.285 93.285 0 0 0-5.026-.136z" fill="#f4ba37"/></svg></g><g transform="translate(130.0 1691.0) rotate(0.0 574.0 274.0) scale(1.2763142534728977 1.2766810021479924)"><svg width="899.465" height="429.238" viewBox="0 0 899.465 429.238"><path d="m886.107 70.416-16.042 11.785L88.182 23.687l-72.175-5.405 3.436-6.559L4.25 4.914.16 22.708a6.422 6.422 0 0 0 .499 4.254l191.995 398.574a6.479 6.479 0 0 0 3.91 3.394 6.489 6.489 0 0 0 4.806-.339L891.732 96.054c2.016-.977 3.169-2.632 3.555-4.428l4.059-17.733-13.239-3.476zm-317.458 84.369L243.78 311.273a3.984 3.984 0 0 1-5.314-1.856l-90.345-187.569c-1.33-2.753 1.74-9.917 4.792-9.69l415.223 31.083c4.053.305 4.182 9.775.513 11.543z" fill="#e5a32c"/><path d="m200.712 410.805-4.148 18.125a6.479 6.479 0 0 1-3.91-3.394L.659 26.961a6.422 6.422 0 0 1-.499-4.254L4.25 4.914l15.194 6.809-3.436 6.559 72.175 5.405 112.531 387.118z" fill="#f4ba37"/><path d="M893.415 66.056 11.058.019C6.045-.354 2.501 4.834 4.685 9.372L196.68 407.946a6.53 6.53 0 0 0 8.716 3.055L895.758 78.464c6.024-2.904 4.324-11.909-2.343-12.408zm-320.741 71.139L247.805 293.683a3.984 3.984 0 0 1-5.314-1.856l-90.345-187.569c-1.33-2.753.825-5.92 3.877-5.692l415.223 31.083c4.053.305 5.097 5.778 1.428 7.546z" fill="#ffce55"/><g fill="#60524a"><path d="m257.38 386.989-3.57 16.34-3.43 1.66 3.96-18.13-12.2-25.34c-.36-.74-.05-1.64.7-2 .74-.36 1.64-.04 2 .7l12.42 25.8c.15.3.19.64.12.97zm58.55-28.17-4.06 16.55-3.5 1.68 4.52-18.42-18.58-38.57c-.36-.75-.05-1.64.7-2 .74-.36 1.64-.05 2 .7l18.81 39.05c.15.32.19.67.11 1.01zm62.02-29.891-3.78 16.43-3.46 1.66 4.2-18.25-14.19-29.46c-.36-.75-.05-1.65.7-2.01s1.64-.04 2 .71l14.42 29.93c.15.31.19.65.11.99zm61.76-29.74-4.01 16.53-3.49 1.68 4.46-18.39-19-39.46c-.36-.74-.05-1.64.7-2 .74-.36 1.64-.04 2 .7l19.23 39.94c.16.31.19.66.11 1zm62.02-29.889-3.73 16.41-3.46 1.67 4.15-18.24-13.19-27.38c-.35-.74-.04-1.64.71-2 .74-.36 1.64-.04 2 .7l13.41 27.85c.15.31.19.66.11.99zm58.57-28.21-3.68 16.38-3.45 1.66 4.08-18.19-19.5-40.48c-.36-.75-.04-1.65.7-2.01.75-.35 1.65-.04 2.01.71l19.72 40.95c.15.3.19.65.12.98zm62.02-29.89-3.52 16.33-3.43 1.65 3.9-18.11-13.72-28.49c-.36-.74-.04-1.64.7-2 .75-.36 1.65-.04 2.01.7l13.94 28.95c.15.3.19.64.12.97zm64.69-31.15-3.67 16.39-3.44 1.66 4.07-18.2-18.92-39.28c-.36-.75-.05-1.64.7-2s1.64-.05 2 .7l19.15 39.75c.15.3.19.65.11.98zm62.02-29.85-3.95 16.5-3.49 1.68 4.39-18.36-13.08-27.17c-.36-.75-.05-1.65.7-2.01.74-.35 1.64-.04 2 .71l13.32 27.65c.15.31.19.66.11 1z"/></g></svg></g></svg>