<svg enable-background="new 0 0 2031.801 2531.362" height="2532" viewBox="0 0 2031.801 2531.362" width="2032" xmlns="http://www.w3.org/2000/svg"><path d="m2026.755 2528.862h-550.786s-31.057-237.155 207.198-245.801c105.626-3.833 187.427 76.506 291.08 8.646-.001-0 71.691 106.169 52.508 237.155z" fill="#fff"/><path d="m2029.301 2488.118-2.546 40.744h-550.786l-.759-40.805z" fill="#ff6996"/><path d="m2026.755 2531.362h-550.787c-1.255 0-2.315-.931-2.479-2.176-.035-.267-3.45-27.127.782-62.54 3.913-32.74 15.344-79.766 47.574-117.865 36.119-42.694 90.364-65.646 161.229-68.218 39.537-1.446 75.725 8.795 110.719 18.687 59.036 16.688 114.799 32.451 179.083-9.635 1.122-.737 2.627-.452 3.406.643.175.245 17.62 25.009 32.749 66.616 13.95 38.365 28.779 99.396 20.205 172.28-.146 1.259-1.213 2.208-2.481 2.208zm-548.546-5h546.316c7.897-70.855-6.538-130.172-20.129-167.605-12.481-34.38-26.528-57.039-30.853-63.619-30.754 19.618-59.513 26.47-87.544 26.472-31.492.002-62.066-8.644-93.566-17.548-34.621-9.787-70.422-19.912-109.177-18.502-69.384 2.518-122.398 24.866-157.569 66.423-17.338 20.485-39.468 57.084-46.434 115.106-3.491 29.091-1.736 52.272-1.044 59.273z"/><path d="m2028.689 2488.118-553.48-.061" fill="#fff"/><path d="m2028.689 2490.618-553.479-.062c-1.381 0-2.5-1.119-2.5-2.5s1.119-2.5 2.5-2.5l553.479.062c1.381 0 2.5 1.119 2.5 2.5s-1.119 2.5-2.5 2.5z"/><path d="m1944.526 2488.118v40.744" fill="#fff"/><path d="m1944.527 2531.362c-1.381 0-2.5-1.119-2.5-2.5v-40.744c0-1.381 1.119-2.5 2.5-2.5s2.5 1.119 2.5 2.5v40.744c0 1.381-1.12 2.5-2.5 2.5z"/><path d="m1924.154 2488.118v40.744" fill="#fff"/><path d="m1924.155 2531.362c-1.381 0-2.5-1.119-2.5-2.5v-40.744c0-1.381 1.119-2.5 2.5-2.5s2.5 1.119 2.5 2.5v40.744c0 1.381-1.12 2.5-2.5 2.5z"/><path d="m1903.782 2488.118v40.744" fill="#fff"/><path d="m1903.782 2531.362c-1.381 0-2.5-1.119-2.5-2.5v-40.744c0-1.381 1.119-2.5 2.5-2.5s2.5 1.119 2.5 2.5v40.744c0 1.381-1.119 2.5-2.5 2.5z"/><path d="m1822.294 2488.118v40.744" fill="#fff"/><path d="m1822.294 2531.362c-1.381 0-2.5-1.119-2.5-2.5v-40.744c0-1.381 1.119-2.5 2.5-2.5s2.5 1.119 2.5 2.5v40.744c0 1.381-1.119 2.5-2.5 2.5z"/><path d="m1801.922 2488.118v40.744" fill="#fff"/><path d="m1801.921 2531.362c-1.381 0-2.5-1.119-2.5-2.5v-40.744c0-1.381 1.119-2.5 2.5-2.5s2.5 1.119 2.5 2.5v40.744c0 1.381-1.119 2.5-2.5 2.5z"/><path d="m1740.805 2488.118v40.744" fill="#fff"/><path d="m1740.805 2531.362c-1.381 0-2.5-1.119-2.5-2.5v-40.744c0-1.381 1.119-2.5 2.5-2.5s2.5 1.119 2.5 2.5v40.744c0 1.381-1.119 2.5-2.5 2.5z"/><path d="m1659.317 2488.118v40.744" fill="#fff"/><path d="m1659.317 2531.362c-1.381 0-2.5-1.119-2.5-2.5v-40.744c0-1.381 1.119-2.5 2.5-2.5s2.5 1.119 2.5 2.5v40.744c0 1.381-1.119 2.5-2.5 2.5z"/><path d="m1638.945 2488.118v40.744" fill="#fff"/><path d="m1638.945 2531.362c-1.381 0-2.5-1.119-2.5-2.5v-40.744c0-1.381 1.119-2.5 2.5-2.5s2.5 1.119 2.5 2.5v40.744c0 1.381-1.12 2.5-2.5 2.5z"/><path d="m1598.201 2488.118v40.744" fill="#fff"/><path d="m1598.2 2531.362c-1.381 0-2.5-1.119-2.5-2.5v-40.744c0-1.381 1.119-2.5 2.5-2.5s2.5 1.119 2.5 2.5v40.744c0 1.381-1.119 2.5-2.5 2.5z"/><path d="m1537.084 2488.118v40.744" fill="#fff"/><path d="m1537.084 2531.362c-1.381 0-2.5-1.119-2.5-2.5v-40.744c0-1.381 1.119-2.5 2.5-2.5s2.5 1.119 2.5 2.5v40.744c0 1.381-1.119 2.5-2.5 2.5z"/><path d="m1615.638 2377.486c-1.795 0-3.572-.036-5.334-.107-31.264-1.273-57.239-13.869-77.205-37.438l3.814-3.232c19.025 22.458 43.785 34.46 73.594 35.674 24.041.978 51.462-4.992 81.464-17.751 51.326-21.827 92.8-56.332 93.213-56.678l3.211 3.832c-.419.351-42.465 35.332-94.467 57.447-28.508 12.123-54.813 18.253-78.29 18.253z"/><path d="m1187.474 2337.428h-550.787s-31.057-237.155 207.198-245.801c105.626-3.833 187.427 76.506 291.08 8.646 0 0 71.692 106.169 52.509 237.155z" fill="#fff"/><path d="m1190.019 2296.684-2.546 40.745h-550.786l-.759-40.805z" fill="#ff6996"/><path d="m1187.474 2339.929h-550.787c-1.255 0-2.315-.931-2.479-2.176-.035-.267-3.45-27.127.782-62.54 3.913-32.74 15.344-79.766 47.574-117.865 36.119-42.695 90.364-65.647 161.229-68.219 39.538-1.443 75.725 8.794 110.72 18.687 59.036 16.689 114.799 32.453 179.082-9.634 1.123-.734 2.626-.452 3.406.643.175.245 17.62 25.009 32.749 66.616 13.95 38.365 28.779 99.396 20.205 172.28-.146 1.258-1.214 2.208-2.481 2.208zm-548.546-5h546.316c7.897-70.855-6.538-130.173-20.129-167.606-12.481-34.38-26.528-57.038-30.853-63.618-30.754 19.618-59.513 26.47-87.543 26.472-31.492.002-62.067-8.645-93.566-17.549-34.622-9.787-70.426-19.903-109.178-18.502-69.384 2.519-122.398 24.866-157.57 66.424-17.337 20.485-39.467 57.084-46.433 115.106-3.491 29.09-1.736 52.272-1.044 59.273z"/><path d="m1189.408 2296.684-553.48-.061" fill="#fff"/><path d="m1189.407 2299.185-553.479-.062c-1.381 0-2.5-1.119-2.5-2.5s1.119-2.5 2.5-2.5l553.479.062c1.381 0 2.5 1.119 2.5 2.5s-1.119 2.5-2.5 2.5z"/><path d="m1105.245 2296.684v40.744" fill="#fff"/><path d="m1105.245 2339.929c-1.381 0-2.5-1.119-2.5-2.5v-40.744c0-1.381 1.119-2.5 2.5-2.5s2.5 1.119 2.5 2.5v40.744c0 1.381-1.119 2.5-2.5 2.5z"/><path d="m1084.873 2296.684v40.744" fill="#fff"/><path d="m1084.873 2339.929c-1.381 0-2.5-1.119-2.5-2.5v-40.744c0-1.381 1.119-2.5 2.5-2.5s2.5 1.119 2.5 2.5v40.744c0 1.381-1.119 2.5-2.5 2.5z"/><path d="m1064.501 2296.684v40.744" fill="#fff"/><path d="m1064.501 2339.929c-1.381 0-2.5-1.119-2.5-2.5v-40.744c0-1.381 1.119-2.5 2.5-2.5s2.5 1.119 2.5 2.5v40.744c0 1.381-1.119 2.5-2.5 2.5z"/><path d="m983.013 2296.684v40.744" fill="#fff"/><path d="m983.013 2339.929c-1.381 0-2.5-1.119-2.5-2.5v-40.744c0-1.381 1.119-2.5 2.5-2.5s2.5 1.119 2.5 2.5v40.744c0 1.381-1.119 2.5-2.5 2.5z"/><path d="m962.641 2296.684v40.744" fill="#fff"/><path d="m962.641 2339.929c-1.381 0-2.5-1.119-2.5-2.5v-40.744c0-1.381 1.119-2.5 2.5-2.5s2.5 1.119 2.5 2.5v40.744c0 1.381-1.119 2.5-2.5 2.5z"/><path d="m901.524 2296.684v40.744" fill="#fff"/><path d="m901.525 2339.929c-1.381 0-2.5-1.119-2.5-2.5v-40.744c0-1.381 1.119-2.5 2.5-2.5s2.5 1.119 2.5 2.5v40.744c0 1.381-1.119 2.5-2.5 2.5z"/><path d="m820.036 2296.684v40.744" fill="#fff"/><path d="m820.036 2339.929c-1.381 0-2.5-1.119-2.5-2.5v-40.744c0-1.381 1.119-2.5 2.5-2.5s2.5 1.119 2.5 2.5v40.744c0 1.381-1.119 2.5-2.5 2.5z"/><path d="m799.664 2296.684v40.744" fill="#fff"/><path d="m799.664 2339.929c-1.381 0-2.5-1.119-2.5-2.5v-40.744c0-1.381 1.119-2.5 2.5-2.5s2.5 1.119 2.5 2.5v40.744c0 1.381-1.119 2.5-2.5 2.5z"/><path d="m758.92 2296.684v40.744" fill="#fff"/><path d="m758.919 2339.929c-1.381 0-2.5-1.119-2.5-2.5v-40.744c0-1.381 1.119-2.5 2.5-2.5s2.5 1.119 2.5 2.5v40.744c0 1.381-1.119 2.5-2.5 2.5z"/><path d="m697.803 2296.684v40.744" fill="#fff"/><path d="m697.803 2339.929c-1.381 0-2.5-1.119-2.5-2.5v-40.744c0-1.381 1.119-2.5 2.5-2.5s2.5 1.119 2.5 2.5v40.744c0 1.381-1.119 2.5-2.5 2.5z"/><path d="m776.358 2186.052c-1.796 0-3.573-.036-5.335-.107-31.264-1.273-57.239-13.869-77.205-37.438l3.814-3.232c19.015 22.446 43.76 34.447 73.546 35.672 24.04.981 51.436-4.971 81.421-17.71 51.338-21.812 92.89-56.37 93.304-56.716l3.211 3.832c-.419.351-42.465 35.332-94.467 57.446-28.508 12.123-54.814 18.253-78.289 18.253z"/><path d="m1135.695 1042.175c-188.187 154.822-376.775 310.371-439.482 458.305-61.237 144.468 107.629 595.081 107.629 595.081 131.14-18.951 251.345 103.41 369.364 87.991-44.97-199.171-131.665-468.491-194.457-600.466 156.945-123.375 319.489-230.54 392.236-311.176-33.996-139.679-89.759-248.449-235.29-229.735z" fill="#92acef"/><path d="m1151.866 2187.419c-50.433.001-100.662-21.613-153.458-44.33-62.541-26.91-127.205-54.732-194.209-45.053-1.158.158-2.286-.495-2.698-1.598-.423-1.127-42.656-114.267-76.854-243.604-20.098-76.008-33.533-142.672-39.935-198.14-8.034-69.622-4.939-121.836 9.199-155.191 63.203-149.107 254.854-306.779 440.196-459.26 1.064-.876 2.641-.725 3.519.343.877 1.065.724 2.642-.343 3.519-184.875 152.097-376.044 309.372-438.769 457.35-13.796 32.547-16.77 83.905-8.838 152.648 6.372 55.226 19.761 121.646 39.793 197.415 31.726 119.992 70.382 226.021 76.018 241.29 67.668-9.053 132.337 18.77 194.897 45.688 58.734 25.272 114.266 49.167 169.771 42.909-45.566-200.783-132.216-468.093-193.665-597.245-.502-1.056-.206-2.317.713-3.04 52.857-41.552 105.704-80.786 156.812-118.729 100.353-74.504 187.021-138.849 235.113-192.156.928-1.023 2.505-1.105 3.531-.182 1.025.925 1.106 2.506.182 3.531-48.426 53.677-135.279 118.158-235.846 192.821-50.575 37.548-102.851 76.358-155.133 117.412 61.803 130.689 148.524 398.738 193.781 599.184.155.686.014 1.405-.389 1.981-.402.577-1.029.957-1.726 1.048-7.227.947-14.449 1.388-21.662 1.389z"/><path d="m1225.253 1270.799 399.777 1019.853c135.757-25.918 258.657 92.67 380.891 69.633-46.171-201.685-127.093-398.952-269.327-609.42 0 0-85.128-271.65-136.845-459.057-50.174-181.816-97.97-284.277-322.807-342.814-99.379 30.406-113.927 181.882-51.689 321.805z" fill="#92acef"/><path d="m1972.85 2365.806c-48.709.002-97.215-18.145-148.023-37.148-64.05-23.958-130.279-48.729-199.327-35.549-1.181.221-2.357-.424-2.796-1.544l-399.777-1019.854c-.504-1.285.129-2.735 1.415-3.239 1.291-.508 2.736.13 3.239 1.415l399.024 1017.931c69.673-12.589 135.901 12.191 199.974 36.157 60.874 22.769 118.422 44.29 176.32 34.314-24.088-104.545-56.125-202.187-97.91-298.426-45.235-104.185-100.995-204.802-170.465-307.6-.136-.2-.242-.42-.314-.652-.852-2.717-85.733-273.834-136.869-459.139-26.686-96.701-50.854-163.16-95.417-216.702-48.22-57.936-117.801-96.289-225.611-124.358-1.336-.348-2.138-1.713-1.789-3.049.347-1.337 1.716-2.14 3.049-1.789 108.886 28.349 179.264 67.208 228.195 125.997 45.14 54.236 69.526 121.212 96.394 218.571 50.273 182.181 133.191 447.382 136.711 458.625 69.55 102.951 125.389 203.736 170.704 308.104 42.248 97.306 74.561 196.043 98.783 301.854.152.662.027 1.358-.345 1.927-.373.569-.961.962-1.629 1.088-11.206 2.113-22.381 3.066-33.536 3.066z"/><path d="m1065.475 978.414c-51.797 82.012-171.52 221.182-241.717 231.18-56.075 7.987-123.797-33.716-156.139-112.415-42.701-103.905-99.581-161.266-109.964-219.927-24.891-140.639 177.613-214.327 234.481-60.372 16.025 43.382 25.604 100.261 42.584 149.344 0 0 47.573-84.513 66.393-117.356 18.819-32.842 66.522-123.6 152.726-110.418z" fill="#fff"/><g fill="#ef4910"><path d="m650.823 1062.029-4.828-14.201c66.932-22.757 115.158-60.889 143.339-113.337l1.859-3.469c8.971-16.75 14.385-26.86 23.179-30.921l6.287 13.619c-4.23 1.953-9.531 11.852-16.242 24.383l-1.87 3.487c-30.035 55.9-81.082 96.422-151.724 120.439z"/><path d="m837.344 960.538 3.677 6.211 3.519 6.303c2.314 4.221 4.622 8.454 6.825 12.743 2.176 4.302 4.31 8.63 6.381 12.992 2.037 4.378 4.011 8.789 5.945 13.223 1.93 4.437 3.719 8.936 5.482 13.45.869 2.262 1.75 4.52 2.58 6.801l1.258 3.415 1.185 3.443c3.137 9.189 6.029 18.495 8.405 27.959 2.364 9.465 4.459 19.032 5.888 28.74.74 4.848 1.357 9.722 1.837 14.616.471 4.896.733 9.816.891 14.742.275 9.848.018 19.754-1.009 29.539-.536 4.881-1.245 9.744-1.955 14.442-.354 2.339-.689 4.658-.923 6.719-.119 1.007-.192 1.98-.197 2.592l-.005.221c.003.043.004.086.002.13-.007.13-.004.07-.033.093-.054-.096-.2-.499-.792-1.073l-9.312 9.017c-1.391-1.471-2.012-2.985-2.398-4.21-.151-.557-.312-1.185-.373-1.647l-.113-.749-.062-.666c-.138-1.753-.072-3.155.002-4.513.179-2.671.493-5.068.777-7.451.586-4.742 1.133-9.345 1.521-13.976.823-9.238 1.132-18.502.825-27.796-.143-4.646-.455-9.29-.837-13.937-.372-4.648-.876-9.293-1.5-13.93-1.232-9.276-2.941-18.515-5-27.694-2.133-9.16-4.383-18.328-7.087-27.386-2.654-9.073-5.657-18.055-8.811-27.001-3.137-8.954-6.521-17.836-10.114-26.645-1.778-4.413-3.575-8.824-5.433-13.212l-5.662-13.14z"/><path d="m599.555 933.947c-3.858 0-7.573-.352-10.933-.671-3.298-.312-8.281-.786-9.646-.234l-6.946-13.292c4.999-2.64 11.026-2.067 18.009-1.406 3.887.369 7.911.748 11.725.549 36.271-1.912 68.134-8.629 94.707-19.965 31.292-13.349 55.269-33.211 71.264-59.033 2.27-3.664 3.979-6.884 5.486-9.726 4.107-7.741 7.654-14.427 17.346-18.067l5.275 14.041c-4.19 1.574-5.494 3.751-9.371 11.057-1.538 2.898-3.451 6.505-5.984 10.595-17.654 28.5-43.941 50.346-78.13 64.931-28.194 12.027-61.772 19.143-99.804 21.146-1.007.053-2.007.075-2.998.075z"/><path d="m981.806 1089.414c-7.437-5.33-12.697-16.935-20.662-34.5-16.219-35.774-40.73-89.838-102.253-133.063l8.623-12.273c64.871 45.578 91.426 104.148 107.292 139.144 5.948 13.119 11.566 25.512 15.738 28.502z"/><path d="m1080.33 806.498c-9.728 0-19.313-.571-28.588-1.733-38.327-4.803-68.824-19.191-85.873-40.515l11.715-9.367c14.596 18.255 41.595 30.684 76.023 34.998 33.269 4.168 70.938.228 103.342-10.813l4.838 14.199c-25.462 8.675-53.999 13.231-81.457 13.231z"/><path d="m726.197 1179.024-10.344-10.863c4.604-4.385 9.329-8.799 13.898-13.067 36.283-33.897 73.801-68.949 93.567-128.715 1.434-4.335 2.615-8.187 3.657-11.584 4.314-14.066 6.918-22.557 16.475-25.667l4.643 14.264c-2.145.697-4.087 7.033-6.776 15.802-1.064 3.471-2.271 7.405-3.756 11.896-20.97 63.402-59.911 99.782-97.569 134.966-4.544 4.243-9.242 8.632-13.795 12.968z"/><path d="m1105.949 906.04c-65.991-.296-137.175-23.115-200.438-64.255l8.178-12.574c59.996 39.015 130.097 61.551 192.327 61.829z"/></g><path d="m809.862 1213.066c-24.656.001-50.618-8.678-74.49-25.113-30.244-20.821-54.472-51.882-70.064-89.823-20.073-48.847-43.072-87.005-63.364-120.672-23.01-38.176-41.184-68.329-46.749-99.771-13.265-74.952 36.473-129.519 92.46-144.683 28.689-7.771 58.319-5.18 83.434 7.294 28.384 14.098 50.306 40.279 63.395 75.715 8.262 22.365 14.696 47.811 21.509 74.749 5.854 23.147 11.893 47.026 19.301 69.353 10.419-18.497 47.651-84.563 63.653-112.49.743-1.298 1.532-2.686 2.367-4.155 20.473-36.032 68.42-120.4 152.906-107.491 1.365.209 2.302 1.484 2.094 2.85-.209 1.365-1.485 2.302-2.85 2.094-81.075-12.403-127.839 69.882-147.804 105.019-.838 1.475-1.629 2.868-2.376 4.171-18.6 32.459-65.907 116.493-66.383 117.339-.483.857-1.434 1.348-2.403 1.264-.979-.089-1.816-.743-2.138-1.673-8.31-24.021-14.87-49.964-21.215-75.053-6.779-26.806-13.183-52.126-21.352-74.242-12.64-34.218-33.709-59.449-60.93-72.969-24.02-11.93-52.396-14.396-79.901-6.947-53.795 14.57-101.586 66.99-88.844 138.986 5.403 30.527 23.366 60.329 46.107 98.061 20.384 33.82 43.488 72.152 63.707 121.353 15.223 37.042 38.832 67.336 68.275 87.605 27.49 18.927 57.751 27.197 85.199 23.285 21.5-3.062 60.869-20.791 126.32-87.856 41.664-42.691 85.206-97.173 113.635-142.185.737-1.168 2.284-1.515 3.448-.778 1.167.737 1.516 2.281.778 3.448-28.602 45.286-72.393 100.083-114.282 143.007-36.669 37.572-88.849 83.567-129.194 89.313-4.682.665-9.443.995-14.249.995z"/><path d="m1011.995 835.721c-11.14 165.626 63.403 206.358 102.733 218.781 42.94 13.563 151.549-12.016 200.303-90.174 40.455-64.856 7.435-160.266-109.528-271.225 0 0-19.555-59.214-116.896-32.465 0 0-87.886 23.446-61.697 101.261z" fill="#fff"/><path d="m1119.55 998.47c-43.961.001-68.038-10.129-81.321-15.716-3.137-1.318-6.692-2.814-7.833-2.903.01.003.703.05 1.61-.423l-6.916-13.311c5.489-2.854 11.137-.478 18.954 2.811 16.413 6.903 50.57 21.266 123.585 10.876 77.695-11.061 114.279-43.567 136.138-62.989 11.161-9.917 18.534-16.469 27.16-16.469v15c-2.925 0-10.507 6.737-17.196 12.682-23.122 20.544-61.82 54.93-143.988 66.626-19.097 2.718-35.725 3.816-50.193 3.816z" fill="#ef4910"/><path d="m856.822 1028.797c-1.018 0-1.975-.627-2.347-1.638l-22.101-60.072c-.477-1.296.188-2.732 1.483-3.21 1.296-.476 2.733.188 3.21 1.483l22.101 60.072c.477 1.296-.188 2.732-1.483 3.21-.285.105-.576.155-.863.155z"/><path d="m1097.391 901.008c-36.794 0-66.526-6.18-79.938-8.967-3.027-.629-6.158-1.279-7.001-1.346l.81-14.979c1.744.091 4.095.568 9.243 1.639 19.196 3.988 64.151 13.331 116.901 5.94 65.636-9.196 119.111-41.023 158.941-94.596 46.741-62.87 71.27-77.727 84.447-85.709 5.416-3.28 7.178-4.426 8.186-6.674l13.688 6.137c-2.971 6.625-7.883 9.601-14.102 13.367-12.3 7.45-35.192 21.316-80.182 81.828-42.313 56.914-99.139 90.728-168.897 100.502-14.656 2.055-28.837 2.858-42.096 2.858z" fill="#ef4910"/><path d="m1141.358 1060.478c-10.396.001-19.729-1.175-27.382-3.592-53.32-16.841-114.728-68.911-104.475-221.333.094-1.377 1.283-2.421 2.662-2.326 1.377.093 2.419 1.284 2.326 2.662-7.942 118.081 26.98 192.853 100.992 216.229 22.39 7.071 60.206 2.891 96.341-10.649 43.882-16.442 79.782-44.309 101.088-78.465 20.109-32.239 21.476-71.299 4.059-116.095-18.237-46.906-56.319-98.045-113.187-151.993-.3-.284-.523-.638-.653-1.029-.046-.137-4.95-14.331-21.236-25.153-21.687-14.411-53.715-16.377-92.623-5.685-.424.113-40.937 11.27-57.581 42.307-8.631 16.094-9.441 34.85-2.409 55.745.44 1.309-.263 2.727-1.571 3.167-1.312.441-2.726-.264-3.167-1.571-7.495-22.27-6.567-42.366 2.756-59.731 17.691-32.953 58.92-44.276 60.666-44.742 28.24-7.761 68.008-12.929 96.989 6.541 15.783 10.605 21.542 23.885 22.7 26.933 57.169 54.31 95.516 105.92 113.977 153.401 18.019 46.344 16.513 86.904-4.477 120.553-21.885 35.085-58.669 63.674-103.575 80.501-24.972 9.356-50.842 14.325-72.22 14.325z"/><path d="m1276.942 884.394c34.288-9.298 180.565 51.8 213.249 76.948.002 105.396-58.735 175.376-70.544 250.154-11.807 74.777 50.389 119.165 95.949 136.915 83.012 32.342 137.953-12.693 161.634-121.887 20.561-94.806 32.888-235.071-.532-319.161-47.791-120.248-241.924-190.639-310.392-220.438-95.14-41.407-161.454-1.193-188.742 35.539z" fill="#fff"/><path d="m1466.866 947.131-13.197-7.129c36.109-66.851 81.262-88.565 114.229-104.421 14.852-7.143 27.678-13.312 36.287-21.846l10.561 10.653c-10.398 10.308-24.277 16.981-40.347 24.71-32.85 15.799-73.735 35.463-107.533 98.033z" fill="#ef4910"/><path d="m1382.72 909.009-14.277-4.6c31.733-98.492 79.265-133.719 104.8-152.644 6.246-4.629 12.146-9.002 13.353-11.398l13.398 6.742c-2.809 5.582-8.78 10.008-17.819 16.707-24.185 17.923-69.199 51.286-99.455 145.193z" fill="#ef4910"/><path d="m1667.442 1259.579c-7.337-3.369-13.163-6.3-21.357-13.367-44.724-38.574-93.082-72.934-192.147-69.832-10.805.345-20.723-1.143-24.429-2.156l3.959-14.469c2.583.706 11.109 1.911 19.999 1.633 47.88-1.498 88.401 5.338 123.932 20.909 32.919 14.426 57.771 34.692 78.483 52.556 6.217 5.362 10.345 7.663 17.82 11.096z" fill="#ef4910"/><path d="m1190.419 885.912-4.959-14.156c44.084-15.439 81.392-43.383 110.888-83.056 46.741-62.87 71.27-77.727 84.447-85.709 5.416-3.28 7.178-4.426 8.186-6.674l13.688 6.137c-2.971 6.625-7.883 9.601-14.102 13.367-12.3 7.45-35.192 21.316-80.182 81.828-31.314 42.121-71.005 71.817-117.966 88.263z" fill="#ef4910"/><path d="m1488.558 999.186v-15c4.814 0 14.381-4.181 26.492-9.474 16.26-7.105 38.528-16.837 69.53-25.954 48.007-14.119 74.189-10.345 89.837-8.09 5.6.808 10.021 1.447 13.023.88l2.773 14.742c-5.45 1.025-10.959.23-17.938-.775-15.369-2.215-38.593-5.563-83.464 7.634-30.095 8.851-51.862 18.363-67.756 25.309-14.781 6.459-24.548 10.728-32.497 10.728z" fill="#ef4910"/><path d="m1695.828 1092.818c-7.663-.482-14.623-2.409-23.435-4.848-15.748-4.358-37.315-10.327-79.316-12.396-39.883-1.967-76.026 5.846-99.944 11.013-17.033 3.681-24.784 5.242-30.075 3.688l4.225-14.393c-.053-.016-.108-.032-.17-.042 2.646.452 13.385-1.87 22.853-3.916 24.688-5.335 61.997-13.391 103.851-11.333 43.661 2.151 66.154 8.376 82.578 12.921 8.285 2.293 14.271 3.949 20.378 4.334z" fill="#ef4910"/><path d="m1080.99 806.535c-40.168 0-77.393-9.856-101.32-28.694l9.279-11.785c17.521 13.793 44.313 22.631 75.444 24.887 30.682 2.227 63.556-1.993 92.557-11.875 26.255-8.945 54.812-26.202 76.389-46.161 23.478-21.716 36.6-44.318 36.949-63.644l14.998.271c-.89 49.146-64.575 103.655-123.498 123.732-26.213 8.931-54.154 13.269-80.798 13.269z" fill="#ef4910"/><path d="m1564.765 1361.166c-15.51.001-32.236-3.475-50.077-10.426-16.296-6.349-47.119-20.996-70.464-47.759-23.347-26.766-32.446-57.678-27.047-91.876 4.764-30.166 17.042-59.445 30.04-90.444 18.847-44.945 40.191-95.844 40.471-158.076-16.67-12.338-60.133-33.297-104.416-50.301-51.741-19.866-91.242-29.393-105.676-25.477-1.326.361-2.705-.427-3.067-1.759-.361-1.332.426-2.706 1.759-3.067 22.227-6.026 83.475 15.92 108.776 25.636 45.573 17.498 90.427 39.26 106.651 51.743.615.474.976 1.205.976 1.981.001 63.803-21.708 115.575-40.862 161.253-12.879 30.712-25.043 59.722-29.712 89.29-5.158 32.668 3.547 62.212 25.876 87.81 22.641 25.957 52.642 40.205 68.51 46.388 34.277 13.354 64.124 13.431 88.714.225 32.652-17.537 56.06-58.016 69.569-120.313 20.497-94.509 32.688-234.423-.411-317.706-18.408-46.316-61.52-90.729-128.137-132.006-56.019-34.708-117.149-60.275-157.601-77.193-8.937-3.737-16.653-6.965-23.33-9.871-89.199-38.821-155.806-5.551-185.737 34.738-.824 1.108-2.391 1.338-3.498.516-1.108-.823-1.339-2.39-.516-3.498 16.431-22.115 42.025-39.603 70.223-47.977 37.385-11.103 78.271-7.188 121.524 11.637 6.644 2.892 14.345 6.112 23.263 9.842 40.598 16.979 101.949 42.639 158.305 77.557 67.549 41.853 111.338 87.074 130.15 134.409 15.397 38.742 22.357 91.413 20.685 156.549-1.347 52.44-8.461 110.706-20.033 164.064-13.835 63.792-38.09 105.397-72.091 123.658-12.976 6.968-27.287 10.453-42.817 10.453z"/><path d="m1490.192 963.842c-.02 0-.038 0-.058-.001-1.38-.031-2.474-1.175-2.442-2.556.553-24.478-3.242-45.217-3.28-45.424-.252-1.357.644-2.662 2.001-2.915 1.357-.245 2.663.645 2.915 2.001.039.211 3.929 21.432 3.362 46.451-.031 1.362-1.144 2.444-2.498 2.444z"/><path d="m947.51 1609.608c-.75 0-1.491-.336-1.983-.977-.842-1.094-.637-2.664.458-3.505l31.241-24.022c1.096-.843 2.665-.636 3.505.458.842 1.094.637 2.664-.458 3.505l-31.241 24.022c-.455.35-.991.519-1.522.519z"/><path d="m1736.597 1753.364c-.757 0-1.505-.343-1.997-.993l-31.297-41.422c-.832-1.102-.613-2.669.488-3.502 1.102-.83 2.669-.612 3.502.488l31.297 41.422c.832 1.102.613 2.669-.488 3.502-.451.34-.981.505-1.505.505z"/><path d="m1346.695 1356.899c8.827 12.196 17.271 16.651 36.901 16.78 15.087.099 47.255-7.748 47.878-27.457s-20.656-20.092-38.089-21.782c-17.432-1.691-37.166-2.535-37.166-2.535s-20.603 21.097-9.524 34.994z" fill="#fbb348"/><path d="m1383.867 1376.18c-.098 0-.192 0-.288-.001-19.766-.13-29.221-4.449-38.876-17.769-12.232-15.442 8.824-37.327 9.728-38.252.495-.508 1.176-.771 1.895-.751.198.009 20.001.866 37.301 2.544 1.252.121 2.523.236 3.806.352 16.57 1.494 37.193 3.354 36.541 23.998-.306 9.647-7.223 17.728-20.005 23.364-10.921 4.816-22.962 6.515-30.102 6.515zm-26.6-51.725c-3.414 3.811-17.078 20.272-8.616 30.885.023.03.048.062.07.093 7.646 10.563 14.816 15.614 34.892 15.746.077.001.158.001.236.001 13.254.001 44.56-7.104 45.126-25.037.469-14.82-12.363-17.09-31.992-18.86-1.294-.116-2.576-.232-3.839-.354-14.774-1.434-31.406-2.265-35.877-2.474z" fill="#111"/><path d="m1302.614 1321.961c8.114 12.63 25.28 18.136 39.402 17.002 15.038-1.208 44.754-7.97 45.376-27.679.623-19.709-20.656-20.092-38.089-21.782-17.432-1.691-37.166-2.535-37.166-2.535s-20.602 21.098-9.523 34.994z" fill="#fbb348"/><path d="m1337.924 1341.628c-17.607.001-31.256-8.826-37.345-18.21-12.141-15.439 8.868-37.274 9.77-38.198.495-.508 1.187-.771 1.896-.751.198.009 20.001.866 37.301 2.545 1.25.121 2.521.235 3.801.351 16.573 1.494 37.198 3.354 36.546 23.999-.302 9.543-6.782 17.486-18.739 22.971-11.766 5.396-25.122 6.814-28.936 7.121-1.455.115-2.888.172-4.294.172zm-24.738-52.111c-3.414 3.811-17.078 20.273-8.616 30.886.053.066.103.136.148.207 7.909 12.31 24.781 16.852 37.099 15.861 3.606-.289 16.231-1.627 27.252-6.682 10.26-4.706 15.584-10.958 15.825-18.584.469-14.822-12.364-17.091-31.997-18.86-1.291-.116-2.572-.232-3.834-.354-14.774-1.434-31.407-2.265-35.877-2.474z" fill="#111"/><path d="m1263.276 1289.358c7.043 13.069 27.897 17.882 42.019 16.748 15.038-1.208 42.137-7.716 42.76-27.425s-20.656-20.092-38.089-21.782c-17.432-1.691-37.166-2.535-37.166-2.535s-20.604 21.098-9.524 34.994z" fill="#fbb348"/><path d="m1301.042 1308.773c-15.257 0-33.172-5.915-39.86-18.033-12.016-15.435 8.928-37.2 9.828-38.123.495-.508 1.187-.771 1.896-.751.198.009 20.002.866 37.301 2.545 1.25.121 2.521.235 3.801.351 16.573 1.494 37.198 3.354 36.547 23.999-.613 19.403-24.657 28.2-45.06 29.838-1.449.116-2.939.174-4.453.174zm-27.195-51.859c-3.414 3.811-17.077 20.273-8.616 30.886.093.116.175.241.246.372 6.635 12.312 27.15 16.44 39.617 15.442 4.071-.326 39.792-3.804 40.462-25.012.468-14.822-12.365-17.091-31.998-18.86-1.291-.116-2.573-.232-3.834-.354-14.773-1.434-31.406-2.265-35.877-2.474z" fill="#111"/><path d="m667.038 613.361c13.819 5.974 19.999 13.251 24.38 32.386 3.367 14.706 2.679 47.811-16.426 52.691s-24.091-15.81-29.52-32.462c-5.43-16.651-10.531-35.733-10.531-35.733s16.129-24.686 32.097-16.882z" fill="#fbb348"/><path d="m669.494 701.684c-15.267.003-20.738-17.184-25.233-31.298-.391-1.225-.777-2.44-1.167-3.635-5.388-16.523-10.518-35.671-10.568-35.862-.184-.687-.066-1.418.322-2.013.706-1.083 17.505-26.389 35.233-17.787 15.096 6.538 21.361 14.833 25.772 34.102 3.848 16.804 2.446 50.386-18.243 55.67-2.198.561-4.233.823-6.116.823zm-31.837-70.97c1.173 4.318 5.589 20.377 10.19 34.487.393 1.205.783 2.432 1.177 3.667 5.982 18.781 10.979 30.813 25.348 27.148 17.488-4.468 17.535-36.927 14.608-49.711-4.48-19.569-10.966-25.476-22.936-30.649-.035-.016-.07-.032-.105-.049-12.188-5.958-25.302 10.949-28.282 15.107z" fill="#111"/><path d="m623.376 577.901c14.089 5.183 23.185 20.748 25.139 34.78 2.081 14.943 1.92 45.417-17.185 50.297s-24.091-15.81-29.52-32.462c-5.43-16.651-10.531-35.733-10.531-35.733s16.129-24.686 32.097-16.882z" fill="#fbb348"/><path d="m625.832 666.224c-15.267.003-20.738-17.184-25.233-31.298-.391-1.225-.777-2.44-1.167-3.635-5.388-16.523-10.518-35.671-10.568-35.862-.184-.687-.066-1.418.322-2.013.705-1.082 17.466-26.321 35.171-17.817 11.318 4.223 23.913 17.192 26.634 36.738.527 3.789 2.038 17.136-.68 29.792-2.763 12.861-9.112 20.909-18.362 23.271-2.199.562-4.234.824-6.117.824zm-31.837-70.97c1.173 4.318 5.589 20.377 10.19 34.487.393 1.205.783 2.432 1.177 3.667 5.982 18.781 10.984 30.816 25.348 27.148 7.392-1.889 12.342-8.441 14.712-19.479 2.546-11.854 1.115-24.468.615-28.052-1.704-12.245-9.793-27.727-23.525-32.778-.08-.03-.158-.063-.234-.101-12.197-5.961-25.303 10.949-28.283 15.108z" fill="#111"/><path d="m583.021 546.565c14.284 4.043 23.504 23.357 25.458 37.389 2.081 14.943 1.601 42.808-17.505 47.688-19.105 4.88-24.091-15.81-29.52-32.462-5.43-16.651-10.531-35.733-10.531-35.733s16.131-24.686 32.098-16.882z" fill="#fbb348"/><path d="m585.478 634.888c-15.265.003-20.736-17.181-25.231-31.293-.392-1.227-.779-2.443-1.169-3.639-5.388-16.524-10.518-35.672-10.568-35.863-.184-.687-.066-1.418.322-2.013.705-1.08 17.415-26.245 35.085-17.858 14.599 4.289 24.82 23.449 27.04 39.388 2.821 20.273-.556 45.651-19.362 50.455-2.199.561-4.233.823-6.117.823zm-31.838-70.972c1.173 4.316 5.589 20.377 10.191 34.489.394 1.207.784 2.435 1.179 3.672 5.982 18.777 10.973 30.801 25.346 27.144 7.45-1.903 12.458-8.036 14.884-18.228 2.552-10.719 1.385-22.239.764-26.694-1.723-12.377-10.204-31.52-23.662-35.328-.144-.04-.283-.094-.417-.159-12.226-5.972-25.31 10.943-28.285 15.104z" fill="#111"/><path d="m1529.838 1451.384c-.595 0-1.192-.211-1.67-.641l-1123.631-1010.133c-6.191-5.565-9.844-13.209-10.286-21.521-.442-8.313 2.379-16.301 7.944-22.491l251.142-279.36c9.646-10.729 8.764-27.305-1.966-36.95l-76.284-68.58c-10.729-9.646-27.308-8.763-36.952 1.965l-270.306 300.676c-.925 1.028-2.502 1.112-3.531.188-1.026-.923-1.11-2.504-.188-3.531l270.306-300.676c11.49-12.781 31.232-13.83 44.014-2.342l76.284 68.58c12.78 11.488 13.83 31.232 2.342 44.012l-251.142 279.36c-4.673 5.197-7.041 11.903-6.67 18.883s3.438 13.396 8.635 18.068l1123.632 1010.133c1.026.923 1.11 2.504.188 3.531-.495.549-1.176.829-1.861.829z"/><path d="m-57.317 282.029h646.575v61.297h-646.575z" fill="#fff" transform="matrix(.6685 -.7437 .7437 .6685 -144.3727 301.4308)"/><path d="m72.629 576.087c-.615 0-1.211-.228-1.672-.641l-45.584-40.98c-1.027-.923-1.111-2.504-.188-3.531l432.267-480.836c.443-.493 1.064-.79 1.727-.825.657-.047 1.312.193 1.804.637l45.585 40.98c1.027.923 1.111 2.504.188 3.53l-432.268 480.838c-.443.492-1.064.789-1.727.824-.043.003-.088.004-.132.004zm-42.055-43.668 41.867 37.638 428.925-477.119-41.867-37.638z"/><path d="m-33.6 227.703h599.14v169.95h-599.14z" fill="#ff6996" transform="matrix(.6685 -.7437 .7437 .6685 -144.3727 301.4308)"/><path d="m128.886 594.769c-.615 0-1.211-.228-1.672-.641l-126.385-113.62c-1.027-.923-1.111-2.504-.188-3.53l400.555-445.562c.443-.492 1.064-.789 1.727-.824.664-.042 1.311.194 1.804.637l126.386 113.62c1.027.923 1.111 2.504.188 3.53l-400.556 445.56c-.443.493-1.064.79-1.727.825-.043.004-.088.005-.132.005zm-122.856-116.308 122.668 110.277 397.212-441.842-122.668-110.278z"/><path d="m1890.926 1773.498c-5.822 6.476-15.791 7.006-22.266 1.184l-1442.953-1297.201 21.082-23.451 1442.953 1297.201c6.476 5.822 7.006 15.791 1.184 22.267z" fill="#cad5f3"/><path d="m1879.179 1781.225c-4.513 0-8.809-1.644-12.19-4.684l-1442.953-1297.2c-1.027-.923-1.111-2.504-.188-3.531l21.082-23.45c.443-.493 1.064-.79 1.727-.825.681-.036 1.312.194 1.804.637l1442.953 1297.201c3.629 3.262 5.77 7.741 6.029 12.614.259 4.872-1.396 9.554-4.657 13.183l-1.859-1.671 1.859 1.671c-3.262 3.629-7.742 5.771-12.614 6.029-.332.017-.664.026-.993.026zm-1449.941-1303.931 1441.094 1295.528c2.636 2.369 6.044 3.578 9.574 3.383 3.539-.188 6.792-1.743 9.161-4.378 0 0 0 0 0-.001 2.37-2.635 3.571-6.035 3.383-9.574s-1.743-6.792-4.379-9.161l-1441.094-1295.53z"/><path d="m647.992 673.817c11.273 10.055 79.596 51.875 68.276 113.55-5.409 29.474-51.343 53.23-105.363 17.384-32.709-21.705-73.328-60.237-104.457-91.367-41.074-41.073-41.059-69.101-13.05-106.698z" fill="#fbb348"/><path d="m665.565 825.781c-17.674.001-37.114-6.45-56.037-18.943-26.063-17.207-60.359-47.197-104.848-91.686-20.935-20.935-31.469-38.786-33.152-56.18-1.605-16.598 4.521-33.184 19.864-53.779.825-1.109 2.391-1.337 3.498-.512s1.337 2.392.512 3.498c-14.547 19.526-20.374 35.043-18.896 50.312 1.564 16.176 11.642 33.057 31.71 53.126 44.247 44.247 78.288 74.029 104.066 91.049 26.68 17.612 54.214 22.683 75.546 13.907 13.743-5.653 23.218-16.485 25.994-29.72 10.775-51.374-40.558-90.656-57.426-103.565-3.564-2.728-5.173-3.973-5.938-4.905-.874-1.066-.718-2.638.349-3.514 1.065-.876 2.642-.721 3.519.344.435.528 2.811 2.347 5.108 4.104 17.487 13.382 70.703 54.105 59.28 108.563-3.121 14.88-13.686 27.023-28.984 33.316-7.465 3.073-15.61 4.584-24.165 4.585z" fill="#111"/><path d="m528.723 648.696c-13.01 9.103-61.94-3.808-33.191-45.277 16.575-23.909 41.144-44.781 52.966-51.864 39.614-23.734 59.622 11.619 39.614 38.525-8.369 11.254-32.392 39.726-59.389 58.616z" fill="#fbb348"/><path d="m543.201 639.999c-.711 0-1.417-.302-1.911-.888-.891-1.055-.758-2.632.298-3.522 20.276-17.113 37.523-37.596 44.518-47.001.823-1.107 2.39-1.341 3.498-.514 1.107.823 1.338 2.39.514 3.498-7.122 9.577-24.679 30.43-45.305 47.837-.469.397-1.042.59-1.612.59z" fill="#111"/><path d="m485.259 621.185c-.408 0-.822-.1-1.205-.311-1.209-.667-1.648-2.188-.982-3.396 19.314-35.015 50.401-59.835 64.141-68.067 18.283-10.954 39.471-9.233 50.379 4.088.874 1.068.718 2.644-.351 3.519-1.069.872-2.644.718-3.519-.351-9.324-11.389-27.803-12.637-43.939-2.967-10.728 6.428-42.837 30.849-62.332 66.192-.457.826-1.311 1.293-2.192 1.293z" fill="#111"/><path d="m568.426 680.8c-11.972 10.43-73.479 10.252-44.73-31.217 16.575-23.909 52.683-58.841 64.505-65.924 39.614-23.734 58.729 11.048 38.721 37.954-8.368 11.254-39.939 43.021-58.496 59.187z" fill="#fbb348"/><path d="m595.198 658.156c-.645 0-1.289-.248-1.777-.742-.971-.981-.962-2.564.02-3.535 14.624-14.459 26.979-27.71 31.477-33.758.822-1.106 2.389-1.34 3.498-.514 1.107.823 1.338 2.39.514 3.498-5.625 7.564-20.205 22.693-31.973 34.328-.489.483-1.125.723-1.759.723z" fill="#111"/><path d="m523.695 652.083c-.519 0-1.04-.16-1.488-.493-1.108-.822-1.34-2.389-.517-3.497 24.403-32.867 46.349-55.267 65.227-66.578 25.761-15.434 41.553-5.383 47.146-.345 1.025.924 1.107 2.505.184 3.531s-2.504 1.108-3.531.184c-14.311-12.893-33.6-3.651-41.228.919-18.312 10.973-39.772 32.933-63.783 65.27-.492.66-1.247 1.009-2.01 1.009z" fill="#111"/><path d="m618.432 713.789c-12.728 9.492-76.623 6.604-47.874-34.865 16.575-23.909 49.272-55.032 61.094-62.115 39.614-23.734 60.21 12.648 40.202 39.554-8.368 11.254-29.569 39.638-53.422 57.426z" fill="#fbb348"/><path d="m638.41 698.671c-.637 0-1.272-.241-1.761-.725-.98-.973-.986-2.556-.015-3.536 15.024-15.149 30.966-35.792 36.242-44.269.73-1.171 2.271-1.53 3.443-.801s1.531 2.271.801 3.443c-5.536 8.896-21.452 29.533-36.936 45.147-.487.494-1.13.741-1.774.741z" fill="#111"/><path d="m570.557 681.424c-.491 0-.988-.145-1.423-.445-1.134-.787-1.416-2.345-.63-3.479 10.26-14.798 24.843-29.981 32.622-37.715 11.867-11.799 23.072-21.424 29.241-25.12 11.983-7.18 25.763-8.617 37.809-3.942 11.153 4.328 19.445 13.146 22.75 24.192.396 1.323-.356 2.716-1.679 3.112-1.328.396-2.717-.356-3.112-1.679-2.858-9.558-10.064-17.199-19.769-20.965-10.748-4.172-22.622-2.903-33.429 3.57-11.72 7.021-44.084 37.97-60.324 61.396-.485.7-1.264 1.075-2.056 1.075z" fill="#111"/><path d="m1297.1 1194.616c19.117-25.611 49.779-31.836 99.258-1.406 37.5 23.062 72.339 44.136 102.481 69.284 57.277 47.787 39.461 95.222 7.523 106.522-38.369 13.576-71.974-12.618-109.832-30.385z" fill="#fbb348"/><path d="m1484.51 1375.305c-22.814 0-44.292-11.3-66.711-23.093-7.255-3.816-14.757-7.763-22.332-11.318-1.25-.586-1.787-2.075-1.2-3.325.584-1.249 2.072-1.788 3.325-1.2 7.677 3.603 15.23 7.576 22.535 11.419 28.69 15.094 55.79 29.347 85.4 18.873 14.352-5.078 24.579-16.776 27.36-31.292 2.438-12.72 1.04-38.857-35.695-70.992-25.364-22.188-55.28-40.432-86.952-59.746-5.02-3.062-10.087-6.151-15.192-9.291-43.986-27.052-75.37-26.796-95.944.772-.827 1.107-2.395 1.334-3.499.509-1.106-.826-1.334-2.393-.509-3.499 22.106-29.617 56.616-30.304 102.571-2.042 5.101 3.137 10.162 6.224 15.177 9.282 31.86 19.43 61.953 37.781 87.64 60.251 28.619 25.034 41.871 51.917 37.315 75.697-3.119 16.278-14.56 29.387-30.604 35.063-7.753 2.743-15.289 3.932-22.685 3.932z" fill="#111"/><path d="m1305.593 1287.765c-21.533 25.702-53.268 16.104-46.661-29.6 3.246-22.453 16.009-43.755 36.27-64.633 26.809-27.625 59.475 8.104 53.637 22.871-12.114 30.642-34.24 60.612-43.246 71.362z" fill="#fbb348"/><path d="m1286.905 1307.077c-.227 0-.457-.031-.686-.097-25.278-7.199-34.177-21.918-29.755-49.215.331-2.048 8.652-50.478 54.92-79.958 1.167-.741 2.71-.4 3.452.765s.399 2.71-.765 3.452c-44.398 28.289-52.354 74.583-52.672 76.54-4.027 24.866 3.314 37.093 26.188 43.607 1.328.378 2.098 1.761 1.72 3.089-.312 1.1-1.314 1.817-2.402 1.817z" fill="#111"/><path d="m1345.267 1318.206c-21.533 25.702-58.294 13.799-45.899-28.864 3.845-13.234 18.6-55.785 47.708-76.538 25.007-17.829 49.569 20.712 42.199 34.776-11.422 21.799-35.001 59.875-44.008 70.626z" fill="#fbb348"/><path d="m1319.812 1338.02c-.296 0-.597-.053-.89-.165-14.436-5.497-29.965-18.485-21.973-49.145 2.185-8.381 14.795-51.525 48.59-77.879 1.088-.848 2.66-.654 3.509.435s.654 2.659-.435 3.509c-32.523 25.361-44.713 67.09-46.826 75.197-5.666 21.735.698 36.273 18.914 43.211 1.29.491 1.938 1.936 1.446 3.226-.379.997-1.328 1.611-2.335 1.611z" fill="#111"/><path d="m1387.455 1358.674c-20.267 24.882-59.665 9.286-45.764-34.752 4.148-13.141 21.557-51.437 48.851-74.484 38.553-32.555 48.702 24.553 42.42 39.135-11.773 27.326-36.65 59.227-45.507 70.101z" fill="#fbb348"/><path d="m1375.671 1375.832c-.088 0-.177-.005-.267-.014-16.245-1.721-27.623-7.39-33.817-16.849-5.995-9.155-6.784-21.535-2.28-35.802 3.8-12.039 20.841-51.578 48.367-74.552 1.06-.885 2.638-.743 3.521.317.885 1.06.743 2.636-.317 3.521-26.608 22.209-43.117 60.542-46.803 72.219-2.814 8.918-4.805 21.631 1.695 31.558 5.332 8.144 15.48 13.061 30.162 14.615 1.373.146 2.368 1.377 2.223 2.75-.136 1.284-1.221 2.237-2.484 2.237z" fill="#111"/><path d="m1389.488 1356.355c-.566 0-1.137-.191-1.604-.584-1.059-.887-1.197-2.463-.311-3.521 6.362-7.595 21.264-25.38 33.142-45.399.705-1.188 2.241-1.579 3.426-.875 1.188.705 1.579 2.238.875 3.426-12.086 20.369-27.169 38.372-33.61 46.06-.496.589-1.205.893-1.918.893z" fill="#111"/><path d="m1010.405 628.292 42.542 90.62c65.942 25.881 106.421-41.735 106.421-41.735l-37.162-80.718z" fill="#fbb348"/><path d="m1082.57 727.275c-9.416 0-19.63-1.755-30.535-6.035-.596-.233-1.078-.687-1.35-1.265l-42.542-90.621c-.312-.664-.316-1.431-.013-2.099.304-.667.886-1.168 1.591-1.368l111.801-31.832c1.189-.339 2.44.24 2.955 1.358l37.162 80.718c.346.75.299 1.622-.126 2.33-.423.708-10.587 17.488-29.134 31.294-11.903 8.862-28.89 17.52-49.809 17.52zm-27.786-10.333c26.156 9.955 51.252 6.19 74.608-11.197 15.114-11.25 24.588-24.853 27.136-28.757l-35.697-77.537-106.913 30.44z"/><path d="m1239.959 554.889s67.118-43.736 20.517-138.719-104.603-40.582-212.023-45.458c0 0-25.809-41.25-58.825-48.153-126.203-26.389-142.25 141.756-41.513 152.898l134.888 78.066z" fill="#6f5490"/><path d="m1239.958 557.389c-.007 0-.015 0-.021 0l-156.954-1.366c-.433-.004-.856-.12-1.23-.336l-134.438-77.805c-28.697-3.345-51.06-20.021-61.407-45.82-11.474-28.604-6.097-63.431 13.378-86.659 20.373-24.299 52.636-33.282 90.854-25.291 30.985 6.479 55.207 41.303 59.714 48.159 32.573 1.335 60.491-2.764 85.161-6.391 55.021-8.09 94.775-13.933 127.705 53.188 13.531 27.579 25.769 68.558 7.226 107.162-11.129 23.171-27.913 34.291-28.622 34.753-.407.265-.881.406-1.366.406zm-156.272-6.361 155.499 1.354c3.034-2.176 17.009-12.928 26.363-32.546 13.866-29.079 11.336-64.546-7.316-102.564-31.325-63.845-67.591-58.513-122.489-50.445-25.218 3.707-53.796 7.909-87.402 6.383-.82-.037-1.57-.475-2.006-1.171-.253-.403-25.645-40.431-57.218-47.032-36.326-7.597-66.865.789-85.999 23.609-18.325 21.855-23.376 54.643-12.569 81.585 9.845 24.545 30.387 39.735 57.842 42.772.345.038.678.147.978.32z"/><path d="m1083.477 402.019c-.547 0-1.098-.179-1.558-.546-16.686-13.322-35.666-29.198-35.855-29.357-1.059-.886-1.199-2.463-.312-3.521.886-1.06 2.464-1.197 3.521-.312.189.158 19.127 15.998 35.766 29.283 1.079.862 1.256 2.435.395 3.514-.495.616-1.223.939-1.957.939z"/><path d="m1311.734 554.079-301.768-303.661-20.338 72.141 249.84 251.407z" fill="#cad5f3"/><path d="m1281.987 524.145-242.273-243.793 255.143-11.275z" fill="#cad5f3"/><path d="m1281.988 526.645c-.654 0-1.296-.257-1.774-.737l-242.272-243.793c-.697-.702-.915-1.75-.556-2.672.36-.922 1.23-1.545 2.219-1.589l255.143-11.274c.707-.015 1.387.236 1.884.735.496.5.759 1.186.724 1.889l-12.87 255.067c-.05.988-.679 1.854-1.603 2.209-.293.111-.596.165-.895.165zm-236.515-244.045 234.302 235.772 12.446-246.676z"/><path d="m1160.85 404.748c-.643 0-1.284-.246-1.773-.737-.973-.979-.968-2.562.011-3.536l134.007-133.171c.98-.973 2.562-.968 3.536.011.973.979.968 2.562-.011 3.536l-134.007 133.171c-.489.484-1.125.726-1.763.726z"/><path d="m1239.468 576.466c-.656 0-1.298-.259-1.773-.737l-249.84-251.407c-.636-.641-.878-1.573-.633-2.441l20.338-72.141c.241-.855.918-1.519 1.778-1.741s1.773.028 2.401.657l301.768 303.66c.626.631.871 1.547.643 2.405-.229.859-.896 1.532-1.753 1.768l-72.266 19.888c-.219.06-.441.089-.663.089zm-247.037-254.634 247.781 249.336 66.73-18.364-295.732-297.587z"/><path d="m1126.987 609.237s-49.197 58.096-126.322 34.861c-77.125-23.236-72.456-111.557-72.456-111.557s-35.757-25.113-27.603-40.37 38.294 11.602 38.294 11.602 13.313-81.623 92.794-94.167c0 0 31.236.859 44.793 52.396 13.556 51.537 19.42 97.794 45.467 71.832 0 0 38.78-70.856 93.521-37.19 62.028 38.152 11.774 116.372-37.784 121.818-35.193 3.861-50.704-9.225-50.704-9.225z" fill="#fbb348"/><path d="m937.218 582.015c-.715 0-1.159-.032-1.274-.042-1.376-.114-2.398-1.323-2.283-2.699.113-1.373 1.319-2.388 2.691-2.284.768.062 18.785 1.178 29.233-19.448.622-1.231 2.128-1.726 3.36-1.101 1.231.624 1.725 2.129 1.101 3.36-10.485 20.698-27.946 22.214-32.828 22.214z"/><path d="m1135.698 586.845c-.199 0-.401-.023-.604-.073-1.339-.333-2.156-1.686-1.825-3.025.496-2.007 12.744-49.441 64.695-74.921 1.237-.608 2.738-.097 3.345 1.144.608 1.239.097 2.737-1.144 3.345-49.784 24.418-61.927 71.165-62.043 71.634-.283 1.136-1.303 1.896-2.424 1.896z"/><path d="m1169.472 566.304c-.917 0-1.801-.507-2.238-1.384-4.589-9.185-16.463-9.462-16.583-9.464-1.378-.021-2.482-1.151-2.467-2.53.017-1.378 1.163-2.481 2.521-2.47.611.006 15.031.279 21.002 12.229.617 1.235.116 2.736-1.119 3.354-.359.18-.741.265-1.116.265z"/><path d="m984.122 498.462c.791-2.967-.973-6.013-3.94-6.804s-6.013.973-6.804 3.94.973 6.013 3.94 6.804c2.964.793 6.01-.968 6.802-3.932.001-.003.001-.005.002-.008z"/><path d="m1069.706 588.76c5.003-18.719-6.117-37.948-24.835-42.951-18.719-5.003-37.948 6.117-42.951 24.835-5.003 18.719 6.117 37.948 24.835 42.951 18.717 5.003 37.946-6.114 42.95-24.831 0-.001 0-.002.001-.004z" fill="#e79f33"/><path d="m1036.638 652.037c-11.322 0-23.605-1.603-36.693-5.546-40.86-12.31-58.878-42.73-66.798-66.082-7.42-21.88-7.594-41.32-7.481-46.613-6.911-5.021-35.623-27.165-27.265-42.804 1.703-3.187 4.418-5.193 7.852-5.805 10.031-1.783 24.502 8.671 31.052 13.968 1.685-7.194 6.124-22.614 16.047-39.055 12.376-20.503 35.946-46.335 77.953-52.965.151-.024.306-.035.458-.029 1.353.037 33.269 1.518 47.142 54.26 1.964 7.467 3.756 14.777 5.489 21.848 6.923 28.245 12.901 52.638 22.499 55.328 3.469.975 7.856-1.126 13.05-6.234 2.206-3.918 21.786-37.306 52.56-45.47 14.743-3.912 29.641-1.329 44.283 7.676 24.095 14.82 34.189 37.115 28.425 62.777-7.146 31.811-37.312 60.366-67.245 63.656-29.223 3.203-45.306-4.954-50.614-8.384-3.984 4.247-15.497 15.527-33.432 25.026-13.855 7.338-33.437 14.448-57.282 14.448zm-127.916-162.059c-.555 0-1.088.043-1.596.133-1.949.348-3.32 1.377-4.315 3.239-5.828 10.903 17.395 30.511 26.835 37.145.703.495 1.104 1.317 1.059 2.177-.011.218-1.033 22.024 7.23 46.285 10.988 32.262 32.336 53.373 63.451 62.747 38.943 11.729 70.447 1.884 90.019-8.441 21.318-11.249 33.554-25.501 33.675-25.644.892-1.047 2.46-1.181 3.514-.299.245.201 15.405 12.324 48.825 8.656 27.501-3.022 56.312-30.398 62.912-59.782 5.261-23.415-4.031-43.808-26.165-57.421-13.42-8.255-27-10.647-40.362-7.107-29.925 7.926-49.463 43.016-49.657 43.369-.114.209-.259.401-.428.569-6.769 6.746-12.717 9.282-18.176 7.752-12.409-3.479-18.409-27.959-26.006-58.952-1.729-7.05-3.515-14.34-5.469-21.767-12.373-47.041-39.665-50.318-42.248-50.521-32.012 5.123-56.941 22.085-74.097 50.416-12.91 21.321-16.323 41.442-16.356 41.643-.147.9-.773 1.648-1.633 1.952-.861.307-1.817.117-2.497-.488-5.12-4.558-19.608-15.661-28.515-15.661zm218.265 119.258h.01z"/></svg>