<svg xmlns="http://www.w3.org/2000/svg" viewBox="0 0 1200 800" width="1200" height="800"><path fill="#FFF" d="M0 0h1200v800H0z"/><g transform="translate(360.0 120.0) rotate(0.0 240.5 280.0) scale(0.2960874596803979 0.29610375052413007)"><svg width="1624.52" height="1891.229" viewBox="0 0 1624.52 1891.229"><path d="M949.82 170.897S802.65 13.453 689.01 77.799c-113.63 64.347-115.68 273.131-72.56 367.6 0 0-145.33 241.9 87.07 370.38 0 0 249.85 391.27 576.36 388.01 326.52-3.25 268-365-39.39-640.85 0 0 71.06-452.639-290.67-392.042z" fill="#fbb348"/><path d="M1275.859 1206.309c-73.623.002-149.271-20.026-224.939-59.556-61.55-32.154-123.247-77.214-183.377-133.929-98.39-92.801-160.595-187.181-165.782-195.163-66.417-36.863-108.422-86.572-124.854-147.755-15.693-58.429-4.686-116.713 7.312-155.317 11.52-37.066 26.154-63.625 29.423-69.334-22.385-49.94-31.089-126.389-22.172-195.274 10.793-83.379 44.996-145.301 96.308-174.359 26.453-14.977 56.863-19.311 90.397-12.879 26.643 5.11 55.296 17.002 85.164 35.344 46.252 28.404 81.303 63.83 87.376 70.126 93.319-15.358 166.234 2.197 216.738 52.186 25.611 25.35 45.511 59.198 59.147 100.605 10.874 33.021 17.813 70.904 20.625 112.599 4.38 64.93-2.761 119.229-4.066 128.372 48.664 43.776 92.13 90.625 129.211 139.266 35.988 47.208 65.246 95.131 86.961 142.438 21.463 46.76 34.965 91.608 40.131 133.297 5.256 42.421 1.719 80.373-10.513 112.799-13.646 36.175-37.746 64.524-71.631 84.26-35.796 20.85-82.028 31.701-137.414 32.252-1.343.015-2.7.022-4.045.022zM748.964 64.864c-21.288 0-40.953 5.05-58.723 15.111-49.91 28.264-83.228 88.868-93.813 170.65-8.876 68.571-.124 144.617 22.297 193.737a2.5 2.5 0 0 1-.131 2.325c-.167.278-16.847 28.291-29.645 69.528-11.777 37.948-22.587 95.197-7.205 152.429 16.118 59.975 57.497 108.742 122.985 144.947.364.202.673.491.897.842.623.976 63.535 98.747 165.43 194.832 59.788 56.38 121.101 101.156 182.233 133.085 74.922 39.13 149.785 58.958 222.57 58.958 1.335 0 2.661-.007 3.994-.02 106.175-1.057 176.861-40.228 204.416-113.277 23.769-63.011 13.298-149.042-29.484-242.246-21.561-46.972-50.627-94.577-86.393-141.492-37.144-48.724-80.738-95.65-129.573-139.474a2.502 2.502 0 0 1-.8-2.248c.09-.575 8.969-58.345 4.209-128.72-2.79-41.261-9.653-78.716-20.399-111.325-13.387-40.625-32.868-73.785-57.903-98.562-49.532-49.02-121.43-66.039-213.693-50.582a2.5 2.5 0 0 1-2.239-.758c-.366-.392-37.213-39.533-87.358-70.309-29.34-18.006-57.417-29.664-83.453-34.65-9.688-1.855-19.104-2.781-28.219-2.781z"/><path d="M1113.51 120.047c0-64.919 52.63-117.547 117.55-117.547s117.55 52.628 117.55 117.547c0 64.918-52.63 117.544-117.55 117.544s-117.55-52.626-117.55-117.544z" fill="#fbb348"/><path d="M1231.06 240.091c-66.195 0-120.05-53.852-120.05-120.044C1111.01 53.853 1164.864 0 1231.06 0s120.051 53.853 120.051 120.047c-.001 66.193-53.855 120.044-120.051 120.044zm0-235.091c-63.438 0-115.05 51.61-115.05 115.047 0 63.435 51.611 115.044 115.05 115.044s115.051-51.609 115.051-115.044C1346.11 56.61 1294.499 5 1231.06 5z"/><path d="m949.32 170.301 19.59 21.965z" fill="#fbb348"/><path d="M968.911 194.766a2.494 2.494 0 0 1-1.867-.836l-19.59-21.965a2.5 2.5 0 0 1 3.732-3.328l19.59 21.965a2.5 2.5 0 0 1-1.865 4.164z"/><path d="m790.22 230.945 14.32 23.972z" fill="#fbb348"/><path d="M804.542 257.417c-.851 0-1.68-.435-2.148-1.218l-14.32-23.972a2.5 2.5 0 1 1 4.293-2.564l14.32 23.972a2.5 2.5 0 0 1-2.145 3.782z"/><path d="M615.88 444.308c.12.64 7.53 13.76 18.35 28.2z" fill="#fbb348"/><path d="M634.231 475.008a2.497 2.497 0 0 1-2.003-1.001c-10.078-13.452-18.505-27.637-18.806-29.238a2.5 2.5 0 0 1 4.826-1.26c.681 1.486 7.626 13.68 17.981 27.5a2.5 2.5 0 0 1-1.998 3.999zm-15.895-31.164.001.003-.001-.003zm0-.003v.002-.002z"/><path d="M1240.52 562.628s-9.16 54.35-5.09 91.57z" fill="#fbb348"/><path d="M1235.427 656.698a2.5 2.5 0 0 1-2.482-2.228c-4.06-37.135 5.018-91.71 5.11-92.257a2.5 2.5 0 1 1 4.93.831c-.091.54-9.054 54.442-5.069 90.883a2.5 2.5 0 0 1-2.489 2.771z"/><path d="M1149.59 204.128s7.88-132.165 127.88-168.228c0 0-13.53 80.978-127.88 168.228z" fill="#fbb348"/><path d="M1149.59 206.628a2.498 2.498 0 0 1-2.495-2.648c.081-1.368 2.192-33.933 19.157-71.471 9.979-22.08 23.051-41.219 38.852-56.884 19.773-19.603 43.879-33.774 71.646-42.119a2.501 2.501 0 0 1 3.185 2.806c-.141.844-3.659 21.04-21.351 52.217-16.242 28.624-48.074 72.26-107.479 117.586-.443.34-.978.513-1.515.513zm124.478-167.042c-25.21 8.228-47.185 21.509-65.372 39.517-15.36 15.21-28.084 33.818-37.817 55.308-12.553 27.714-16.852 53.209-18.214 64.186 55.651-43.424 85.815-84.847 101.411-112.253 12.798-22.491 18.086-39.374 19.992-46.758z"/><path d="M1152.499 207.293a2.5 2.5 0 0 1-.033-5c.367-.005 37.191-.721 77.238-18.385 23.432-10.336 43.377-24.374 59.282-41.726 19.867-21.674 33.478-48.642 40.452-80.156a2.5 2.5 0 1 1 4.882 1.08c-7.177 32.422-21.214 60.19-41.723 82.534-16.401 17.869-36.938 32.308-61.042 42.915-40.956 18.024-78.647 18.732-79.023 18.737l-.033.001z"/><path d="M898.97 588.2s-119.71 35.5-280.68 278.199L459.78 641.03 278.17 758.26s82.85 347.069 345.89 382.219c191.53 25.59 319.49-362.41 319.49-362.41" fill="#92acef"/><path d="M642.113 1144.184c-6.132 0-12.258-.408-18.385-1.227-60.475-8.081-116.423-33.353-166.289-75.112-39.818-33.344-75.858-77.214-107.12-130.39-53.167-90.438-74.373-177.743-74.581-178.615a2.5 2.5 0 0 1 1.076-2.681l181.61-117.23a2.5 2.5 0 0 1 3.4.662L618.231 861.97c46.078-69.104 117.436-163.576 199.22-227.652 49.85-39.057 79.566-48.148 80.807-48.516a2.499 2.499 0 0 1 1.423 4.793c-.297.089-30.315 9.329-79.521 47.952-82.325 64.621-154.085 160.325-199.788 229.232a2.499 2.499 0 0 1-2.049 1.118 2.475 2.475 0 0 1-2.079-1.062L459.117 644.433 281.03 759.389c3.235 12.613 24.94 92.801 73.665 175.643 30.97 52.656 66.636 96.067 106.008 129.025 49.115 41.115 104.187 65.993 163.687 73.944 42.957 5.74 86.271-9.484 128.754-45.242 34.225-28.807 67.969-70.898 100.297-125.102 55.164-92.494 87.415-189.402 87.734-190.37a2.5 2.5 0 1 1 4.748 1.566c-.32.973-32.717 98.337-88.148 191.299-32.616 54.701-66.728 97.232-101.384 126.41-37.598 31.654-75.957 47.621-114.278 47.622z"/><path d="M262.5 348.729s-187.54-229.472-240-180c-61.737 58.217 162.11 240.37 162.11 240.37s-35.18 75.74 21.8 204.9c56.98 129.15 89.49 231.11 89.49 231.11s166.06 2.52 241.83-114.8" fill="#ff6996"/><path d="M296.519 847.612c-.406 0-.628-.003-.656-.003a2.5 2.5 0 0 1-2.344-1.74c-.325-1.019-33.129-103.326-89.396-230.86-29.631-67.166-34.017-119.738-32.478-152.013 1.406-29.488 7.718-47.604 9.936-53.151-7.836-6.48-46.094-38.522-84.168-77.482C40.067 273.682 10.41 228.028 9.265 196.67c-.442-12.121 3.434-22.134 11.521-29.759 5.983-5.643 13.825-8.193 23.302-7.578 29.453 1.91 75.534 34.166 136.964 95.872 45.515 45.72 83.012 91.485 83.385 91.942a2.5 2.5 0 1 1-3.872 3.164c-1.484-1.816-149.166-181.604-216.802-185.989-8.146-.529-14.544 1.508-19.548 6.226-7.091 6.687-10.347 15.171-9.953 25.939 1.082 29.648 31.061 75.414 86.696 132.349 42.285 43.274 84.806 77.979 85.23 78.325a2.499 2.499 0 0 1 .689 2.992c-.086.185-8.668 19.116-10.254 53.413-1.465 31.68 2.91 83.319 32.073 149.425 52.355 118.668 84.444 215.565 89.021 229.616 8.455-.081 45.939-1.16 90.156-13.35 29.348-8.091 55.879-19.424 78.856-33.683 28.651-17.781 51.832-40.195 68.898-66.62a2.499 2.499 0 1 1 4.2 2.712c-17.484 27.073-41.216 50.019-70.533 68.2-23.403 14.514-50.397 26.037-80.231 34.249-47.279 13.014-87.004 13.497-92.544 13.497z"/><path d="M122.5 688.729s100 40 200 0c0 0 60-200-60-440h-120v40s-140 200-20 400z" fill="#cad5f3"/><path d="M225.882 708.963c-15.348 0-29.321-1.17-41.212-2.756-37.377-4.984-62.846-15.056-63.099-15.157a2.498 2.498 0 0 1-1.215-1.035c-27.571-45.953-43.67-95.734-47.849-147.962-3.341-41.756.891-85.147 12.576-128.969C103.74 343.126 135.817 294.156 140 287.958v-39.229a2.5 2.5 0 0 1 2.5-2.5h120a2.5 2.5 0 0 1 2.236 1.382c27.466 54.931 47.723 112.328 60.208 170.594 9.99 46.62 15.056 93.899 15.056 140.524 0 79.448-14.954 130.215-15.105 130.718a2.5 2.5 0 0 1-1.466 1.603c-34.189 13.676-68.35 17.913-97.547 17.913zm-101.68-22.258c4.489 1.69 28.086 10.156 61.277 14.566 33.633 4.468 84.24 5.562 134.965-14.416 5.237-18.195 14.576-66.659 14.556-128.337-.016-46.251-5.054-93.153-14.975-139.404-12.295-57.32-32.166-113.793-59.072-167.886H145v37.5c0 .513-.158 1.013-.452 1.433-.348.498-35.04 50.621-54.677 124.378-11.515 43.251-15.677 86.054-12.371 127.22 4.107 51.134 19.818 99.896 46.702 144.946z"/><path d="m102.5 108.729-60 180c15 5 120-160 120-160z" fill="#fbb348"/><path d="M43.272 291.358c-.578 0-1.091-.1-1.563-.257a2.5 2.5 0 0 1-1.581-3.162l60-180a2.504 2.504 0 0 1 3.163-1.582l60 20a2.5 2.5 0 0 1 1.318 3.714c-.263.413-26.599 41.756-54.429 81.956-16.365 23.638-30.045 42.272-40.659 55.384-15.997 19.761-22.499 23.947-26.249 23.947zm60.809-179.467L46.484 284.68c3.201-2.376 9.279-8.099 20.311-21.854 10.566-13.176 24.084-31.663 40.177-54.95 23.355-33.794 45.474-68.09 51.693-77.791z"/><path d="M135.29 188.729h134.42c7.06 0 12.79 5.727 12.79 12.791v34.418c0 7.064-5.73 12.791-12.79 12.791H135.29c-7.06 0-12.79-5.727-12.79-12.791V201.52c0-7.064 5.73-12.791 12.79-12.791z" fill="#e79f33"/><path d="M269.71 251.229H135.29c-8.431 0-15.29-6.859-15.29-15.291V201.52c0-8.431 6.859-15.291 15.29-15.291h134.42c8.431 0 15.29 6.859 15.29 15.291v34.418c0 8.432-6.859 15.291-15.29 15.291zm-134.42-60c-5.674 0-10.29 4.617-10.29 10.291v34.418c0 5.674 4.616 10.291 10.29 10.291h134.42c5.674 0 10.29-4.617 10.29-10.291V201.52c0-5.674-4.616-10.291-10.29-10.291z"/><path d="M258 188.729H147c-2.49 0-4.5-2.015-4.5-4.5v-51c0-2.485-1.99-4.785-4.45-5.136L6.95 109.365c-2.46-.351-4.45-2.651-4.45-5.136v-71c0-2.485 2.01-4.655 4.49-4.845l251.02-19.31c2.48-.19 5.61 1.331 6.99 3.399l35 52.512c1.38 2.068 1.38 5.42 0 7.488l-35 52.512c-1.38 2.068-2.5 5.759-2.5 8.244v51c0 2.485-2.01 4.5-4.5 4.5z" fill="#fbb348"/><path d="M258 191.229H147c-3.859 0-7-3.14-7-7v-51c0-1.242-1.076-2.486-2.304-2.661L6.597 111.84c-3.7-.528-6.597-3.871-6.597-7.611v-71c0-3.823 2.986-7.046 6.799-7.338l251.02-19.31c3.389-.26 7.375 1.676 9.261 4.504l35.001 52.513c1.951 2.924 1.951 7.337-.001 10.262l-34.999 52.511c-1.108 1.661-2.08 4.865-2.08 6.857v51c-.001 3.861-3.142 7.001-7.001 7.001zm.449-179.672c-.084 0-.167.003-.248.009L7.182 30.877C5.999 30.967 5 32.044 5 33.229v71c0 1.243 1.076 2.486 2.304 2.661l131.1 18.728c3.699.528 6.597 3.871 6.597 7.611v51c0 1.103.897 2 2 2h111c1.103 0 2-.897 2-2v-51c0-2.996 1.256-7.136 2.921-9.632l34.999-52.511c.823-1.234.823-3.481.001-4.714L262.92 13.86c-.837-1.254-2.905-2.303-4.471-2.303z"/><path d="M334.8 472.229s-33.96-66.73-57.76-82.23c-26.39-17.185-32.65-65.312-.55-79.148 32.1-13.837 102.03 52.786 124.11 98.098 22.09 45.32 30.91 174.89 137.62 320.74" fill="#ff6996"/><path d="M538.222 732.189c-.771 0-1.53-.355-2.02-1.024-77.41-105.803-103.245-202.157-120.341-265.917-6.42-23.945-11.491-42.859-17.509-55.204-21.508-44.138-90.682-109.911-120.873-96.898-11.752 5.065-18.874 15.477-20.056 29.318-1.513 17.725 7.115 36.41 20.98 45.439 10.183 6.631 23.159 22.684 38.569 47.712 11.387 18.492 19.969 35.312 20.055 35.479a2.5 2.5 0 0 1-4.457 2.268c-.336-.661-33.928-66.311-56.896-81.269-15.342-9.991-24.896-30.574-23.233-50.054 1.325-15.535 9.73-27.74 23.059-33.485 8.993-3.877 29.842-5.491 68.419 27.258 24.682 20.952 47.812 49.23 58.927 72.041 6.229 12.777 11.354 31.895 17.844 56.099 17 63.4 42.689 159.211 119.547 264.259a2.5 2.5 0 0 1-2.015 3.978z"/><path d="M44.18 439.179c14.91-30.36 60.35-20.05 105.87 5.92 45.51 25.97 58.41 50.21 45.45 72.92-12.96 22.7-53.65 28.94-99.16 2.96-45.52-25.97-67.08-51.43-52.16-81.8z" fill="#ff6996"/><path d="M153.077 540.417c-13.705 0-33.67-3.391-57.977-17.267-24.431-13.938-40.644-27.024-49.565-40.005-10.101-14.696-11.278-29.438-3.6-45.068 4.401-8.961 11.482-14.994 21.046-17.931 20.281-6.228 51.644 1.863 88.308 22.781 22.606 12.901 37.934 25.876 45.556 38.567 7.613 12.678 7.892 25.383.826 37.764-6.937 12.15-21.29 19.8-39.381 20.99-1.62.107-3.359.169-5.213.169zM78.068 423.066c-5.009 0-9.564.615-13.619 1.86-8.192 2.515-14.257 7.682-18.025 15.355-13.095 26.653 2.683 50.872 51.155 78.526 35.066 20.02 80.469 24.733 95.75-2.028 6.188-10.843 5.936-21.543-.771-32.711-7.175-11.947-21.894-24.328-43.747-36.798-27.867-15.898-52.343-24.204-70.743-24.204zM44.18 439.179h.01z"/><path d="M59.75 361.796c19.4-33.217 59.09-13.872 105.25 19.565 46.16 33.438 69.12 74.198 53.38 95.548-15.73 21.35-57.38 17.52-103.54-15.91-46.16-33.44-68.46-76.303-55.09-99.203z" fill="#ff6996"/><path d="M187.485 492.664c-3.132 0-6.402-.228-9.801-.69-19.602-2.665-41.84-12.676-64.312-28.95-46.321-33.557-70.303-77.618-55.782-102.488 5.681-9.726 13.401-15.677 22.948-17.688 24.276-5.112 57.057 15.576 85.928 36.49 33.262 24.095 55.262 52.252 58.85 75.32 1.454 9.346-.203 17.332-4.924 23.737-6.888 9.346-18.376 14.269-32.907 14.269zM61.909 363.057c-13.002 22.269 10.893 64.401 54.397 95.918 25.922 18.773 51.735 28.653 71.44 28.655 12.516.001 22.563-3.983 28.62-12.203 3.901-5.292 5.25-12.021 4.009-20.002-3.337-21.454-25.117-49.057-56.843-72.039-26.347-19.085-59.477-40.384-81.963-35.646-8.22 1.732-14.652 6.742-19.66 15.317z"/><path d="M453.59 1261.549c-77.33 26.58-379.65 145.96-358.62 385.64 19.37 220.78 267.86 248.15 384.93 236.98 162.24-15.47 804.78-128.74 804.78-128.74s-106.31-301.12-228.46-312.25l-122.63-306.63s-298.66 62.66-480 125z" fill="#92acef"/><path d="M434.279 1888.75c-34.326 0-70.092-3.284-102.83-9.626-64.021-12.403-116.646-35.472-156.412-68.567-48.851-40.654-76.627-95.545-82.558-163.149-4.898-55.83 7.423-109.365 36.622-159.117 24.172-41.185 60.096-80.152 106.775-115.82 83.159-63.542 179.388-100.391 216.9-113.285 179.411-61.677 477.311-124.456 480.299-125.082a2.496 2.496 0 0 1 2.835 1.518l122.067 305.223c28.042 3.101 57.41 21.306 87.318 54.136 24.149 26.508 48.762 62.609 73.153 107.3 41.463 75.969 68.32 151.562 68.587 152.317a2.503 2.503 0 0 1-1.924 3.295c-6.426 1.133-644.494 113.464-804.976 128.767-14.69 1.4-30.123 2.09-45.856 2.09zm20.123-624.837c-37.282 12.815-132.911 49.432-215.489 112.53-46.162 35.272-81.657 73.755-105.499 114.378-28.663 48.838-40.76 101.375-35.954 156.149 5.811 66.228 32.987 119.973 80.775 159.743 39.112 32.55 90.981 55.261 154.165 67.501 47.29 9.162 100.965 11.883 147.263 7.466 154.699-14.751 754.274-119.871 801.653-128.198-5.231-14.303-30.48-81.44-67.283-148.859-24.197-44.328-48.573-80.091-72.451-106.296-29.578-32.462-58.375-50.178-85.589-52.658a2.502 2.502 0 0 1-2.095-1.561L932.05 1139.43c-26.786 5.686-306.381 65.606-477.648 124.483zm-.812-2.364h.01z"/><path d="m1622.02 1839.249-340.33-565.49s-136.19 50.23-226.64 170.69c0 0 91.66 57.96 122.6 109.37s54.82 162.58 87.46 214.65c47.46 75.73 212.99 180.73 356.91 70.78z" fill="#fff"/><path d="M1485.861 1889.306c-13.918 0-28.014-1.286-42.213-3.859-37.912-6.871-76.146-22.925-110.567-46.425-29.664-20.252-55.21-45.484-70.089-69.225-16.901-26.961-31.545-69.83-45.707-111.287-13.2-38.641-26.85-78.597-41.776-103.401-30.278-50.308-120.884-107.97-121.795-108.546a2.499 2.499 0 0 1-.663-3.614c46.962-62.543 106.37-105.842 147.938-131.152 45.04-27.424 79.493-40.256 79.836-40.383a2.497 2.497 0 0 1 3.007 1.057l340.33 565.49a2.5 2.5 0 0 1-.624 3.276c-28.161 21.514-58.717 35.994-90.818 43.036-15.296 3.354-30.961 5.033-46.859 5.033zm-427.192-445.499c6.473 4.211 25.882 17.104 47.617 34.078 35.785 27.947 60.517 53.061 73.506 74.645 15.203 25.261 28.328 63.684 42.225 104.363 14.07 41.188 28.619 83.778 45.212 110.248 14.526 23.179 39.557 47.874 68.672 67.751 33.846 23.107 71.413 38.887 108.64 45.635 29.764 5.394 59.069 5.011 87.107-1.139 30.708-6.737 59.99-20.45 87.071-40.775l-338.089-561.765c-7.808 3.076-38.528 15.758-77.151 39.286-40.682 24.782-98.615 66.958-144.81 127.673z"/><path d="M1549.84 1874.549s29.66-7.2 68.91-35.9l-338.09-561.86s-33.28 13.16-69.51 34.77zm-355.07-415.97c-18.93 11.39-43.51 5.28-54.9-13.65-11.39-18.92-5.28-43.5 13.64-54.89 18.93-11.39 43.51-5.28 54.9 13.64 11.39 18.93 5.28 43.51-13.64 54.9z" fill="#6f5490"/><path d="M1174.22 1466.823c-3.44 0-6.905-.421-10.331-1.273-11.018-2.739-20.308-9.605-26.161-19.332-5.853-9.722-7.568-21.143-4.83-32.161 2.737-11.016 9.6-20.307 19.323-26.16 20.078-12.082 46.246-5.581 58.331 14.492 12.082 20.08 5.58 46.247-14.493 58.331-6.704 4.034-14.213 6.103-21.839 6.103zm-.144-80.003c-6.58 0-13.24 1.729-19.277 5.361-8.578 5.164-14.634 13.362-17.049 23.082-2.416 9.721-.902 19.798 4.262 28.376 5.165 8.583 13.362 14.641 23.084 17.058 9.721 2.417 19.801.903 28.385-4.261 17.711-10.662 23.448-33.752 12.787-51.469-7.03-11.675-19.46-18.147-32.192-18.147zm20.694 71.759h.01zm355.952 420.021a2.497 2.497 0 0 1-2.145-1.213l-340.52-566.49a2.5 2.5 0 1 1 4.285-2.576l340.52 566.49a2.5 2.5 0 0 1-2.14 3.789z"/><path d="M1522.532 1831.59a2.499 2.499 0 0 1-1.291-4.642l68.55-41.25a2.5 2.5 0 1 1 2.578 4.284l-68.55 41.25a2.492 2.492 0 0 1-1.287.358zm-30.94-51.411a2.499 2.499 0 0 1-1.291-4.642l68.55-41.25a2.5 2.5 0 1 1 2.578 4.284l-68.55 41.25a2.485 2.485 0 0 1-1.287.358zm-20.62-34.27a2.499 2.499 0 0 1-1.291-4.642l68.54-41.25a2.5 2.5 0 1 1 2.578 4.284l-68.54 41.25a2.488 2.488 0 0 1-1.287.358zm-51.56-85.68a2.499 2.499 0 0 1-1.291-4.642l68.54-41.25a2.5 2.5 0 1 1 2.578 4.284l-68.54 41.25a2.483 2.483 0 0 1-1.287.358zm-30.94-51.41a2.499 2.499 0 0 1-1.291-4.642l68.54-41.25a2.5 2.5 0 0 1 2.578 4.284l-68.54 41.25a2.488 2.488 0 0 1-1.287.358zm-51.57-85.68a2.499 2.499 0 0 1-1.291-4.642l68.55-41.25a2.5 2.5 0 0 1 2.578 4.284l-68.55 41.25a2.483 2.483 0 0 1-1.287.358zm-30.94-51.41a2.499 2.499 0 0 1-1.291-4.642l68.55-41.25a2.5 2.5 0 1 1 2.578 4.284l-68.55 41.25a2.485 2.485 0 0 1-1.287.358zm-20.62-34.27a2.499 2.499 0 0 1-1.291-4.642l68.54-41.25a2.5 2.5 0 1 1 2.578 4.284l-68.54 41.25a2.485 2.485 0 0 1-1.287.358zm-41.25-68.54a2.499 2.499 0 0 1-1.291-4.642l68.54-41.26a2.5 2.5 0 1 1 2.578 4.284l-68.54 41.26a2.485 2.485 0 0 1-1.287.358z"/><path d="M912.53 497.25S821.3 515.9 842.5 608.73c0 0-150.66 211.499 103.44 324.929 0 0-521.34-252.299-682.17 3.28-160.84 255.58 386.12 681.76 386.12 681.76l81.03 43.56s255.24 55.01 283.82-50.92c0 0-33.85-91.76-46.45-109.26 0 0 362.11 67.88 476.96-121.2 114.84-189.07-142.15-457.1-275.01-517.69 0 0-39.16-255.669-146.59-311.269 0 0-11.89-82.6-111.12-54.67z" fill="#92acef"/><path d="M865.945 1679.037c-1.277 0-2.56-.005-3.852-.015-66.866-.507-131.06-14.182-131.7-14.32a2.483 2.483 0 0 1-.657-.242l-81.03-43.56a2.485 2.485 0 0 1-.353-.23c-1.37-1.067-138.283-108.292-253.751-245.399-67.902-80.627-115.238-155.689-140.694-223.102-31.986-84.706-29.381-157.568 7.745-216.563 37.079-58.922 96.338-95.753 176.132-109.467 63.562-10.924 140.234-7.268 227.887 10.869 90.472 18.72 174.313 49.271 226.521 70.529-47.82-31.218-78.144-69.609-90.402-114.604-13.387-49.137-2.153-97.006 9.628-128.51 11.296-30.204 25.269-51.593 28.403-56.211-6.165-27.958-2.877-52.087 9.779-71.732 20.916-32.466 59.659-41.098 62.337-41.66 33.595-9.439 61.056-7.444 81.62 5.932 24.765 16.109 31.168 43.244 32.349 49.529 24.51 13.051 47.425 37.422 68.123 72.46 16.706 28.279 32.041 63.568 45.578 104.886 21.184 64.655 31.332 124.264 32.891 133.849 48.865 22.608 109.606 69.941 162.783 126.893 62.231 66.65 107.758 139.924 128.192 206.324 21.82 70.907 16.408 133.986-16.087 187.485-26.482 43.599-68.263 77.152-124.178 99.726-44.572 17.995-98.186 29.089-159.349 32.976-89.36 5.678-169.216-5.912-190.502-9.395 14.183 25.068 42.44 101.502 43.728 104.99.179.486.203 1.016.068 1.517-6.748 25.008-26.26 43.296-57.995 54.355-24.179 8.424-55.525 12.69-93.214 12.69zm-134.158-19.15c5.132 1.075 66.566 13.66 130.412 14.136 38.844.29 70.897-3.886 95.342-12.409 29.735-10.369 48.092-27.242 54.574-50.163-3.274-8.823-34.193-91.715-45.854-107.911a2.5 2.5 0 0 1 2.49-3.918c.903.169 91.512 16.844 194.892 10.261 60.609-3.86 113.682-14.84 157.742-32.635 54.87-22.161 95.825-55.021 121.729-97.666 31.722-52.225 36.964-113.936 15.581-183.418-45.796-148.812-200.241-289.997-289.491-330.699a2.5 2.5 0 0 1-1.435-1.896c-.097-.638-10.036-64.582-32.934-134.449-13.425-40.961-28.607-75.905-45.128-103.864-20.521-34.729-43.132-58.655-67.206-71.114a2.499 2.499 0 0 1-1.325-1.864c-.044-.303-4.75-30.718-30.394-47.365-19.315-12.538-45.415-14.307-77.574-5.255a2.655 2.655 0 0 1-.176.043c-.39.08-39.211 8.377-59.252 39.525-12.042 18.716-15.018 41.914-8.843 68.949a2.503 2.503 0 0 1-.401 2.007c-.158.223-15.984 22.645-28.488 56.139-11.495 30.789-22.461 77.527-9.424 125.335 15.105 55.396 58.57 100.636 129.263 134.595 7.029 3.183 10.922 5.053 11.142 5.159a2.5 2.5 0 0 1-2.108 4.534 443.323 443.323 0 0 1-11.179-5.176c-34.646-15.685-145.726-63.348-269.166-88.878-87.022-17.998-163.053-21.636-225.982-10.813-78.317 13.467-136.424 49.533-172.708 107.193-36.248 57.599-38.704 128.971-7.301 212.133 25.256 66.882 72.306 141.455 139.842 221.647 113.321 134.558 247.341 240.238 252.835 244.547zM912.53 497.25h.01z"/><path d="M969.062 1505.829c-.86 0-1.698-.445-2.162-1.242-38.987-66.942-87.791-134.599-145.056-201.091-45.827-53.211-97.143-105.797-152.521-156.297-94.285-85.98-168.588-136.71-169.328-137.212a2.501 2.501 0 0 1 2.811-4.136c25.681 17.445 94.236 68.666 169.887 137.653 55.526 50.635 106.982 103.367 152.939 156.729 57.465 66.724 106.447 134.632 145.588 201.838a2.5 2.5 0 0 1-2.158 3.758zm149.298-478.06a2.491 2.491 0 0 1-1.716-.682c-33.537-31.657-171.946-91.292-173.341-91.891a2.5 2.5 0 0 1 1.972-4.595c5.726 2.459 140.621 60.586 174.8 92.849a2.5 2.5 0 0 1-1.715 4.319z"/><path d="M801.36 710.81s-42.83 162.199 170.92 234.859l-34-191.929s-96.37-46.78-136.92-42.93z" fill="#ff6996"/><path d="M972.28 948.169c-.27 0-.542-.044-.805-.133-49.111-16.694-88.753-39.549-117.823-67.928-23.336-22.78-39.945-49.141-49.367-78.348-16.052-49.757-5.787-89.903-5.342-91.588a2.5 2.5 0 0 1 2.181-1.851c40.766-3.87 134.287 41.247 138.248 43.17a2.5 2.5 0 0 1 1.37 1.813l34 191.929a2.5 2.5 0 0 1-2.462 2.936zM803.384 713.165c-1.749 8.185-8.122 44.552 5.739 87.306 9.201 28.382 25.402 54.015 48.151 76.186 27.729 27.024 65.325 48.968 111.803 65.262L936.043 755.44c-10.8-5.139-94.708-44.391-132.659-42.275z"/><path d="M536.23 823.869s51.13 176.12 88.44 229.57c0 0 265.89 17.82 346.89-109.89 0 0-233.39-112.33-435.33-119.68z" fill="#ff6996"/><path d="M657.737 1056.762c-20.343 0-32.947-.809-33.234-.829a2.502 2.502 0 0 1-1.883-1.063c-37.119-53.177-86.699-223.096-88.791-230.304-.225-.771-.064-1.602.429-2.234s1.253-.991 2.062-.961c57.749 2.102 155.653 14.692 294.121 62.733 82.769 28.716 141.617 56.911 142.202 57.193a2.497 2.497 0 0 1 1.027 3.591c-18.743 29.551-48.842 53.772-89.462 71.99-32.339 14.504-71.399 25.264-116.098 31.979-43.223 6.495-83.532 7.905-110.373 7.905zm-31.702-5.747c9.317.517 71.521 3.397 141.423-7.116 44.229-6.652 82.837-17.285 114.747-31.603 38.586-17.313 67.403-40.084 85.701-67.708-12.167-5.696-66.379-30.533-139.166-55.783-75.243-26.102-186.116-57.937-289.129-62.301 7.224 24.368 52.66 174.988 86.424 224.511z"/><g fill="#ff6996"><path d="M903.738 746.959a2.5 2.5 0 0 1-2.116-3.828l121.56-193.99a2.5 2.5 0 1 1 4.236 2.655l-121.56 193.99a2.495 2.495 0 0 1-2.12 1.173zm393.54 280.701c-.41 0-.825-.101-1.209-.313-39.229-21.717-71.766-65.022-92.152-97.527-18.343-29.247-30.424-55.255-34.023-63.306-21.779 23.043-61.254 53.029-126.929 67.678-39.887 8.897-71.054 7.877-71.367 7.866-1.379-.05-2.456-1.21-2.406-2.589s1.163-2.455 2.589-2.408c.309.011 30.946 1.002 70.233-7.78 35.943-8.034 86.668-26.126 124.711-66.696.707-12.047 8.007-121.735 40.248-143.118 6.12-4.059 12.788-4.833 19.814-2.299 7.025 2.535 11.546 7.306 13.435 14.182 7.853 28.577-33.6 88.391-55.187 116.958 28.338-20.983 87.413-60.619 118.401-51.708 8.541 2.456 14.442 8.339 17.542 17.487 3.082 9.103 1.97 17.241-3.306 24.188-23.041 30.343-121.068 28.235-142.676 27.385 9.277 20.441 57.376 120.71 123.494 157.312a2.5 2.5 0 0 1-1.212 4.688zm-120.261-166.948c24.115.77 115.952 1.831 136.675-25.462 4.27-5.622 5.104-12.02 2.551-19.56-2.577-7.609-7.218-12.282-14.187-14.286-33.323-9.583-105.994 44.503-125.039 59.308zm41.861-140c-3.176 0-6.201.971-9.142 2.921-26.859 17.812-35.603 107.26-37.588 133.124 14.504-18.342 71.711-93.304 63.252-124.084-1.454-5.291-4.826-8.824-10.31-10.802-2.141-.772-4.206-1.159-6.212-1.159z"/><path d="M1283.278 1152.74c-.418 0-.841-.105-1.229-.325-33.715-19.091-62.807-73.086-86.467-160.486-17.534-64.769-25.395-124.791-25.472-125.389a2.5 2.5 0 0 1 4.959-.641c.077.596 7.901 60.328 25.353 124.775 16.017 59.148 43.606 134.466 84.09 157.39a2.5 2.5 0 0 1-1.234 4.676z"/></g><path d="M382.5 1888.729h660s27.19-142.6-29.39-282.2c0 0-96.92 48.64-156.92 48.64s-167.57-36.87-229.01-35.75c-89.36 1.63-264.68 89.31-244.68 269.31z" fill="#fff"/><path d="M1042.5 1891.229h-660a2.5 2.5 0 0 1-2.484-2.224c-3.913-35.216-.565-68.857 9.949-99.988 9.396-27.818 24.505-53.696 44.907-76.913 25.436-28.945 58.907-53.432 96.797-70.812 32.65-14.977 67.446-23.86 95.465-24.372 31.812-.582 76.098 8.979 118.924 18.224 39.913 8.616 81.185 17.525 110.132 17.525 58.729 0 154.836-47.891 155.8-48.374a2.5 2.5 0 0 1 3.439 1.296c29.376 72.481 35.843 145.709 36.095 194.376.273 52.733-6.498 88.872-6.566 89.231a2.505 2.505 0 0 1-2.458 2.031zm-657.753-5H1040.4c1.391-8.276 6.365-41.14 6.121-86.365-.257-47.637-6.522-119.021-34.728-189.903-6.945 3.374-27.999 13.355-53.749 23.223-42.396 16.247-76.665 24.485-101.855 24.485-29.481 0-69.169-8.568-111.187-17.638-42.547-9.184-86.555-18.681-117.777-18.112-27.355.499-61.425 9.216-93.472 23.917-37.257 17.09-70.15 41.146-95.126 69.568-19.964 22.719-34.743 48.024-43.926 75.213-10.057 29.779-13.403 61.936-9.954 95.612z"/><path d="M389.47 1808.679s-9.13 29.13-4.77 77.56l655.73.03s5.89-35.29 6.05-77.47zm539.49-89.73c0-22.1 17.91-40 40-40 22.1 0 40 17.9 40 40 0 22.09-17.9 40-40 40-22.09 0-40-17.91-40-40z" fill="#6f5490"/><path d="M968.96 1761.449c-23.435 0-42.5-19.065-42.5-42.5s19.065-42.5 42.5-42.5 42.5 19.065 42.5 42.5-19.065 42.5-42.5 42.5zm0-80c-20.678 0-37.5 16.822-37.5 37.5s16.822 37.5 37.5 37.5 37.5-16.822 37.5-37.5-16.822-37.5-37.5-37.5zm79.68 130.04c-.001 0-.001 0 0 0l-660.961-.35a2.5 2.5 0 0 1 .001-5h.001l660.96.35a2.5 2.5 0 0 1-.001 5z"/><path d="M442.5 1891.229a2.5 2.5 0 0 1-2.5-2.5v-80a2.5 2.5 0 1 1 5 0v80a2.5 2.5 0 0 1-2.5 2.5zm60 0a2.5 2.5 0 0 1-2.5-2.5v-80a2.5 2.5 0 1 1 5 0v80a2.5 2.5 0 0 1-2.5 2.5zm40 0a2.5 2.5 0 0 1-2.5-2.5v-80a2.5 2.5 0 1 1 5 0v80a2.5 2.5 0 0 1-2.5 2.5zm100 0a2.5 2.5 0 0 1-2.5-2.5v-80a2.5 2.5 0 1 1 5 0v80a2.5 2.5 0 0 1-2.5 2.5zm60 0a2.5 2.5 0 0 1-2.5-2.5v-80a2.5 2.5 0 1 1 5 0v80a2.5 2.5 0 0 1-2.5 2.5zm100 0a2.5 2.5 0 0 1-2.5-2.5v-80a2.5 2.5 0 1 1 5 0v80a2.5 2.5 0 0 1-2.5 2.5zm60 0a2.5 2.5 0 0 1-2.5-2.5v-80a2.5 2.5 0 1 1 5 0v80a2.5 2.5 0 0 1-2.5 2.5zm40 0a2.5 2.5 0 0 1-2.5-2.5v-80a2.5 2.5 0 1 1 5 0v80a2.5 2.5 0 0 1-2.5 2.5zm80 0a2.5 2.5 0 0 1-2.5-2.5v-80a2.5 2.5 0 1 1 5 0v80a2.5 2.5 0 0 1-2.5 2.5z"/><path d="m223.93 1362.309-104.2 101.78 288.79 171.57 68.84-127.56z" fill="#e79f33"/><path d="M408.52 1638.159c-.445 0-.887-.119-1.277-.351l-288.79-171.57a2.503 2.503 0 0 1-.47-3.938l104.2-101.78a2.5 2.5 0 0 1 2.994-.379l253.431 145.79a2.5 2.5 0 0 1 .953 3.354l-68.841 127.56a2.497 2.497 0 0 1-2.2 1.314zm-284.714-174.556 283.751 168.577 66.448-123.126-249.682-143.633z"/><path d="m119.55 1463.989-13.18 54.55 261.93 158.53 40.26-41.53z" fill="#fbb348"/><path d="M368.299 1679.569c-.444 0-.892-.118-1.294-.361l-261.93-158.53a2.5 2.5 0 0 1-1.135-2.726l13.18-54.55a2.5 2.5 0 0 1 3.706-1.562l289.01 171.55a2.501 2.501 0 0 1 .518 3.89l-40.26 41.53a2.497 2.497 0 0 1-1.795.759zM109.23 1517.348 367.891 1673.9l36.67-37.827-283.376-168.206z"/><path d="M971.48 653.859S835.73 977.189 771 1061.699s-121.65 112.35-121.65 112.35 138.84 120.12 175.7 176.76c0 0 109.57-13.68 175.2-154.83s95.3-369.51 95.3-369.51" fill="#92acef"/><path d="M825.049 1353.309c-.838 0-1.63-.422-2.095-1.136-36.248-55.7-173.854-175.034-175.24-176.233a2.498 2.498 0 0 1 .536-4.136c.564-.277 57.207-28.646 120.766-111.625 33.295-43.47 85.93-151.855 124.221-235.123 41.531-90.314 75.599-171.356 75.938-172.165a2.5 2.5 0 1 1 4.609 1.936c-.339.809-34.435 81.917-76 172.305-55.854 121.461-97.842 200.892-124.8 236.087-33.597 43.863-65.061 72.235-85.54 88.312-16.311 12.805-28.256 19.981-33.715 23.018 19.554 17.093 137.603 121.212 172.521 173.54 6.186-1.071 30.63-6.183 60.754-24.057 32.098-19.046 77.407-56.905 110.979-129.107 64.719-139.19 94.791-366.498 95.087-368.778a2.5 2.5 0 0 1 4.959.644c-.298 2.287-30.473 230.361-95.513 370.242-18.861 40.566-53.812 96.299-113.205 131.444-35.634 21.086-62.812 24.671-63.952 24.813a2.48 2.48 0 0 1-.31.019z"/><path d="M697.87 1121.809s128.08 63.69 150.81 232.15l-209.42 103.1s-40.95 33.2-100.32 58.42c-57.36 24.36-101.72 15.34-142.51 40.6s-68.19 137.44-123.88 107.93c-16.27-8.62-20.12-19.72-20.12-19.72s-42.93 4.84-49.47-38.58c0 0-54.28-12.07-39.37-83.89 15.23-73.39 69.4-135.19 104.6-157.8 35.19-22.6 254.76-92.35 254.76-92.35s102.59-102.14 174.92-149.86z" fill="#ff6996"/><path d="M290.657 1671.43c-6.318 0-12.725-1.74-19.278-5.212-13.215-7.002-18.677-15.624-20.521-19.313-3.682.168-12.337.096-21.568-3.275-10.915-3.986-24.591-13.456-28.538-35.928-4.116-1.227-15.066-5.227-24.857-15.26-11.104-11.378-22.678-32.955-14.753-71.132 8.742-42.122 29.424-77.031 45.234-98.899 18.307-25.321 40.91-47.937 60.463-60.496 34.511-22.164 239.74-87.662 254.779-92.447 7.36-7.286 105.542-104.004 174.875-149.747a2.501 2.501 0 0 1 2.49-.152c.324.161 32.821 16.548 67.587 53.426a315.33 315.33 0 0 1 51.181 72.479c16.944 33.055 28.184 69.442 33.406 108.149a2.499 2.499 0 0 1-1.373 2.577l-209.176 102.98c-3.383 2.692-43.935 34.489-100.69 58.599-27.354 11.617-52.193 15.787-74.108 19.467-25.192 4.23-46.95 7.883-68.063 20.958-14.475 8.964-27.239 29.298-40.752 50.826-11.57 18.433-23.535 37.493-37.082 49.532-9.667 8.589-19.351 12.867-29.256 12.868zm-38.229-29.641c1.055 0 2.012.666 2.364 1.68.032.09 3.85 10.341 18.929 18.33 14.966 7.931 28.589 5.714 42.87-6.975 13.014-11.564 24.784-30.317 36.168-48.452 13.831-22.033 26.895-42.844 42.354-52.419 21.949-13.592 45.226-17.5 69.868-21.638 22.699-3.811 46.172-7.752 72.981-19.138 58.331-24.779 99.315-57.731 99.723-58.061.145-.117.303-.218.47-.301l207.802-102.303c-5.241-37.427-16.202-72.622-32.59-104.629a310.293 310.293 0 0 0-50.286-71.299c-30.326-32.215-58.818-48.507-65.063-51.874-71.229 47.38-172.285 147.716-173.304 148.73a2.5 2.5 0 0 1-1.007.611c-2.192.697-219.654 69.907-254.166 92.071-31.711 20.369-87.853 80.788-103.503 156.204-5.98 28.806-1.517 51.163 13.267 66.45 11.04 11.416 24.071 14.463 24.202 14.492a2.506 2.506 0 0 1 1.925 2.067c6.096 40.471 45.066 36.651 46.721 36.468a2.83 2.83 0 0 1 .275-.014zm270.522-370.12h.01z"/><path d="M253.009 1648.068a2.495 2.495 0 0 1-2.241-1.393c-.659-1.337-15.844-33.24 10.516-76.614 26.951-44.357 99.911-100.413 121.312-109.483a2.5 2.5 0 0 1 1.951 4.603c-20.383 8.639-93.01 64.718-118.989 107.476-7.177 11.808-15.532 30.314-14.589 51.421.564 12.626 4.249 20.314 4.286 20.39a2.502 2.502 0 0 1-2.246 3.6zm-50.11-40.99a2.5 2.5 0 0 1-2.498-2.427c-.021-.738-.432-18.381 7.353-44.955 7.158-24.439 22.939-61.299 57.463-98.108 38.418-40.963 81.946-59.619 82.382-59.803a2.501 2.501 0 0 1 1.944 4.607c-.426.18-43.02 18.463-80.68 58.617-33.771 36.007-49.227 72.008-56.245 95.868-7.61 25.871-7.224 43.456-7.219 43.631a2.5 2.5 0 0 1-2.429 2.569l-.071.001z"/><path d="m854.89 477.95 23.83 79.44s73.36 16.82 93.45-34.58l-26.63-90.65" fill="#ffaac3"/><path d="M905.229 562.528c-15.068 0-26.467-2.563-27.068-2.701a2.5 2.5 0 0 1-1.836-1.718l-23.83-79.44a2.5 2.5 0 0 1 4.789-1.437l23.401 78.009c4.64.895 20.116 3.461 37.084 1.635 26.257-2.827 43.665-14.328 51.758-34.19l-26.386-89.821a2.499 2.499 0 1 1 4.797-1.409l26.63 90.65a2.498 2.498 0 0 1-.07 1.615c-8.576 21.942-28.052 35.131-56.322 38.141-4.49.477-8.855.666-12.947.666z"/><path d="M802.85 252.179s-51.62 35.182-48.18 104.398c0 0-32.77-20.78-41.73-3.85-13.1 24.744 42.88 47.442 42.88 47.442s4.59 97.32 99.8 95.99c75.61-1.06 89.87-61.95 89.87-61.95s77.21 36.85 108.79-27.64c37.07-75.726-79.73-114.619-115.29-53.816 0 0-80.6-9.816-136.14-100.574z" fill="#ffaac3"/><path d="M853.72 498.672c-49.151.003-73.826-26.457-85.903-48.822-11.41-21.13-13.893-42.093-14.383-47.974-7.1-3.061-37.279-16.964-43.734-34.683-1.96-5.381-1.613-10.642 1.03-15.637 1.989-3.757 5.102-6.22 9.251-7.321 10.435-2.77 25.062 4.102 32.044 7.914-.535-34.176 12.287-59.623 23.411-75.182 12.589-17.607 25.464-26.485 26.006-26.855a2.502 2.502 0 0 1 3.541.761c28.385 46.385 63.468 70.955 87.899 83.398 22.128 11.27 39.636 14.871 44.833 15.755 20.512-32.995 64.896-36.336 94.85-20.273 13.706 7.35 23.465 17.957 28.22 30.674 5.345 14.295 3.872 30.63-4.259 47.239-13.386 27.336-37.088 40.961-68.606 39.401-18.678-.925-34.659-6.845-40.82-9.422-1.69 5.253-6.25 16.92-16.283 28.755-12.211 14.405-35.163 31.695-75.16 32.256-.648.012-1.3.016-1.937.016zm-128.312-150.1c-1.46 0-2.854.153-4.149.497-2.783.74-4.782 2.319-6.109 4.827-1.981 3.743-2.228 7.532-.753 11.583 6.41 17.606 42.005 32.227 42.363 32.373a2.504 2.504 0 0 1 1.558 2.198c.012.239 1.299 24.183 13.979 47.574 16.851 31.083 44.86 46.57 83.288 46.036 30.506-.428 54.483-10.626 71.267-30.313 12.554-14.726 16.17-29.562 16.205-29.71a2.504 2.504 0 0 1 3.51-1.684c.189.09 19.235 9.049 41.74 10.13 29.688 1.428 51.132-10.892 63.729-36.613 11.172-22.822 11.303-53.54-21.834-71.308-28.352-15.203-70.462-11.936-89.053 19.854a2.506 2.506 0 0 1-2.46 1.22c-.841-.102-20.901-2.667-48.075-16.507-24.593-12.525-59.718-37.037-88.452-82.913-4.109 3.221-13.614 11.369-22.774 24.224-11.096 15.57-23.957 41.467-22.22 76.414a2.5 2.5 0 0 1-3.835 2.235c-.181-.114-16.131-10.117-27.925-10.117z"/><path d="M960.218 411.679a2.499 2.499 0 0 1-2.264-3.556c.806-1.726 20.34-42.414 73.562-54.522a2.5 2.5 0 1 1 1.109 4.875c-50.749 11.545-69.953 51.362-70.141 51.763a2.501 2.501 0 0 1-2.266 1.44z"/><path d="M997.142 403.439a2.496 2.496 0 0 1-1.949-.932c-7.526-9.346-19.848-11.807-19.971-11.831a2.502 2.502 0 0 1-1.986-2.924 2.504 2.504 0 0 1 2.918-1.989c.577.109 14.227 2.794 22.934 13.608a2.5 2.5 0 0 1-1.946 4.068zm-222.135 55.24a2.5 2.5 0 0 1-.17-4.994c1.041-.075 25.153-2.102 36.056-27.473a2.5 2.5 0 0 1 4.594 1.974c-12.144 28.259-39.163 30.41-40.308 30.487a2.47 2.47 0 0 1-.172.006zm9.433-114.709c0-2.916 2.36-5.279 5.28-5.279s5.28 2.363 5.28 5.279c0 2.915-2.36 5.279-5.28 5.279s-5.28-2.364-5.28-5.279z"/><path d="M834.54 417.43c0-19.91 16.14-36.057 36.05-36.057s36.05 16.147 36.05 36.057-16.14 36.05-36.05 36.05-36.05-16.14-36.05-36.05z" fill="#ff6996"/></svg></g></svg>