<svg xmlns="http://www.w3.org/2000/svg" viewBox="0 0 1200 800" width="1200" height="800"><path fill="#FFF" d="M0 0h1200v800H0z"/><g transform="translate(-2.0 -104.0) rotate(0.0 601.0 452.0) scale(1.5006242197253432 1.5041597337770383)"><svg width="801" height="601" viewBox="0 0 801 601"><path d="M0 454h800v146H0z" fill="#eee"/><g fill="#fff"><path d="M63.811 454h2v146h-2zm97.495 0h2v146h-2zm97.495 0h2v146h-2zm97.496 0h2v146h-2zm97.495 0h2v146h-2zm97.495 0h2v146h-2zm97.495 0h2v146h-2zm97.495 0h2v146h-2z"/><path d="M401.044 501.331H801v2H401.044zm-70.746 80.996h277.486v2H330.298zM0 543.329h277.486v2H0z"/></g></svg></g><g transform="translate(520.0 650.0) rotate(328.16328389091876 15.0 48.0) scale(0.8278831029058696 0.8378718056137412)"><svg width="36.237" height="114.576" viewBox="0 0 36.237 114.576"><linearGradient id="a" gradientUnits="userSpaceOnUse" x1="8.456" x2="27.781" y1="85.218" y2="85.218"><stop offset="0" stop-color="#23286b"/><stop offset="1" stop-color="#151a4f"/></linearGradient><path d="M.015 18.121 0 .04 11.499.027l.009 11.527 6.616 3.888 6.609-3.903L24.724.013 36.223 0l.014 18.082-18.102 10.69z" fill="#d6d7d8"/><path d="m23.588 17.803.035 44.192-11.498.013-.035-44.193z" fill="#d6d7d8"/><path d="M8.456 55.859h19.325v58.717H8.456z" fill="url(#a)"/></svg></g><g transform="translate(552.0 492.0) rotate(50.29618337693256 74.5 28.5) scale(1.1610419767324072 1.1554132122514342)"><svg width="128.333" height="49.333" viewBox="0 0 128.333 49.333"><linearGradient id="b" gradientUnits="userSpaceOnUse" x1="125.248" x2="99.914" y1="36.586" y2="35.919"><stop offset="0" stop-color="#428dfc"/><stop offset="1" stop-color="#1d72d8"/></linearGradient><path d="M79 23.333V15c0-8.284-6.716-15-15-15H8a8 8 0 0 0-8 8v10a8 8 0 0 0 8 8h45v8.333c0 8.284 6.716 15 15 15h53.333v-26z" fill="#a1c3fc"/><path d="M111 49.333h9.333a8 8 0 0 0 8-8v-10a8 8 0 0 0-8-8H111a8 8 0 0 0-8 8v10a8 8 0 0 0 8 8z" fill="url(#b)"/></svg></g><g transform="translate(548.0 188.0) rotate(0.0 194.0 282.5) scale(0.8011000673089231 0.8001178226599033)"><svg width="484.334" height="706.146" viewBox="0 0 484.334 706.146"><linearGradient id="c"><stop offset="0" stop-color="#ffbeb6"/><stop offset="1" stop-color="#f2a19c"/></linearGradient><linearGradient xmlns:xlink="http://www.w3.org/1999/xlink" id="d" gradientUnits="userSpaceOnUse" x1="137.481" x2="108.31" xlink:href="#c" y1="108.038" y2="70.664"/><linearGradient xmlns:xlink="http://www.w3.org/1999/xlink" id="e" gradientUnits="userSpaceOnUse" x1="137.941" x2="108.77" xlink:href="#c" y1="107.68" y2="70.305"/><linearGradient xmlns:xlink="http://www.w3.org/1999/xlink" id="f" gradientUnits="userSpaceOnUse" x1="160.166" x2="130.995" xlink:href="#c" y1="90.333" y2="52.959"/><linearGradient id="g" gradientUnits="userSpaceOnUse" x1="183.19" x2="337.319" y1="680.224" y2="680.224"><stop offset="0" stop-color="#e94a47"/><stop offset="1" stop-color="#d62929"/></linearGradient><linearGradient xmlns:xlink="http://www.w3.org/1999/xlink" id="h" gradientUnits="userSpaceOnUse" x1="46.286" x2="122.475" xlink:href="#c" y1="356.944" y2="356.944"/><linearGradient xmlns:xlink="http://www.w3.org/1999/xlink" id="i" gradientUnits="userSpaceOnUse" x1="51.684" x2="20.581" xlink:href="#c" y1="278.093" y2="265.05"/><linearGradient id="j" gradientUnits="userSpaceOnUse" x1="433.454" x2="224.964" y1="280.144" y2="502.133"><stop offset="0" stop-color="#23286b"/><stop offset="1" stop-color="#151a4f"/></linearGradient><path d="m160.405 96.09 27.34-36.6 40.667 30.378-27.34 36.6z" fill="#f2a19c"/><path d="M102.385 62.405c-.698.297-.905 1.122 0 0z" fill="url(#d)"/><path d="M102.385 62.405c.088-.038.183-.065.285-.081-.02-.067-.045-.134-.065-.201-.082.109-.152.197-.22.282z" fill="url(#e)"/><path d="M155.739 32.85c-8.87-.847-19.161 1.275-27.109 5.121-12.824 6.205-23.718 23.68-25.102 24.563-.314-.205-.604-.246-.857-.209 3.895 12.758 10.051 25.329 14.062 38.811 2.359 7.929.44 12.099 8.7 10.047.864-.215 2.049-1.01 3.374-2.083 5.98 5.134 12.646 8.557 18.541 8.872 21.526 1.148 40.538-26.263 41.387-46.853.881-21.39-9.701-36.044-32.996-38.269z" fill="url(#f)"/><path d="M157.499 91.031c-2.733 11.603-15.027 17.262-23.324 22.044 6.024 9.541 8.574 26.567 21.193 25.378 11.296-1.065 18.661-6.525 23.984-16.648 8.895-16.916 1.117-29.601-6.191-41.236-8.633-13.745-15.615-23.884-24.543-34.192-1.283.452-5.115 2.928-6.119 3.949 2.876 6.374 5.655 9.554 9.614 19.08 4.605 11.083 7.114 14.288 5.386 21.625z" fill="#23286b"/><path d="M174.341 10.412c6.836 11.437 16.617 17.097 19.756 31.446 1.831 8.368 4.882 29.789-5.715 33.235-5.77-10.15-4.436-7.483-9.77-16.15-7.271-11.815-20.667 1.333-13.333 12-5.059-5.252-20.823-15.095-26.781-20.41-10.043-8.96-15.76-12.925-5.362-24.122 5.515-5.939 13.87-13.197 21.687-16.296 8.404-3.332 12.67.951 19.518.297z" fill="#23286b"/><path d="M74.946 228.944c3.658-4.287 42.008-13.569 51-17.222 7.871-3.198 16.879-3.651 24.032-7.751 9.905-5.678 11.211-18.163 16.217-28.274 12.023-24.285 27.082-47.639 42.728-69.534 14.132-19.775 34.837-33.156 58.023-19.215 47.478 28.544-21.054 101.739-38.971 130.02-10.13 15.988-19.7 28.812-37.029 38.954-12 7.023-69.84 23.65-78 27.772-9.927 5.015-16.739 4.538-22.774-6.749-3.859-7.218-19.588-42.888-15.226-48.001z" fill="#89b3f4"/><path d="M10.346 257.915c-2.734 1.684-4.605 4.441-5.275 7.58-3.711 17.397-10.957 34.888 3.874 46.448 12.723 9.916 42.169-13.557 52-23 8-10-32.365-3.599-24-13 5.02-5.642 32.122 2.755 39 0-3.899-2.636-8.299-40.938-12-39-3.606 1.888-4.566-.428-9 3 .564-1.395-29.313 8.558-44.599 17.972z" fill="#f2a19c"/><path d="M482.02 656.397c1.382 15.865 4.909 47.849-.979 49.322-13.232.476-125.485.476-149.966.372-1.715-3.7-.67-6.922 1.2-10.547 5.077-9.841 18.293-17.941 28.787-21.476s16.896-4.127 27.234-8.097c11.807-4.534 19.313-9.329 31.827-11.167 5.061-.743 17.102-.506 22.212-.266l39.685 1.859z" fill="#d62929"/><path d="M189.354 103.33c27.062-36.283 71.812-27.943 106.267-6.261 19.468 12.251 34.807 30.398 52.08 45.053 16.838 14.286 37.406 28.068 48.52 47.957 2.926 5.237 13.86 26.071 13.335 31.39-1.081 10.949-23.03 19.563-31.524 24.182-24.145 13.131-44.527 27.655-71.323 33.999-12.561-12.804-30.556-21.797-44.704-33.241-17.232-13.938-32.488-30.518-47.737-46.596-13.786-14.535-24.131-28.224-28.224-48.715-2.984-14.939-6.031-35.245 3.31-47.768z" fill="#a1c3fc"/><path d="M411.376 304.128c-1.276 1.51 13.404-2.749 13.406-.771.05 61.134-13.623 121.917 16.173 176.539 10.769 19.741 19.352 36.709 20.572 59.591.713 13.373-2.245 22.754 2.956 35.514 4.618 11.329 10.456 22.035 14.39 33.64 5.581 16.463 5.061 36.625 4.177 54.054-28.345 1.715-60.685 1.984-88.564 1.081-11.659-40.205-12.354-83.106-28.141-122.334-7.895-19.618-17.601-38.762-25.454-58.561-4.105-10.351-11.046-20.352-14.664-30.391-3.654-10.141-.121-24.31.783-34.912 2.032-23.82 1.169-47.609.056-71.593-.593-12.787-4.595-27.609.22-39.475 7.953 2.071 18.041-1.531 26.165-2.298 11.075-1.045 19.458 1.517 30.212 3.033 10.17 1.434 18.068-4.083 27.736-3.145l-.023.028z" fill="#151a4f"/><path d="M335.005 656.397c1.382 15.865 4.909 47.849-.979 49.322-13.232.476-125.485.476-149.966.372-1.715-3.7-.67-6.922 1.2-10.547 5.077-9.841 18.293-17.941 28.787-21.476s16.896-4.127 27.234-8.097c11.807-4.534 19.313-9.329 31.827-11.167 5.061-.743 17.102-.506 22.212-.266l39.685 1.859z" fill="url(#g)"/><path d="M172.27 157.277c-4.077 18.389-6.904 51.904-9.779 70.442-2.814 18.143-14.016 33.33-24.399 48.798-10.431 15.539-13.832 21.588-23.245 37.855-3.621 3.26-6.067 7.717-5.925 9.183 1.948 20.036 22.981 33.372 38.93 40.799 12.207 5.685 56.195-43.76 60.998-53.678 4.862-10.041 14.035-20.771 19.519-30.499 4.655-8.256 12.701-57.897 14.089-67.271 1.597-10.785 5.173-20.873 7.588-31.502 5.361-23.591 9.79-50.965-5.391-82.411-5.399-11.184-24.495-16.238-35.784-13.012-30.361 8.674-31.727 49.314-36.601 71.296z" fill="#a1c3fc"/><path d="M99.541 332.649c.073.126-.038.262-.289.404-5.183-.075-12.57-2.438-19.389-5.929-4.71-2.412-7.528-2.585-17.889-3.174-6.753-.384-17.668-3.317-12.028 6.837 3.797 6.836 16.972 7.693 23.584 7.464a23.097 23.097 0 0 1 2.647 2.539c-7.184 3.432-15.444 6.97-20.329 11.475-7.42 6.845-10.322 6.543-9.397 12.193.521 3.184.529 7.045 10.835 7.055.544.687 9.571 10.528 10.226 10.938 2.113 1.326 8.25 8.226 12.427 8.173 8.748-.111 35.393-18.036 42.535-22.699-11.387-13.565-2.795-34.246-22.933-35.276z" fill="url(#h)"/><path d="M26.894 282.166c-.113 10.97-3.015 31.957 8.004 30.698 8.048-.92 6.35-21.015 8.052-31.972 1.642-10.573 18.729-2.383 28.054-7.697-2.848-4.679-8.223-32.958-13.034-35.252-3.865 3.197-22.411 13.646-25.024 18-6 10.001-5.913 12.754-6.052 26.223z" fill="url(#i)"/><path d="M240.237 226.74c-.69 4.104-1.492 8.743-2.361 13.537h16.885c-4.97-4.351-9.803-8.881-14.524-13.537zm-12.196 54c-.167.29-.335.58-.508.871h.508z" fill="none"/><g fill="#a1c3fc"><path d="M349.47 157.611h17.182c-5.776-4.79-11.645-9.388-17.182-14.01zm-160.572-57.092c-3.297 4.685-5.79 10.077-7.746 15.758h7.746zm43.143 168.207c1.695-6.882 3.484-15.751 5.101-24.449h-5.101z"/></g><path d="M232.041 202.944h12.934l.769-4h-13.703v-37.333h35.143v37.333h-19.889a495.74 495.74 0 0 0 2.51 4h17.38v25.502a143.518 143.518 0 0 0 4 5.069v-30.57h35.143v37.333H277.21a252.05 252.05 0 0 0 3.713 4h25.405v11.895a42.498 42.498 0 0 0 4-1.863v-10.032h18.086a169.98 169.98 0 0 0 6.689-4h-24.775v-37.333h35.143v30.469a379.799 379.799 0 0 0 4-2.805v-27.664h35.143v.6a954.58 954.58 0 0 0 5.581-4.6h-1.581v-19.989a101.813 101.813 0 0 0-4-4.635v24.624H349.47v-37.333h21.911a303.726 303.726 0 0 0-4.729-4H349.47v-14.01c-.591-.493-1.187-.985-1.769-1.479-.749-.635-1.489-1.285-2.231-1.932v17.422h-35.143v-37.334h13.834a461.156 461.156 0 0 0-4.28-4h-9.553v-8.402c-1.32-1.097-2.65-2.18-4-3.235v11.637h-35.143V84.844a115.22 115.22 0 0 0-4-1.409v32.842h-35.143v-37.5c-1.342.13-2.674.315-4 .527v36.973h-35.143V95.638a41.799 41.799 0 0 0-4 4.881v15.758h-7.746a99.578 99.578 0 0 0-1.28 4h9.026v37.334H172.2a146.65 146.65 0 0 0-.813 4h17.511v37.333h-33.21c-1.538 1.969-3.38 3.691-5.71 5.027-.073.042-.149.078-.222.119v36.188h-35.143v-24.901c-1.283.378-2.623.769-4 1.17v23.731H75.606a98.355 98.355 0 0 0 1.162 4h33.844v40.512a43.94 43.94 0 0 0 2.333-1.096 24.27 24.27 0 0 1 1.667-.742v-38.674h35.143v37.334h-15.022a298.987 298.987 0 0 0-2.544 4h17.566v37.333h-34.236c.219 1.35.494 2.684.824 4h33.412v37.854c1.171.059 2.516-.19 4-.704v-37.151h35.143v8.463a291.861 291.861 0 0 0 4-4.346v-4.117h3.638a242.269 242.269 0 0 0 3.394-4h-7.032v-37.333h32.135a106.82 106.82 0 0 0 2.5-4h-34.635v-37.334h35.143v36.463c.108-.187.223-.376.328-.563 1.083-1.92 2.349-6.08 3.672-11.451v-24.449h5.101c.249-1.34.494-2.676.734-4h-5.835zm78.286-41.333h35.143v37.333h-35.143zm-39.143-41.334h35.143v37.334h-35.143zm0 41.334h35.143v37.333h-35.143zm-39.143-41.334h35.143v37.334h-35.143zm-43.143 202.667h-35.143v-37.333h35.143zm0-41.333h-35.143v-37.334h35.143zm0-41.334h-35.143v-37.333h35.143zm39.143 0h-35.143v-37.333h35.143zm0-41.333h-35.143v-37.333h35.143zm0-41.333h-35.143v-37.334h35.143z" fill="#fff" opacity=".3"/><path d="M400.265 190.435s-50.333 43.632-77.536 56.845c-7.266 3.53-17.504 11.859-24.94 10.08-7.313-1.75-18.837-15.242-23.881-20.711-10.8-11.711-27.796-39.623-27.796-39.623l-5.78 30.068s37.129 42.704 57.395 65.006c.851 1.701 8.293-4.891 3.535 12.052-.937 3.335 2.882 7.937 3.029 11.716.213 5.486-2.344 10.898-3.516 16.231-4.436 20.189-4.178 40.02-6.24 60.699-2.306 23.12-8.457 47.068-14.915 69.777-7.197 25.311-6.407 51.831-9.995 77.838-5.971 43.281-15.324 86.19-30.012 126.671 19.253-.18 78.02-.071 87.571-.18 13.473-.153 8.761-.339 13.71-12.69 7.858-19.61 17.341-37.532 16.509-58.586-.828-20.947-1.51-41.469 4.604-61.864 6.813-22.727 21.257-41.563 24.755-65.276 2.969-20.13 1.064-40.06 1.028-60.402-.037-21.079 9.244-41.002 16.265-60.776 6.827-19.226 16.793-35.103 28.046-52.493 13.42-20.739 9.693-37.179 2.52-56.056-12.001-31.584-34.356-48.326-34.356-48.326z" fill="url(#j)"/><path d="M402.422 202.127c-13.387-13.645-77.353-66.372-93.137-77.701-12.726-9.136-42.902-27.399-57.906-31.84-42.114-12.464-44.92-3.907-52.133-2.261 12.392-12.198 39.383-8.337 53.917-4.508 16.954 4.469 48.442 24.479 60.204 32.922 15.9 11.413 80.471 64.644 94.052 78.486z" fill="#23286b"/><path d="M362.952 235.062c-15.512-40.82-31.205-70.991-45.05-97.61-6.911-13.287-13.34-25.604-19.406-38.551 4.898 3.564 9.474 6.78 12.256 9.246 0 0 8.722 17.159 13.36 26.075 13.934 26.788 29.727 57.151 45.384 98.354z" fill="#23286b"/><path d="m112.476 317.958 30.185 43.576-20.064 13.898-30.185-43.575zM77.98 228.665l14.424 51.014-23.683 6.697-14.425-51.014z" fill="#89b3f4"/><path d="M101.398 11.364c-15.732 7.907-17.864 30.451-14.765 45.703.874 4.299 3.615 14.78 7.214 17.561 6.662 5.149 13.615-1.102 20.927-5.548 6.558-3.987 12.773-9.705 20.069-12.258 8.428-2.949 13.921 2.295 20.341.546 5.539-1.509 10.501-8.997 17.555-10.578 7.297-1.635 14.847.455 22.126-1.035.359-23.14-9.616-39.862-34.387-39.965-11.177-.046-19.942 6.938-30.097 7.551-10.793.652-18.86-7.234-30.18-.914-1.14-.084.746.305 1.197-1.063z" fill="#23286b"/><path d="M194.709 59.967c-1.075-2.964-.039-6.943.963-10.793.53-2.035 1.031-3.958 1.16-5.554.222-2.728.109-5.638 0-8.452l-.011-.278c-.644-16.636-16.439-33.085-32.503-33.849-7.582-.349-15.188 1.582-21.992 5.613-1.011.599-2.206 1.401-3.59 2.332-5.958 4.007-14.119 9.493-19.591 6.703l.454-.891c4.951 2.522 12.828-2.775 18.58-6.643 1.396-.938 2.602-1.749 3.638-2.363 6.974-4.131 14.771-6.116 22.549-5.75C180.9.828 197.158 17.744 197.82 34.85l.011.278c.11 2.844.224 5.785-.002 8.571-.137 1.684-.648 3.647-1.189 5.726-.963 3.701-1.959 7.528-.99 10.199z" fill="#23286b"/></svg></g><g transform="translate(99.0 373.0) rotate(0.0 198.5 129.5) scale(4.7664785688558045 4.7636564281773035)"><svg width="83.29" height="54.37" viewBox="0 0 83.29 54.37"><path d="M0 0v54.37h12V16.499h59.291V54.37H83.29V0z" fill="#d6d7d8"/></svg></g><g transform="translate(114.0 271.0) rotate(0.0 16.5 51.0) scale(1.379310344827586 1.3826946278246959)"><svg width="23.925" height="73.769" viewBox="0 0 23.925 73.769"><linearGradient id="k" gradientUnits="userSpaceOnUse" x1="0" x2="23.925" y1="43.464" y2="43.464"><stop offset="0" stop-color="#a1c3fc"/><stop offset="1" stop-color="#78a9ef"/></linearGradient><path d="M6.579 0h10.766v25.52H6.579z" fill="#eee"/><path d="M0 13.159h23.925v60.61H0z" fill="url(#k)"/><path d="M10.866 3.19h4.785v4.785h-4.785z" fill="#23286b"/></svg></g><g transform="translate(901.0 135.0) rotate(0.0 134.0 128.0) scale(1.6061272556199473 1.6130963257950486)"><svg width="166.861" height="158.701" viewBox="0 0 166.861 158.701"><linearGradient id="l" gradientUnits="userSpaceOnUse" x1="0" x2="166.861" y1="15.395" y2="15.395"><stop offset="0" stop-color="#eee"/><stop offset="1" stop-color="#d6d7d8"/></linearGradient><path d="M45.788 8.393h75.783v119.464H45.788z" fill="#89b3f4"/><path d="M0 10.338h166.861v10.115H0z" fill="url(#l)"/><path d="M108.465 158.701H31.61V11.841C31.61 5.301 36.911 0 43.451 0h68.139c5.512 0 9.981 4.469 9.981 9.981l-2.233-.012c-5.996-.031-10.873 4.821-10.873 10.817z" fill="#a1c3fc"/></svg></g><g transform="translate(176.0 154.0) rotate(0.0 119.5 110.5) scale(1.5341065915232588 1.537808518485015)"><svg width="155.791" height="143.711" viewBox="0 0 155.791 143.711"><linearGradient id="m" gradientUnits="userSpaceOnUse" x1="0" x2="155.791" y1="116.332" y2="116.332"><stop offset="0" stop-color="#eee"/><stop offset="1" stop-color="#d6d7d8"/></linearGradient><g fill="#d6d7d8"><path d="M85.866 94.735h-9V14.912c0-3.26-2.652-5.912-5.912-5.912s-5.912 2.652-5.912 5.912V47.69h-9V14.912C56.043 6.689 62.732 0 70.955 0c8.222 0 14.912 6.689 14.912 14.912v79.823z"/><path d="M63.036 73.805h9v22.947h-9zm27.762 0h9v22.947h-9z"/></g><path d="M60.595 69.755h13.882V82.48H60.595z" fill="#428dfc"/><path d="M88.358 69.755h13.882V82.48H88.358z" fill="#e94a47"/><path d="M101.033 143.711H54.758C24.516 143.711 0 119.195 0 88.953h155.791c0 30.242-24.516 54.758-54.758 54.758z" fill="url(#m)"/></svg></g><g transform="translate(597.0 641.0) rotate(0.0 8.0 49.5) scale(0.8251676121712223 0.8640552995391706)"><svg width="19.39" height="114.576" viewBox="0 0 19.39 114.576"><linearGradient id="n" gradientUnits="userSpaceOnUse" x1=".033" x2="19.357" y1="85.218" y2="85.218"><stop offset="0" stop-color="#23286b"/><stop offset="1" stop-color="#151a4f"/></linearGradient><path d="M19.39 18.082 19.382 0 0 .04l.008 18.081 3.924 4.311.031 39.576 11.498-.013-.031-39.543z" fill="#d6d7d8"/><path d="M.033 55.859h19.325v58.717H.033z" fill="url(#n)"/></svg></g><g transform="translate(246.0 450.0) rotate(0.0 58.5 64.5) scale(1.0664187470946926 1.0637508349207134)"><svg width="109.713" height="121.269" viewBox="0 0 109.713 121.269"><linearGradient id="o" gradientUnits="userSpaceOnUse" x1="47.389" x2="47.389" y1=".73" y2="31.898"><stop offset="0" stop-color="#89b3f4"/><stop offset="1" stop-color="#78a9ef"/></linearGradient><path d="M49.576 121.269a4 4 0 0 1-4-4V51.034a4 4 0 0 1 4-4h52.137V20.768H53.686a4 4 0 0 1 0-8h52.027a4 4 0 0 1 4 4v34.266a4 4 0 0 1-4 4H53.576v62.235a4 4 0 0 1-4 4z" fill="#78a9ef"/><path d="M0 0h94.777v33.537H0z" fill="url(#o)"/></svg></g><g transform="translate(594.0 170.0) rotate(0.0 52.5 42.0) scale(0.7943352548681403 0.8032358931696262)"><svg width="132.186" height="104.577" viewBox="0 0 132.186 104.577"><linearGradient id="p" gradientUnits="userSpaceOnUse" x1="12.31" x2="122.485" y1="45.37" y2="45.37"><stop offset="0" stop-color="#e94a47"/><stop offset="1" stop-color="#d62929"/></linearGradient><path d="M122.485 33.179a58.246 58.246 0 0 0-2.178-4.196C104.355 1.296 68.979-8.217 41.293 7.736 13.606 23.688 4.094 59.064 20.046 86.75c.795 1.379 1.65 2.7 2.538 3.988z" fill="url(#p)"/><path d="M5.006 104.577a5 5 0 0 1-2.557-9.301L124.633 22.76a5 5 0 0 1 5.104 8.6L7.553 103.876a4.99 4.99 0 0 1-2.547.701z" fill="#e94a47"/></svg></g></svg>